<svg xmlns="http://www.w3.org/2000/svg" xmlns:xlink="http://www.w3.org/1999/xlink" viewBox="0 0 425.2 425.2"><defs><style>.cls-1{fill:none;}.cls-2{clip-path:url(#clip-path);}.cls-3{fill:#eee;}.cls-4{fill:#cdd0d5;}.cls-5{fill:#fff;}.cls-6{fill:#9aa2ab;}.cls-7{fill:#687381;}.cls-8{fill:#354457;}.cls-9{fill:#002339;}.cls-10{fill:#b9b9b9;}.cls-11{fill:#231f20;}.cls-12{fill:#464d67;}.cls-13{clip-path:url(#clip-path-2);}.cls-14{clip-path:url(#clip-path-3);}.cls-15{clip-path:url(#clip-path-4);}.cls-16{clip-path:url(#clip-path-6);}.cls-17{clip-path:url(#clip-path-7);}</style><clipPath id="clip-path"><rect class="cls-1" width="425.2" height="425.2"/></clipPath><clipPath id="clip-path-2"><rect class="cls-1" x="445.2" width="425.2" height="425.2"/></clipPath><clipPath id="clip-path-3"><rect class="cls-1" x="445.2" y="-452.08" width="425.2" height="425.2"/></clipPath><clipPath id="clip-path-4"><rect class="cls-1" y="445.2" width="425.2" height="425.2"/></clipPath><clipPath id="clip-path-6"><rect class="cls-1" x="445.2" y="445.2" width="425.2" height="425.2"/></clipPath><clipPath id="clip-path-7"><rect class="cls-1" x="890.4" y="445.2" width="425.2" height="425.2"/></clipPath></defs><title>1</title><g id="_1" data-name="1"><g class="cls-2"><rect class="cls-3" width="425.2" height="425.2"/><path class="cls-4" d="M450,367.19c38,15.31-45.4,24.48-237.4,22C98.28,387.68,36,379.33,36,367.19s84.42-41.5,198.72-44.26C450,317.71,438.74,362.65,450,367.19Z"/><g id="_Группа_" data-name="&lt;Группа&gt;"><path class="cls-5" d="M346.55,240.26v.11c-.37,16.25.36,35.57,1.45,58.13,2.17,44.67,7.17,40.17,7.17,40.17h70V355H288.67s0-.05-.05-.15c2-12.11.65-25.82.05-40.18-2-47.28-36.88-86.09-84.39-86.09a86,86,0,0,0-86,86c0,14.55.16,28.08,2.81,39.9-10.92-1.65-46.63-7.25-68.73-12.84-26.33-6.67-22-9.67-22-12,0-1.86,4-2.87,5.63-3.2,0,0,25.87,9,43.37-.3C89.86,320.55,90,294.67,90,294.67s-28-.67-40.5,2.5S37,307.33,37,307.33s-3,.67-4.33-1.66S33,298,34.67,289c1.42-7.71.41-26.18.09-33.83,0,0,11.74-10.17,10.74-6.17s-22.33,11,8.33,13.5,54-15,83.34-26S200.5,216,242,217.5c20.11.73,66.15-1.24,106.63-3.76A198.35,198.35,0,0,0,346.55,240.26Zm-23.72-19.09s-37.21-.17-37.08,1.21,7.75,12,11.5,11.95S322.83,221.17,322.83,221.17ZM95.58,339.75C114,340.5,90.25,330,84.25,330s-3.25,5-15,4.89a179.79,179.79,0,0,0-18.25.52C51.75,335.25,77.17,339,95.58,339.75Z"/><path class="cls-4" d="M425.2,336.4v2.27h-70s-5,4.5-7.17-40.17c-1.09-22.56-1.82-41.88-1.45-58.13.5,18,3.07,90.45,12.12,95C361.3,336.75,406,336.55,425.2,336.4Z"/><path class="cls-5" d="M425.2,320.33V336.4c-19.19.15-63.9.35-66.53-1-9.05-4.59-11.62-77-12.12-95v-.11a198.35,198.35,0,0,1,2.08-26.52c26.3-1.63,50.25-3.49,63.21-5,5.52.25,9.9.47,13.36.65v99.72a30,30,0,0,1-8.87,4.87c-9.66,3-54.66,6.33-54.66,6.33Z"/><path class="cls-4" d="M425.2,309.13v11.2H361.67s45-3.33,54.66-6.33A30,30,0,0,0,425.2,309.13Z"/><path class="cls-4" d="M425.2,202.35v7.06c-3.46-.18-7.84-.4-13.36-.65,8.27-1,12.07-1.76,9.16-2.26-9.69-1.67-30.32-2-45.33-4.13C396.16,202.19,413.88,202.26,425.2,202.35Z"/><path class="cls-5" d="M425.2,186v16.35c-11.32-.09-29-.16-49.53,0-7.45-1-13.52-2.55-16.17-4.87-6.38-5.58,2.11-14.4,5.82-17.75l.06-.06,1.41-1.2.11-.09c16.37-13.7,45.52-29.41,58.3-36v6.23c-4.92,2.24-12,5.58-19.32,9.37A179.15,179.15,0,0,0,385,170.33c-16,11.5,5.14,7.34,5.14,7.34s6.08-12.8,16.51-18.29a21.7,21.7,0,0,1,3.68-1.55,61.07,61.07,0,0,1,14.87-2.69v24.75L367.83,186Z"/><polygon class="cls-4" points="425.2 179.89 425.2 186 367.83 186 425.2 179.89"/><path class="cls-6" d="M425.2,148.61v6.53a61.07,61.07,0,0,0-14.87,2.69,21.7,21.7,0,0,0-3.68,1.55l-.77-1.4C413.18,154.19,420.28,150.85,425.2,148.61Z"/><path class="cls-5" d="M164.07,220c3.14-.44,109.84-15.44,186-13.7q-.84,3.53-1.44,7.46c-40.48,2.52-86.52,4.49-106.63,3.76-41.5-1.51-75.5,8-104.83,19S84.5,265,53.83,262.5,44.5,253,45.5,249s-10.74,6.17-10.74,6.17c-.06-1.29-.09-2.27-.09-2.84,0-4,7-8.33,26-20,11.18-6.86,31-15.23,52.88-22.52l.07,0c1.37-.34,23.94-6,62.21-11.29,39.5-5.5,85.53-5,104-6.33C305,190.33,320,175.57,320,175.57A143,143,0,0,0,342.5,172c23.27-5.77,67.75-33.08,82.7-42.52v12.9c-12.78,6.61-41.93,22.32-58.3,36l-.11.09c-.21.17-.72.59-1.41,1.2l-.06.06a46.82,46.82,0,0,0-7.88,8.42A50.13,50.13,0,0,0,351,202.71c-23.68.44-48.9,1.28-71.17,2.79C215.11,209.9,166.17,219.56,164.07,220Zm-55.4,20.19c21-9.67,31.5-19.34,31.5-19.34s-25.41-3.19-50.17,2.84C67.17,229.23,53.29,242,51.26,243.92l-.26.25,2.19,7.08,3.05-.2c3-.21,7.64-.55,10.76-.86,5-.5,6.06-.63,6.06-.63L74.17,253S87.67,249.83,108.67,240.17Z"/><path class="cls-6" d="M425.2,115v14.51c-14.95,9.44-59.43,36.75-82.7,42.52a143,143,0,0,1-22.5,3.57,185.57,185.57,0,0,1-35.26-.46,4.54,4.54,0,0,0,2.26-.44s30.67-13,62.67-27.34C376.71,135.22,414.23,119.54,425.2,115Z"/><path class="cls-4" d="M421,206.5c2.91.5-.89,1.31-9.16,2.26-11.95-.55-29.28-1.29-54.4-2.26-2.42-.09-4.88-.17-7.37-.22.29-1.23.59-2.42.93-3.57,8.49-.16,16.79-.27,24.67-.34C390.68,204.5,411.31,204.83,421,206.5Z"/><path class="cls-6" d="M405.88,158l.77,1.4c-10.43,5.49-16.51,18.29-16.51,18.29S369,181.83,385,170.33A179.15,179.15,0,0,1,405.88,158Z"/><path class="cls-5" d="M359.5,197.5c2.65,2.32,8.72,3.82,16.17,4.87-7.88.07-16.18.18-24.67.34a50.13,50.13,0,0,1,6.44-14.54,46.82,46.82,0,0,1,7.88-8.42C361.61,183.1,353.12,191.92,359.5,197.5Z"/><path class="cls-5" d="M357.44,206.5c25.12,1,42.45,1.71,54.4,2.26-13,1.49-36.91,3.35-63.21,5q.6-3.93,1.44-7.46C352.56,206.33,355,206.41,357.44,206.5Z"/><path class="cls-4" d="M351,202.71c-.34,1.15-.64,2.34-.93,3.57-76.16-1.74-182.86,13.26-186,13.7,2.1-.42,51-10.08,115.76-14.48C302.1,204,327.32,203.15,351,202.71Z"/><path class="cls-5" d="M285.75,222.38c-.13-1.38,37.08-1.21,37.08-1.21S301,234.25,297.25,234.33,285.88,223.75,285.75,222.38Z"/><path class="cls-5" d="M320,175.57s-15,14.76-40.17,16.6c-18.47,1.34-64.5.83-104,6.33-38.27,5.33-60.84,11-62.21,11.29A434.83,434.83,0,0,1,160,197c36.33-7.67,119.33-23.33,122.33-22.33a8.34,8.34,0,0,0,2.31.43h.1A185.57,185.57,0,0,0,320,175.57Z"/><path class="cls-7" d="M288.67,314.67c.6,14.36,2,28.07-.05,40.18-.55-1.59-5.6-15.65-13.62-16.53-8.49-.93-115.25-6.32-134.83.47s-19.11,15.72-19.11,15.72c-2.65-11.82-2.81-25.35-2.81-39.9a86,86,0,0,1,86-86C251.79,228.58,286.69,267.39,288.67,314.67Z"/><path class="cls-6" d="M140.17,220.83s-10.5,9.67-31.5,19.34S74.17,253,74.17,253l-1.11-3.44s-1.06.13-6.06.63c-3.12.31-7.74.65-10.76.86L56,249s23.17-1.67,34-6.4,20.67-15.43,20.67-15.43-9.34-.5-27.17,3.16A73,73,0,0,0,53.83,244l-2.57-.08c2-2,15.91-14.69,38.74-20.25C114.76,217.64,140.17,220.83,140.17,220.83Z"/><path class="cls-7" d="M65.84,239.08a34.61,34.61,0,0,0-4.16,1.54c-2.06.94-5.37,3.07-3.87,5s10-.12,10-.12a7.15,7.15,0,0,1-5.31-1.94C60.61,241.49,65.33,239.3,65.84,239.08Zm17.66-8.75c17.83-3.66,27.17-3.16,27.17-3.16S100.83,237.87,90,242.6,56,249,56,249l-2.17-5A73,73,0,0,1,83.5,230.33Zm19.31-1-8.69.94s1.38,1,.94,2.25-6.37,7.56-6.37,7.56a52.43,52.43,0,0,0,6.43-3.57C98.88,234.11,102.81,229.31,102.81,229.31Z"/><path class="cls-8" d="M94.12,230.25l8.69-.94s-3.93,4.8-7.69,7.18a52.43,52.43,0,0,1-6.43,3.57s5.93-6.31,6.37-7.56S94.12,230.25,94.12,230.25Z"/><path class="cls-4" d="M84.25,330c6,0,29.75,10.5,11.33,9.75s-43.83-4.5-44.58-4.34a179.79,179.79,0,0,1,18.25-.52C81,335,78.25,330,84.25,330Z"/><path class="cls-4" d="M90,294.67s-.14,25.88-10.67,31.5c-17.5,9.33-43.37.3-43.37.3.44-.1.71-.14.71-.14l.33-19s0-7,12.5-10.16S90,294.67,90,294.67ZM71.35,316.19c0-2.22,0-4.57-.07-6.81H66.73a43.5,43.5,0,0,1-1.55,6.81Zm0,1.93H64.6c-1.28,4.21-2.72,8.25-3,9-.66,1.59,8.59-.25,9.17-.5C71,326.49,71.22,322.8,71.32,318.12ZM48.05,307.44H71.19c-.27-5.12-.91-9.22-2.19-9C66.33,298.82,53.16,305,48.05,307.44Z"/><path class="cls-6" d="M71.28,309.38c.07,2.24.09,4.59.07,6.81H65.18a43.5,43.5,0,0,0,1.55-6.81Z"/><path class="cls-6" d="M64.6,318.12h6.72c-.1,4.68-.36,8.37-.57,8.46-.58.25-9.83,2.09-9.17.5C61.88,326.37,63.32,322.33,64.6,318.12Z"/><path class="cls-6" d="M71.19,307.44H48.05c5.11-2.44,18.28-8.62,21-9C70.28,298.22,70.92,302.32,71.19,307.44Z"/><path class="cls-5" d="M62.5,243.56a7.15,7.15,0,0,0,5.31,1.94s-8.5,2.06-10,.12,1.81-4.06,3.87-5a34.61,34.61,0,0,1,4.16-1.54C65.33,239.3,60.61,241.49,62.5,243.56Z"/><path class="cls-6" d="M56,249l.24,2.05-3.05.2L51,244.17l.26-.25,2.57.08Z"/></g><path class="cls-9" d="M429.33,356H287.48l.13-1.17c1.63-9.67,1.06-20.4.46-31.76-.15-2.76-.29-5.55-.41-8.37-2-48.53-37.88-85.12-83.39-85.12a85.13,85.13,0,0,0-85,85c0,14.9.21,28.17,2.78,39.68l.32,1.43-1.44-.22c-10.53-1.6-46.61-7.24-68.82-12.86-22.39-5.67-23.6-8.81-22.86-12.32a3.6,3.6,0,0,0,.1-.65c0-2.57,4.16-3.74,6.35-4.17l.3-17.07a4.63,4.63,0,0,1-4.18-2.26c-1.2-2.1-.47-5.64.73-11.51.36-1.74.76-3.68,1.15-5.83,1.27-6.84.56-22.6.18-31.07-.12-2.6-.2-4.48-.2-5.41,0-4.59,6.67-8.69,26.48-20.85s64.45-28,99.65-35.46c32.55-6.87,119.37-23.46,122.86-22.3,2.47.82,3.8.11,3.85.08l.11-.05c.31-.13,31-13.16,62.65-27.32l.41.91-.41-.91c31.65-14.18,78.23-33.48,78.69-33.68l1.38-.57Zm-139.56-2H427.33V115.17c-8,3.32-48.71,20.29-77.26,33.08h0C319,162.16,288.85,175,287.44,175.57c-.43.23-2.33,1.08-5.42,0-4-.67-84.49,14.49-121.81,22.36-35,7.39-79.43,23.18-99,35.21-17.52,10.76-25.52,15.67-25.52,19.15,0,.89.09,2.85.2,5.33.38,8.55,1.09,24.46-.22,31.52-.4,2.17-.8,4.12-1.16,5.87-1,5-1.78,8.67-1,10.12.94,1.65,3.16,1.2,3.25,1.19L38,306.1l0,1.25-.35,19.84-.83.13c-2.82.45-5.49,1.59-5.49,2.35a5.07,5.07,0,0,1-.14,1.06c-.32,1.51-.91,4.32,21.39,10,21.2,5.37,55.17,10.77,67.2,12.61-2.33-11.37-2.53-24.28-2.53-38.69a87.13,87.13,0,0,1,87-87c46.6,0,83.31,37.42,85.39,87,.12,2.81.26,5.59.41,8.35C290.66,334,291.21,344.43,289.77,354Z"/><path class="cls-9" d="M59.83,331.43a81.38,81.38,0,0,1-24.2-4l.66-1.89c.25.09,25.67,8.78,42.57-.24,8.75-4.67,10-24.91,10.11-29.64-5.09-.08-28.33-.27-39.23,2.49C38.26,301,38,307.09,38,307.35H36c0-.32.15-7.82,13.25-11.14C61.74,293,88.87,293.64,90,293.67l1,0v1c0,1.08-.27,26.55-11.2,32.38C73.63,330.34,66.52,331.43,59.83,331.43Z"/><path class="cls-9" d="M73.5,254.19l-1.14-3.54-5.26.54c-5,.5-13.76,1.06-13.85,1.07l-.79.05-2.6-8.41.42-.43c.14-.15,14.73-14.74,39.48-20.77s50.27-2.89,50.53-2.85l2.14.27-1.58,1.46c-.11.1-10.86,9.88-31.76,19.51S74.53,253.94,74.4,254Zm.27-5.71,1.07,3.33c3.34-.88,15.78-4.42,33.42-12.54,15.79-7.27,25.67-14.6,29.47-17.67-6.81-.6-27.48-1.83-47.48,3a88.67,88.67,0,0,0-38.1,19.82l1.77,5.74c2.27-.15,8.93-.6,13-1,5-.5,6-.62,6-.62Z"/><path class="cls-9" d="M304.74,177.17a174.66,174.66,0,0,1-20.23-1.07l.26-2c.29,0,29.76,3.79,57.49-3.08s86.85-45.23,87.44-45.62l1.09,1.68c-.6.39-60,38.92-88.06,45.88C329.33,176.3,315.53,177.17,304.74,177.17Z"/><path class="cls-9" d="M383.46,179.43c-2.45,0-4.64-.44-5.27-1.88-.81-1.87,1.11-4.34,6.23-8,15.91-11.43,46.71-24.64,47-24.77l.79,1.84c-.17.07-10.17,4.36-21.65,10.13a59.6,59.6,0,0,1,23.4-2.37l-.27,2a58.76,58.76,0,0,0-23.06,2.46c-12.11,3.82-19.52,19.15-19.59,19.31l-.22.45-.49.1A38.11,38.11,0,0,1,383.46,179.43Zm18.65-18.31a158,158,0,0,0-16.52,10c-6,4.33-5.56,5.59-5.56,5.6.37.86,4.89.87,9.44,0C390.5,174.73,394.92,166.6,402.11,161.11Z"/><polygon class="cls-9" points="367.94 187 367.73 185.01 433 178.06 433 186 431 186 431 180.28 367.94 187"/><path class="cls-9" d="M287.72,355.31c0-.15-5.06-15.15-12.82-16-8.23-.9-114.88-6.35-134.4.42-18.46,6.4-18.44,14.65-18.44,14.73l-2,.09c0-.4-.28-9.75,19.78-16.71,19.77-6.86,127-1.43,135.27-.52,9,1,14.29,16.69,14.5,17.36Z"/><path class="cls-6" d="M201.92,233.33A77.92,77.92,0,1,1,124,311.25,77.92,77.92,0,0,1,201.92,233.33Zm64.75,77.92A64.75,64.75,0,1,0,201.92,376,64.75,64.75,0,0,0,266.67,311.25Z"/><path class="cls-10" d="M257.94,313.46a55.38,55.38,0,0,1-3.19,16.62c-6.27-2.42-24-9.06-35.58-11.47a18.82,18.82,0,0,0,.87-12.19l1.84-.52c.93,2.7,8.69,6.72,20.25,7.32C250,313.63,255.16,313.56,257.94,313.46Z"/><path class="cls-7" d="M257.33,319.89a56.68,56.68,0,0,0,.61-6.43c-2.78.1-8,.17-15.81-.24-11.56-.6-19.32-4.62-20.25-7.32a1.71,1.71,0,0,1-.08-.66c.24-2.13,24.33-8.2,33.73-10.49a56.24,56.24,0,0,1,1.8,25.14Z"/><path class="cls-10" d="M255.53,294.75c-.15-.5-.31-1-.48-1.49C255.22,293.75,255.38,294.25,255.53,294.75Z"/><path class="cls-10" d="M254.87,292.75c-.16-.47-.33-.94-.51-1.4C254.54,291.81,254.71,292.28,254.87,292.75Z"/><path class="cls-7" d="M254.75,330.08a56.55,56.55,0,0,0,2.58-10.19,55.77,55.77,0,0,1-13.68,28.81c-5.76-3.76-22.22-14.74-30.36-22.54a18.75,18.75,0,0,0,5.88-7.55C230.75,321,248.48,327.66,254.75,330.08Z"/><path class="cls-10" d="M254.34,291.27l-.56-1.4C254,290.33,254.16,290.8,254.34,291.27Z"/><path class="cls-10" d="M253,288c-.25-.54-.5-1.09-.77-1.62C252.45,286.89,252.71,287.43,253,288Z"/><path class="cls-10" d="M252.18,286.36c-.27-.54-.54-1.07-.83-1.6C251.64,285.29,251.92,285.82,252.18,286.36Z"/><path class="cls-10" d="M251.35,284.76c-.56-1-1.16-2.08-1.79-3.09C250.2,282.68,250.79,283.71,251.35,284.76Z"/><path class="cls-10" d="M201.92,246.5a64.75,64.75,0,1,1-64.75,64.75A64.75,64.75,0,0,1,201.92,246.5Zm55.41,73.39a56.24,56.24,0,0,0-1.8-25.14c-.15-.5-.31-1-.48-1.49l-.18-.51c-.16-.47-.33-.94-.51-1.4a.19.19,0,0,1,0-.08c-.18-.47-.37-.94-.56-1.4-.27-.63-.54-1.26-.83-1.89s-.5-1.09-.77-1.62-.54-1.07-.83-1.6c-.56-1-1.15-2.08-1.79-3.09A56.05,56.05,0,0,0,232.14,264l-.44-.27c-.45-.3-.92-.58-1.39-.85s-1.06-.62-1.6-.91-1.09-.59-1.64-.86-1.11-.55-1.67-.8a55.67,55.67,0,0,0-22.69-5.14h-.79l-1.45,0-.73,0c-.37,0-.75,0-1.12,0-.54,0-1.09.07-1.63.12a56.11,56.11,0,0,0-50.85,50,54.65,54.65,0,0,0-.31,5.89,56,56,0,0,0,24.42,46.28q.7.5,1.44,1l.07,0c.51.33,1,.65,1.54.95s1,.62,1.57.9,1,.55,1.52.81l.09,0c.53.28,1.08.55,1.63.8s1,.49,1.59.72l.07,0a55.53,55.53,0,0,0,21.64,4.54h.51c.59,0,1.17,0,1.75,0s1.15,0,1.72-.08,1.14-.07,1.71-.13,1.09-.1,1.63-.17h.09c1.12-.14,2.23-.31,3.33-.52.56-.09,1.1-.2,1.65-.33s1.09-.24,1.63-.38a55.46,55.46,0,0,0,17.23-7.53l0,0c.42-.27.83-.55,1.24-.84l.45-.31c.92-.65,1.81-1.33,2.69-2,.47-.38.94-.77,1.4-1.17s.91-.79,1.35-1.2.89-.82,1.32-1.25.87-.85,1.28-1.29l.09-.09c.39-.41.77-.82,1.14-1.24A55.77,55.77,0,0,0,257.33,319.89Z"/><path class="cls-10" d="M242.51,349.94l1.14-1.24C243.28,349.12,242.9,349.53,242.51,349.94Z"/><path class="cls-7" d="M232.14,264a56.05,56.05,0,0,1,17.42,17.66c-5.66,4.56-20.88,16.53-30.62,21.72a18.74,18.74,0,0,0-5.74-7.12c5.41-9.78,16.89-24.34,21.73-30.34C234,265.26,233.09,264.63,232.14,264Z"/><path class="cls-10" d="M242.42,350c-.41.44-.84.87-1.28,1.29C241.57,350.9,242,350.47,242.42,350Z"/><path class="cls-10" d="M239.82,352.57c.45-.41.89-.83,1.32-1.25C240.71,351.75,240.27,352.16,239.82,352.57Z"/><path class="cls-10" d="M238.47,353.77q.69-.59,1.35-1.2Q239.16,353.19,238.47,353.77Z"/><path class="cls-10" d="M237.07,354.94c.47-.38.94-.77,1.4-1.17C238,354.17,237.54,354.56,237.07,354.94Z"/><path class="cls-10" d="M234.38,357c.92-.66,1.81-1.34,2.69-2C236.19,355.65,235.3,356.33,234.38,357Z"/><path class="cls-10" d="M232.69,358.13c.42-.27.83-.55,1.24-.84C233.52,357.58,233.11,357.86,232.69,358.13Z"/><path class="cls-10" d="M232.14,264c1,.62,1.88,1.25,2.79,1.92-4.84,6-16.32,20.56-21.73,30.34a18.61,18.61,0,0,0-9.72-3.7l.15-1.82c2.84,0,9.09-6.15,13.25-17,2.78-7.26,4.31-12.18,5.08-14.88,1.16.45,2.31.93,3.44,1.45.56.26,1.12.52,1.67.8s1.1.56,1.64.86l1.6.91,1.39.85Z"/><path class="cls-10" d="M231.7,263.74l-1.39-.85C230.78,263.16,231.25,263.44,231.7,263.74Z"/><path class="cls-10" d="M230.31,262.89l-1.6-.91C229.25,262.27,229.78,262.57,230.31,262.89Z"/><path class="cls-10" d="M228.71,262c-.54-.3-1.09-.58-1.64-.86C227.62,261.39,228.17,261.68,228.71,262Z"/><path class="cls-10" d="M227.07,261.12c-.55-.28-1.11-.54-1.67-.8C226,260.57,226.52,260.84,227.07,261.12Z"/><path class="cls-10" d="M220,306.42a17.66,17.66,0,0,0-1.1-3c9.74-5.19,25-17.16,30.62-21.72.63,1,1.23,2,1.79,3.09.29.53.56,1.06.83,1.6s.52,1.08.77,1.62.56,1.26.83,1.89l.56,1.4a.19.19,0,0,0,0,.08c.18.46.35.93.51,1.4l.18.51c.17.49.33,1,.48,1.49-9.4,2.29-33.49,8.36-33.73,10.49a1.71,1.71,0,0,0,.08.66Z"/><path class="cls-10" d="M220,306.42a18.82,18.82,0,0,1-.87,12.19c-5.23-1.1-9.2-1.33-10.29.08s.92,4.12,4.41,7.47A18.68,18.68,0,0,1,201.92,330c-.39,0-.77,0-1.16,0-.58-5.13-1.58-8.82-3.22-9.41s-3.64,2.14-5.74,6.49a19.33,19.33,0,0,1-2.49-1.91,18.79,18.79,0,0,1-5.25-8.16c4.62-2.12,7.75-4.19,7.8-5.91s-3.33-2.85-8.32-3.5a17.17,17.17,0,0,1,.81-2.87,18.81,18.81,0,0,1,7.13-9c3.44,3.73,6.37,6.07,8,5.58s1.68-3.9.82-8.68c.53,0,1.06-.07,1.6-.07s1,0,1.56.07a18.61,18.61,0,0,1,9.72,3.7c-2.33,4.22-3.53,7.54-2.59,8.92s4.14.43,8.33-1.8A17.66,17.66,0,0,1,220,306.42Zm-11.66,4.83a6.46,6.46,0,1,0-6.46,6.46A6.46,6.46,0,0,0,208.38,311.25Z"/><path class="cls-7" d="M232.66,358.15a55.46,55.46,0,0,1-17.23,7.53c-1-2.73-2.54-7.46-4.44-14.53-3.27-12.15-1.3-21.27,1.3-21.8C214.39,328.92,227.56,349.88,232.66,358.15Z"/><path class="cls-6" d="M213.2,296.27a18.74,18.74,0,0,1,5.74,7.12c-4.19,2.23-7.37,3.21-8.33,1.8S210.87,300.49,213.2,296.27Z"/><path class="cls-6" d="M219.17,318.61a18.75,18.75,0,0,1-5.88,7.55c-3.49-3.35-5.46-6.11-4.41-7.47S213.94,317.51,219.17,318.61Z"/><path class="cls-10" d="M215.43,365.68l-1.63.38q-.83.18-1.65.33c-1.1.2-2.21.37-3.33.52h-.09l-1.63.17c-.57,0-1.14.1-1.71.13s-1.14.06-1.72.08-1.16,0-1.75,0h-1c.37-7.1,1.17-25.84-.14-37.35.39,0,.77,0,1.16,0a18.62,18.62,0,0,0,8.13-1.85l2.24,1.2c-2.6.53-4.57,9.65-1.3,21.8C212.89,358.22,214.45,363,215.43,365.68Z"/><path class="cls-10" d="M213.8,366.06l1.63-.38C214.89,365.82,214.35,366,213.8,366.06Z"/><path class="cls-10" d="M212.15,366.39q.82-.15,1.65-.33C213.25,366.19,212.71,366.3,212.15,366.39Z"/><path class="cls-10" d="M232.66,358.15c-5.1-8.27-18.27-29.23-20.37-28.8l-2.24-1.2a18.53,18.53,0,0,0,3.24-2c8.14,7.8,24.6,18.78,30.36,22.54l-1.14,1.24-.09.09c-.42.44-.85.87-1.28,1.29s-.87.84-1.32,1.25-.89.81-1.35,1.2-.93.79-1.4,1.17c-.88.7-1.77,1.38-2.69,2l-.45.31c-.41.29-.82.57-1.24.84Z"/><path class="cls-10" d="M208.82,366.91c1.12-.15,2.23-.32,3.33-.52C211.05,366.6,209.94,366.77,208.82,366.91Z"/><path class="cls-10" d="M207.1,367.09l1.63-.17C208.19,367,207.65,367,207.1,367.09Z"/><path class="cls-10" d="M205.39,367.22c.57,0,1.14-.08,1.71-.13C206.53,367.15,206,367.19,205.39,367.22Z"/><path class="cls-6" d="M201.92,304.79a6.46,6.46,0,1,1-6.46,6.46A6.46,6.46,0,0,1,201.92,304.79Z"/><path class="cls-10" d="M203.67,367.3c.58,0,1.15,0,1.72-.08C204.82,367.26,204.25,367.29,203.67,367.3Z"/><path class="cls-7" d="M202.71,255.18a55.67,55.67,0,0,1,22.69,5.14c-1.13-.52-2.28-1-3.44-1.45-.77,2.7-2.3,7.62-5.08,14.88-4.16,10.85-10.41,17-13.25,17a1.57,1.57,0,0,1-.63-.13c-1.95-.88-.26-25.83.46-35.41Z"/><path class="cls-10" d="M200.32,292.57c-2-11-8.77-29.36-11.26-35.9a56,56,0,0,1,7.93-1.28c.54-.05,1.09-.09,1.63-.12l1.12,0c.24,0,.49,0,.73,0l1.45,0h.79l.75,0c-.72,9.58-2.41,34.53-.46,35.41a1.57,1.57,0,0,0,.63.13l-.15,1.82c-.52,0-1-.07-1.56-.07S200.85,292.52,200.32,292.57Z"/><path class="cls-7" d="M200.9,367.31h.51a55.53,55.53,0,0,1-21.64-4.54c1.83-6.75,7.15-25.64,12-35.74a18.6,18.6,0,0,0,9,2.92C202.07,341.47,201.27,360.21,200.9,367.31Z"/><path class="cls-10" d="M200.47,255.19c-.24,0-.49,0-.73,0Z"/><path class="cls-6" d="M200.32,292.57c.86,4.78.84,8.19-.82,8.68s-4.58-1.85-8-5.58A18.65,18.65,0,0,1,200.32,292.57Z"/><path class="cls-7" d="M189.06,256.67c2.49,6.54,9.25,24.87,11.26,35.9a18.65,18.65,0,0,0-8.84,3.1c-7.76-8.43-18.11-24-22.08-30.1a56.47,56.47,0,0,0-8.79,7.76A55.85,55.85,0,0,1,197,255.39,56,56,0,0,0,189.06,256.67Z"/><path class="cls-10" d="M199.74,255.22l-1.12,0C199,255.24,199.37,255.23,199.74,255.22Z"/><path class="cls-10" d="M198.62,255.27c-.54,0-1.09.07-1.63.12C197.53,255.34,198.08,255.3,198.62,255.27Z"/><path class="cls-6" d="M197.54,320.55c1.64.59,2.64,4.28,3.22,9.41a18.6,18.6,0,0,1-9-2.92C193.9,322.69,195.92,320,197.54,320.55Z"/><path class="cls-6" d="M183.54,307.56c5,.65,8.37,1.73,8.32,3.5s-3.18,3.79-7.8,5.91a18.66,18.66,0,0,1-.89-5.72A18,18,0,0,1,183.54,307.56Z"/><path class="cls-10" d="M189.31,325.13A19.33,19.33,0,0,0,191.8,327c-4.88,10.1-10.2,29-12,35.74l-.07,0q-.81-.34-1.59-.72c-.55-.25-1.1-.52-1.63-.8l-.09,0c-.51-.26-1-.53-1.52-.81s-1.05-.59-1.57-.9-1-.63-1.54-.95l-.07,0-1.44-1c-1-.68-2-1.4-2.91-2.14,6.27-7.39,22.17-26.44,21.12-28.3a2.35,2.35,0,0,0-1.64-1Z"/><path class="cls-10" d="M189.31,325.13l-2.49,1c-3.37-.75-11,1-19.5,6.46-6.32,4.1-10.38,7.11-12.64,8.87a55.93,55.93,0,0,1-6.08-12.8c7-1.89,25-6.92,35.46-11.69A18.79,18.79,0,0,0,189.31,325.13Z"/><path class="cls-10" d="M191.48,295.67a18.81,18.81,0,0,0-7.13,9l-1.33-.52c1.3-2.37-2.55-10.55-12-18.14-6.45-5.21-10.79-8.25-13-9.72.82-1,1.66-2,2.55-3a56.47,56.47,0,0,1,8.79-7.76C173.37,271.69,183.72,287.24,191.48,295.67Z"/><path class="cls-10" d="M184.35,304.69a17.17,17.17,0,0,0-.81,2.87c-11.29-1.47-30.84-.67-37.55-.34,0-.62.1-1.24.16-1.86a56.54,56.54,0,0,1,2.77-12.45c8.59,3.53,32.44,13.14,33.91,11.53a1.31,1.31,0,0,0,.19-.27Z"/><path class="cls-10" d="M178.11,362q.78.38,1.59.72Q178.89,362.41,178.11,362Z"/><path class="cls-10" d="M176.48,361.23c.53.28,1.08.55,1.63.8C177.56,361.78,177,361.51,176.48,361.23Z"/><path class="cls-10" d="M174.87,360.38c.5.28,1,.55,1.52.81C175.88,360.93,175.37,360.66,174.87,360.38Z"/><path class="cls-10" d="M173.3,359.48c.52.31,1,.61,1.57.9C174.34,360.1,173.82,359.79,173.3,359.48Z"/><path class="cls-10" d="M171.76,358.53c.51.32,1,.64,1.54.95C172.78,359.18,172.27,358.86,171.76,358.53Z"/><path class="cls-10" d="M170.25,357.53l1.44,1Q171,358,170.25,357.53Z"/><path class="cls-7" d="M154.68,341.46c2.26-1.76,6.32-4.77,12.64-8.87,8.47-5.51,16.13-7.21,19.5-6.46a2.35,2.35,0,0,1,1.64,1c1,1.86-14.85,20.91-21.12,28.3.95.74,1.92,1.46,2.91,2.14a56.08,56.08,0,0,1-21.66-28.87h0A55.93,55.93,0,0,0,154.68,341.46Z"/><path class="cls-7" d="M148.92,292.91a56.54,56.54,0,0,0-2.77,12.45h0a55.8,55.8,0,0,1,14.47-32c-.89,1-1.73,2-2.55,3,2.22,1.47,6.56,4.51,13,9.72,9.4,7.59,13.25,15.77,12,18.14a1.31,1.31,0,0,1-.19.27C181.36,306.05,157.51,296.44,148.92,292.91Z"/><path class="cls-7" d="M146,307.22c6.71-.33,26.26-1.13,37.55.34a18,18,0,0,0-.37,3.69,18.66,18.66,0,0,0,.89,5.72c-10.43,4.77-28.43,9.8-35.46,11.69h0a56,56,0,0,1-2.76-17.41,54.65,54.65,0,0,1,.31-5.89h0C146.09,306,146,306.6,146,307.22Z"/><path class="cls-11" d="M201.92,389.67a78.42,78.42,0,1,1,78.41-78.42A78.51,78.51,0,0,1,201.92,389.67Zm0-155.84a77.42,77.42,0,1,0,77.41,77.42A77.51,77.51,0,0,0,201.92,233.83Z"/><path class="cls-11" d="M201.92,376.5a65.25,65.25,0,1,1,65.25-65.25A65.32,65.32,0,0,1,201.92,376.5Zm0-129.5a64.25,64.25,0,1,0,64.25,64.25A64.32,64.32,0,0,0,201.92,247Z"/><path class="cls-11" d="M242.87,350.29l-.72-.69c.39-.41.76-.81,1.13-1.23a55.63,55.63,0,0,0,11.78-53.47c-.15-.5-.31-1-.47-1.47l.94-.33c.17.5.33,1,.49,1.51A56.6,56.6,0,0,1,244,349C243.65,349.46,243.27,349.87,242.87,350.29Z"/><path class="cls-11" d="M254.4,292.91c-.16-.46-.33-.93-.5-1.38l.93-.36c.18.47.36.94.52,1.42Z"/><path class="cls-11" d="M253.87,291.45c-.18-.47-.37-.93-.56-1.39l.92-.38c.19.46.38.94.56,1.41Z"/><path class="cls-11" d="M252.49,288.18c-.24-.54-.49-1.07-.76-1.59s-.54-1.06-.82-1.59c-.6-1.12-1.18-2.12-1.77-3.06a55.86,55.86,0,0,0-17.27-17.51l.54-.84A56.87,56.87,0,0,1,250,281.41c.61,1,1.2,2,1.81,3.12.29.53.58,1.07.84,1.62s.53,1.08.78,1.64Z"/><path class="cls-11" d="M231.42,264.16c-.44-.29-.9-.57-1.36-.83s-1.05-.62-1.59-.9-1.08-.58-1.62-.85-1.1-.55-1.65-.79a54.94,54.94,0,0,0-22.49-5.1v-1a55.92,55.92,0,0,1,22.89,5.19c.56.25,1.13.52,1.69.81s1.11.56,1.66.87,1.08.59,1.62.92.95.56,1.41.86Z"/><path class="cls-11" d="M171.42,358.92q-.74-.47-1.46-1a56.46,56.46,0,0,1-24.63-46.69A56.53,56.53,0,0,1,160.24,273a56.28,56.28,0,0,1,36.71-18.1c.54-.05,1.1-.09,1.65-.12.37,0,.76,0,1.13-.05l0,1c-.36,0-.73,0-1.09,0-.55,0-1.09.07-1.62.12a55.61,55.61,0,0,0-50.4,49.52,54.61,54.61,0,0,0-.31,5.84,55.46,55.46,0,0,0,24.2,45.87c.47.33.94.64,1.43,1Z"/><path class="cls-11" d="M176.16,361.64c-.52-.26-1-.54-1.54-.82s-1.05-.59-1.58-.91-1-.62-1.56-1l.54-.84c.5.32,1,.64,1.52.94s1,.62,1.55.89,1,.55,1.51.81Z"/><path class="cls-11" d="M179.5,363.21q-.82-.35-1.61-.73c-.55-.25-1.11-.52-1.65-.81l.47-.88c.52.28,1.06.54,1.6.79s1,.49,1.58.71Z"/><path class="cls-11" d="M201.41,367.82a55.84,55.84,0,0,1-21.83-4.58l.4-.92a54.83,54.83,0,0,0,21.45,4.5Z"/><path class="cls-11" d="M203.68,367.8l0-1c.57,0,1.13,0,1.69-.08s1.13-.07,1.69-.13,1.08-.1,1.62-.17l.13,1c-.55.07-1.09.12-1.65.17s-1.15.1-1.73.13S204.27,367.79,203.68,367.8Z"/><path class="cls-11" d="M208.88,367.41l-.12-1c1.17-.15,2.25-.31,3.3-.52.56-.09,1.09-.2,1.63-.33s1.09-.24,1.62-.38a54.85,54.85,0,0,0,17.08-7.46l.55.84a55.84,55.84,0,0,1-17.39,7.6c-.54.14-1.09.27-1.65.38s-1.1.24-1.67.33C211.17,367.09,210.08,367.26,208.88,367.41Z"/><path class="cls-11" d="M233,358.55l-.54-.84c.41-.27.82-.54,1.22-.83l.58.82C233.8,358,233.39,358.28,233,358.55Z"/><path class="cls-11" d="M234.67,357.39l-.58-.82c.87-.61,1.74-1.27,2.66-2,.47-.38.93-.76,1.39-1.16s.9-.78,1.34-1.19.88-.81,1.31-1.24.86-.84,1.27-1.28l.73.68c-.42.45-.85.88-1.3,1.31s-.87.84-1.33,1.26-.9.82-1.36,1.21-.93.79-1.41,1.18C236.44,356.09,235.55,356.77,234.67,357.39Z"/><path class="cls-11" d="M218.49,303.6a18.28,18.28,0,0,0-5.59-6.93l.6-.8a19.29,19.29,0,0,1,5.89,7.31Z"/><path class="cls-11" d="M191.76,296.09l-.56-.83a19.22,19.22,0,0,1,9.08-3.18l.08,1A18.22,18.22,0,0,0,191.76,296.09Z"/><path class="cls-11" d="M183.58,317.13a19.13,19.13,0,0,1-.91-5.87,18.48,18.48,0,0,1,.38-3.79l1,.21a17.5,17.5,0,0,0-.36,3.59,18.12,18.12,0,0,0,.87,5.57Z"/><path class="cls-11" d="M200.73,330.46a19.17,19.17,0,0,1-9.2-3l.54-.84a18.18,18.18,0,0,0,8.72,2.84Z"/><path class="cls-11" d="M213.59,326.56l-.61-.8a18.26,18.26,0,0,0,5.72-7.35l.92.39A19.27,19.27,0,0,1,213.59,326.56Z"/><path class="cls-11" d="M201.92,367.83l-1.55,0,0-.53c.39-7.44,1.15-26-.14-37.27-.82-7.22-2.16-8.73-2.89-9-.54-.19-2.12,0-5.12,6.24-4.79,9.92-10,28.24-12,35.65l-.16.6-.55-.28c-.58-.25-1.12-.49-1.65-.74s-1.11-.52-1.65-.81-1.11-.57-1.62-.86-1.06-.59-1.58-.91-1-.62-1.52-.94l-1.55-1c-.94-.64-1.9-1.35-2.94-2.16l-.41-.32.34-.4c15.85-18.69,21.25-26.64,21-27.77a2,2,0,0,0-1.3-.68c-3.44-.76-11.11,1.18-19.12,6.39-6.17,4-10.26,7-12.6,8.85l-.43.34-.3-.46a56.49,56.49,0,0,1-6.13-12.91l-.16-.5.51-.14c7.21-1.94,25.09-7,35.38-11.66,6.48-3,7.49-4.7,7.51-5.47s-1-2.09-7.88-3c-11-1.43-29.85-.71-37.46-.34l-.57,0,0-.57c.05-.62.1-1.25.16-1.87a57.13,57.13,0,0,1,2.79-12.56l.17-.5.49.2c23,9.45,32.35,12.17,33.38,11.63,0,0,.05-.07.08-.13,1-1.89-2.21-9.77-11.82-17.53-6.58-5.32-11-8.36-13-9.69l-.46-.3.34-.43c.88-1.09,1.72-2.08,2.57-3a57.12,57.12,0,0,1,8.87-7.83l.43-.3.28.44c3.15,4.85,14,21.35,22,30,4.83,5.24,6.78,5.66,7.51,5.44s1.66-1.52.47-8.11c-2-11.21-9.12-30.24-11.23-35.81l-.2-.53.56-.13a56.76,56.76,0,0,1,8-1.29c.54-.05,1.1-.09,1.65-.12l1.13-.05.48,0h.24l1.47,0,2.08.06,0,.52c-1.84,24.51-1.54,34.14-.72,34.94a1.23,1.23,0,0,0,.39.06c2.29,0,8.53-5.57,12.78-16.68,2.7-7.05,4.25-12,5.07-14.84l.15-.53.51.2c1.25.48,2.38,1,3.47,1.46.57.26,1.13.53,1.69.81s1.11.57,1.66.87l1.61.92,1.4.86.43.26c1.11.73,2,1.34,2.83,1.95l.42.31-.33.41c-4.72,5.86-16.29,20.53-21.68,30.27-3.25,5.88-3,7.78-2.61,8.4s1.71,1.22,7.68-2c10-5.32,25.9-17.93,30.54-21.67l.44-.35.3.48c.66,1.05,1.27,2.1,1.81,3.12.29.53.56,1.07.84,1.61s.46.94.68,1.42l.1.22c.28.61.55,1.23.81,1.84l.63,1.6c.19.48.35.93.5,1.38l.18.51c.17.5.33,1,.49,1.51l.15.5-.51.13c-23.82,5.8-32.86,9.07-33.36,10.1a1.46,1.46,0,0,0,.07.42c.85,2.46,8.39,6.37,19.8,7,7.56.4,12.75.35,15.77.24l.54,0,0,.54a55.88,55.88,0,0,1-3.22,16.77l-.17.48-.48-.19c-5.35-2.07-23.74-9-35.5-11.45-7.39-1.55-9.31-.73-9.79-.1-.35.45-.62,2,4.36,6.8,8.23,7.89,25.26,19.2,30.29,22.48l.49.32L244,349l-1.14,1.24-.09.1c-.42.44-.86.88-1.29,1.3s-.88.85-1.33,1.26-.9.82-1.36,1.21-.93.79-1.41,1.18c-1,.76-1.85,1.44-2.71,2.06l-.46.32c-.39.28-.79.55-1.2.81l-.44.43-.33-.54c-12.85-20.84-18.74-28.41-19.89-28.57a1.93,1.93,0,0,0-1,.94c-1.49,2.41-2.69,9.79.13,20.24,1.91,7.09,3.46,11.79,4.43,14.49l.19.52-.54.13-1.64.38q-.84.18-1.67.33c-1.06.19-2.15.36-3.35.52l0,0h-.05l-1.64.17c-.58.05-1.15.1-1.73.13s-1.14.06-1.73.08S202.52,367.83,201.92,367.83Zm-.49-1h.49l1.73,0c.57,0,1.14,0,1.7-.08s1.14-.08,1.7-.13l1.57-.16.2,0c1.12-.15,2.2-.32,3.24-.51q.82-.15,1.63-.33l1.08-.25c-1-2.78-2.47-7.36-4.27-14-2.59-9.62-2-17.86,0-21a2.74,2.74,0,0,1,1.69-1.4c.65-.13,2.63-.55,20.63,28.59l.83-.57.46-.32c.84-.6,1.71-1.26,2.66-2,.46-.37.93-.76,1.38-1.16s.9-.78,1.34-1.19.89-.83,1.31-1.24.85-.84,1.27-1.28a1.05,1.05,0,0,1,.15-.14l.68-.75c-5.58-3.66-21.9-14.57-29.94-22.28h0c-4.21-4-5.63-6.63-4.46-8.14s4.58-1.57,10.79-.26c11.51,2.4,29.26,9,35.18,11.31a54.82,54.82,0,0,0,3-15.45c-3.1.1-8.15.12-15.31-.26-11-.57-19.58-4.42-20.7-7.66a2.21,2.21,0,0,1-.1-.87c.08-.67.3-2.67,33.59-10.8-.1-.32-.21-.65-.32-1l-.18-.51c-.16-.47-.33-.93-.5-1.38l-.58-1.47c-.28-.66-.54-1.26-.82-1.87l-.1-.22c-.21-.46-.43-.93-.66-1.38s-.54-1.06-.82-1.59c-.45-.85-.95-1.71-1.48-2.59-5.15,4.14-20.49,16.21-30.26,21.42-5.06,2.69-7.91,3.21-9,1.64S210,301,212.76,296c5.3-9.59,16.52-23.88,21.45-30-.69-.5-1.45-1-2.34-1.6l-.42-.26-1.39-.85-1.59-.9c-.53-.3-1.08-.57-1.62-.85s-1.1-.53-1.65-.79c-.92-.42-1.87-.83-2.9-1.24-.86,3-2.39,7.72-4.94,14.39-4,10.36-10.3,17.32-13.72,17.32a2.07,2.07,0,0,1-.83-.17c-.6-.27-2.43-1.09.13-35.39l-1,0-1.4,0h-.28l-.46,0-1.13.05c-.53,0-1.08.07-1.61.12a55.74,55.74,0,0,0-7.31,1.14c2.34,6.18,9.08,24.49,11.08,35.45,1,5.77.67,8.71-1.17,9.25s-4.45-1.3-8.53-5.72c-7.65-8.31-17.62-23.23-21.85-29.73a56.14,56.14,0,0,0-8.29,7.39c-.72.79-1.44,1.62-2.18,2.53,2.2,1.48,6.43,4.47,12.59,9.44,9.61,7.76,13.51,16.16,12.07,18.77a1.77,1.77,0,0,1-.25.36c-.46.5-1.83,2-34-11.19a56.17,56.17,0,0,0-2.58,11.84c0,.42-.08.85-.11,1.28,8-.38,26.29-1,37.07.37,6,.79,8.81,2.06,8.76,4s-2.62,3.84-8.09,6.35c-10.12,4.63-27.49,9.54-35,11.58a55.5,55.5,0,0,0,5.57,11.72c2.42-1.86,6.4-4.77,12.24-8.56,8.62-5.61,16.35-7.31,19.88-6.53a2.81,2.81,0,0,1,2,1.2c.33.58,1.31,2.33-20.84,28.47.87.67,1.68,1.26,2.47,1.8l1.55,1,1.47.91c.51.31,1,.6,1.55.89s1,.55,1.51.8l.1,0c.52.28,1.06.54,1.6.79l1.12.52c2.12-7.77,7.2-25.51,11.91-35.27,2.53-5.25,4.55-7.39,6.36-6.74s2.86,3.75,3.55,9.82C202.52,341,201.82,359.05,201.43,366.82Z"/><path class="cls-11" d="M201.92,318.21a7,7,0,1,1,7-7A7,7,0,0,1,201.92,318.21Zm0-12.92a6,6,0,1,0,6,6A6,6,0,0,0,201.92,305.29Z"/><polygon class="cls-12" points="128.25 151.55 121.5 161.8 137 161.8 128.25 151.55"/><polygon class="cls-12" points="20.49 133.88 13.74 144.13 29.24 144.13 20.49 133.88"/><polygon class="cls-12" points="224.83 162.81 224.67 150.54 211.84 159.23 224.83 162.81"/><polygon class="cls-12" points="50.47 97.81 50.3 85.54 37.47 94.23 50.47 97.81"/><polygon class="cls-12" points="107.08 260.79 100.33 271.04 115.83 271.04 107.08 260.79"/><polygon class="cls-12" points="251.72 232.79 262.95 237.74 260.36 222.46 251.72 232.79"/><polygon class="cls-12" points="89.18 189.09 94.23 194.61 96.54 185.44 89.18 189.09"/><polygon class="cls-12" points="78.65 271.04 89.18 268.54 80.95 263.89 78.65 271.04"/><polygon class="cls-12" points="23.43 368.66 31.41 377.37 35.06 362.9 23.43 368.66"/><polygon class="cls-12" points="277.15 218.4 282.21 223.92 284.51 214.75 277.15 218.4"/><polygon class="cls-12" points="149.1 166.84 154.16 172.36 156.47 163.2 149.1 166.84"/><polygon class="cls-12" points="200.16 152.2 207.61 151.52 201.72 144.13 200.16 152.2"/><polygon class="cls-12" points="288.06 374.17 295.51 373.49 289.62 366.1 288.06 374.17"/><polygon class="cls-12" points="89.14 116.48 96.59 115.8 90.7 108.41 89.14 116.48"/><polygon class="cls-12" points="184.63 213.67 195.61 208.91 191.14 203.3 184.63 213.67"/><polygon class="cls-12" points="200.16 203.21 207.61 202.53 201.72 195.15 200.16 203.21"/><polygon class="cls-12" points="34.33 205.67 39 219.34 57.67 208.92 34.33 205.67"/><polygon class="cls-12" points="239.86 205.16 240.4 190.72 219.24 193.76 239.86 205.16"/><polygon class="cls-12" points="277.95 394.48 278.49 380.05 257.33 383.08 277.95 394.48"/><polygon class="cls-12" points="62.68 144.13 63.22 129.7 42.06 132.74 62.68 144.13"/><polygon class="cls-12" points="49.86 401.69 50.4 387.26 29.24 390.3 49.86 401.69"/><polygon class="cls-12" points="291.78 239.69 280.98 230.1 269.88 248.37 291.78 239.69"/><polygon class="cls-12" points="86.16 207.53 101.17 208.48 103.5 197.94 86.16 207.53"/><polygon class="cls-12" points="43.97 359.99 58.98 360.95 61.31 350.4 43.97 359.99"/><polygon class="cls-12" points="26.88 265.91 16.81 254.74 7.78 260.65 26.88 265.91"/><path class="cls-3" d="M7.33,188.22s13.38-33.58,58.33-21,58.5,32.15,58.5,32.15l-13.66,9.48,40.59,3.66V176.22L140.48,185s-38.14-26.61-73.81-28.76C12,152.9,7.33,188.22,7.33,188.22Z"/><path class="cls-3" d="M-53.28,352.34s20.79-4.63,58.36-19.7c40.83-16.38,66.46-39.47,66.46-39.47L58.85,282.69l37.69-4.05v40.09L85,307.44s-34.69,29.8-70.9,40.5C-35.83,362.69-53.28,352.34-53.28,352.34Z"/><path class="cls-3" d="M269.33,373.34s16.67-26.67,23-63.37c4.7-27.23,1-37,1-37l-14.77,3.3,18.33-29.67L326,269.23l-14.71,2a130.14,130.14,0,0,1-3,46C296.29,363.64,269.33,373.34,269.33,373.34Z"/><path class="cls-3" d="M70.19,149.34s23.16-17.6,55.56-3.59,48,29.86,48,29.86l-11.21,5.7,30,6.91L196.31,161l-8.86,5.46s-22-21.47-54.2-29.51C89.18,126,70.19,149.34,70.19,149.34Z"/><path class="cls-9" d="M5.33,184.22s13.38-33.58,58.33-21,58.5,32.15,58.5,32.15l-13.66,9.48,40.59,3.66V172.22L138.48,181s-38.14-26.61-73.81-28.76C10,148.9,5.33,184.22,5.33,184.22Z"/><path class="cls-9" d="M-53.28,348.34s20.79-4.63,58.36-19.7c40.83-16.38,66.46-39.47,66.46-39.47L58.85,278.69l37.69-4.05v40.09L85,303.43S29.5,350.5-7.5,372.5C-64,406.1-53.28,348.34-53.28,348.34Z"/><path class="cls-9" d="M273.33,369.34s16.67-26.67,23-63.37c4.7-27.23,1-37,1-37l-14.77,3.3,18.33-29.67L330,265.23l-14.71,2a130.14,130.14,0,0,1-3,46C300.29,359.64,273.33,369.34,273.33,369.34Z"/><path class="cls-9" d="M70.19,145.34s23.16-17.6,55.56-3.59,48,29.86,48,29.86l-11.21,5.7,30,6.91L196.31,157l-8.86,5.46s-22-21.47-54.2-29.51C89.18,122,70.19,145.34,70.19,145.34Z"/></g><circle class="cls-5" cx="356.48" cy="68.11" r="52.36"/><path class="cls-9" d="M356.48,124.3a56.19,56.19,0,1,1,56.19-56.19A56.26,56.26,0,0,1,356.48,124.3Zm0-104.72A48.52,48.52,0,1,0,405,68.11,48.58,48.58,0,0,0,356.48,19.58Z"/><path class="cls-9" d="M362.57,97.28a6.06,6.06,0,0,1-1.81,4.84,7.81,7.81,0,0,1-5.26,1.57,5.36,5.36,0,0,1-4.29-1.75,6.88,6.88,0,0,1-1.51-4.65q0-3.45,1.87-5a8.07,8.07,0,0,1,5.2-1.51,5.42,5.42,0,0,1,4.35,1.69A7.12,7.12,0,0,1,362.57,97.28ZM362,30.67a1.73,1.73,0,0,1,1,.3,1,1,0,0,1,.42.91v.3l-4.65,49.14a1.48,1.48,0,0,1-.27.88,1.26,1.26,0,0,1-.76.27l-2.78.18a1.13,1.13,0,0,1-.88-.15,1.47,1.47,0,0,1-.27-.88l-2.36-48.54v-.18q0-1.21,1.45-1.51,1-.18,2.33-.3l2.72-.21,2.45-.15Q361.48,30.67,362,30.67Z"/><path class="cls-9" d="M355.5,104.78a6.43,6.43,0,0,1-5.12-2.13,8,8,0,0,1-1.78-5.37c0-2.63.77-4.59,2.28-5.81a9.15,9.15,0,0,1,5.89-1.75A6.48,6.48,0,0,1,362,91.79a8.2,8.2,0,0,1,1.71,5.49,7.12,7.12,0,0,1-2.19,5.66A8.88,8.88,0,0,1,355.5,104.78Zm1.27-12.87a7.06,7.06,0,0,0-4.51,1.27c-1,.78-1.47,2.17-1.47,4.1a5.78,5.78,0,0,0,1.24,3.94,4.28,4.28,0,0,0,3.46,1.37,6.81,6.81,0,0,0,4.54-1.3,5,5,0,0,0,1.44-4,6.12,6.12,0,0,0-1.19-4.06A4.36,4.36,0,0,0,356.77,91.91Zm-2.09-8.14a1.92,1.92,0,0,1-1.38-.49,2.48,2.48,0,0,1-.59-1.55l-2.36-48.82a2.57,2.57,0,0,1,2.32-2.58q1-.2,2.45-.32t2.75-.21l2.46-.15c.75,0,1.3-.06,1.63-.06a2.81,2.81,0,0,1,1.66.51,2.14,2.14,0,0,1,.88,1.8v.41l-4.65,49.14a2.4,2.4,0,0,1-.59,1.55,2.26,2.26,0,0,1-1.41.59l-2.83.19Zm.28-1.9Zm2.66-.3ZM362,31.77c-.31,0-.81,0-1.51.06L358,32l-2.7.21c-.87.08-1.62.17-2.22.29s-.56.27-.56.43v.18l2.35,48.47,2.75-.18s0-.09,0-.16l4.65-49.09v-.25S362.22,31.77,362,31.77Z"/></g><g id="_2" data-name="2"><g class="cls-13"><rect class="cls-1" x="394.1" y="25" width="474.26" height="474.26"/></g><g class="cls-14"><rect class="cls-1" x="394.1" y="-427.07" width="474.26" height="474.26"/></g></g><g id="_5" data-name="5"><g class="cls-15"><g id="_Группа_2" data-name="&lt;Группа&gt;"><path class="cls-4" d="M-698.66,424.53c35.3-2.64,594.64-2.64,630,0C-29.48,427.46,27.27,540,27.27,540l-98.86-3.88s-13.69-62.68-32.31-76.31-82.24-15.74-124.36-7.93-35.24,84.24-35.24,84.24H-503.87s6.87-76.36-35.24-84.24-105.73-5.76-124.3,7.93-32.31,76.31-32.31,76.31L-794.64,540S-737.84,427.46-698.66,424.53Z"/><path class="cls-4" d="M-366.3,311.45C-228.9,311.63-95.09,325-55,329.54c112.61,12.75,99.86,12.75,128.29,33.31,5.58,4.05,14.45,14.92,25.08,29.9,43.53,61.33,116.84,191.67,116.84,205.07,0,16.62-70.49,8.81-202.66,6.81-111.61-1.64-684.34-1.64-795.95,0-132.17,2-202.66,9.81-202.66-6.81,0-13.39,73.25-143.51,116.84-204.89,10.63-15.1,19.56-26,25.14-30.08,28.37-20.56,15.68-20.56,128.23-33.31C-671.93,324.55-516.91,311.21-366.3,311.45ZM-68.66,424.53c-35.36-2.64-594.7-2.64-630,0-39.18,2.94-96,115.49-96,115.49l98.92-3.88s13.69-62.68,32.31-76.31,82.24-15.74,124.3-7.93,35.24,84.24,35.24,84.24H-263.5s-6.81-76.36,35.24-84.24,105.73-5.76,124.36,7.93,32.31,76.31,32.31,76.31L27.27,540S-29.48,427.46-68.66,424.53Z"/><path class="cls-5" d="M126,951.2s30.37,29.37,54.81,30.37,40.18,1.94,140-30.37S429.47,915,458.84,867s5.87-102.8-16.68-98.86-197.67,78.3-218.28,89.05C199.09,870.14,126,951.2,126,951.2Zm346.46,119.6c-19.27,12.34-49.58,29.25-86.06,41-57.39,18.5-116.48,36.71-147.79,57.51-14,9.28-25.85,35.36-34.66,61.44a561.71,561.71,0,0,0-17.27,64.62s203.66-67.08,251.65-88.64S495,1055,495,1055A272.75,272.75,0,0,1,472.41,1070.8ZM85.66,1350.64c-33-3.88-897.45-3.88-930.47,0s-103.56,19.62-91.81,32.31,291.77,33.31,414.13,32.31,199.25-.65,285.84,0c122.36,1,402.38-19.56,414.13-32.31S118.73,1354.58,85.66,1350.64ZM17.52,997.26c-91.75-22.91-354.92-24.79-397.15-25-34.31.12-305.87,1.59-399.32,25a175.17,175.17,0,0,0-48.23,20.44c-36.83,22.32-65.14,55.8-83.88,84.41-16.86,25.67-26,47.4-26.49,53.75-1.47,16.15,17.62,70.49,102.8,104.27,80.65,32,419.88,35,455.66,35.19,49.28-.35,373.77-4,452.43-35.19,85.18-33.78,104.27-88.11,102.8-104.27-.59-6.23-9.4-27.43-25.73-52.57-16.86-26-41.77-56.27-73.84-78.54C59,1012.53,39.25,1002.72,17.52,997.26Zm-1265.35,73.54c-14.39-9.22-22.62-15.8-22.62-15.8s8.81,130.23,56.8,151.73,251.59,88.64,251.59,88.64a561.71,561.71,0,0,0-17.27-64.62c-8.81-26.08-20.68-52.16-34.6-61.44-31.31-20.79-90.46-39-147.85-57.51C-1198.2,1100.05-1228.57,1083.08-1247.83,1070.8Zm135.75,333.48c-79.89-15.51-153.61-38.65-158.84-72.19-3.52-22.56-9.57-61-16-105.85-14.86-104.21-31.43-243.42-22.2-300.93,13.22-82.24,54.34-202.66,114.55-235.85s158.6-68.14,158.6-68.14-113.08,1.47-116-13.1,51.4-66.2,107.2-66.2c54,0,39.24,33,38.24,35.13l136.28-184.92,1,.7c-43.59,61.38-116.84,191.5-116.84,204.89,0,16.62,70.49,8.81,202.66,6.81,111.61-1.64,684.34-1.64,795.95,0,132.17,2,202.66,9.81,202.66-6.81,0-13.39-73.31-143.74-116.84-205.07l.7-.53L235,576.67C232.74,573,223.46,554,273.92,554c55.8,0,83.3,36.83,82.53,51.69-1.7,33.48-91.7,15.63-91.7,15.63s98.39,35,158.6,68.14S524.69,843.06,537.91,925.3c8.52,52.87-4.88,174.93-18.62,275.26-7.64,55.75-15.39,104.79-19.56,131.52-5.4,34.36-82.71,57.86-164.89,73.31-21.73,4.05-43.76,7.58-65,10.57-73.31,10.34-135.81,14.51-135.81,14.51s-32.31-7.34-85.18-7.34-162.95,15-271.68,17.62c-81.36,1.88-244.25,1.64-325.6,0-108.73-2.23-218.81-17.62-271.68-17.62s-85.18,7.34-85.18,7.34-60.68-4.05-132.64-14C-1062,1413-1087.29,1409-1112.08,1404.28Zm155.9-422.7c24.5-1,54.86-30.37,54.86-30.37s-75.42-88.11-97.92-94S-1195,772-1217.58,768.16s-46,50.87-16.62,98.86,38.18,51.87,138,84.18S-980.62,982.57-956.18,981.57Z"/></g><path class="cls-9" d="M166.19,609.21c-17,0-38.42-.64-64.37-1.41s-55.43-1.65-89.29-2.15c-111.58-1.65-684.34-1.65-795.92,0-33.86.5-63.31,1.38-89.29,2.15-66.84,2-103.67,3.08-112.32-5.32a6.36,6.36,0,0,1-2.06-4.69c0-9.17,31.16-66.88,60.47-116.52,29.9-50.63,67.11-108.54,81.9-119.25,3.31-2.4,6.08-4.53,8.52-6.41,19-14.6,20.51-15.79,120.21-27.06,41.87-4.73,194.51-18.12,345.8-18.12h3.85c145.81.22,285,15.13,311.41,18.12C44.79,339.82,46.34,341,65.31,355.61c2.44,1.88,5.21,4,8.52,6.41h0c14.79,10.71,52,68.62,81.9,119.25C185,530.92,216.2,588.63,216.2,597.79a6.36,6.36,0,0,1-2.06,4.69C208.84,607.62,193,609.21,166.19,609.21Zm-551.62-6.8c171.1,0,342.2.41,398,1.24,33.88.5,63.33,1.38,89.32,2.15C166,607.71,204.7,608.86,212.75,601a4.37,4.37,0,0,0,1.45-3.25c0-7.61-26.44-58.35-60.19-115.51C124.21,431.83,87.2,374.17,72.66,363.64c-3.33-2.41-6.11-4.55-8.57-6.44C45.53,342.91,44,341.74-55.12,330.54c-26.4-3-165.48-17.88-311.19-18.11-152.51-.22-307.23,13.33-349.43,18.11C-814.88,341.74-816.39,342.91-835,357.2c-2.45,1.89-5.23,4-8.57,6.44-14.54,10.53-51.56,68.19-81.35,118.65-33.75,57.16-60.19,107.9-60.19,115.51a4.37,4.37,0,0,0,1.45,3.25c8,7.81,46.75,6.66,110.87,4.75,26-.77,55.45-1.65,89.32-2.15C-727.63,602.82-556.53,602.41-385.43,602.41Z"/><path class="cls-9" d="M-377.91,1443.08c-64.12,0-128.83-.5-170.52-1.34-60.59-1.23-122.85-6.67-172.87-11-40.46-3.53-75.41-6.59-98.79-6.59-52.13,0-84.63,7.25-85,7.32l-.14,0h-.15c-.89-.06-89.56-6.05-178.53-21.12-119.84-20.3-183.11-46.58-188.06-78.11l-.64-4.07c-12.5-79.66-50.55-322.06-37.54-403,7.38-45.89,21.85-95.66,39.72-136.56,22-50.4,48.07-85,75.33-100,51.48-28.37,131.74-58.36,153.28-66.23-9.77,0-30.46-.07-51.15-1.12-58-2.94-59.55-10.37-60-12.81-.8-4,2.12-10.3,8.24-17.77C-1129,571.44-1088,541-1044.77,541c20.21,0,33.3,4.58,38.88,13.62,3.63,5.87,3.29,12.31,2.28,16.9L-871,391.61l1.61,1.19-136.35,185-1.7-1c.06-.12,5.72-11.72-.11-21.14-5.2-8.4-17.71-12.66-37.17-12.66-42.53,0-82.92,30-98.4,48.9-5.65,6.9-8.5,12.77-7.83,16.11,2,10,71.63,12.85,115,12.29l6-.08-5.69,2c-1,.35-99,35.3-158.45,68.07-26.87,14.81-52.62,49.06-74.46,99.05-17.8,40.75-32.23,90.34-39.58,136.08-13,80.65,25.05,322.82,37.54,402.4l.64,4.07c4.73,30.16,69.19,56.59,186.4,76.45,87.2,14.77,174.13,20.81,178.2,21.09,2.43-.53,34.66-7.33,85.25-7.33,23.47,0,58.45,3.06,99,6.59,50,4.37,112.21,9.8,172.74,11,79.4,1.61,242.35,2,325.6,0,59.76-1.41,118.75-6.5,170.79-11,41.35-3.56,77.07-6.64,100.91-6.64,50.59,0,82.82,6.8,85.25,7.33,4.06-.28,91-6.32,178.2-21.09,117.22-19.86,181.67-46.29,186.4-76.45l.64-4.06c12.49-79.58,50.51-321.76,37.55-402.42-7.35-45.73-21.78-95.33-39.58-136.08-21.84-50-47.59-84.24-74.46-99.05-59.45-32.77-157.47-67.72-158.45-68.07l.5-1.93c.65.11,65.6,10.58,85.16-4.95a13.09,13.09,0,0,0,5.37-9.75c.38-5.79-4.21-14.68-11.68-22.66-7.87-8.4-30.58-27.94-71.33-27.94-27.5,0-36,5.68-38.29,10.45-2.2,4.58.82,9.46,1.75,10.8l.29.39-1.58,1.22s-.19-.24-.41-.56l-136-184.51,1.61-1.19L231.44,570.15a10.29,10.29,0,0,1,.93-5.55c3.68-7.7,17.17-11.6,40.1-11.6,41.53,0,64.74,20,72.79,28.57s12.64,17.75,12.22,24.16a15.19,15.19,0,0,1-6.12,11.19c-15.82,12.56-58.21,9-77.28,6.68,25.66,9.45,100.79,37.93,149.81,65,27.26,15,53.31,49.61,75.33,100,17.87,40.89,32.35,90.67,39.72,136.56,13,81-25,323.38-37.54,403l-.64,4.06c-4.95,31.53-68.22,57.81-188.06,78.11-89,15.07-177.64,21.06-178.53,21.12H134l-.14,0c-.32-.07-32.82-7.32-85-7.32-23.75,0-59.43,3.07-100.74,6.63-52.07,4.49-111.1,9.57-170.92,11C-262.31,1442.67-319.87,1443.08-377.91,1443.08Z"/></g><g class="cls-15"><path class="cls-9" d="M232.44,687.88a9.74,9.74,0,0,1-6.08-1.91,12.33,12.33,0,0,1-5-10.08,17.53,17.53,0,0,1-14.18-3.75c-5.57-4.33-5.27-9.52-4.53-12.34a30.06,30.06,0,0,1-5.32,1.22c-4.67.52-11.14-1.81-14-10-2.23-6.45,5.71-19,11.5-28.24,1.75-2.78,3.43-5.44,4.13-6.93L176.16,635,166.73,649c.19,1,.12,2.8-.28,6.52-.43,4-2,7.15-4.67,9.12a11.27,11.27,0,0,1-8.5,2.06c-4.61-.84-9.15-15.74-9.15-19.65s12.9-33.16,18.8-36.85c2-1.26,7.57-6.12,13.46-11.26,10-8.7,21.24-18.56,25.09-19.84,6.25-2.08,76.48-14.88,83.15-16,4.29-.75,9.38-6.92,14.76-13.45a126.93,126.93,0,0,1,12.07-13.31c10.83-9.85,112-125.75,113-126.92l1.62-1.86,3.39,63.22,8.1,37.8-.4.39c-.33.32-32.79,31.77-41.54,39.37-9.08,7.88-55.13,57.32-65.71,70.54-6.08,7.6-11.72,16.24-16.26,23.18-3.45,5.29-6.44,9.85-8.75,12.67-3.05,3.72-7.17,4.67-12.88,6a79.81,79.81,0,0,0-18.29,6.09,143,143,0,0,0-22.19,13.61c-3.18,2.29-5.28,3.79-6.66,4.16-.58.15-1.44.49-2.42.88C239.83,686.39,236.09,687.88,232.44,687.88ZM223.76,673l-.32,1.72a10.33,10.33,0,0,0,4.12,9.63c4.07,3.11,10.14.71,14.15-.88a26.72,26.72,0,0,1,2.65-1c1-.27,3.22-1.85,6-3.85a144.76,144.76,0,0,1,22.49-13.78,81.55,81.55,0,0,1,18.71-6.24c5.52-1.27,9.16-2.1,11.78-5.3,2.24-2.73,5.2-7.26,8.62-12.49,4.56-7,10.23-15.65,16.37-23.33,10.61-13.26,56.84-62.88,66-70.8,8.19-7.1,37.3-35.27,41.06-38.91l-7.9-36.95-3.13-58.38C410.77,428,323.09,528.39,312.8,537.74a125.43,125.43,0,0,0-11.87,13.1C295.06,558,290,564.12,285,565c-9.1,1.58-77,14-82.85,16-3.47,1.16-15.08,11.3-24.41,19.45-6.21,5.42-11.57,10.11-13.71,11.45-4.9,3.07-17.86,31.13-17.86,35.15,0,4.28,4.74,17.18,7.51,17.68a9.37,9.37,0,0,0,6.94-1.69c2.21-1.65,3.51-4.25,3.88-7.73.16-1.46.25-2.57.3-3.4l-3.57,5.28,3-7.95a2.4,2.4,0,0,1,.69-1.07l9.88-14.56,24.85-20.88a25.29,25.29,0,0,0-.3-5.66l2-.38a25.2,25.2,0,0,1,0,8.73c-.28,1.35-1.9,4-4.73,8.45-4.95,7.85-13.22,21-11.31,26.52,3.23,9.32,11,8.76,11.87,8.67a35,35,0,0,0,6.83-1.78l2.52-.94-1.29,2.36c-.14.27-3.48,6.68,3.24,11.9,7,5.43,13.64,3.1,13.71,3.08Z"/></g></g><g id="_5-2" data-name="5"><g class="cls-16"><g id="_Группа_3" data-name="&lt;Группа&gt;"><path class="cls-4" d="M341.3,459.83c-18.62-13.69-82.24-15.74-124.36-7.93s-35.24,84.24-35.24,84.24H-58.67s6.87-76.36-35.24-84.24-105.73-5.76-124.36,7.93-32.31,76.31-32.31,76.31L-349.44,540s56.8-112.55,95.92-115.49c35.36-2.64,594.7-2.64,630.06,0C415.72,427.46,472.47,540,472.47,540l-98.86-3.88S359.92,473.46,341.3,459.83Z"/><path class="cls-4" d="M660.38,597.81c0,16.62-70.49,8.81-202.66,6.81-111.61-1.64-684.34-1.64-795.95,0-132.17,2-202.66,9.81-202.66-6.81,0-13.39,73.25-143.56,116.78-204.95,10.69-15,19.62-26,25.2-30,28.37-20.56,15.68-20.56,128.23-33.31,43.94-5,199-18.33,349.57-18.09,137.4.18,271.21,13.57,311.27,18.09,112.61,12.75,99.86,12.75,128.29,33.31,5.58,4.05,14.39,14.92,25,29.9C587.07,454.07,660.38,584.42,660.38,597.81ZM-93.92,451.9c42.12,7.87,35.24,84.24,35.24,84.24H181.7s-6.81-76.36,35.24-84.24,105.73-5.76,124.36,7.93,32.31,76.31,32.31,76.31L472.47,540s-56.74-112.55-95.92-115.49c-35.36-2.64-594.7-2.64-630.06,0C-292.64,427.46-349.44,540-349.44,540l98.86-3.88s13.75-62.68,32.31-76.31S-136,444.09-93.92,451.9Z"/><path class="cls-5" d="M-802.63,1070.8c-14.39-9.22-22.62-15.8-22.62-15.8s8.81,130.23,56.8,151.73,251.59,88.64,251.59,88.64a561.71,561.71,0,0,0-17.27-64.62c-8.81-26.08-20.62-52.16-34.6-61.44-31.37-20.79-90.46-39-147.85-57.51C-753,1100.05-783.37,1083.08-802.63,1070.8ZM-491.42,1383c11.75,12.75,291.77,33.31,414.13,32.31s199.25-.65,285.84,0c122.36,1,402.38-19.56,414.13-32.31s-58.74-28.37-91.81-32.31-897.45-3.88-930.47,0S-503.17,1370.26-491.42,1383Zm1323-271.15c-57.39,18.5-116.48,36.71-147.79,57.51-14,9.28-25.85,35.36-34.66,61.44a561.71,561.71,0,0,0-17.27,64.62s203.66-67.08,251.65-88.64S940.23,1055,940.23,1055a265.51,265.51,0,0,1-22.62,15.74C898.34,1083.14,868,1100.05,831.56,1111.8ZM780,1405.39c-21.73,4.05-43.82,7.58-65,10.57-73.31,10.34-135.81,14.51-135.81,14.51s-32.31-7.34-85.18-7.34-162.95,15-271.68,17.62c-81.36,1.88-244.25,1.64-325.6,0-108.73-2.23-218.81-17.62-271.68-17.62s-85.18,7.34-85.18,7.34-60.68-4.05-132.64-14c-24.14-3.41-49.46-7.4-74.19-12.22-79.89-15.45-153.61-38.59-158.84-72.13-3.52-22.56-9.57-61-16-105.85C-856.56,1122-873.12,982.81-863.9,925.3c13.22-82.24,54.34-202.66,114.55-235.85s158.6-68.14,158.6-68.14-113.08,1.47-116-13.1,51.4-66.2,107.2-66.2c54,0,39.24,33,38.24,35.13L-425,392.22l.94.65c-43.53,61.38-116.78,191.56-116.78,204.95,0,16.62,70.49,8.81,202.66,6.81,111.61-1.64,684.34-1.64,795.95,0,132.17,2,202.66,9.81,202.66-6.81,0-13.39-73.31-143.74-116.9-205.07h.06l.7-.53L680.18,576.67C677.95,573,668.67,554,719.12,554c55.8,0,83.3,36.83,82.53,51.69C800,639.17,710,621.31,710,621.31s98.39,35,158.6,68.14S969.89,843.06,983.11,925.3c8.52,52.87-4.88,174.93-18.62,275.26-7.64,55.75-15.39,104.79-19.56,131.52C939.52,1366.45,862.16,1389.94,780,1405.39ZM626,981.57c24.5,1,40.18,1.94,140-30.37S874.67,915,904,867s5.87-102.8-16.68-98.86-197.67,78.3-218.28,89.05c-24.79,12.92-97.92,94-97.92,94S601.52,980.57,626,981.57Zm-104.21,43.12c-17.56-12.16-37.3-22-59-27.43-91.75-22.91-354.92-24.79-397.15-25-34.31.12-305.87,1.59-399.32,25A175.17,175.17,0,0,0-382,1017.7c-36.83,22.32-65.14,55.8-83.88,84.41-16.8,25.67-25.91,47.4-26.49,53.75-1.47,16.15,17.62,70.49,102.8,104.27,80.65,32,419.88,35,455.66,35.19,49.28-.35,373.77-4,452.43-35.19,85.18-33.78,104.27-88.11,102.8-104.27-.53-6.23-9.34-27.43-25.73-52.57C578.73,1077.26,553.83,1047,521.75,1024.69ZM-511,981.57c24.5-1,54.81-30.37,54.81-30.37s-75.37-88.11-97.86-94S-749.88,772-772.38,768.16-818.38,819-789,867s38.18,51.87,138,84.18S-535.48,982.57-511,981.57Z"/></g><path class="cls-9" d="M611.39,609.21c-17,0-38.42-.64-64.37-1.41s-55.43-1.65-89.29-2.15c-111.58-1.65-684.34-1.65-795.92,0-33.86.5-63.31,1.38-89.29,2.15-66.84,2-103.67,3.08-112.32-5.32a6.36,6.36,0,0,1-2.06-4.69c0-9.17,31.16-66.88,60.47-116.52,29.9-50.63,67.11-108.54,81.9-119.25,3.31-2.4,6.08-4.53,8.52-6.41,19-14.6,20.51-15.79,120.21-27.06,41.87-4.73,194.51-18.12,345.8-18.12h3.85c145.81.22,285,15.13,311.41,18.12C490,339.82,491.54,341,510.51,355.61c2.44,1.88,5.21,4,8.52,6.41h0c14.79,10.71,52,68.62,81.9,119.25,29.31,49.64,60.47,107.35,60.47,116.52a6.36,6.36,0,0,1-2.06,4.69C654,607.62,638.2,609.21,611.39,609.21Zm-551.62-6.8c171.1,0,342.2.41,398,1.24,33.88.5,63.33,1.38,89.32,2.15,64.12,1.91,102.82,3.06,110.87-4.75a4.37,4.37,0,0,0,1.45-3.25c0-7.61-26.44-58.35-60.19-115.51-29.79-50.45-66.81-108.12-81.35-118.65-3.33-2.41-6.11-4.55-8.57-6.44-18.56-14.29-20.07-15.45-119.21-26.66-26.4-3-165.49-17.88-311.19-18.11-152.46-.21-307.23,13.33-349.43,18.11-99.14,11.21-100.65,12.37-119.21,26.66-2.45,1.89-5.23,4-8.57,6.44-14.54,10.53-51.56,68.19-81.35,118.65-33.75,57.16-60.19,107.9-60.19,115.51a4.37,4.37,0,0,0,1.45,3.25c8,7.81,46.75,6.66,110.87,4.75,26-.77,55.44-1.65,89.32-2.15C-282.43,602.82-111.33,602.41,59.77,602.41Z"/><path class="cls-9" d="M67.29,1443.08c-64.12,0-128.83-.5-170.52-1.34-60.59-1.23-122.85-6.67-172.87-11-40.46-3.53-75.41-6.59-98.79-6.59-52.13,0-84.63,7.25-85,7.32l-.14,0h-.15c-.89-.06-89.56-6.05-178.53-21.12-119.84-20.3-183.11-46.58-188.06-78.11l-.64-4.06c-12.5-79.66-50.56-322.08-37.54-403,7.38-45.89,21.85-95.66,39.72-136.56,22-50.4,48.07-85,75.33-100,51.48-28.37,131.74-58.36,153.28-66.23-9.77,0-30.46-.07-51.15-1.12-58-2.94-59.55-10.37-60-12.81-.8-4,2.12-10.3,8.24-17.77,15.71-19.19,56.73-49.64,99.94-49.64,20.21,0,33.3,4.58,38.88,13.62,3.63,5.87,3.29,12.31,2.28,16.9l132.57-179.9,1.61,1.19-136.35,185-1.7-1c.06-.12,5.72-11.72-.11-21.14-5.2-8.4-17.71-12.66-37.17-12.66-42.53,0-82.92,30-98.4,48.9-5.65,6.9-8.5,12.77-7.83,16.11,2,10,71.63,12.85,115,12.29l6-.08-5.69,2c-1,.35-99,35.3-158.45,68.07-26.87,14.81-52.62,49.06-74.46,99.05-17.8,40.75-32.23,90.34-39.58,136.08-13,80.65,25.05,322.83,37.55,402.42l.64,4.06c4.73,30.16,69.19,56.59,186.42,76.45,87.2,14.77,174.11,20.81,178.18,21.09,2.43-.53,34.66-7.33,85.25-7.33,23.47,0,58.45,3.06,99,6.59,50,4.37,112.21,9.8,172.74,11,79.4,1.61,242.35,2,325.6,0,59.76-1.41,118.75-6.5,170.79-11,41.35-3.56,77.07-6.64,100.91-6.64,50.59,0,82.82,6.8,85.25,7.33,4.06-.28,91-6.32,178.2-21.09,117.22-19.86,181.67-46.29,186.4-76.45l.64-4.07c12.49-79.58,50.51-321.75,37.54-402.4-7.35-45.73-21.78-95.33-39.58-136.08-21.84-50-47.59-84.24-74.46-99.05-59.45-32.77-157.47-67.72-158.45-68.07l.5-1.93c.65.11,65.6,10.58,85.16-4.95a13.09,13.09,0,0,0,5.37-9.75c.38-5.79-4.21-14.68-11.68-22.66-7.87-8.4-30.58-27.94-71.33-27.94-27.5,0-36,5.68-38.29,10.45-2.2,4.58.82,9.47,1.75,10.81l.29.39-1.58,1.22s-.19-.24-.42-.56l-136-184.51,1.61-1.19L676.64,570.15a10.29,10.29,0,0,1,.93-5.55c3.68-7.7,17.17-11.6,40.1-11.6,41.53,0,64.74,20,72.79,28.57s12.64,17.75,12.22,24.16a15.18,15.18,0,0,1-6.12,11.19c-15.82,12.56-58.21,9-77.28,6.68,25.66,9.45,100.79,37.93,149.8,65,27.26,15,53.31,49.61,75.33,100,17.87,40.89,32.35,90.67,39.72,136.56,13,81-25,323.37-37.54,403l-.64,4.07c-4.95,31.53-68.22,57.81-188.06,78.11-89,15.07-177.64,21.06-178.53,21.12h-.15l-.14,0c-.32-.07-32.82-7.32-85-7.32-23.75,0-59.43,3.07-100.74,6.63-52.07,4.49-111.1,9.57-170.92,11C182.89,1442.67,125.33,1443.08,67.29,1443.08Z"/></g></g><g id="_7" data-name="7"><g class="cls-17"><g id="_Группа_4" data-name="&lt;Группа&gt;"><path class="cls-5" d="M1362.81,1070.8c-19.27,12.34-49.58,29.25-86.06,41-57.39,18.5-116.48,36.71-147.79,57.51-14,9.28-25.85,35.36-34.66,61.44a561.71,561.71,0,0,0-17.27,64.62s203.66-67.08,251.65-88.64S1385.43,1055,1385.43,1055A272.75,272.75,0,0,1,1362.81,1070.8Zm-1720.24,0C-371.82,1061.58-380,1055-380,1055s8.81,130.23,56.8,151.73,251.59,88.64,251.59,88.64a561.71,561.71,0,0,0-17.27-64.62c-8.81-26.08-20.68-52.16-34.6-61.44-31.37-20.79-90.46-39-147.85-57.51C-307.79,1100.05-338.16,1083.08-357.43,1070.8Zm95.87-462.59c-2.94-14.57,51.4-66.2,107.2-66.2,54,0,39.24,33,38.24,35.13L20.16,392.22l1,.7C-22.43,454.31-95.68,584.42-95.68,597.81c0,16.62,70.49,8.81,202.66,6.81,111.61-1.64,684.34-1.64,795.95,0,132.17,2,202.66,9.81,202.66-6.81,0-13.39-73.31-143.74-116.84-205.07l.7-.53,135.93,184.45c-2.23-3.64-11.51-22.67,38.95-22.67,55.8,0,83.3,36.83,82.53,51.69-1.7,33.48-91.7,15.63-91.7,15.63s98.39,35,158.6,68.14,101.33,153.61,114.55,235.85c8.52,52.87-4.88,174.93-18.62,275.26-7.64,55.75-15.39,104.79-19.56,131.52-5.4,34.36-82.71,57.86-164.89,73.31-21.73,4.05-43.76,7.58-65,10.57-73.31,10.34-135.81,14.51-135.81,14.51s-32.31-7.34-85.18-7.34-162.95,15-271.68,17.62c-81.36,1.88-244.25,1.64-325.6,0-108.73-2.23-218.81-17.62-271.68-17.62s-85.18,7.34-85.18,7.34-60.68-4.05-132.64-14c-24.08-3.41-49.4-7.4-74.19-12.22-79.89-15.45-153.61-38.59-158.84-72.13-3.52-22.56-9.57-61-16-105.85C-411.36,1122-427.92,982.81-418.7,925.3c13.22-82.24,54.34-202.66,114.55-235.85s158.6-68.14,158.6-68.14S-258.63,622.78-261.56,608.21Zm772.86,687.1c49.28-.35,373.77-4,452.43-35.19,85.18-33.78,104.27-88.11,102.8-104.27-.59-6.23-9.4-27.43-25.73-52.57-16.86-26-41.77-56.27-73.84-78.6-17.56-12.16-37.3-22-59-27.43-91.75-22.91-354.92-24.79-397.15-25-34.31.12-305.87,1.59-399.32,25a175.17,175.17,0,0,0-48.23,20.44c-36.83,22.32-65.14,55.8-83.88,84.41-16.86,25.67-26,47.4-26.49,53.75-1.47,16.15,17.62,70.49,102.8,104.27C136.29,1292.08,475.52,1295.13,511.3,1295.31ZM1349.24,867c29.37-48,5.87-102.8-16.68-98.86s-197.67,78.3-218.28,89.05c-24.79,12.92-97.92,94-97.92,94s30.37,29.37,54.81,30.37,40.18,1.94,140-30.37S1319.87,915,1349.24,867ZM1067.87,1383c11.75-12.69-58.74-28.37-91.81-32.31s-897.45-3.88-930.47,0S-58,1370.26-46.22,1383s291.77,33.31,414.13,32.31,199.25-.65,285.84,0C776.1,1416.26,1056.12,1395.7,1067.87,1383ZM-65.78,981.57c24.5-1,54.81-30.37,54.81-30.37s-75.37-88.11-97.86-94S-304.68,772-327.18,768.16-373.17,819-343.8,867s38.18,51.87,138,84.18S-90.27,982.57-65.78,981.57Z"/><path class="cls-4" d="M917.67,540l-98.86-3.88s-13.69-62.68-32.31-76.31-82.24-15.74-124.36-7.93-35.24,84.24-35.24,84.24H386.53s6.87-76.36-35.24-84.24-105.73-5.76-124.36,7.93-32.31,76.31-32.31,76.31L95.76,540s56.8-112.55,95.92-115.49c35.36-2.64,594.7-2.64,630.06,0C860.93,427.46,917.67,540,917.67,540Z"/><path class="cls-4" d="M988.75,392.75c43.53,61.33,116.84,191.67,116.84,205.07,0,16.62-70.49,8.81-202.66,6.81C791.32,603,218.59,603,107,604.63c-132.17,2-202.66,9.81-202.66-6.81,0-13.39,73.25-143.51,116.84-204.89,10.63-15.1,19.56-26,25.14-30.08C74.67,342.29,62,342.29,174.53,329.54c43.94-5,199-18.33,349.57-18.09,137.4.18,271.21,13.57,311.27,18.09,112.61,12.75,99.86,12.75,128.29,33.31C969.25,366.9,978.12,377.77,988.75,392.75ZM818.81,536.14,917.67,540s-56.74-112.55-95.92-115.49c-35.36-2.64-594.7-2.64-630.06,0C152.56,427.46,95.76,540,95.76,540l98.86-3.88s13.75-62.68,32.31-76.31,82.24-15.74,124.36-7.93,35.24,84.24,35.24,84.24H626.9s-6.81-76.36,35.24-84.24,105.73-5.76,124.36,7.93S818.81,536.14,818.81,536.14Z"/></g><path class="cls-9" d="M1056.59,609.21c-17,0-38.42-.64-64.37-1.41s-55.43-1.65-89.29-2.15C791.35,604,218.59,604,107,605.65c-33.86.5-63.31,1.38-89.29,2.15-66.84,2-103.67,3.08-112.32-5.32a6.36,6.36,0,0,1-2.06-4.69c0-9.17,31.16-66.88,60.47-116.52C-6.3,430.64,30.92,372.73,45.71,362c3.31-2.4,6.08-4.53,8.52-6.41,19-14.6,20.51-15.79,120.21-27.06,41.87-4.73,194.51-18.12,345.8-18.12h3.85c145.81.22,285,15.13,311.41,18.12,99.69,11.27,101.24,12.46,120.21,27.06,2.44,1.88,5.21,4,8.52,6.41h0c14.79,10.71,52,68.62,81.9,119.25,29.32,49.64,60.47,107.35,60.47,116.52a6.36,6.36,0,0,1-2.06,4.69C1099.24,607.62,1083.4,609.21,1056.59,609.21ZM505,602.41c171.1,0,342.2.41,398,1.24,33.88.5,63.33,1.38,89.32,2.15,64.12,1.91,102.82,3.06,110.87-4.75a4.37,4.37,0,0,0,1.45-3.25c0-7.61-26.44-58.35-60.19-115.51-29.79-50.45-66.81-108.12-81.35-118.65-3.33-2.41-6.11-4.55-8.57-6.44-18.56-14.29-20.07-15.45-119.21-26.66-26.4-3-165.49-17.88-311.19-18.11-152.49-.22-307.23,13.33-349.43,18.11C75.52,341.74,74,342.91,55.45,357.2c-2.45,1.89-5.23,4-8.57,6.44C32.34,374.17-4.68,431.83-34.47,482.29c-33.75,57.16-60.19,107.9-60.19,115.51A4.37,4.37,0,0,0-93.21,601c8,7.81,46.75,6.66,110.87,4.75,26-.77,55.45-1.65,89.32-2.15C162.77,602.82,333.87,602.41,505,602.41Z"/><path class="cls-9" d="M512.49,1443.08c-64.12,0-128.83-.5-170.52-1.34-60.59-1.23-122.85-6.67-172.87-11-40.46-3.53-75.41-6.59-98.79-6.59-52.13,0-84.63,7.25-85,7.32l-.14,0h-.15c-.89-.06-89.56-6.05-178.53-21.12-119.84-20.3-183.11-46.58-188.06-78.11l-.64-4.07c-12.5-79.66-50.55-322.07-37.54-403,7.38-45.89,21.85-95.66,39.72-136.56,22-50.4,48.07-85,75.33-100,51.48-28.37,131.74-58.36,153.28-66.23-9.77,0-30.46-.07-51.15-1.12-58-2.94-59.55-10.37-60-12.81-.8-4,2.12-10.3,8.24-17.77,15.71-19.19,56.73-49.63,99.94-49.63,20.21,0,33.3,4.58,38.88,13.62,3.63,5.87,3.29,12.31,2.28,16.9L19.36,391.61,21,392.79l-136.35,185-1.7-1c.06-.12,5.72-11.72-.11-21.14-5.2-8.4-17.71-12.66-37.17-12.66-42.53,0-82.92,30-98.4,48.9-5.65,6.9-8.5,12.77-7.83,16.11,2,10,71.62,12.85,115,12.29l6-.08-5.69,2c-1,.35-99,35.3-158.45,68.07-26.87,14.81-52.62,49.06-74.46,99.05-17.8,40.75-32.23,90.34-39.58,136.08-13,80.65,25.05,322.82,37.54,402.4l.64,4.07c4.73,30.16,69.19,56.59,186.4,76.45,87.2,14.77,174.13,20.81,178.2,21.09,2.43-.53,34.66-7.33,85.25-7.33,23.47,0,58.45,3.06,99,6.59,50,4.37,112.21,9.8,172.74,11,79.4,1.61,242.35,2,325.6,0,59.76-1.41,118.75-6.5,170.79-11,41.35-3.56,77.07-6.64,100.91-6.64,50.59,0,82.82,6.8,85.25,7.33,4.06-.28,91-6.32,178.2-21.09,117.22-19.86,181.67-46.29,186.4-76.45l.64-4.07c12.49-79.58,50.51-321.75,37.54-402.4-7.35-45.73-21.78-95.33-39.58-136.08-21.84-50-47.59-84.24-74.46-99.05-59.45-32.77-157.47-67.72-158.46-68.07l.5-1.93c.65.11,65.6,10.58,85.16-4.95a13.09,13.09,0,0,0,5.37-9.75c.38-5.79-4.21-14.68-11.68-22.66-7.87-8.4-30.58-27.94-71.33-27.94-27.5,0-36,5.68-38.29,10.45-2.2,4.58.82,9.47,1.75,10.81l.29.39-1.58,1.22s-.19-.24-.42-.56l-136-184.51,1.61-1.19,131.57,178.54a10.29,10.29,0,0,1,.93-5.55c3.68-7.7,17.17-11.6,40.1-11.6,41.53,0,64.74,20,72.79,28.57s12.64,17.75,12.22,24.16a15.18,15.18,0,0,1-6.12,11.19c-15.82,12.56-58.21,9-77.28,6.68,25.66,9.45,100.79,37.93,149.81,65,27.26,15,53.31,49.61,75.33,100,17.87,40.89,32.35,90.67,39.72,136.56,13,81-25,323.37-37.54,403l-.64,4.07c-4.95,31.53-68.22,57.81-188.06,78.11-89,15.07-177.64,21.06-178.53,21.12h-.15l-.14,0c-.32-.07-32.82-7.32-85-7.32-23.75,0-59.43,3.07-100.74,6.63-52.08,4.49-111.1,9.57-170.92,11C628.09,1442.67,570.53,1443.08,512.49,1443.08Z"/></g></g><g id="Numbers"><path class="cls-9" d="M19.72,18.51h-.1l-5.28,2.74L13.28,16.3l7.15-3.7H26v31.2H19.72Z"/></g></svg>