<svg xmlns="http://www.w3.org/2000/svg" xmlns:xlink="http://www.w3.org/1999/xlink" viewBox="0 0 425.2 425.2"><defs><style>.cls-1{fill:none;}.cls-2{isolation:isolate;}.cls-3{clip-path:url(#clip-path);}.cls-4{fill:#cdd0d5;}.cls-5{clip-path:url(#clip-path-2);}.cls-6{fill:#eee;}.cls-7{fill:#687381;}.cls-8{fill:#fff;}.cls-9{fill:#9aa2ab;}.cls-10{fill:#b9b9b9;}.cls-11{fill:#002339;}.cls-12{mix-blend-mode:multiply;}.cls-13{clip-path:url(#clip-path-4);}.cls-14{clip-path:url(#clip-path-6);}.cls-15{clip-path:url(#clip-path-7);}.cls-16{clip-path:url(#clip-path-8);}</style><clipPath id="clip-path"><rect class="cls-1" x="-445.2" width="425.2" height="425.2"/></clipPath><clipPath id="clip-path-2"><rect class="cls-1" width="425.2" height="425.2"/></clipPath><clipPath id="clip-path-4"><rect class="cls-1" y="-452.08" width="425.2" height="425.2"/></clipPath><clipPath id="clip-path-6"><rect class="cls-1" x="-445.2" y="445.2" width="425.2" height="425.2"/></clipPath><clipPath id="clip-path-7"><rect class="cls-1" y="445.2" width="425.2" height="425.2"/></clipPath><clipPath id="clip-path-8"><rect class="cls-1" x="445.2" y="445.2" width="425.2" height="425.2"/></clipPath></defs><title>2</title><g class="cls-2"><g id="_1" data-name="1"><g class="cls-3"><path class="cls-4" d="M4.8,367.19c38,15.31-45.4,24.48-237.4,22-114.32-1.49-176.64-9.84-176.64-22s84.42-41.5,198.72-44.26C4.8,317.71-6.46,362.65,4.8,367.19Z"/></g></g><g id="_2" data-name="2"><g class="cls-5"><rect class="cls-6" width="425.2" height="425.2"/><g class="cls-5"><g id="_Группа_" data-name="&lt;Группа&gt;"><path class="cls-4" d="M425.2,421.88V451c-9.89.68-25.31,1.2-49.32,1.2-70.27,0-281.08-21.75-294.45-34.58s42.93-20.08,42.93-20.08c19,7,32.63,1.67,32.63,1.67s90.9,14.22,155.32,16.17S412.12,414,412.12,414s1.8,3.35,8,5.86Z"/><path class="cls-7" d="M425.2,407.31v14.57l-5.06-2c-6.21-2.51-8-5.86-8-5.86s-35.41,3.35-99.83,1.39S157,399.22,157,399.22s-13.66,5.3-32.63-1.67-23.27-16.31-23.27-16.31c9.5,2.8,21.46,5.89,36.37,9.61,49.08,12.27,143.61,17.85,196,18.4C371.28,409.66,407.77,408.17,425.2,407.31Z"/><path class="cls-8" d="M183.44,194.74a113.43,113.43,0,0,0-36.22,17.46c-17.29,12.83-7.06,19.34-7.06,19.34s7.62-14.69,19.33-23.24A128.53,128.53,0,0,1,183.44,194.74ZM314.55,286c1.38-.6,67.78-29.87,88.09-35,11-2.77,18.23-4.16,22.55-4.86v10.26c-4.17-.09-23.1.17-51.36,10.63-32.17,11.9-36.31,18.77-35.35,18.77s11.18,9.67,25.12,10.23c10.42.41,53.87-1,61.59-2.44V355c-2.79.47-11.89,2-21.73,4.15l-.13,0c-2.4.44-4.28.91-4.86,1.07l-.19,0c-8.18,1.89-16.22,4.07-21,6.27-12.83,5.86-24.26,26.49-18.13,27.61,3.46.62,24.33-.51,41.85-1.63,11.34-.74,21.28-1.44,24.2-1.66v16.41c-17.42.86-53.92,2.34-91.71,1.94-52.42-.56-147-6.13-196-18.4-14.91-3.73-26.87-6.82-36.37-9.61C79.33,374.84,70.44,370,68.31,362.41,65.24,351.53,70,351,71.37,346.23a35.66,35.66,0,0,0,.75-6.31s.93,3,2,6.87,3,9.11,6.69,10.6c1.87.75,2.94.18,4.21-.6A9.64,9.64,0,0,1,90.33,355c5.21-.18,19.52,13.21,25.46,13.38S109.3,345.12,105,340.1h0c-1.28-1.51-4.74-4.26-8.93-7.37-9.84-7.29-23.8-16.59-23.8-16.59a8,8,0,0,0-1.46-3.08c-1.39-1.67,0-28.72,2.23-34.86s4.18-7.25,9.76-14.95c3.09-4.27,5.84-11.48,10-19.37-.79,1.68-5.4,11.61-4.54,16.47.93,5.32,20.26,13.57,25.1,14.69s18.4-6.13,18.4-6.13-6.06-17.68-9.26-21.94c-4.6-6.13-19.41-18.65-19.41-18.65,1.06-1.24,2.19-2.47,3.38-3.66,13.66-13.66,39.32-18.4,72.22-29.84s56.33-19,56.33-19h-3.9c-3.9,0-10.88-4.46-5.58-10s20.08-11.43,24.26-10,3.07,6.13,3.07,6.13,55.21-45.45,90.63-55.49q1.2-.35,2.44-.67a160.91,160.91,0,0,0-27.54,14.05c-29.62,19.45-74.17,56.14-76.77,59.48s103.73,8.92,145.74,9.3c19.13.17,30.78.18,37.8.16v48.58c-11,3.75-46.11,15.93-69.4,25.92C328.63,274.92,315.22,285.45,314.55,286Zm58,77a221.09,221.09,0,0,1,25.75-9.67s-30,4.93-38.58,12.14S345,384.9,346.13,387.69,357.84,369.47,372.53,363Zm-19-23.06c.5-4.08-4.12-11.38-10.23-18.6A120.86,120.86,0,0,0,326,304.44a32.4,32.4,0,0,0-5.16-3.38c-9.48-4.65-44.81-13.75-90.17-18s-85.51-3.35-94.25-1.67a10.82,10.82,0,0,0-3.15,1.26c-3.07,1.74-6.7,5-10.16,8.71-7.06,7.57-13.44,17.14-13.14,20.14.5,5,6,28.63,24.77,35.51,17.49,6.4,148.35,19.33,175.5,18.4S352.45,349,353.57,339.91Zm-21.19,56,9.48-15.62s-53-1.12-124.64-7S126.4,359.9,126.4,359.9l3.26,13.66s31.79,9.76,91.46,14.5S332.37,395.87,332.37,395.87Z"/><path class="cls-7" d="M425.2,355v35.88c-2.92.22-12.86.93-24.2,1.66h0s18.52-4.06,19.06-8.49c.75-6.11-7.56-5.38-8.8-5.23,1.15-.19,8.22-1.54,8.85-6.76.55-4.58-6.35-3.83-7.07-3.74.69-.17,6.35-1.64,5-7.14-.91-3.81-9-3-14.6-2C413.31,357.05,422.41,355.49,425.2,355Z"/><path class="cls-4" d="M425.2,285.33v8.27C417.48,295,374,296.45,363.6,296c-13.94-.56-24.17-10.23-25.12-10.23s3.18-6.87,35.35-18.77c28.26-10.46,47.19-10.72,51.36-10.63v5.38c-2.71,0-12.14.38-34.45,6-27.33,6.87-45,13.94-44.62,16.35s11.47,5.47,15.62,6c10.43,1.33,22.61.52,42-.41C414.08,289.23,421,287.15,425.2,285.33Z"/><path class="cls-9" d="M409.56,278.73c.57-.52,9.83-9,10-11.32s-16.92,1.49-16.92,1.49,2.6,1.12,8.45,1.48C416.73,270.74,410.06,278.16,409.56,278.73Zm15.64-16.94v23.55c-4.21,1.82-11.12,3.89-21.44,4.38-19.41.94-31.59,1.74-42,.41-4.15-.52-15.24-3.57-15.62-6s17.29-9.48,44.62-16.35C413.06,262.17,422.49,261.75,425.2,261.79Z"/><path class="cls-4" d="M425.2,237.33v8.82c-4.33.7-11.56,2.1-22.55,4.86-20.31,5.11-86.71,34.38-88.09,35,.67-.55,14.08-11.08,41.25-22.74C379.09,253.26,414.24,241.08,425.2,237.33Z"/><path class="cls-9" d="M425.2,96.95v91.81c-7,0-18.67,0-37.8-.16-42-.38-148.35-6-145.74-9.3s47.15-40,76.77-59.48A160.91,160.91,0,0,1,346,105.76c35-9.35,79-8.81,79-8.81Z"/><path class="cls-9" d="M413,368.34c.73-.09,7.62-.85,7.07,3.74-.62,5.22-7.7,6.57-8.85,6.76,1.24-.15,9.55-.88,8.8,5.23-.55,4.43-19.06,8.49-19.06,8.49h0c-17.52,1.12-38.39,2.25-41.85,1.63-6.13-1.12,5.3-21.75,18.13-27.61,4.8-2.2,12.84-4.38,21-6.27l.19,0c1.62-.37,3.25-.73,4.86-1.07l.13,0c5.55-1,13.69-1.78,14.6,2C419.37,366.7,413.72,368.17,413,368.34Z"/><path class="cls-8" d="M402.64,268.9s17.1-3.9,16.92-1.49-9.44,10.8-10,11.32c.5-.57,7.17-8,1.54-8.34C405.24,270,402.64,268.9,402.64,268.9Z"/><path class="cls-4" d="M398.28,353.29A221.09,221.09,0,0,0,372.53,363c-14.69,6.5-25.29,27.52-26.4,24.73s5-15.06,13.57-22.26S398.28,353.29,398.28,353.29Z"/><path class="cls-7" d="M343.34,321.31c6.11,7.23,10.73,14.52,10.23,18.6-1.12,9.11-16.17,24.54-43.31,25.48s-158-12-175.5-18.4C116,340.1,110.49,316.49,110,311.47c-.3-3,6.08-12.57,13.14-20.14,0,0,3.75,16.81,13.34,20.68,23.06,9.29,41.95,13.45,82.29,18.09s80.56,2.89,102.54-2.6C337,323.58,343.34,321.31,343.34,321.31Zm-7.43,27.1c2.94-1.33,2.45-2.54,2.45-2.54a18.74,18.74,0,0,1-2.45,2.54c-4,1.83-14.59,3.86-41.83,3.21-47-1.12-112.48-7.43-132.17-11s-35.51-13.94-35.51-13.94,3.35,13,38.48,18.77,132.73,12.38,149.46,11.3C325.56,356.07,332.53,351.41,335.91,348.41Z"/><path class="cls-10" d="M341.85,380.25l-9.48,15.62s-51.59-3.07-111.26-7.81-91.46-14.5-91.46-14.5L126.4,359.9s19.15,7.53,90.81,13.38S341.85,380.25,341.85,380.25Z"/><path class="cls-10" d="M343.34,321.31s-6.32,2.28-22,6.19c-22,5.49-62.21,7.25-102.54,2.6s-59.24-8.8-82.29-18.09c-9.59-3.87-13.34-20.68-13.34-20.68,3.46-3.73,7.09-7,10.16-8.71h0s1.46,4.31,10.83,7.09c12.37,3.69,64.07,7.81,64.07,7.81l5.58,12.83,11.33-10.22s33.65,4.27,65.44,5.39S326,304.44,326,304.44A120.86,120.86,0,0,1,343.34,321.31Z"/><path class="cls-9" d="M335.91,348.41c-3.38,3-10.35,7.66-21.57,8.38-16.73,1.08-114.33-5.53-149.46-11.3s-38.48-18.77-38.48-18.77,15.81,10.41,35.51,13.94,85.14,9.85,132.17,11C321.32,352.27,331.86,350.24,335.91,348.41Z"/><path class="cls-4" d="M320.85,301.06a32.4,32.4,0,0,1,5.16,3.38s-3.68,2.2-35.47,1.08-65.44-5.39-65.44-5.39l-11.33,10.22-5.58-12.83s-51.7-4.12-64.07-7.81c-9.37-2.79-10.83-7.09-10.83-7.09h0a10.82,10.82,0,0,1,3.15-1.26c8.74-1.67,48.9-2.6,94.25,1.67S311.37,296.41,320.85,301.06ZM216,299.58l8.37-12.46L214,286Z"/><polygon class="cls-8" points="224.37 287.12 216.01 299.58 213.95 286 224.37 287.12"/><path class="cls-4" d="M183.44,194.74a128.53,128.53,0,0,0-23.95,13.55c-11.71,8.56-19.33,23.24-19.33,23.24s-10.23-6.51,7.06-19.34A113.43,113.43,0,0,1,183.44,194.74Z"/><path class="cls-4" d="M122.54,247c3.2,4.26,9.26,21.94,9.26,21.94s-13.57,7.25-18.4,6.13-24.17-9.37-25.1-14.69c-.86-4.86,3.75-14.79,4.54-16.47a.38.38,0,0,1,.07-.13.77.77,0,0,1,.06-.11,83,83,0,0,1,10.17-15.31S117.94,240.83,122.54,247ZM125,265.09s-1.81-12.83-9.34-20.91-13.53-11-13.53-11-11.12,14.79-10.45,18.58-.56,4.84,14.63,13.35S125,265.09,125,265.09Z"/><path class="cls-9" d="M102.55,239.88c-.58.31-5.19,3-6.36,7.92-1.26,5.3,7.81,11.43,7.81,11.43s-6.1-8.05-5.3-12.55A11.77,11.77,0,0,1,102.55,239.88Zm13.16,4.29c7.53,8.09,9.34,20.91,9.34,20.91s-3.48,8.5-18.68,0-14-9.57-14.63-13.35,10.45-18.58,10.45-18.58S108.18,236.09,115.71,244.18Z"/><path class="cls-4" d="M105,340.1c4.27,5,16.73,28.44,10.77,28.25S95.54,354.79,90.33,355a9.64,9.64,0,0,0-5.28,1.82s-6.8-30.44-1.78-28.21S104.5,339.81,105,340.09Z"/><path class="cls-9" d="M96.08,332.72c4.19,3.11,7.65,5.87,8.93,7.37-.51-.28-16.8-9.31-21.74-11.51s1.78,28.21,1.78,28.21c-1.26.78-2.33,1.35-4.21.6-3.71-1.48-5.58-6.69-6.69-10.6s-2-6.87-2-6.87c.52-8.81.37-22.69.37-22.69a8.34,8.34,0,0,0-.21-1.1S86.24,325.42,96.08,332.72Z"/><path class="cls-8" d="M102.55,239.88a11.77,11.77,0,0,0-3.85,6.8c-.8,4.5,5.3,12.55,5.3,12.55s-9.07-6.13-7.81-11.43C97.36,242.84,102,240.19,102.55,239.88Z"/></g></g><path class="cls-11" d="M418.63,188.64c-7.11,0-17.14,0-31.24-.17-20.05-.18-56.14-1.59-87.77-3.42-57.5-3.34-58.48-5.37-58.9-6.23a1.19,1.19,0,0,1,.14-1.25c2.75-3.53,31.47-27.66,61.92-49.28a232.73,232.73,0,0,1,45-25.15l.72,1.87a230.7,230.7,0,0,0-44.6,24.92C274,151.19,248.05,173,243.13,178c10.07,3,100.82,8,144.28,8.43,41.36.37,47.83,0,47.89,0l.12,2C435.26,188.49,432.49,188.64,418.63,188.64Z"/><path class="cls-11" d="M346.38,409.21q-6.41,0-12.9-.07c-51.44-.55-146.16-5.91-196.26-18.43-49.14-12.28-66.62-17.61-69.87-29.14-2.29-8.12-.34-11,1.38-13.53a11.18,11.18,0,0,0,1.69-3.19c1.07-3.63,1.17-20.29,1.08-28.65A8,8,0,0,0,70,312.58c-2-2.36,0-30.26,2.06-35.84,1.63-4.47,3.12-6.37,5.82-9.83,1.08-1.38,2.43-3.11,4.07-5.36A72,72,0,0,0,87.63,251c4-8.49,9-19.06,18.17-28.18,10.3-10.3,27.21-15.59,48.62-22.28,7.61-2.38,15.48-4.84,24-7.79,23.45-8.15,42.25-14.37,51-17.23-2.53-.59-5.29-2.34-6.31-4.73-.67-1.55-.9-4,1.76-6.78,5.43-5.72,20.56-11.88,25.3-10.3a5.5,5.5,0,0,1,3.86,4.9c9.69-7.77,57.57-45.29,89.25-54.27,35.15-10,81.25-9.52,81.71-9.52l0,2c-.46,0-46.28-.44-81.14,9.44s-89.71,54.85-90.26,55.3l-2.29,1.88.68-2.88c.09-.39.79-3.89-2.41-5-3.64-1.22-18.13,4.43-23.22,9.78-1.53,1.61-2,3.17-1.37,4.62.92,2.14,4,3.73,6.22,3.73h10.28l-6.07,2c-.23.08-23.79,7.66-56.31,19-8.53,3-16.42,5.43-24,7.81-21.15,6.61-37.85,11.83-47.8,21.79-8.88,8.88-13.81,19.28-17.78,27.63a73,73,0,0,1-5.82,10.84c-1.66,2.29-3,4-4.11,5.42-2.66,3.4-4,5.1-5.51,9.28-2.25,6.19-3.39,31.79-2.35,34A9.84,9.84,0,0,1,73.48,316c0,1.1.27,24.56-1.15,29.39a13,13,0,0,1-2,3.75c-1.62,2.39-3.15,4.65-1.11,11.87,2.95,10.46,21.11,15.91,68.43,27.74,49.94,12.48,144.45,17.83,195.8,18.37,51.79.55,101.77-2.48,102.26-2.51l.12,2C435.43,406.65,393.33,409.21,346.38,409.21Z"/><path class="cls-11" d="M368.28,296c-2,0-3.59,0-4.72-.07-11.28-.45-20.09-6.64-23.85-9.28-.59-.41-1.19-.84-1.42-1a1.1,1.1,0,0,1-.9-.9c-.43-2.43,8.82-9.71,36.1-19.8,32-11.83,52.45-10.67,52.65-10.66l-.13,2c-.2,0-20.27-1.14-51.83,10.54-26.05,9.64-32.88,15.64-34.43,17.37l1.12.77c3.62,2.54,12.09,8.49,22.78,8.92,12,.48,58.21-1.24,62.09-2.59l.66,1.89C422.23,294.67,383.87,296,368.28,296Zm-29.8-10.29h0Z"/><path class="cls-11" d="M114.52,275a6.07,6.07,0,0,1-1.36-.14c-3.78-.87-24.75-9.14-25.86-15.49-1-5.58,4.51-16.86,4.75-17.34l1.8.88c-.05.11-5.44,11.17-4.57,16.11.79,4.54,19.07,12.67,24.34,13.88,3.44.8,12.77-3.49,17-5.65-1.22-3.5-6.14-17.28-8.82-20.85-4.48-6-19.11-18.36-19.26-18.48l1.29-1.53c.61.51,14.95,12.66,19.57,18.81,3.25,4.33,9.15,21.48,9.4,22.21l.28.8-.75.4C131,269.37,120.17,275,114.52,275Z"/><path class="cls-11" d="M115.87,368.24h-.1c-3.29-.1-8.33-3.5-13.67-7.09-4.44-3-9.52-6.38-11.73-6.3a8.43,8.43,0,0,0-4.6,1.56c-1.41.87-2.86,1.76-5.29.79-4.07-1.63-6-6.87-7.28-11.25-1.1-3.85-2-6.81-2-6.84l1.91-.6s.94,3,2,6.89c1,3.64,2.8,8.62,6.1,9.94,1.5.6,2.21.16,3.5-.63a10.37,10.37,0,0,1,5.57-1.85c2.89-.1,7.55,3,12.92,6.64,4.64,3.12,9.9,6.66,12.61,6.75.32,0,.35-.08.41-.19,1.6-3.33-7.87-21.59-12-26.42-.76-.89-2.89-2.86-8.78-7.23-9.71-7.2-23.62-16.47-23.76-16.56l1.11-1.67c.14.09,14.1,9.39,23.84,16.62,4.92,3.65,7.9,6.11,9.11,7.54C108.94,342,120.39,362,118,366.92A2.28,2.28,0,0,1,115.87,368.24Z"/><path class="cls-11" d="M307.14,365.31c-32.83,0-155.85-12.33-172.72-18.51-21.63-7.92-25.4-36.06-25.43-36.35-.54-5.35,18-29.43,27.26-31.2,8.86-1.7,49.13-2.62,94.53,1.66,45.2,4.26,80.73,13.34,90.51,18.13s34.45,30.25,33.27,39.87c-1.28,10.45-17.38,25.42-44.27,26.35C309.36,365.3,308.3,365.31,307.14,365.31ZM166.58,279.83c-15,0-25.88.61-30,1.39-8.16,1.56-26.09,24.55-25.64,29,.57,5.67,6.34,28.15,24.13,34.67h0c17.37,6.36,148.06,19.26,175.11,18.34,27.58-.94,41.39-16.74,42.36-24.59,1-8-22.37-33-32.17-37.83-9.64-4.73-44.86-13.7-89.81-17.93C206.45,280.63,183.79,279.83,166.58,279.83Z"/><path class="cls-11" d="M263.77,333.42a432.36,432.36,0,0,1-49.09-2.76c-39.93-4.6-55.93-7.16-78.64-17.75a23.42,23.42,0,0,1-13.91-22.82l2,.22c-.06.58-1.38,14.18,12.77,20.78,22.44,10.47,38.33,13,78,17.58,41,4.73,79.36,2.6,99.73-.66,19.43-3.11,28.06-8.61,28.15-8.67l1.09,1.68c-.36.23-9.08,5.79-28.92,9C303,331.9,284.94,333.42,263.77,333.42Z"/><path class="cls-11" d="M213.41,310.91l-5.89-13.55c-6.08-.49-51.92-4.3-63.68-7.8-9.74-2.9-11.42-7.54-11.49-7.73l1.89-.64s1.54,3.89,10.17,6.46c12.13,3.61,63.35,7.73,63.86,7.77l.6,0,5.26,12.1,10.65-9.6.46.06c.34,0,34,4.28,65.35,5.38,30.27,1.06,34.79-.89,35-1l1,1.74c-.4.24-4.83,2.32-36,1.23-29.48-1-60.93-4.83-65.07-5.34Z"/><path class="cls-11" d="M215.4,301.15l-2.62-17.4,13.35,1.43ZM215.14,286l1.47,9.74,6-8.94Z"/><path class="cls-11" d="M309.65,356.79c-25.4,0-112-6-144.93-11.42-35.37-5.8-39.14-19-39.29-19.51l1.94-.5-1,.25,1-.26c0,.12,3.84,12.5,37.68,18,35.36,5.8,132.92,12.34,149.24,11.29,16.08-1,23.21-10.43,23.28-10.52l1.61,1.19c-.31.42-7.76,10.24-24.76,11.33C313.23,356.75,311.62,356.79,309.65,356.79Z"/><path class="cls-11" d="M332.92,395.79l-.6,0c-.52,0-52.28-3.12-111.28-7.81s-91.36-14.44-91.68-14.54l-.55-.17L125,357.16l1.78.7c.19.08,20,7.55,90.53,13.32,70.82,5.79,124.05,7,124.58,7l1.73,0ZM130.49,371.65c4.46,1.29,36,10,90.7,14.3,55.55,4.41,104.68,7.41,110.64,7.77l8.27-13.62c-9.71-.25-59.24-1.72-123-6.93-60.21-4.92-83.25-10.95-89.34-12.85Z"/><path class="cls-11" d="M363.06,394.25a28.44,28.44,0,0,1-4.1-.19,3,3,0,0,1-2.48-2.82c-.74-5.89,9.25-21.6,20.37-26.68,12.8-5.84,47.58-11.55,49.05-11.79l.32,2c-.36.06-36,5.9-48.54,11.63-10.89,5-19.8,19.93-19.22,24.61.11.85.47,1,.86,1.1,4.75.87,45.69-1.82,66.67-3.36l.15,2C423.94,390.89,378,394.25,363.06,394.25Z"/><rect class="cls-1" x="-51.1" y="25" width="474.26" height="474.26"/><path class="cls-10" d="M231.64,78.22A56.31,56.31,0,0,1,222,87.77c-5.91,4.55-5.46,2.58-14.86,0s-14.23-4.4-14.23-4.4L186,90.2s19,12,18.5,17.59-8.34,16.68-20,17.59c-10.78.84-46.9.52-52.37.46h-.7c-5.47.05-41.59.38-52.37-.46-11.68-.91-19.56-12-20-17.59S77.55,90.2,77.55,90.2l-6.84-6.82s-4.83,1.82-14.23,4.4-8.95,4.55-14.86,0a56.31,56.31,0,0,1-9.68-9.55S30.55,127.8,35.25,134s29.66,8.42,47.12,10.58c13.34,1.65,38.26,2.54,49.42,2.37,11.16.18,36.08-.72,49.42-2.37,17.46-2.16,42.42-4.36,47.12-10.58S231.64,78.22,231.64,78.22Zm-181.08,56c-8.53-1.52-9.7-2.16-13.12-5.8s-2.73-17.17-2.73-17.17,7.62,5.12,14.21,7.05,12.62,8.48,13.65,12.77S65,136.82,50.56,134.24Zm139,3.71c-3.49,1-112,1-115.45,0-4.09-1.21-3.42-6.87-3.4-6.87s17.06.8,36.91,1c11,.08,37.43.08,48.42,0,19.86-.15,36.9-1,36.91-1S193.61,136.75,189.51,138Zm36.62-9.51c-3.41,3.64-4.58,4.28-13.12,5.8-14.48,2.58-13,1.14-12-3.15s7.05-10.83,13.65-12.77,14.21-7.05,14.21-7.05S229.54,124.81,226.13,128.45Z"/><path class="cls-10" d="M169.54,26.89c-21.37,2.12-32.06,2.38-32.06,2.38h-9.56S117.23,29,95.85,26.89,63.23,21.4,63.23,21.4,70.54,67,76.17,78.22s6.75,7.3,16.87,8.43c9.13,1,34.71.2,39.66,0,4.95.17,30.53,1,39.66,0,10.12-1.12,11.25,2.81,16.87-8.43S202.16,21.4,202.16,21.4,190.92,24.77,169.54,26.89Z"/><path class="cls-10" d="M52,18s4.5,21.31,11.25,39.06L70,74.86s-12.37,0-20.81-2.81S38.48,70.92,36.79,61.36,52,18,52,18Z"/><path class="cls-10" d="M213.33,18s-4.5,21.31-11.25,39.06l-6.75,17.75s12.37,0,20.81-2.81,10.69-1.12,12.37-10.69S213.33,18,213.33,18Z"/><path class="cls-11" d="M253.8,425.2C251.13,426.7,96,423,46.47,380.5c-19.73-16.93,0-80,0-80S37.8,285,42.8,262.13c5.52-25.27,37.56-64,71.5-77.88,28.08-11.5,90.75-29.25,90.75-29.25S94.75,165.5,47.33,208.07c-56.59,50.81-16.07,90.39-16.07,90.39s-29.76,76.8,3.54,95c73,40,136.5,31.7,184.5,35C223.32,428.78,253.8,425.2,253.8,425.2Z"/><g class="cls-12"><path class="cls-10" d="M219.8,167.33c-17.68,2-54.67,5-102.33,31-22.66,12.36,31.59,63.11,32.58,63.17,12.25.75,50.51.94,86.75,4.25,41,3.75,79,7.81,79,7.81s61.1-31.14,99.5-41.56c27.27-7.4,18.5-14.33,18.5-14.33L439.47,177s-14.27-3.67-89-6.67C292.86,168,252.27,163.65,219.8,167.33Z"/></g><g class="cls-12"><path class="cls-10" d="M99.8,218.75s-25,20.08-22,35.75,19.67,22.83,27,24.5a60,60,0,0,0,12,1.67s-11.67,7.67-13.67,17.33,4,25.33,4,25.33S79.8,316.67,68.8,299.67s-9-41.17,3.67-59.67C79.1,230.31,99.8,218.75,99.8,218.75Z"/></g><g class="cls-12"><path class="cls-10" d="M348.13,305s15,12,18,23-11.33,30-11.33,30,40-8.33,58.33-13.67,18.33-6.67,18.33-6.67L429.8,298s-15.33,7-40.67,9S348.13,305,348.13,305Z"/></g><g class="cls-12"><path class="cls-10" d="M66.3,329.75s-18.43,21.48,13.13,34.88c48.88,20.75,72.5,23.63,133.18,30.71,60,7,126.87,10.67,162.87,8S431.8,397,431.8,397l-2.67,17.33S310.14,425,212.6,412,67.8,383.33,54.13,371.67s-6.58-28.58-.58-32.92S66.3,329.75,66.3,329.75Z"/></g></g><g class="cls-13"><g class="cls-13"><g id="_Группа_2" data-name="&lt;Группа&gt;"><path class="cls-4" d="M425.2-30.2V-1.09C415.3-.4,399.89.12,375.87.12,305.6.12,94.8-21.63,81.42-34.46s42.93-20.08,42.93-20.08c19,7,32.63,1.67,32.63,1.67s90.9,14.22,155.32,16.17,99.83-1.39,99.83-1.39,1.8,3.35,8,5.86Z"/></g></g><rect class="cls-1" x="-51.1" y="-427.07" width="474.26" height="474.26"/></g></g><g id="_5" data-name="5"><g class="cls-14"><g id="_Группа_3" data-name="&lt;Группа&gt;"><path class="cls-8" d="M-319.25,951.2s30.37,29.37,54.81,30.37,40.18,1.94,140-30.37S-15.73,915,13.64,867,19.51,764.23-3,768.16s-197.67,78.3-218.28,89.05C-246.11,870.14-319.25,951.2-319.25,951.2ZM27.21,1070.8c-19.27,12.34-49.58,29.25-86.06,41-57.39,18.5-116.48,36.71-147.79,57.51-14,9.28-25.85,35.36-34.66,61.44a561.71,561.71,0,0,0-17.27,64.62s203.66-67.08,251.65-88.64S49.83,1055,49.83,1055A272.75,272.75,0,0,1,27.21,1070.8Zm-386.75,279.84c-33-3.88-897.45-3.88-930.47,0s-103.56,19.62-91.81,32.31,291.77,33.31,414.13,32.31,199.25-.65,285.84,0c122.36,1,402.38-19.56,414.13-32.31S-326.47,1354.58-359.54,1350.64Zm-68.14-353.39c-91.75-22.91-354.92-24.79-397.15-25-34.31.12-305.87,1.59-399.32,25a175.17,175.17,0,0,0-48.23,20.44c-36.83,22.32-65.14,55.8-83.88,84.41-16.86,25.67-26,47.4-26.49,53.75-1.47,16.15,17.62,70.49,102.8,104.27,80.65,32,419.88,35,455.66,35.19,49.28-.35,373.77-4,452.43-35.19,85.18-33.78,104.27-88.11,102.8-104.27-.59-6.23-9.4-27.43-25.73-52.57-16.86-26-41.77-56.27-73.84-78.54C-386.21,1012.53-405.95,1002.72-427.68,997.26ZM-1693,1070.8c-14.39-9.22-22.62-15.8-22.62-15.8s8.81,130.23,56.8,151.73,251.59,88.64,251.59,88.64a561.71,561.71,0,0,0-17.27-64.62c-8.81-26.08-20.68-52.16-34.6-61.44-31.31-20.79-90.46-39-147.85-57.51C-1643.4,1100.05-1673.77,1083.08-1693,1070.8Zm135.75,333.48c-79.89-15.51-153.61-38.65-158.84-72.19-3.52-22.56-9.57-61-16-105.85C-1747,1122-1763.52,982.81-1754.3,925.3c13.22-82.24,54.34-202.66,114.55-235.85s158.6-68.14,158.6-68.14-113.08,1.47-116-13.1,51.4-66.2,107.2-66.2c54,0,39.24,33,38.24,35.13l136.28-184.92,1,.7c-43.59,61.38-116.84,191.5-116.84,204.89,0,16.62,70.49,8.81,202.66,6.81,111.61-1.64,684.34-1.64,795.95,0,132.17,2,202.66,9.81,202.66-6.81,0-13.39-73.31-143.74-116.84-205.07l.7-.53,135.93,184.45C-212.46,573-221.74,554-171.28,554c55.8,0,83.3,36.83,82.53,51.69-1.7,33.48-91.7,15.63-91.7,15.63s98.39,35,158.6,68.14S79.49,843.06,92.71,925.3c8.52,52.87-4.88,174.93-18.62,275.26-7.64,55.75-15.39,104.79-19.56,131.52-5.4,34.36-82.71,57.86-164.89,73.31-21.73,4.05-43.76,7.58-65,10.57-73.31,10.34-135.81,14.51-135.81,14.51s-32.31-7.34-85.18-7.34-162.95,15-271.68,17.62c-81.36,1.88-244.25,1.64-325.6,0-108.73-2.23-218.81-17.62-271.68-17.62s-85.18,7.34-85.18,7.34-60.68-4.05-132.64-14C-1507.18,1413-1532.49,1409-1557.28,1404.28Zm155.9-422.7c24.5-1,54.86-30.37,54.86-30.37s-75.42-88.11-97.92-94-195.79-85.18-218.34-89.05-46,50.87-16.62,98.86,38.18,51.87,138,84.18S-1425.82,982.57-1401.38,981.57Z"/></g><path class="cls-11" d="M-823.11,1443.08c-64.12,0-128.83-.5-170.52-1.34-60.59-1.23-122.85-6.67-172.87-11-40.46-3.53-75.41-6.59-98.79-6.59-52.13,0-84.63,7.25-85,7.32l-.14,0h-.15c-.89-.06-89.56-6.05-178.53-21.12-119.84-20.3-183.11-46.58-188.06-78.11l-.64-4.07c-12.5-79.66-50.55-322.06-37.54-403,7.38-45.89,21.85-95.66,39.72-136.56,22-50.4,48.07-85,75.33-100,51.48-28.37,131.74-58.36,153.28-66.23-9.77,0-30.46-.07-51.15-1.12-58-2.94-59.55-10.37-60-12.81-.8-4,2.12-10.3,8.24-17.77,15.71-19.19,56.73-49.63,99.94-49.63,20.21,0,33.3,4.58,38.88,13.62,3.63,5.87,3.29,12.31,2.28,16.9l132.57-179.9,1.61,1.19-136.35,185-1.7-1c.06-.12,5.72-11.72-.11-21.14-5.2-8.4-17.71-12.66-37.17-12.66-42.53,0-82.92,30-98.4,48.9-5.65,6.9-8.5,12.77-7.83,16.11,2,10,71.63,12.85,115,12.29l6-.08-5.69,2c-1,.35-99,35.3-158.45,68.07-26.87,14.81-52.62,49.06-74.46,99.05-17.8,40.75-32.23,90.34-39.58,136.08-13,80.65,25.05,322.82,37.54,402.4l.64,4.07c4.73,30.16,69.19,56.59,186.4,76.45,87.2,14.77,174.13,20.81,178.2,21.09,2.43-.53,34.66-7.33,85.25-7.33,23.47,0,58.45,3.06,99,6.59,50,4.37,112.21,9.8,172.74,11,79.4,1.61,242.35,2,325.6,0,59.76-1.41,118.75-6.5,170.79-11,41.35-3.56,77.07-6.64,100.91-6.64,50.59,0,82.82,6.8,85.25,7.33,4.06-.28,91-6.32,178.2-21.09,117.22-19.86,181.67-46.29,186.4-76.45l.64-4.06c12.49-79.58,50.51-321.76,37.55-402.42C84.4,879.71,70,830.11,52.17,789.36c-21.84-50-47.59-84.24-74.46-99.05-59.45-32.77-157.47-67.72-158.45-68.07l.5-1.93c.65.11,65.6,10.58,85.16-4.95a13.09,13.09,0,0,0,5.37-9.75c.38-5.79-4.21-14.68-11.68-22.66C-109.27,574.54-132,555-172.73,555c-27.5,0-36,5.68-38.29,10.45-2.2,4.58.82,9.46,1.75,10.8l.29.39-1.58,1.22s-.19-.24-.41-.56l-136-184.51,1.61-1.19,131.57,178.54a10.29,10.29,0,0,1,.93-5.55c3.68-7.7,17.17-11.6,40.1-11.6,41.53,0,64.74,20,72.79,28.57s12.64,17.75,12.22,24.16a15.19,15.19,0,0,1-6.12,11.19c-15.82,12.56-58.21,9-77.28,6.68,25.66,9.45,100.79,37.93,149.81,65,27.26,15,53.31,49.61,75.33,100,17.87,40.89,32.35,90.67,39.72,136.56,13,81-25,323.38-37.54,403l-.64,4.06c-4.95,31.53-68.22,57.81-188.06,78.11-89,15.07-177.64,21.06-178.53,21.12h-.15l-.14,0c-.32-.07-32.82-7.32-85-7.32-23.75,0-59.43,3.07-100.74,6.63-52.07,4.49-111.1,9.57-170.92,11C-707.51,1442.67-765.07,1443.08-823.11,1443.08Z"/></g></g><g id="_5-2" data-name="5"><g class="cls-15"><g id="_Группа_4" data-name="&lt;Группа&gt;"><path class="cls-4" d="M-103.9,459.83c-18.62-13.69-82.24-15.74-124.36-7.93s-35.24,84.24-35.24,84.24H-503.87s6.87-76.36-35.24-84.24-105.73-5.76-124.36,7.93-32.31,76.31-32.31,76.31L-794.64,540s56.8-112.55,95.92-115.49c35.36-2.64,594.7-2.64,630.06,0C-29.48,427.46,27.27,540,27.27,540l-98.86-3.88S-85.28,473.46-103.9,459.83Z"/><path class="cls-4" d="M215.18,597.81c0,16.62-70.49,8.81-202.66,6.81-111.61-1.64-684.34-1.64-795.95,0-132.17,2-202.66,9.81-202.66-6.81,0-13.39,73.25-143.56,116.78-204.95,10.69-15,19.62-26,25.2-30,28.37-20.56,15.68-20.56,128.23-33.31,43.94-5,199-18.33,349.57-18.09C-228.9,311.63-95.09,325-55,329.54c112.61,12.75,99.86,12.75,128.29,33.31,5.58,4.05,14.39,14.92,25,29.9C141.87,454.07,215.18,584.42,215.18,597.81ZM-539.12,451.9c42.12,7.87,35.24,84.24,35.24,84.24H-263.5s-6.81-76.36,35.24-84.24,105.73-5.76,124.36,7.93,32.31,76.31,32.31,76.31L27.27,540S-29.48,427.46-68.66,424.53c-35.36-2.64-594.7-2.64-630.06,0C-737.84,427.46-794.64,540-794.64,540l98.86-3.88s13.75-62.68,32.31-76.31S-581.23,444.09-539.12,451.9Z"/><path class="cls-8" d="M-1247.83,1070.8c-14.39-9.22-22.62-15.8-22.62-15.8s8.81,130.23,56.8,151.73,251.59,88.64,251.59,88.64a561.71,561.71,0,0,0-17.27-64.62c-8.81-26.08-20.62-52.16-34.6-61.44-31.37-20.79-90.46-39-147.85-57.51C-1198.2,1100.05-1228.57,1083.08-1247.83,1070.8ZM-936.62,1383c11.75,12.75,291.77,33.31,414.13,32.31s199.25-.65,285.84,0c122.36,1,402.38-19.56,414.13-32.31s-58.74-28.37-91.81-32.31-897.45-3.88-930.47,0S-948.37,1370.26-936.62,1383Zm1323-271.15c-57.39,18.5-116.48,36.71-147.79,57.51-14,9.28-25.85,35.36-34.66,61.44a561.71,561.71,0,0,0-17.27,64.62s203.66-67.08,251.65-88.64S495,1055,495,1055a265.51,265.51,0,0,1-22.62,15.74C453.14,1083.14,422.83,1100.05,386.36,1111.8Zm-51.52,293.59c-21.73,4.05-43.82,7.58-65,10.57-73.31,10.34-135.81,14.51-135.81,14.51s-32.31-7.34-85.18-7.34-162.95,15-271.68,17.62c-81.36,1.88-244.25,1.64-325.6,0-108.73-2.23-218.81-17.62-271.68-17.62s-85.18,7.34-85.18,7.34-60.68-4.05-132.64-14c-24.14-3.41-49.46-7.4-74.19-12.22-79.89-15.45-153.61-38.59-158.84-72.13-3.52-22.56-9.57-61-16-105.85-14.86-104.21-31.43-243.42-22.2-300.93,13.22-82.24,54.34-202.66,114.55-235.85s158.6-68.14,158.6-68.14-113.08,1.47-116-13.1,51.4-66.2,107.2-66.2c54,0,39.24,33,38.24,35.13l136.28-184.92.94.65c-43.53,61.38-116.78,191.56-116.78,204.95,0,16.62,70.49,8.81,202.66,6.81,111.61-1.64,684.34-1.64,795.95,0,132.17,2,202.66,9.81,202.66-6.81,0-13.39-73.31-143.74-116.9-205.07h.06l.7-.53L235,576.67C232.75,573,223.47,554,273.92,554c55.8,0,83.3,36.83,82.53,51.69-1.7,33.48-91.7,15.63-91.7,15.63s98.39,35,158.6,68.14S524.69,843.06,537.91,925.3c8.52,52.87-4.88,174.93-18.62,275.26-7.64,55.75-15.39,104.79-19.56,131.52C494.32,1366.45,417,1389.94,334.84,1405.39ZM180.76,981.57c24.5,1,40.18,1.94,140-30.37S429.47,915,458.84,867s5.87-102.8-16.68-98.86-197.67,78.3-218.28,89.05c-24.79,12.92-97.92,94-97.92,94S156.32,980.57,180.76,981.57ZM76.55,1024.69c-17.56-12.16-37.3-22-59-27.43-91.75-22.91-354.92-24.79-397.15-25-34.31.12-305.87,1.59-399.32,25a175.17,175.17,0,0,0-48.23,20.44c-36.83,22.32-65.14,55.8-83.88,84.41-16.8,25.67-25.91,47.4-26.49,53.75-1.47,16.15,17.62,70.49,102.8,104.27,80.65,32,419.88,35,455.66,35.19,49.28-.35,373.77-4,452.43-35.19,85.18-33.78,104.27-88.11,102.8-104.27-.53-6.23-9.34-27.43-25.73-52.57C133.53,1077.26,108.63,1047,76.55,1024.69ZM-956.18,981.57c24.5-1,54.81-30.37,54.81-30.37s-75.37-88.11-97.86-94-195.84-85.18-218.34-89.05-46,50.87-16.62,98.86,38.18,51.87,138,84.18S-980.68,982.57-956.18,981.57Z"/></g><path class="cls-11" d="M166.19,609.21c-17,0-38.42-.64-64.37-1.41s-55.43-1.65-89.29-2.15c-111.58-1.65-684.34-1.65-795.92,0-33.86.5-63.31,1.38-89.29,2.15-66.84,2-103.67,3.08-112.32-5.32a6.36,6.36,0,0,1-2.06-4.69c0-9.17,31.16-66.88,60.47-116.52,29.9-50.63,67.11-108.54,81.9-119.25,3.31-2.4,6.08-4.53,8.52-6.41,19-14.6,20.51-15.79,120.21-27.06,41.87-4.73,194.51-18.12,345.8-18.12h3.85c145.81.22,285,15.13,311.41,18.12C44.79,339.82,46.34,341,65.31,355.61c2.44,1.88,5.21,4,8.52,6.41h0c14.79,10.71,52,68.62,81.9,119.25C185,530.92,216.2,588.63,216.2,597.79a6.36,6.36,0,0,1-2.06,4.69C208.84,607.62,193,609.21,166.19,609.21Zm-551.62-6.8c171.1,0,342.2.41,398,1.24,33.88.5,63.33,1.38,89.32,2.15C166,607.71,204.7,608.86,212.75,601a4.37,4.37,0,0,0,1.45-3.25c0-7.61-26.44-58.35-60.19-115.51C124.21,431.83,87.2,374.17,72.65,363.64c-3.33-2.41-6.11-4.55-8.57-6.44C45.53,342.91,44,341.74-55.12,330.54c-26.4-3-165.49-17.88-311.19-18.11-152.46-.21-307.23,13.33-349.43,18.11C-814.88,341.74-816.39,342.91-835,357.2c-2.45,1.89-5.23,4-8.57,6.44-14.54,10.53-51.56,68.19-81.35,118.65-33.75,57.16-60.19,107.9-60.19,115.51a4.37,4.37,0,0,0,1.45,3.25c8,7.81,46.75,6.66,110.87,4.75,26-.77,55.44-1.65,89.32-2.15C-727.63,602.82-556.53,602.41-385.43,602.41Z"/><path class="cls-11" d="M-377.91,1443.08c-64.12,0-128.83-.5-170.52-1.34-60.59-1.23-122.85-6.67-172.87-11-40.46-3.53-75.41-6.59-98.79-6.59-52.13,0-84.63,7.25-85,7.32l-.14,0h-.15c-.89-.06-89.56-6.05-178.53-21.12-119.84-20.3-183.11-46.58-188.06-78.11l-.64-4.06c-12.5-79.66-50.56-322.08-37.54-403,7.38-45.89,21.85-95.66,39.72-136.56,22-50.4,48.07-85,75.33-100,51.48-28.37,131.74-58.36,153.28-66.23-9.77,0-30.46-.07-51.15-1.12-58-2.94-59.55-10.37-60-12.81-.8-4,2.12-10.3,8.24-17.77C-1129,571.44-1088,541-1044.77,541c20.21,0,33.3,4.58,38.88,13.62,3.63,5.87,3.29,12.31,2.28,16.9L-871,391.61l1.61,1.19-136.35,185-1.7-1c.06-.12,5.72-11.72-.11-21.14-5.2-8.4-17.71-12.66-37.17-12.66-42.53,0-82.92,30-98.4,48.9-5.65,6.9-8.5,12.77-7.83,16.11,2,10,71.63,12.85,115,12.29l6-.08-5.69,2c-1,.35-99,35.3-158.45,68.07-26.87,14.81-52.62,49.06-74.46,99.05-17.8,40.75-32.23,90.34-39.58,136.08-13,80.65,25.05,322.83,37.55,402.42l.64,4.06c4.73,30.16,69.19,56.59,186.42,76.45,87.2,14.77,174.11,20.81,178.18,21.09,2.43-.53,34.66-7.33,85.25-7.33,23.47,0,58.45,3.06,99,6.59,50,4.37,112.21,9.8,172.74,11,79.4,1.61,242.35,2,325.6,0,59.76-1.41,118.75-6.5,170.79-11,41.35-3.56,77.07-6.64,100.91-6.64,50.59,0,82.82,6.8,85.25,7.33,4.06-.28,91-6.32,178.2-21.09,117.22-19.86,181.67-46.29,186.4-76.45l.64-4.07c12.49-79.58,50.51-321.75,37.54-402.4-7.35-45.73-21.78-95.33-39.58-136.08-21.84-50-47.59-84.24-74.46-99.05-59.45-32.77-157.47-67.72-158.45-68.07l.5-1.93c.65.11,65.6,10.58,85.16-4.95a13.09,13.09,0,0,0,5.37-9.75c.38-5.79-4.21-14.68-11.68-22.66-7.87-8.4-30.58-27.94-71.33-27.94-27.5,0-36,5.68-38.29,10.45-2.2,4.58.82,9.47,1.75,10.81l.29.39-1.58,1.22s-.19-.24-.42-.56l-136-184.51,1.61-1.19L231.44,570.15a10.29,10.29,0,0,1,.93-5.55c3.68-7.7,17.17-11.6,40.1-11.6,41.53,0,64.74,20,72.79,28.57s12.64,17.75,12.22,24.16a15.18,15.18,0,0,1-6.12,11.19c-15.82,12.56-58.21,9-77.28,6.68,25.66,9.45,100.79,37.93,149.8,65,27.26,15,53.31,49.61,75.33,100,17.87,40.89,32.35,90.67,39.72,136.56,13,81-25,323.37-37.54,403l-.64,4.07c-4.95,31.53-68.22,57.81-188.06,78.11-89,15.07-177.64,21.06-178.53,21.12H134l-.14,0c-.32-.07-32.82-7.32-85-7.32-23.75,0-59.43,3.07-100.74,6.63-52.07,4.49-111.1,9.57-170.92,11C-262.31,1442.67-319.87,1443.08-377.91,1443.08Z"/></g></g><g id="_7" data-name="7"><g class="cls-16"><g id="_Группа_5" data-name="&lt;Группа&gt;"><path class="cls-8" d="M917.61,1070.8c-19.27,12.34-49.58,29.25-86.06,41-57.39,18.5-116.48,36.71-147.79,57.51-14,9.28-25.85,35.36-34.66,61.44a561.71,561.71,0,0,0-17.27,64.62s203.66-67.08,251.65-88.64S940.23,1055,940.23,1055A272.75,272.75,0,0,1,917.61,1070.8Zm-1720.24,0c-14.39-9.22-22.62-15.8-22.62-15.8s8.81,130.23,56.8,151.73,251.59,88.64,251.59,88.64a561.71,561.71,0,0,0-17.27-64.62c-8.81-26.08-20.68-52.16-34.6-61.44-31.37-20.79-90.46-39-147.85-57.51C-753,1100.05-783.36,1083.08-802.63,1070.8Zm95.87-462.59c-2.94-14.57,51.4-66.2,107.2-66.2,54,0,39.24,33,38.24,35.13L-425,392.22l1,.7c-43.59,61.38-116.84,191.5-116.84,204.89,0,16.62,70.49,8.81,202.66,6.81,111.61-1.64,684.34-1.64,795.95,0,132.17,2,202.66,9.81,202.66-6.81,0-13.39-73.31-143.74-116.84-205.07l.7-.53L680.18,576.67C677.95,573,668.67,554,719.13,554c55.8,0,83.3,36.83,82.53,51.69C800,639.17,710,621.31,710,621.31s98.39,35,158.6,68.14S969.89,843.06,983.11,925.3c8.52,52.87-4.88,174.93-18.62,275.26-7.64,55.75-15.39,104.79-19.56,131.52-5.4,34.36-82.71,57.86-164.89,73.31-21.73,4.05-43.76,7.58-65,10.57-73.31,10.34-135.81,14.51-135.81,14.51s-32.31-7.34-85.18-7.34-162.95,15-271.68,17.62c-81.36,1.88-244.25,1.64-325.6,0-108.73-2.23-218.81-17.62-271.68-17.62s-85.18,7.34-85.18,7.34-60.68-4.05-132.64-14c-24.08-3.41-49.4-7.4-74.19-12.22-79.89-15.45-153.61-38.59-158.84-72.13-3.52-22.56-9.57-61-16-105.85C-856.56,1122-873.12,982.81-863.9,925.3c13.22-82.24,54.34-202.66,114.55-235.85s158.6-68.14,158.6-68.14S-703.83,622.78-706.76,608.21ZM66.1,1295.31c49.28-.35,373.77-4,452.43-35.19,85.18-33.78,104.27-88.11,102.8-104.27-.59-6.23-9.4-27.43-25.73-52.57-16.86-26-41.77-56.27-73.84-78.6-17.56-12.16-37.3-22-59-27.43-91.75-22.91-354.92-24.79-397.15-25-34.31.12-305.87,1.59-399.32,25A175.17,175.17,0,0,0-382,1017.7c-36.83,22.32-65.14,55.8-83.88,84.41-16.86,25.67-26,47.4-26.49,53.75-1.47,16.15,17.62,70.49,102.8,104.27C-308.91,1292.08,30.32,1295.13,66.1,1295.31ZM904,867c29.37-48,5.87-102.8-16.68-98.86s-197.67,78.3-218.28,89.05c-24.79,12.92-97.92,94-97.92,94s30.37,29.37,54.81,30.37,40.18,1.94,140-30.37S874.67,915,904,867ZM622.67,1383c11.75-12.69-58.74-28.37-91.81-32.31s-897.45-3.88-930.47,0-103.56,19.62-91.81,32.31,291.77,33.31,414.13,32.31,199.25-.65,285.84,0C330.9,1416.26,610.92,1395.7,622.67,1383ZM-511,981.57c24.5-1,54.81-30.37,54.81-30.37s-75.37-88.11-97.86-94S-749.88,772-772.38,768.16-818.37,819-789,867s38.18,51.87,138,84.18S-535.47,982.57-511,981.57Z"/><path class="cls-4" d="M472.47,540l-98.86-3.88s-13.69-62.68-32.31-76.31-82.24-15.74-124.36-7.93-35.24,84.24-35.24,84.24H-58.67s6.87-76.36-35.24-84.24-105.73-5.76-124.36,7.93-32.31,76.31-32.31,76.31L-349.44,540s56.8-112.55,95.92-115.49c35.36-2.64,594.7-2.64,630.06,0C415.73,427.46,472.47,540,472.47,540Z"/><path class="cls-4" d="M543.55,392.75c43.53,61.33,116.84,191.67,116.84,205.07,0,16.62-70.49,8.81-202.66,6.81-111.61-1.64-684.34-1.64-795.95,0-132.17,2-202.66,9.81-202.66-6.81,0-13.39,73.25-143.51,116.84-204.89,10.63-15.1,19.56-26,25.14-30.08,28.37-20.56,15.68-20.56,128.23-33.31,43.94-5,199-18.33,349.57-18.09,137.4.18,271.21,13.57,311.27,18.09,112.61,12.75,99.86,12.75,128.29,33.31C524,366.9,532.92,377.77,543.55,392.75ZM373.61,536.14,472.47,540s-56.74-112.55-95.92-115.49c-35.36-2.64-594.7-2.64-630.06,0C-292.64,427.46-349.44,540-349.44,540l98.86-3.88s13.75-62.68,32.31-76.31S-136,444.09-93.91,451.9s35.24,84.24,35.24,84.24H181.7s-6.81-76.36,35.24-84.24,105.73-5.76,124.36,7.93S373.61,536.14,373.61,536.14Z"/></g><path class="cls-11" d="M611.39,609.21c-17,0-38.42-.64-64.37-1.41s-55.43-1.65-89.29-2.15c-111.58-1.65-684.34-1.65-795.92,0-33.86.5-63.31,1.38-89.29,2.15-66.84,2-103.67,3.08-112.32-5.32a6.36,6.36,0,0,1-2.06-4.69c0-9.17,31.16-66.88,60.47-116.52,29.9-50.63,67.11-108.54,81.9-119.25,3.31-2.4,6.08-4.53,8.52-6.41,19-14.6,20.51-15.79,120.21-27.06,41.87-4.73,194.51-18.12,345.8-18.12h3.85c145.81.22,285,15.13,311.41,18.12C490,339.82,491.54,341,510.51,355.61c2.44,1.88,5.21,4,8.52,6.41h0c14.79,10.71,52,68.62,81.9,119.25,29.32,49.64,60.47,107.35,60.47,116.52a6.36,6.36,0,0,1-2.06,4.69C654,607.62,638.2,609.21,611.39,609.21Zm-551.62-6.8c171.1,0,342.2.41,398,1.24,33.88.5,63.33,1.38,89.32,2.15,64.12,1.91,102.82,3.06,110.87-4.75a4.37,4.37,0,0,0,1.45-3.25c0-7.61-26.44-58.35-60.19-115.51-29.79-50.45-66.81-108.12-81.35-118.65-3.33-2.41-6.11-4.55-8.57-6.44-18.56-14.29-20.07-15.45-119.21-26.66-26.4-3-165.49-17.88-311.19-18.11-152.49-.22-307.23,13.33-349.43,18.11-99.14,11.21-100.65,12.37-119.21,26.66-2.45,1.89-5.23,4-8.57,6.44-14.54,10.53-51.56,68.19-81.35,118.65-33.75,57.16-60.19,107.9-60.19,115.51a4.37,4.37,0,0,0,1.45,3.25c8,7.81,46.75,6.66,110.87,4.75,26-.77,55.45-1.65,89.32-2.15C-282.43,602.82-111.33,602.41,59.77,602.41Z"/><path class="cls-11" d="M67.29,1443.08c-64.12,0-128.83-.5-170.52-1.34-60.59-1.23-122.85-6.67-172.87-11-40.46-3.53-75.41-6.59-98.79-6.59-52.13,0-84.63,7.25-85,7.32l-.14,0h-.15c-.89-.06-89.56-6.05-178.53-21.12-119.84-20.3-183.11-46.58-188.06-78.11l-.64-4.07c-12.5-79.66-50.55-322.07-37.54-403,7.38-45.89,21.85-95.66,39.72-136.56,22-50.4,48.07-85,75.33-100,51.48-28.37,131.74-58.36,153.28-66.23-9.77,0-30.46-.07-51.15-1.12-58-2.94-59.55-10.37-60-12.81-.8-4,2.12-10.3,8.24-17.77,15.71-19.19,56.73-49.63,99.94-49.63,20.21,0,33.3,4.58,38.88,13.62,3.63,5.87,3.29,12.31,2.28,16.9l132.57-179.9,1.61,1.19-136.35,185-1.7-1c.06-.12,5.72-11.72-.11-21.14-5.2-8.4-17.71-12.66-37.17-12.66-42.53,0-82.92,30-98.4,48.9-5.65,6.9-8.5,12.77-7.83,16.11,2,10,71.62,12.85,115,12.29l6-.08-5.69,2c-1,.35-99,35.3-158.45,68.07-26.87,14.81-52.62,49.06-74.46,99.05-17.8,40.75-32.23,90.34-39.58,136.08-13,80.65,25.05,322.82,37.54,402.4l.64,4.07c4.73,30.16,69.19,56.59,186.4,76.45,87.2,14.77,174.13,20.81,178.2,21.09,2.43-.53,34.66-7.33,85.25-7.33,23.47,0,58.45,3.06,99,6.59,50,4.37,112.21,9.8,172.74,11,79.4,1.61,242.35,2,325.6,0,59.76-1.41,118.75-6.5,170.79-11,41.35-3.56,77.07-6.64,100.91-6.64,50.59,0,82.82,6.8,85.25,7.33,4.06-.28,91-6.32,178.2-21.09,117.22-19.86,181.67-46.29,186.4-76.45l.64-4.07c12.49-79.58,50.51-321.75,37.54-402.4-7.35-45.73-21.78-95.33-39.58-136.08-21.84-50-47.59-84.24-74.46-99.05-59.45-32.77-157.47-67.72-158.46-68.07l.5-1.93c.65.11,65.6,10.58,85.16-4.95a13.09,13.09,0,0,0,5.37-9.75c.38-5.79-4.21-14.68-11.68-22.66-7.87-8.4-30.58-27.94-71.33-27.94-27.5,0-36,5.68-38.29,10.45-2.2,4.58.82,9.47,1.75,10.81l.29.39-1.58,1.22s-.19-.24-.42-.56l-136-184.51,1.61-1.19L676.64,570.15a10.29,10.29,0,0,1,.93-5.55c3.68-7.7,17.17-11.6,40.1-11.6,41.53,0,64.74,20,72.79,28.57s12.64,17.75,12.22,24.16a15.18,15.18,0,0,1-6.12,11.19c-15.82,12.56-58.21,9-77.28,6.68,25.66,9.45,100.79,37.93,149.81,65,27.26,15,53.31,49.61,75.33,100,17.87,40.89,32.35,90.67,39.72,136.56,13,81-25,323.37-37.54,403l-.64,4.07c-4.95,31.53-68.22,57.81-188.06,78.11-89,15.07-177.64,21.06-178.53,21.12h-.15l-.14,0c-.32-.07-32.82-7.32-85-7.32-23.75,0-59.43,3.07-100.74,6.63-52.08,4.49-111.1,9.57-170.92,11C182.89,1442.67,125.33,1443.08,67.29,1443.08Z"/></g></g><g id="Numbers"><path class="cls-11" d="M12.28,43.81V39.58l3.12-4c4-5.14,7.34-9.41,7.34-13.87,0-2.5-1.39-4.27-4-4.27A8.83,8.83,0,0,0,14.05,19l-1.1-4.9a14,14,0,0,1,7-1.92c6.82,0,9,4.56,9,9,0,5.86-3.65,10.56-7.25,14.74l-1.87,2.21v.1h9.55v5.52Z"/></g></g></svg>