<svg xmlns="http://www.w3.org/2000/svg" xmlns:xlink="http://www.w3.org/1999/xlink" viewBox="0 0 425.2 425.2"><defs><style>.cls-1{fill:none;}.cls-2{fill:#eee;}.cls-3{fill:#cdd0d5;}.cls-4{fill:#fff;}.cls-5{fill:#687381;}.cls-6{fill:#9aa2ab;}.cls-7{fill:#b9b9b9;}.cls-8{fill:#002339;}.cls-9{clip-path:url(#clip-path);}.cls-10{clip-path:url(#clip-path-2);}</style><clipPath id="clip-path"><rect class="cls-1" x="-445.2" y="445.2" width="425.2" height="425.2"/></clipPath><clipPath id="clip-path-2"><rect class="cls-1" y="445.2" width="425.2" height="425.2"/></clipPath></defs><title>3</title><g id="_3" data-name="3"><rect class="cls-2" width="425.2" height="425.2"/><ellipse class="cls-3" cx="212.19" cy="377.56" rx="172.3" ry="37.55"/><g id="_Группа_" data-name="&lt;Группа&gt;"><path class="cls-4" d="M380.07,311.37a73.86,73.86,0,0,1-16.79,8c-11.21,3.62-22.75,7.17-28.86,11.22-2.72,1.81-5,6.9-6.75,12a109.64,109.64,0,0,0-3.37,12.61S364,342.1,373.41,337.91s11.09-29.63,11.09-29.63S382.88,309.58,380.07,311.37Zm-335.77,0c-2.81-1.8-4.41-3.08-4.41-3.08S41.61,333.7,51,337.91s49.11,17.29,49.11,17.29a109.64,109.64,0,0,0-3.37-12.61c-1.72-5.09-4-10.18-6.75-12-6.11-4.06-17.66-7.6-28.86-11.22A74.48,74.48,0,0,1,44.3,311.37Zm308.9,65.31c-4.24.8-8.54,1.48-12.67,2.06-14.31,2-26.5,2.83-26.5,2.83a82.62,82.62,0,0,0-16.62-1.43c-10.32,0-31.81,2.94-53,3.44-15.89.38-47.67.32-63.56,0-21.22-.44-42.71-3.44-53-3.44a82.62,82.62,0,0,0-16.62,1.43s-11.83-.79-25.88-2.74c-4.7-.66-9.65-1.44-14.49-2.37-15.59-3-30-7.54-31-14.09-.69-4.4-1.87-11.9-3.12-20.66-2.9-20.34-6.13-47.51-4.33-58.74,2.58-16.05,10.61-39.56,22.36-46s31-13.3,31-13.3-22.07.29-22.64-2.56,10-12.92,20.92-12.92c10.54,0,7.66,6.44,7.46,6.86L118,178.92l.19.14c-8.51,12-22.8,37.39-22.8,40,0,3.24,13.76,1.72,39.56,1.34,21.8-.32,133.57-.32,155.36,0,25.8.38,39.56,1.9,39.56-1.34,0-2.6-14.31-28-22.8-40l.14-.1L333.8,215c-.19-.41-3.07-6.86,7.46-6.86,10.89,0,21.5,10.08,20.92,12.92s-22.64,2.56-22.64,2.56,19.2,6.82,31,13.3,19.78,30,22.36,46c1.66,10.34-1,34.22-3.65,53.82-1.48,10.85-3,20.37-3.81,25.58C384.35,369.07,369.24,373.67,353.2,376.67Zm-50.4-74.3A35,35,0,0,0,291.28,297c-17.91-4.47-69.27-4.84-77.52-4.87-6.7,0-59.7.31-77.94,4.87a34.19,34.19,0,0,0-9.41,4c-7.19,4.36-12.72,10.89-16.37,16.48-3.29,5-5.07,9.25-5.17,10.49-.29,3.15,3.44,13.76,20.06,20.35,15.74,6.24,82,6.83,88.94,6.87,9.62-.07,73-.78,88.31-6.87,16.62-6.59,20.35-17.2,20.06-20.35-.11-1.22-1.83-5.35-5-10.26A55.69,55.69,0,0,0,302.8,302.38Zm74.62-30.78c5.73-9.36,1.15-20.06-3.24-19.3s-38.23,16.25-42.62,17.39S312.44,288,312.44,288s5.93,5.73,10.71,5.92,7.83.39,27.32-5.92S371.69,281,377.42,271.59ZM322.5,372.3c2.29-2.49-11.47-5.55-17.92-6.31s-175.17-.77-181.61,0-20.2,3.82-17.91,6.31,56.94,6.49,80.83,6.31,38.89-.14,55.78,0C265.55,378.79,320.21,374.78,322.5,372.3ZM101.23,293.95c4.78-.18,10.71-5.92,10.71-5.92s-14.72-17.2-19.11-18.34S54.61,253.06,50.21,252.3s-9,9.94-3.24,19.3S54.41,281.73,73.9,288,96.46,294.14,101.23,293.95Z"/><path class="cls-5" d="M389.22,336.78v30.81a18.68,18.68,0,0,1-18.68,18.68h-15a18.6,18.6,0,0,1-13.14-5.41,43.59,43.59,0,0,0,10.81-4.18c16-3,31.15-7.6,32.21-14.31C386.22,357.16,387.74,347.63,389.22,336.78Z"/><path class="cls-3" d="M384.49,308.28s-1.72,25.42-11.09,29.63S324.3,355.2,324.3,355.2a109.64,109.64,0,0,1,3.37-12.61s36.37-9.65,44.39-13.85c6.88-3.6,7.87-14.35,8-17.37C382.88,309.58,384.49,308.28,384.49,308.28Z"/><path class="cls-6" d="M380.07,311.37c-.14,3-1.12,13.77-8,17.37-8,4.2-44.39,13.85-44.39,13.85,1.72-5.09,4-10.18,6.75-12,6.11-4.06,17.65-7.6,28.86-11.22A73.86,73.86,0,0,0,380.07,311.37Z"/><path class="cls-3" d="M374.17,252.3c4.39-.77,9,9.94,3.24,19.3S370,281.73,350.47,288s-22.55,6.11-27.32,5.92S312.44,288,312.44,288s14.72-17.2,19.11-18.34S369.77,253.06,374.17,252.3Zm-3.26,22.55c5-5,7.45-12.23,5.93-15.48s-3.19-4.16-4.59-3.83c-13.75,3.28-34.77,13.6-41.28,17.6S318.57,286.69,320.86,288s6.68,1.9,22.36-1.72S366,279.81,370.92,274.85Z"/><path class="cls-6" d="M370.93,267.67c.18-.4,3.68-7.79,2.48-9.73s-6.59,2.19-6.59,2.19.38.86,3.42.29S371,267.28,370.93,267.67Zm-40.34,8.93c-.34.4-5.74,7.07-6.29,8.46s9.64.1,9.36,0-5-1.93-4.69-3.69A27.35,27.35,0,0,1,330.59,276.6Zm46.25-17.23c1.52,3.24-1,10.5-5.93,15.48s-12,7.83-27.7,11.47-20.06,3-22.36,1.72,3.62-10.89,10.12-14.89,27.53-14.32,41.28-17.6C373.66,255.21,375.32,256.11,376.84,259.37Zm-27.49,17A13.63,13.63,0,0,0,358,279.9s-8.69-4.61-7.74-8.08,2.29-5,.77-4.53a6.64,6.64,0,0,0-2.77,2.29S345.74,272.84,349.35,276.37Z"/><path class="cls-4" d="M373.41,257.94c1.2,1.95-2.29,9.33-2.48,9.73.1-.39,2.27-7.82-.7-7.26s-3.42-.29-3.42-.29S372.17,255.93,373.41,257.94Z"/><path class="cls-3" d="M358,279.9a13.63,13.63,0,0,1-8.67-3.53c-3.61-3.53-1.08-6.79-1.08-6.79a6.64,6.64,0,0,1,2.77-2.29c1.52-.47.19,1.05-.77,4.53S358,279.9,358,279.9Z"/><path class="cls-5" d="M340.53,378.74c4.13-.58,8.43-1.26,12.67-2.06a43.59,43.59,0,0,1-10.81,4.18A19.37,19.37,0,0,1,340.53,378.74Z"/><path class="cls-5" d="M340.53,378.74a19.37,19.37,0,0,0,1.86,2.12c-24,6.46-73.31,8.26-130.2,8.26-56,0-104.56-1.74-129-7.95a19.53,19.53,0,0,0,2.11-2.34c14,1.95,25.88,2.74,25.88,2.74a82.62,82.62,0,0,1,16.62-1.43c10.32,0,31.81,3,53,3.44,15.89.32,47.67.38,63.56,0,21.22-.5,42.71-3.44,53-3.44A82.62,82.62,0,0,1,314,381.57S326.22,380.75,340.53,378.74Z"/><path class="cls-5" d="M333.65,285.06c.29.1-9.93,1.43-9.36,0s6-8.06,6.29-8.46a27.35,27.35,0,0,0-1.63,4.77C328.67,283.14,333.37,285,333.65,285.06Z"/><path class="cls-7" d="M304.58,366c6.46.76,20.21,3.82,17.92,6.31s-56.95,6.49-80.83,6.31c-16.89-.14-31.9-.19-55.78,0s-78.54-3.83-80.83-6.31S116.52,366.76,123,366,298.13,365.23,304.58,366Z"/><path class="cls-5" d="M322.23,328c.29,3.15-3.44,13.76-20.06,20.35-15.35,6.09-78.69,6.8-88.31,6.87-7,0-73.2-.63-88.94-6.87-16.62-6.59-20.35-17.2-20.06-20.35.1-1.24,1.88-5.48,5.17-10.49l1.32.42c-.92,1.3-3.3,7.36,28.86,10.26,36.12,3.24,111.72,3.24,147.84,0,32.16-2.9,29.78-9,28.86-10.26l.31-.19C320.4,322.61,322.12,326.75,322.23,328Z"/><path class="cls-6" d="M329.86,219c0,3.24-13.76,1.72-39.56,1.34-21.78-.32-133.56-.32-155.36,0-25.8.38-39.56,1.9-39.56-1.34,0-2.6,14.3-28,22.8-40a29.74,29.74,0,0,1,4.91-5.87c5.54-4,3.06-4,25-6.5,8.58-1,38.83-3.58,68.23-3.53a602.57,602.57,0,0,1,60.76,3.53c22,2.49,19.49,2.49,25,6.5a30,30,0,0,1,4.9,5.84C315.55,191,329.86,216.44,329.86,219Zm-56-12,19.31.77s-11.09-22-18.73-22.55c-6.9-.52-116.08-.52-123,0-7.65.57-18.73,22.55-18.73,22.55l19.31-.77s2.67-12.23,6.31-14.89,16.05-3.07,24.26-1.54S189.51,207,189.51,207h46.93s-1.34-14.91,6.88-16.43,20.64-1.12,24.26,1.54S273.88,207,273.88,207Z"/><path class="cls-7" d="M316.9,317.9c.92,1.3,3.3,7.36-28.86,10.26-36.12,3.24-111.72,3.24-147.84,0-32.16-2.9-29.78-9-28.86-10.26l-1.32-.42c3.66-5.58,9.18-12.12,16.37-16.48a421.26,421.26,0,0,0,45.53,4.41c24.27,1,31.72.77,31.72.77l10.8,15.67,12.13-15.48s28.85-.39,48.15-.57c16.48-.17,25.71-2.69,28.06-3.43a55.69,55.69,0,0,1,14.41,15.33Z"/><path class="cls-3" d="M302.8,302.38c-2.35.73-11.58,3.26-28.06,3.43-19.31.18-48.15.57-48.15.57l-12.13,15.48-10.8-15.67s-7.45.19-31.72-.77A421.26,421.26,0,0,1,126.4,301a34.19,34.19,0,0,1,9.41-4c18.24-4.56,71.25-4.85,77.94-4.87,8.24,0,59.61.4,77.52,4.87A35,35,0,0,1,302.8,302.38Zm-87.1,8.2,6.49-13H209.77Z"/><path class="cls-6" d="M293.19,207.77,273.88,207s-2.67-12.23-6.31-14.89-16.05-3.07-24.26-1.54S236.44,207,236.44,207H189.51s1.34-14.91-6.88-16.43-20.64-1.12-24.26,1.54S152.06,207,152.06,207l-19.31.77s11.09-22,18.73-22.55c6.89-.52,116.06-.52,123,0C282.11,185.8,293.19,207.77,293.19,207.77Z"/><polygon class="cls-4" points="222.19 297.58 215.7 310.57 209.77 297.58 222.19 297.58"/><path class="cls-3" d="M111.94,288s-5.93,5.73-10.71,5.92-7.83.39-27.32-5.92S52.69,281,47,271.59s-1.15-20.06,3.24-19.3,38.23,16.25,42.62,17.39S111.94,288,111.94,288Zm-8.42,0c2.29-1.34-3.62-10.89-10.12-14.89s-27.53-14.32-41.28-17.6c-1.41-.33-3.06.57-4.59,3.83s1,10.5,5.93,15.48,12,7.83,27.7,11.47S101.23,289.36,103.52,288Z"/><path class="cls-6" d="M53.45,267.67c-.1-.39-2.27-7.82.69-7.26s3.43-.29,3.43-.29-5.35-4.2-6.59-2.19S53.27,267.27,53.45,267.67Zm40.34,8.93a27.35,27.35,0,0,1,1.63,4.77c.3,1.77-4.4,3.6-4.69,3.69s9.93,1.43,9.36,0S94.13,277,93.79,276.6Zm-.39-3.46c6.5,4,12.42,13.55,10.12,14.89s-6.68,1.9-22.36-1.72-22.74-6.5-27.7-11.47S46,262.61,47.53,259.37s3.18-4.16,4.59-3.83C65.87,258.82,86.89,269.14,93.4,273.14ZM75,276.37c3.61-3.53,1.08-6.79,1.08-6.79a6.64,6.64,0,0,0-2.77-2.29c-1.52-.47-.19,1.05.77,4.53s-7.74,8.08-7.74,8.08A13.63,13.63,0,0,0,75,276.37Z"/><path class="cls-5" d="M100.08,285.06c.57,1.43-9.64.1-9.36,0s5-1.93,4.69-3.69a27.35,27.35,0,0,0-1.63-4.77C94.13,277,99.53,283.68,100.08,285.06Z"/><path class="cls-3" d="M96.71,342.59a109.64,109.64,0,0,1,3.37,12.61S60.34,342.1,51,337.91s-11.09-29.63-11.09-29.63,1.61,1.28,4.41,3.08c.15,3,1.14,13.77,8,17.37C60.34,332.93,96.71,342.59,96.71,342.59Z"/><path class="cls-6" d="M90,330.59c2.72,1.81,5,6.9,6.75,12,0,0-36.37-9.65-44.39-13.85-6.88-3.6-7.87-14.35-8-17.37a74.48,74.48,0,0,0,16.8,8C72.3,323,83.84,326.53,90,330.59Z"/><path class="cls-5" d="M85.29,378.83a19.53,19.53,0,0,1-2.11,2.34c-5.33-1.35-9.52-2.91-12.38-4.71C75.64,377.38,80.59,378.16,85.29,378.83Z"/><path class="cls-3" d="M76.11,269.59s2.53,3.26-1.08,6.79a13.63,13.63,0,0,1-8.67,3.53s8.69-4.61,7.74-8.08-2.29-5-.77-4.53A6.64,6.64,0,0,1,76.11,269.59Z"/><path class="cls-5" d="M83.18,381.17a18.56,18.56,0,0,1-12.82,5.1h-15a18.67,18.67,0,0,1-18.68-18.68V341.7c1.25,8.76,2.43,16.26,3.12,20.66,1,6.55,15.41,11.06,31,14.09C73.66,378.25,77.85,379.81,83.18,381.17Z"/><path class="cls-4" d="M57.57,260.13s-.38.86-3.43.29-.79,6.87-.69,7.26c-.18-.4-3.68-7.79-2.48-9.73S57.57,260.13,57.57,260.13Z"/></g><path class="cls-8" d="M320.26,222.07c-3.23,0-7.34-.11-12.55-.27s-10.81-.32-17.42-.42c-21.78-.32-133.55-.32-155.33,0-6.6.1-12.35.27-17.42.42-14.64.44-20.65.54-22.51-1.26A2,2,0,0,1,94.4,219c0-3.66,22.63-42.7,28.12-46.67.64-.46,1.17-.87,1.64-1.24,3.89-3,4.64-3.27,23.86-5.44,8.19-.93,38-3.54,67.59-3.54h.75a600.81,600.81,0,0,1,60.87,3.54c19.22,2.17,20,2.45,23.86,5.44.47.36,1,.77,1.64,1.24h0c5.49,4,28.12,43,28.12,46.67a2,2,0,0,1-.65,1.49C329,221.7,326.1,222.07,320.26,222.07Zm-107.63-2.93c33.4,0,66.8.08,77.69.24,6.62.1,12.37.27,17.45.42,10.53.31,20.49.61,21.09-.75-.18-2.82-21.64-41-27.29-45.06-.66-.48-1.2-.9-1.69-1.27-3.46-2.66-3.74-2.88-22.87-5a598.84,598.84,0,0,0-60.65-3.53c-29.68-.07-59.88,2.6-68.11,3.53-19.13,2.16-19.41,2.38-22.87,5-.49.38-1,.8-1.69,1.27-5.65,4.09-27.12,42.24-27.3,45.06.61,1.36,10.56,1.06,21.09.75,5.08-.15,10.83-.32,17.45-.42C145.83,219.22,179.23,219.14,212.63,219.14Z"/><path class="cls-8" d="M214.09,384.84c-12.52,0-25.16-.1-33.29-.26-11.85-.24-24-1.3-33.8-2.16-7.88-.69-14.68-1.28-19.21-1.28a82.69,82.69,0,0,0-16.4,1.41l-.14,0h-.15c-7.15-.47-69.95-5.07-72.29-20l-.12-.8c-2.45-15.58-9.89-63-7.33-78.91,2.08-13,9.54-39.41,22.86-46.75,7.95-4.38,19.38-9,25.94-11.45-1.72,0-3.69-.09-5.66-.19-11-.56-12.22-1.92-12.47-3.14-.21-1,.39-2.44,1.77-4.14,3.16-3.86,11.42-10,20.13-10,4.24,0,7,1,8.27,3a4.57,4.57,0,0,1,.55,1.3l24.44-33.17,1.61,1.19L92.19,215.63l-1.7-1a3.88,3.88,0,0,0,0-3.35c-.85-1.36-3.12-2.08-6.57-2.08-8,0-15.66,5.67-18.58,9.25A5.34,5.34,0,0,0,64,220.8c1.34,1.29,12.19,2,21.65,1.83l6-.08-5.69,2c-.19.07-19.26,6.87-30.81,13.23-11.73,6.46-19.49,30.64-21.85,45.32-2.51,15.61,4.89,62.79,7.33,78.29l.13.8c1.77,11.32,51.21,17.07,70.31,18.35a84.94,84.94,0,0,1,16.7-1.43c4.62,0,11.46.6,19.38,1.29,9.75.85,21.88,1.91,33.66,2.15,15.48.31,47.27.38,63.52,0,11.64-.28,23.14-1.27,33.29-2.14,8.09-.7,15.08-1.3,19.76-1.3a84.94,84.94,0,0,1,16.7,1.43c19.09-1.28,68.54-7,70.31-18.35l.13-.8c2.43-15.5,9.84-62.67,7.33-78.29-2.36-14.67-10.12-38.85-21.85-45.32-11.55-6.37-30.62-13.17-30.81-13.23l-5.69-2,6,.08c9.46.12,20.32-.54,21.65-1.83a5.33,5.33,0,0,0-1.36-2.4c-2.93-3.58-10.56-9.25-18.58-9.25-3.44,0-5.71.72-6.57,2.08a3.89,3.89,0,0,0,0,3.35l-1.7,1-26.61-36.12,1.61-1.19,24.44,33.17a4.57,4.57,0,0,1,.55-1.3c1.25-2,4-3,8.27-3,8.71,0,17,6.12,20.13,10,1.39,1.7,2,3.09,1.77,4.14-.25,1.23-1.44,2.58-12.47,3.14-2,.1-3.94.16-5.66.19,6.56,2.5,18,7.07,25.94,11.45,13.32,7.34,20.78,33.79,22.86,46.75,2.56,15.93-4.88,63.34-7.33,78.91l-.12.8c-2.35,15-65.14,19.57-72.29,20H314l-.14,0a82.69,82.69,0,0,0-16.4-1.41c-4.6,0-11.55.6-19.59,1.29-10.18.88-21.71,1.87-33.41,2.15C236.67,384.76,225.43,384.84,214.09,384.84Z"/><path class="cls-8" d="M214.45,356.2c-3,0-73.29-.36-89.9-6.95S103.49,332,103.86,327.88c.27-3,11.29-26.73,31.71-31.84,19.39-4.85,76.46-4.9,78.88-4.9v2c-.59,0-59.25.06-78.4,4.84s-30,27.41-30.2,30.08c-.2,2.23,2.62,12.66,19.44,19.33,16.26,6.45,88.44,6.81,89.17,6.81Z"/><path class="cls-8" d="M212.64,356.2v-2c.73,0,72.91-.36,89.17-6.81,16.81-6.67,19.64-17.1,19.44-19.33-.24-2.67-11.11-25.3-30.2-30.08s-77.81-4.84-78.4-4.84v-2c2.42,0,59.5.06,78.88,4.9,20.42,5.1,31.44,28.88,31.71,31.84.38,4.15-4.19,14.83-20.69,21.37S215.62,356.19,212.64,356.2Z"/><path class="cls-8" d="M214.41,323.54l-11.27-16.35c-2.12,0-10.72,0-31.24-.77A427,427,0,0,1,126.24,302l.32-2a425,425,0,0,0,45.41,4.4c23.93.94,31.58.77,31.66.76h.54l10.34,15,11.58-14.79h.48c.29,0,29.08-.38,48.16-.57,18.86-.19,28.24-3.54,28.33-3.57l.69,1.88c-.39.14-9.75,3.5-29,3.69-17.72.18-43.82.52-47.67.57Z"/><path class="cls-8" d="M215.65,312.9l-7.44-16.31h15.59Zm-4.33-14.31,4.41,9.67,4.84-9.67Z"/><path class="cls-8" d="M214.13,331.58c-28,0-56-.81-74-2.43-18.43-1.66-28.52-4.63-30-8.82a3.29,3.29,0,0,1,.74-3.4l1.4,1.43a1.29,1.29,0,0,0-.25,1.32c.58,1.53,4.48,5.33,28.3,7.47,35.88,3.23,111.78,3.23,147.66,0,23.91-2.15,27.76-6,28.31-7.5a1.3,1.3,0,0,0-.25-1.3l1.4-1.43a3.29,3.29,0,0,1,.74,3.4c-1.49,4.2-11.59,7.16-30,8.82C270.16,330.77,242.14,331.58,214.13,331.58Z"/><path class="cls-8" d="M243.09,379.61h-1.43c-17.66-.14-32.45-.19-55.77,0-20.62.15-78.61-3.42-81.57-6.63a1.77,1.77,0,0,1-.41-1.86c1.38-3.75,18.77-6.1,18.94-6.12,6.8-.81,175.06-.81,181.85,0,.17,0,17.56,2.37,18.94,6.12a1.77,1.77,0,0,1-.41,1.86C320.33,376.12,264.81,379.61,243.09,379.61Zm-137.21-7.95c3.88,2,54.62,6.13,80,5.94,23.32-.19,38.12-.14,55.8,0,25.28.22,75.84-3.87,80-5.95-1.18-1.4-10-3.82-17.2-4.67-6.78-.8-174.6-.8-181.38,0C115.88,367.84,107,370.27,105.88,371.67Z"/><path class="cls-8" d="M101.39,356.68l-1.62-.53c-1.62-.54-39.9-13.15-49.21-17.33-9.8-4.4-11.6-29.4-11.67-30.46l-.15-2.28,1.78,1.43a73,73,0,0,0,20.89,10.91l2.49.8c10.71,3.45,20.83,6.71,26.61,10.54C96.9,334,100.9,354.15,101.06,355Zm-60.3-46.26c.66,6.17,3.13,23.35,10.29,26.57,8.13,3.65,39.77,14.19,47.37,16.71-1.43-6.5-5-19.41-9.35-22.28-5.55-3.68-16-7-26.12-10.3l-2.49-.8A75.4,75.4,0,0,1,41.09,310.43Z"/><path class="cls-8" d="M98.79,295c-4,0-8.93-.78-25.19-6C54,282.64,52,281.78,46.11,272.12c-4-6.56-3.33-14.09-.57-18.14,1.35-2,3.12-3,4.85-2.66,2.54.44,13.69,5.24,24.47,9.89,8.39,3.61,16.32,7,18.22,7.52,4.57,1.19,18.09,16.88,19.62,18.66l.61.71-.68.65c-.25.24-6.26,6-11.36,6.2h-.14C100.33,295,99.58,295,98.79,295Zm-49-41.76a3.49,3.49,0,0,0-2.58,1.84c-1.94,2.85-3.37,9.46.63,16,5.57,9.09,7.16,9.78,26.4,16s22.2,6.07,26.84,5.88h.14c3.44-.14,7.7-3.56,9.35-5-5.88-6.81-15.07-16.54-18-17.29-2-.53-9.67-3.82-18.5-7.62-10.18-4.38-21.72-9.35-24-9.75Z"/><path class="cls-8" d="M323,356.68l.33-1.68c.17-.86,4.17-21,10.55-25.24,5.78-3.84,15.9-7.09,26.61-10.54l2.49-.8a72.88,72.88,0,0,0,20.89-10.91l1.78-1.43-.15,2.28c-.07,1.06-1.87,26.06-11.67,30.46-9.3,4.18-47.58,16.8-49.21,17.33Zm60.3-46.26a75.44,75.44,0,0,1-19.7,9.89l-2.49.8c-10.11,3.25-20.57,6.62-26.12,10.3-4.31,2.87-7.92,15.78-9.35,22.28,7.6-2.52,39.24-13.06,47.37-16.71C380.15,333.78,382.62,316.6,383.28,310.43Z"/><path class="cls-8" d="M325.59,295c-.79,0-1.55,0-2.35-.06h-.14c-5.1-.2-11.1-6-11.36-6.2l-.68-.65.61-.71c1.53-1.78,15-17.47,19.62-18.66,1.9-.5,9.83-3.91,18.22-7.52,10.78-4.64,21.93-9.44,24.47-9.89,1.73-.3,3.49.67,4.85,2.66,2.75,4.05,3.44,11.59-.57,18.14-5.91,9.66-7.9,10.52-27.49,16.86C334.52,294.24,329.6,295,325.59,295Zm-11.75-7.08c1.65,1.45,5.91,4.87,9.35,5h.14c4.64.19,7.71.31,26.84-5.88s20.83-6.91,26.4-16c4-6.52,2.56-13.13.63-16-.89-1.31-1.92-2-2.85-1.82-2.31.4-13.85,5.37-24,9.75-8.83,3.8-16.46,7.09-18.51,7.62C328.91,271.41,319.72,281.14,313.84,287.94Z"/><path class="cls-8" d="M279.15,67.64c-6.89-18.86-31.78-32.83-61.43-32.83s-54.54,14-61.43,32.83Z"/><rect class="cls-8" x="208.72" width="15.33" height="44.47"/><path class="cls-8" d="M288.58,81.14a12.75,12.75,0,0,0-12.44-10H158.47a12.75,12.75,0,0,0-12.44,10Z"/><path class="cls-4" d="M186,44.47s-12.75,9.65-11.81,14.71,34.58,6.5,34.58,6.5-43.4,1.44-44.9-1.69,6-12.19,11-14.75A111.81,111.81,0,0,1,186,44.47Z"/><path class="cls-8" d="M215.39,94.68s-11.75,43.12,0,44.25S215.39,94.68,215.39,94.68Z"/><path class="cls-8" d="M196.93,95.36s-22,38.92-10.87,42.89S196.93,95.36,196.93,95.36Z"/><path class="cls-8" d="M176.93,95.36s-31.31,35.51-21.45,42S176.93,95.36,176.93,95.36Z"/><path class="cls-8" d="M157.77,94.68s-41,32.53-32.8,41S157.77,94.68,157.77,94.68Z"/><path class="cls-8" d="M234.05,95.36s22,38.92,10.87,42.89S234.05,95.36,234.05,95.36Z"/><path class="cls-8" d="M254,95.36s31.31,35.51,21.45,42S254,95.36,254,95.36Z"/><path class="cls-8" d="M273.21,94.68s41,32.53,32.8,41S273.21,94.68,273.21,94.68Z"/></g><g id="_5-2" data-name="5"><g class="cls-9"><g id="_Группа_2" data-name="&lt;Группа&gt;"><path class="cls-4" d="M-1693,1070.8c-14.39-9.22-22.62-15.8-22.62-15.8s8.81,130.23,56.8,151.73,251.59,88.64,251.59,88.64a561.71,561.71,0,0,0-17.27-64.62c-8.81-26.08-20.62-52.16-34.6-61.44-31.37-20.79-90.46-39-147.85-57.51C-1643.4,1100.05-1673.77,1083.08-1693,1070.8ZM-1381.82,1383c11.75,12.75,291.77,33.31,414.13,32.31s199.25-.65,285.84,0c122.36,1,402.38-19.56,414.13-32.31s-58.74-28.37-91.81-32.31-897.45-3.88-930.47,0S-1393.57,1370.26-1381.82,1383Zm1323-271.15c-57.39,18.5-116.48,36.71-147.79,57.51-14,9.28-25.85,35.36-34.66,61.44a561.71,561.71,0,0,0-17.27,64.62s203.66-67.08,251.65-88.64S49.83,1055,49.83,1055a265.51,265.51,0,0,1-22.62,15.74C7.94,1083.14-22.37,1100.05-58.84,1111.8Zm-51.52,293.59c-21.73,4.05-43.82,7.58-65,10.57-73.31,10.34-135.81,14.51-135.81,14.51s-32.31-7.34-85.18-7.34-162.95,15-271.68,17.62c-81.36,1.88-244.25,1.64-325.6,0-108.73-2.23-218.81-17.62-271.68-17.62s-85.18,7.34-85.18,7.34-60.68-4.05-132.64-14c-24.14-3.41-49.46-7.4-74.19-12.22-79.89-15.45-153.61-38.59-158.84-72.13-3.52-22.56-9.57-61-16-105.85C-1747,1122-1763.52,982.81-1754.3,925.3c13.22-82.24,54.34-202.66,114.55-235.85s158.6-68.14,158.6-68.14-113.08,1.47-116-13.1,51.4-66.2,107.2-66.2c54,0,39.24,33,38.24,35.13l136.28-184.92.94.65c-43.53,61.38-116.78,191.56-116.78,204.95,0,16.62,70.49,8.81,202.66,6.81,111.61-1.64,684.34-1.64,795.95,0,132.17,2,202.66,9.81,202.66-6.81,0-13.39-73.31-143.74-116.9-205.07h.06l.7-.53,135.93,184.45C-212.45,573-221.73,554-171.28,554c55.8,0,83.3,36.83,82.53,51.69-1.7,33.48-91.7,15.63-91.7,15.63s98.39,35,158.6,68.14S79.49,843.06,92.71,925.3c8.52,52.87-4.88,174.93-18.62,275.26-7.64,55.75-15.39,104.79-19.56,131.52C49.12,1366.45-28.24,1389.94-110.36,1405.39ZM-264.44,981.57c24.5,1,40.18,1.94,140-30.37S-15.73,915,13.64,867,19.52,764.23-3,768.16s-197.67,78.3-218.28,89.05c-24.79,12.92-97.92,94-97.92,94S-288.88,980.57-264.44,981.57Zm-104.21,43.12c-17.56-12.16-37.3-22-59-27.43-91.75-22.91-354.92-24.79-397.15-25-34.31.12-305.87,1.59-399.32,25a175.17,175.17,0,0,0-48.23,20.44c-36.83,22.32-65.14,55.8-83.88,84.41-16.8,25.67-25.91,47.4-26.49,53.75-1.47,16.15,17.62,70.49,102.8,104.27,80.65,32,419.88,35,455.66,35.19,49.28-.35,373.77-4,452.43-35.19,85.18-33.78,104.27-88.11,102.8-104.27-.53-6.23-9.34-27.43-25.73-52.57C-311.67,1077.26-336.57,1047-368.65,1024.69Zm-1032.73-43.12c24.5-1,54.81-30.37,54.81-30.37s-75.37-88.11-97.86-94-195.84-85.18-218.34-89.05-46,50.87-16.62,98.86,38.18,51.87,138,84.18S-1425.88,982.57-1401.38,981.57Z"/></g><path class="cls-8" d="M-823.11,1443.08c-64.12,0-128.83-.5-170.52-1.34-60.59-1.23-122.85-6.67-172.87-11-40.46-3.53-75.41-6.59-98.79-6.59-52.13,0-84.63,7.25-85,7.32l-.14,0h-.15c-.89-.06-89.56-6.05-178.53-21.12-119.84-20.3-183.11-46.58-188.06-78.11l-.64-4.06c-12.5-79.66-50.56-322.08-37.54-403,7.38-45.89,21.85-95.66,39.72-136.56,22-50.4,48.07-85,75.33-100,51.48-28.37,131.74-58.36,153.28-66.23-9.77,0-30.46-.07-51.15-1.12-58-2.94-59.55-10.37-60-12.81-.8-4,2.12-10.3,8.24-17.77,15.71-19.19,56.73-49.64,99.94-49.64,20.21,0,33.3,4.58,38.88,13.62,3.63,5.87,3.29,12.31,2.28,16.9l132.57-179.9,1.61,1.19-136.35,185-1.7-1c.06-.12,5.72-11.72-.11-21.14-5.2-8.4-17.71-12.66-37.17-12.66-42.53,0-82.92,30-98.4,48.9-5.65,6.9-8.5,12.77-7.83,16.11,2,10,71.63,12.85,115,12.29l6-.08-5.69,2c-1,.35-99,35.3-158.45,68.07-26.87,14.81-52.62,49.06-74.46,99.05-17.8,40.75-32.23,90.34-39.58,136.08-13,80.65,25.05,322.83,37.55,402.42l.64,4.06c4.73,30.16,69.19,56.59,186.42,76.45,87.2,14.77,174.11,20.81,178.18,21.09,2.43-.53,34.66-7.33,85.25-7.33,23.47,0,58.45,3.06,99,6.59,50,4.37,112.21,9.8,172.74,11,79.4,1.61,242.35,2,325.6,0,59.76-1.41,118.75-6.5,170.79-11,41.35-3.56,77.07-6.64,100.91-6.64,50.59,0,82.82,6.8,85.25,7.33,4.06-.28,91-6.32,178.2-21.09,117.22-19.86,181.67-46.29,186.4-76.45l.64-4.07c12.49-79.58,50.51-321.75,37.54-402.4C84.4,879.71,70,830.11,52.17,789.36c-21.84-50-47.59-84.24-74.46-99.05-59.45-32.77-157.47-67.72-158.45-68.07l.5-1.93c.65.11,65.6,10.58,85.16-4.95a13.09,13.09,0,0,0,5.37-9.75c.38-5.79-4.21-14.68-11.68-22.66C-109.27,574.54-132,555-172.73,555c-27.5,0-36,5.68-38.29,10.45-2.2,4.58.82,9.47,1.75,10.81l.29.39-1.58,1.22s-.19-.24-.42-.56l-136-184.51,1.61-1.19,131.57,178.54a10.29,10.29,0,0,1,.93-5.55c3.68-7.7,17.17-11.6,40.1-11.6,41.53,0,64.74,20,72.79,28.57s12.64,17.75,12.22,24.16a15.18,15.18,0,0,1-6.12,11.19c-15.82,12.56-58.21,9-77.28,6.68,25.66,9.45,100.79,37.93,149.8,65,27.26,15,53.31,49.61,75.33,100,17.87,40.89,32.35,90.67,39.72,136.56,13,81-25,323.37-37.54,403l-.64,4.07c-4.95,31.53-68.22,57.81-188.06,78.11-89,15.07-177.64,21.06-178.53,21.12h-.15l-.14,0c-.32-.07-32.82-7.32-85-7.32-23.75,0-59.43,3.07-100.74,6.63-52.07,4.49-111.1,9.57-170.92,11C-707.51,1442.67-765.07,1443.08-823.11,1443.08Z"/></g></g><g id="_7" data-name="7"><g class="cls-10"><g id="_Группа_3" data-name="&lt;Группа&gt;"><path class="cls-4" d="M472.41,1070.8c-19.27,12.34-49.58,29.25-86.06,41-57.39,18.5-116.48,36.71-147.79,57.51-14,9.28-25.85,35.36-34.66,61.44a561.71,561.71,0,0,0-17.27,64.62s203.66-67.08,251.65-88.64S495,1055,495,1055A272.75,272.75,0,0,1,472.41,1070.8Zm-1720.24,0c-14.39-9.22-22.62-15.8-22.62-15.8s8.81,130.23,56.8,151.73,251.59,88.64,251.59,88.64a561.71,561.71,0,0,0-17.27-64.62c-8.81-26.08-20.68-52.16-34.6-61.44-31.37-20.79-90.46-39-147.85-57.51C-1198.19,1100.05-1228.56,1083.08-1247.83,1070.8ZM-1152,608.21c-2.94-14.57,51.4-66.2,107.2-66.2,54,0,39.24,33,38.24,35.13l136.28-184.92,1,.7c-43.59,61.38-116.84,191.5-116.84,204.89,0,16.62,70.49,8.81,202.66,6.81,111.61-1.64,684.34-1.64,795.95,0,132.17,2,202.66,9.81,202.66-6.81,0-13.39-73.31-143.74-116.84-205.07l.7-.53L235,576.67C232.75,573,223.47,554,273.93,554c55.8,0,83.3,36.83,82.53,51.69-1.7,33.48-91.7,15.63-91.7,15.63s98.39,35,158.6,68.14S524.69,843.06,537.91,925.3c8.52,52.87-4.88,174.93-18.62,275.26-7.64,55.75-15.39,104.79-19.56,131.52-5.4,34.36-82.71,57.86-164.89,73.31-21.73,4.05-43.76,7.58-65,10.57-73.31,10.34-135.81,14.51-135.81,14.51s-32.31-7.34-85.18-7.34-162.95,15-271.68,17.62c-81.36,1.88-244.25,1.64-325.6,0-108.73-2.23-218.81-17.62-271.68-17.62s-85.18,7.34-85.18,7.34-60.68-4.05-132.64-14c-24.08-3.41-49.4-7.4-74.19-12.22-79.89-15.45-153.61-38.59-158.84-72.13-3.52-22.56-9.57-61-16-105.85-14.86-104.21-31.43-243.42-22.2-300.93,13.22-82.24,54.34-202.66,114.55-235.85s158.6-68.14,158.6-68.14S-1149,622.78-1152,608.21Zm772.86,687.1c49.28-.35,373.77-4,452.43-35.19,85.18-33.78,104.27-88.11,102.8-104.27-.59-6.23-9.4-27.43-25.73-52.57-16.86-26-41.77-56.27-73.84-78.6-17.56-12.16-37.3-22-59-27.43-91.75-22.91-354.92-24.79-397.15-25-34.31.12-305.87,1.59-399.32,25a175.17,175.17,0,0,0-48.23,20.44c-36.83,22.32-65.14,55.8-83.88,84.41-16.86,25.67-26,47.4-26.49,53.75-1.47,16.15,17.62,70.49,102.8,104.27C-754.11,1292.08-414.88,1295.13-379.1,1295.31ZM458.84,867c29.37-48,5.87-102.8-16.68-98.86s-197.67,78.3-218.28,89.05c-24.79,12.92-97.92,94-97.92,94s30.37,29.37,54.81,30.37,40.18,1.94,140-30.37S429.47,915,458.84,867ZM177.47,1383c11.75-12.69-58.74-28.37-91.81-32.31s-897.45-3.88-930.47,0-103.56,19.62-91.81,32.31,291.77,33.31,414.13,32.31,199.25-.65,285.84,0C-114.3,1416.26,165.72,1395.7,177.47,1383ZM-956.18,981.57c24.5-1,54.81-30.37,54.81-30.37s-75.37-88.11-97.86-94-195.84-85.18-218.34-89.05-46,50.87-16.62,98.86,38.18,51.87,138,84.18S-980.67,982.57-956.18,981.57Z"/><path class="cls-3" d="M27.27,540l-98.86-3.88s-13.69-62.68-32.31-76.31-82.24-15.74-124.36-7.93-35.24,84.24-35.24,84.24H-503.87s6.87-76.36-35.24-84.24-105.73-5.76-124.36,7.93-32.31,76.31-32.31,76.31L-794.64,540s56.8-112.55,95.92-115.49c35.36-2.64,594.7-2.64,630.06,0C-29.47,427.46,27.27,540,27.27,540Z"/><path class="cls-3" d="M98.35,392.75c43.53,61.33,116.84,191.67,116.84,205.07,0,16.62-70.49,8.81-202.66,6.81-111.61-1.64-684.34-1.64-795.95,0-132.17,2-202.66,9.81-202.66-6.81,0-13.39,73.25-143.51,116.84-204.89,10.63-15.1,19.56-26,25.14-30.08,28.37-20.56,15.68-20.56,128.23-33.31,43.94-5,199-18.33,349.57-18.09C-228.9,311.63-95.09,325-55,329.54c112.61,12.75,99.86,12.75,128.29,33.31C78.85,366.9,87.72,377.77,98.35,392.75ZM-71.59,536.14,27.27,540S-29.47,427.46-68.65,424.53c-35.36-2.64-594.7-2.64-630.06,0C-737.84,427.46-794.64,540-794.64,540l98.86-3.88s13.75-62.68,32.31-76.31,82.24-15.74,124.36-7.93,35.24,84.24,35.24,84.24H-263.5s-6.81-76.36,35.24-84.24,105.73-5.76,124.36,7.93S-71.59,536.14-71.59,536.14Z"/></g><path class="cls-8" d="M166.19,609.21c-17,0-38.42-.64-64.37-1.41s-55.43-1.65-89.29-2.15c-111.58-1.65-684.34-1.65-795.92,0-33.86.5-63.31,1.38-89.29,2.15-66.84,2-103.67,3.08-112.32-5.32a6.36,6.36,0,0,1-2.06-4.69c0-9.17,31.16-66.88,60.47-116.52,29.9-50.63,67.11-108.54,81.9-119.25,3.31-2.4,6.08-4.53,8.52-6.41,19-14.6,20.51-15.79,120.21-27.06,41.87-4.73,194.51-18.12,345.8-18.12h3.85c145.81.22,285,15.13,311.41,18.12C44.79,339.82,46.34,341,65.31,355.61c2.44,1.88,5.21,4,8.52,6.41h0c14.79,10.71,52,68.62,81.9,119.25C185,530.92,216.2,588.63,216.2,597.79a6.36,6.36,0,0,1-2.06,4.69C208.84,607.62,193,609.21,166.19,609.21Zm-551.62-6.8c171.1,0,342.2.41,398,1.24,33.88.5,63.33,1.38,89.32,2.15C166,607.71,204.7,608.86,212.75,601a4.37,4.37,0,0,0,1.45-3.25c0-7.61-26.44-58.35-60.19-115.51C124.21,431.83,87.2,374.17,72.65,363.64c-3.33-2.41-6.11-4.55-8.57-6.44C45.53,342.91,44,341.74-55.12,330.54c-26.4-3-165.49-17.88-311.19-18.11-152.49-.22-307.23,13.33-349.43,18.11C-814.88,341.74-816.39,342.91-835,357.2c-2.45,1.89-5.23,4-8.57,6.44-14.54,10.53-51.56,68.19-81.35,118.65-33.75,57.16-60.19,107.9-60.19,115.51a4.37,4.37,0,0,0,1.45,3.25c8,7.81,46.75,6.66,110.87,4.75,26-.77,55.45-1.65,89.32-2.15C-727.63,602.82-556.53,602.41-385.43,602.41Z"/><path class="cls-8" d="M-377.91,1443.08c-64.12,0-128.83-.5-170.52-1.34-60.59-1.23-122.85-6.67-172.87-11-40.46-3.53-75.41-6.59-98.79-6.59-52.13,0-84.63,7.25-85,7.32l-.14,0h-.15c-.89-.06-89.56-6.05-178.53-21.12-119.84-20.3-183.11-46.58-188.06-78.11l-.64-4.07c-12.5-79.66-50.55-322.07-37.54-403,7.38-45.89,21.85-95.66,39.72-136.56,22-50.4,48.07-85,75.33-100,51.48-28.37,131.74-58.36,153.28-66.23-9.77,0-30.46-.07-51.15-1.12-58-2.94-59.55-10.37-60-12.81-.8-4,2.12-10.3,8.24-17.77C-1129,571.44-1088,541-1044.77,541c20.21,0,33.3,4.58,38.88,13.62,3.63,5.87,3.29,12.31,2.28,16.9L-871,391.61l1.61,1.19-136.35,185-1.7-1c.06-.12,5.72-11.72-.11-21.14-5.2-8.4-17.71-12.66-37.17-12.66-42.53,0-82.92,30-98.4,48.9-5.65,6.9-8.5,12.77-7.83,16.11,2,10,71.62,12.85,115,12.29l6-.08-5.69,2c-1,.35-99,35.3-158.45,68.07-26.87,14.81-52.62,49.06-74.46,99.05-17.8,40.75-32.23,90.34-39.58,136.08-13,80.65,25.05,322.82,37.54,402.4l.64,4.07c4.73,30.16,69.19,56.59,186.4,76.45,87.2,14.77,174.13,20.81,178.2,21.09,2.43-.53,34.66-7.33,85.25-7.33,23.47,0,58.45,3.06,99,6.59,50,4.37,112.21,9.8,172.74,11,79.4,1.61,242.35,2,325.6,0,59.76-1.41,118.75-6.5,170.79-11,41.35-3.56,77.07-6.64,100.91-6.64,50.59,0,82.82,6.8,85.25,7.33,4.06-.28,91-6.32,178.2-21.09,117.22-19.86,181.67-46.29,186.4-76.45l.64-4.07c12.49-79.58,50.51-321.75,37.54-402.4-7.35-45.73-21.78-95.33-39.58-136.08-21.84-50-47.59-84.24-74.46-99.05-59.45-32.77-157.47-67.72-158.46-68.07l.5-1.93c.65.11,65.6,10.58,85.16-4.95a13.09,13.09,0,0,0,5.37-9.75c.38-5.79-4.21-14.68-11.68-22.66-7.87-8.4-30.58-27.94-71.33-27.94-27.5,0-36,5.68-38.29,10.45-2.2,4.58.82,9.47,1.75,10.81l.29.39-1.58,1.22s-.19-.24-.42-.56l-136-184.51,1.61-1.19L231.44,570.15a10.29,10.29,0,0,1,.93-5.55c3.68-7.7,17.17-11.6,40.1-11.6,41.53,0,64.74,20,72.79,28.57s12.64,17.75,12.22,24.16a15.18,15.18,0,0,1-6.12,11.19c-15.82,12.56-58.21,9-77.28,6.68,25.66,9.45,100.79,37.93,149.81,65,27.26,15,53.31,49.61,75.33,100,17.87,40.89,32.35,90.67,39.72,136.56,13,81-25,323.37-37.54,403l-.64,4.07c-4.95,31.53-68.22,57.81-188.06,78.11-89,15.07-177.64,21.06-178.53,21.12H134l-.14,0c-.32-.07-32.82-7.32-85-7.32-23.75,0-59.43,3.07-100.74,6.63-52.08,4.49-111.1,9.57-170.92,11C-262.31,1442.67-319.87,1443.08-377.91,1443.08Z"/></g></g><g id="Numbers"><path class="cls-8" d="M13.19,37.85a9.71,9.71,0,0,0,4.66,1.2c3,0,4.7-1.87,4.7-4.51,0-3.46-2.64-4.94-5.86-4.94h-.86V25h.62c2.3,0,5.28-1,5.28-4a3.37,3.37,0,0,0-3.65-3.6,7.63,7.63,0,0,0-3.94,1.25l-.82-4.75a13.25,13.25,0,0,1,6.43-1.63c5.47,0,8.21,3.55,8.21,7.54a7.62,7.62,0,0,1-4.46,7v.1c3,1,5.33,3.7,5.33,7.92,0,4.75-3.65,9.41-10.42,9.41a13.2,13.2,0,0,1-6.14-1.39Z"/></g></svg>