<svg xmlns="http://www.w3.org/2000/svg" xmlns:xlink="http://www.w3.org/1999/xlink" viewBox="0 0 425.2 425.2"><defs><style>.cls-1{fill:none;}.cls-2{clip-path:url(#clip-path);}.cls-3{fill:#eee;}.cls-4{fill:#b9b9b9;}.cls-5{fill:#002339;}.cls-6{fill:#cdd0d5;}.cls-7{fill:#a0a0a0;}.cls-8{fill:#fff;}.cls-9{fill:#9aa2ab;}.cls-10{fill:#dcdcdc;}.cls-11{clip-path:url(#clip-path-2);}</style><clipPath id="clip-path"><rect class="cls-1" width="425.2" height="425.2"/></clipPath><clipPath id="clip-path-2"><rect class="cls-1" x="-444.73" y="445.2" width="425.2" height="425.2"/></clipPath></defs><title>4</title><g id="_4" data-name="4"><g class="cls-2"><rect class="cls-3" width="425.2" height="425.2"/><path class="cls-4" d="M231.64,78.22A56.31,56.31,0,0,1,222,87.77c-5.91,4.55-5.46,2.58-14.86,0s-14.23-4.4-14.23-4.4L186,90.2s19,12,18.5,17.59-8.34,16.68-20,17.59c-10.78.84-46.9.52-52.37.46h-.7c-5.47.05-41.59.38-52.37-.46-11.68-.91-19.56-12-20-17.59S77.55,90.2,77.55,90.2l-6.84-6.82s-4.83,1.82-14.23,4.4-8.95,4.55-14.86,0a56.31,56.31,0,0,1-9.68-9.55S30.55,127.8,35.25,134s29.66,8.42,47.12,10.58c13.34,1.65,38.26,2.54,49.42,2.37,11.16.18,36.08-.72,49.42-2.37,17.46-2.16,42.42-4.36,47.12-10.58S231.64,78.22,231.64,78.22Zm-181.08,56c-8.53-1.52-9.7-2.16-13.12-5.8s-2.73-17.17-2.73-17.17,7.62,5.12,14.21,7.05,12.62,8.48,13.65,12.77S65,136.82,50.56,134.24Zm139,3.71c-3.49,1-112,1-115.45,0-4.09-1.21-3.42-6.87-3.4-6.87s17.06.8,36.91,1c11,.08,37.43.08,48.42,0,19.86-.15,36.9-1,36.91-1S193.61,136.75,189.51,138Zm36.62-9.51c-3.41,3.64-4.58,4.28-13.12,5.8-14.48,2.58-13,1.14-12-3.15s7.05-10.83,13.65-12.77,14.21-7.05,14.21-7.05S229.54,124.81,226.13,128.45Z"/><path class="cls-5" d="M168.63,26.5c-21.37,2.12-32.06,2.38-32.06,2.38H127s-10.69-.26-32.06-2.38S62.32,21,62.32,21s7.31,45.58,12.94,56.82,6.75,7.3,16.87,8.43c9.13,1,34.71.2,39.66,0,4.95.17,30.53,1,39.66,0,10.12-1.12,11.25,2.81,16.87-8.43S201.26,21,201.26,21,190,24.38,168.63,26.5Z"/><path class="cls-4" d="M52,18s4.5,21.31,11.25,39.06L70,74.86s-12.37,0-20.81-2.81S38.48,70.92,36.79,61.36,52,18,52,18Z"/><path class="cls-4" d="M213.33,18s-4.5,21.31-11.25,39.06l-6.75,17.75s12.37,0,20.81-2.81,10.69-1.12,12.37-10.69S213.33,18,213.33,18Z"/><path class="cls-6" d="M70.87,223c-1.5-1-15.18,8.25-14.34,20.87s14.34,42.34,14.34,42.34-7,19.83-4,27.06a66.86,66.86,0,0,1,4,13.46s-17.5,15.94-18.5,34.86,26.5,63.25,26.5,63.25l-8.5,58.5,175.24-4.45L193.87,303.54Z"/><g id="_Группа_" data-name="&lt;Группа&gt;"><path class="cls-7" d="M420.87,367.58l46,100.92-45.93,7.87c-5-13.76-15.66-43.88-15.42-53,.31-12-20-42.19-40.13-50.37s-22-64.69-30.19-77.31.34-33.8.34-33.8-5-4.85-7-9.5S345.82,215,345.82,215l.06,0Z"/><path class="cls-4" d="M249.89,239.64c.84-2.12,34.62-86.11,45.48-44.64,11,42-3,156.5-.5,177.74s14.5-26.24,20-30.61c4.88-3.87,12.92,71.19,14,89.44-.09,2.75-.09,4.18,0,3.93a19.84,19.84,0,0,0,0-3.93c.56-19.13,5.46-101.93,4.94-125.26-.59-26.7-12.4-18.31-13.4,12s-10.5-78.33-9-110.83-37.5-51.5-37.5-49.57S250.47,237.7,249.89,239.64ZM420.94,476.37l-72.39,12.41c-14.9-10.88-35.88-26.63-64.18-48.78C218.55,388.5,118,212.59,108.84,196.51l139.85-66.07A50.74,50.74,0,0,1,315.9,154l30,61-.06,0s-19.28,32.7-17.28,37.35,7,9.5,7,9.5S327,283,335.2,295.65s10,69.13,30.19,77.31,40.44,38.37,40.13,50.37C405.28,432.49,415.9,462.61,420.94,476.37ZM186,263.83c31.38,8.17,87.38,3.62,87.38,3.62s-57.75-2.65-87.38-21c-28.85-17.92-36.51-30.72-36.89-31.37a.08.08,0,0,1,0,0,.08.08,0,0,0,0,0C149.27,216.26,155.11,255.79,186,263.83Z"/><path class="cls-7" d="M348.55,488.78l-90.22,15.46L104.87,198.38l4-1.87C118,212.59,218.55,388.5,284.37,440,312.67,462.15,333.65,477.9,348.55,488.78Z"/><path class="cls-7" d="M333.77,306.31c.52,23.33-4.38,106.13-4.94,125.26-1-18.25-9.08-93.31-14-89.44-5.5,4.37-17.5,51.85-20,30.61s11.5-135.74.5-177.74c-10.86-41.47-44.64,42.52-45.48,44.64.58-1.94,24-79.81,24-81.71s39,17.07,37.5,49.57,8,141.17,9,110.83S333.18,279.61,333.77,306.31Z"/><path class="cls-7" d="M104.87,198.38,258.33,504.24l-8.57,1.47L96.87,195.33l-5,4.16s30.25,63.1,63.36,132.41c-1.67,4.49-6.65,15.81-15.07,18.26L75.44,216.72a134.49,134.49,0,0,1,4.41-16.67l5.34-3,14.18-8Z"/><path class="cls-8" d="M249.76,505.71l-11.18,1.91c-5.16-11.58-30-63.83-57.76-122.11h0l-.12-.26-24.82-55.18s-.21.7-.64,1.84c-33.11-69.31-63.36-132.41-63.36-132.41l5-4.16Z"/><path class="cls-7" d="M273.37,267.45s-56,4.55-87.38-3.62c-30.88-8-36.72-47.57-36.89-48.8.38.65,8,13.45,36.89,31.37C215.62,264.8,273.37,267.45,273.37,267.45Z"/><path class="cls-7" d="M238.58,507.62l-20.37,3.49-32.46-66.93c-.09-5.4,0-10.26.24-14.06,1.44-19.94-5-43.93-5.17-44.61C208.61,443.79,233.42,496,238.58,507.62Z"/><path class="cls-7" d="M188.15,488.19,92.63,301.75c6.84,11.52,15.43,24.84,23.78,34.68C141.49,385.9,169,440,187.24,475.82,187.55,480.34,187.86,484.56,188.15,488.19Z"/><path class="cls-7" d="M180.82,385.51c.18.68,6.61,24.67,5.17,44.61-.27,3.8-.33,8.66-.24,14.06l-45.59-94c8.42-2.45,13.4-13.77,15.07-18.26,8.45,17.7,17.09,35.79,25.46,53.34l.12.26Z"/><path class="cls-7" d="M185.75,444.18c.16,9.86.8,21.5,1.49,31.64C169,440,141.49,385.9,116.41,336.43a74,74,0,0,0,9.46,9.57c5.55,4.5,10.31,5.33,14.29,4.16Z"/><path class="cls-6" d="M75.44,216.72l64.72,133.44c-4,1.17-8.74.34-14.29-4.16a74,74,0,0,1-9.46-9.57c-9.26-18.24-18.18-35.85-26.19-51.68a.69.69,0,0,0,0-.1c-.9-2.41-10.68-28.46-15.1-45C73.29,233,73.95,224.55,75.44,216.72Z"/><path class="cls-9" d="M90.22,284.75c8,15.83,16.93,33.44,26.19,51.68-8.35-9.84-16.94-23.16-23.78-34.68L49.37,217.31l30.48-17.26a134.49,134.49,0,0,0-4.41,16.67l-3.9-8s-14,8.66-15,8.66c-.31,0,13.86,28.22,33.64,67.32A.69.69,0,0,1,90.22,284.75Z"/><path class="cls-7" d="M75.08,239.68c4.42,16.51,14.2,42.56,15.1,45-19.78-39.1-33.95-67.32-33.64-67.32,1,0,15-8.66,15-8.66l3.9,8C73.95,224.55,73.29,233,75.08,239.68Z"/></g><path class="cls-5" d="M200.81,515.11,48,216.92l51.69-29.27,5.54,9.44,143-67.54a52,52,0,0,1,68.53,24l105,213.63,46.55,102.13ZM50.69,217.71,201.92,512.89l263.5-45.16L420,368,315,154.39a50,50,0,0,0-65.89-23L104.47,199.68,99,190.36Z"/><rect class="cls-5" x="184.99" y="179.17" width="2" height="361.79" transform="translate(-141.73 121.65) rotate(-26.65)"/><g id="_Группа_2" data-name="&lt;Группа&gt;"><path class="cls-10" d="M425.2,419.32v22c-6.79-14.6-22.83-48.25-31.58-59.61-11.3-14.67-16-12-25.5-21.25a53.81,53.81,0,0,1-7.85-10.24c.63.71,10.86,12,22.6,17,1.4.59,2.72,1.19,4,1.81,9.62,4.71,15.42,10.48,24.15,23.19C415.36,398.61,420.65,409.33,425.2,419.32Z"/><path class="cls-8" d="M412.2,264.91c-.14-.59-2.46-10.14-5.12-18.37-2.75-8.5-8.26-8-8.26-8,4.07-2,11.66-5,15-1.28s7.64,12,11.33,19.75V419.32c-4.55-10-9.84-20.71-14.21-27.07-8.73-12.71-14.53-18.48-24.15-23.19h0s-13-10.8-13.72-28.21,2.75-12.59,9.75-29.09-1.5-14.25,11.75-7,0-7-2.75-18-5.25-.7-7-1.87-4.25-.33-9.58-19.8-2.17-27.36-2.17-27.36-11,.33-17.34-3.81c-5-3.31,1.32-5.41,4.6-6.41,4.42,0,10,.58,14.33.58h.78c.76,0,1.48,0,2.13-.1,6.25-.57,7.25,2.82,7.25,2.82a34.17,34.17,0,0,1,4.5,3.12c1.88,1.54,5.32,4.78,6.41,5.82l0,0c.21.23,2,2.15,4.32,4.88,2.5,2.92,8.92,14.34,11.33,19.09a11.45,11.45,0,0,0,.74,1.25Z"/><path class="cls-10" d="M412.2,264.91h0a11.45,11.45,0,0,1-.74-1.25c-2.41-4.75-8.83-16.17-11.33-19.09-2.34-2.73-4.11-4.65-4.32-4.88l.32.3s1.07-.66,2.7-1.47c0,0,5.51-.49,8.26,8C409.74,254.77,412.06,264.32,412.2,264.91Z"/><path class="cls-10" d="M368.73,303.78h0l1.19.93a40,40,0,0,0,1.77-5.38s-2.58-14.16-3.29-22.08l-.71-7.92S363.62,258.58,363,254a18.4,18.4,0,0,1,0-3.92,8.23,8.23,0,0,1-2.05-.62,26.66,26.66,0,0,1-5.14,2.89,30.92,30.92,0,0,1-3.44,1.25,21.71,21.71,0,0,1-7.12.88c-1.13-.18-1.88-.23-1.88-.23l-1.75-1.07c-1.75-1.08-3.5-3.18-4.5-6.78s13.25-17.15,17.75-18.48a20.65,20.65,0,0,1,5.51-.47c-3.28,1-9.64,3.1-4.6,6.41,6.34,4.14,17.34,3.81,17.34,3.81s-3.17,7.89,2.17,27.36,7.83,18.62,9.58,19.8,4.25-9.19,7,1.87,16,25.21,2.75,18-4.75-9.46-11.75,7-10.5,11.69-9.75,29.09,13.72,28.21,13.72,28.21h0c-1.25-.62-2.57-1.22-4-1.81-11.74-5-22-16.28-22.6-17h0a120.35,120.35,0,0,1-13.14-30.75c-2.75-11.25-12.25-30-13.25-33.65s6-16.35,7.25-22,2.25-9.58,2.25-9.58a12.42,12.42,0,0,0,1.88.23,21.94,21.94,0,0,1,7.87,2.52c3.39,2.11,6.7,8.17,7.61,14.42a19.41,19.41,0,0,1,.22,2c.42,6.91-1.75,10.91-1.75,10.91s.73,1.34,1.7,3.19l.05.08c1.27,2.43,2.94,5.69,3.92,8,1.75,4.09-.18,5.05,2.44,7.09Z"/><path class="cls-4" d="M371.7,299.33a40,40,0,0,1-1.77,5.38l-1.19-.93h0l-1.42-1.11c-2.62-2-.69-3-2.44-7.09-1-2.29-2.65-5.55-3.92-8l-.05-.08c-1-1.85-1.7-3.19-1.7-3.19s2.17-4,1.75-10.91a19.41,19.41,0,0,0-.22-2h0l2.17-5.17s-1.54-1.5-4.54-5-2.56-8.9-2.56-8.9a26.66,26.66,0,0,0,5.14-2.89,8.23,8.23,0,0,0,2.05.62,18.4,18.4,0,0,0,0,3.92c.58,4.58,4.66,15.33,4.66,15.33l.71,7.92C369.12,285.17,371.7,299.33,371.7,299.33Z"/><path class="cls-8" d="M88.1,361.57h0a63.74,63.74,0,0,0-2.15-17.23c-.28-1.09-.55-2.14-.8-3.14h0c-1.54-6.1-2.52-10.44-2.79-11.67h0s0-.1-.07-.28a.31.31,0,0,0,0-.07c-.55-2.22-3.63-14.65-5.74-22.82-2.34-9-3.5-9.66-1.17-11s5.5-2.66,9,0,6.83,12.17,9.17,14.84,5.16,8,8.83,14.33,6.17,21.33,8.5,25,11,17.67,11,17.67.26.19.73.5a24.38,24.38,0,0,0,6.15,6.95c6,4.76,7.12,7.13,6.37,10.88s13.75-4.5,14.5-8.75c.18-1,.43-2.55.71-4.4.93-5.87,2.22-14.92,2.79-20.73.75-7.62,1.25-9.62-1.75-14.12s-4.57-17.56-4.57-17.56h0a8.71,8.71,0,0,1,6.25-6.27c4.83-1.17,6.83,1.5,6.83,1.5s7.67,16.33,12.17,19.66,5.83,6.84,4.83,15.5-.67,29.34,1.83,38.34,3.84,36.83,1.17,47.16c-2.42,9.38-1.68,21.48-.4,30.37H124.53a167.51,167.51,0,0,0-10.33-28.7c-10.66-22.5-20.5-37.5-23.33-47A97.33,97.33,0,0,1,87.59,370C87.9,367,88.08,364.24,88.1,361.57Z"/><path class="cls-10" d="M149,372.15l1.32.2c-.28,1.85-.53,3.38-.71,4.4-.75,4.25-15.25,12.5-14.5,8.75s-.37-6.12-6.37-10.88a24.38,24.38,0,0,1-6.15-6.95c2.42,1.68,10.35,6.95,15.19,7.79,4.32.74,10.19,1,11.26-4.4h0A4.59,4.59,0,0,1,149,372.15Z"/><path class="cls-10" d="M87.06,380.43a51,51,0,0,1,.39-9.18c0-.42.09-.83.14-1.24a97.33,97.33,0,0,0,3.28,20.49c2.83,9.5,12.67,24.5,23.33,47a167.51,167.51,0,0,1,10.33,28.7h-9c-9.74-18.93-28.3-45.45-33.45-56.37-5.5-11.66-3.34-14.33-5.5-21S67.7,367.5,63.2,359.17c-4.33-8-2-12.65-.21-15.81l2.41.29a13.19,13.19,0,0,0-.86,7.52c1,6.83,16,35.33,19.66,38,1.91,1.38,1.74-2.91,1.33-8.62Z"/><path class="cls-10" d="M81.17,347.46a18.86,18.86,0,0,1,3.2,4,43.31,43.31,0,0,1,3.73,10.14h0c0,2.67-.2,5.45-.51,8.44,0,.41-.09.82-.14,1.24a51,51,0,0,0-.39,9.18l-1.53.12c-.38-5.27-1-11.73-.34-16.05,1.33-9-11.82-12-15-19.17-1.78-4-3.67-3.84-4.8-1.68L63,343.36l.21-.36c1.81-3.12,18.63-13.18,19.16-13.49.27,1.23,1.25,5.57,2.79,11.67h0c-.28.67-1.77,4.28-2.33,4.81S81.17,347.46,81.17,347.46Z"/><path class="cls-8" d="M85.53,380.55c.41,5.71.58,10-1.33,8.62-3.66-2.67-18.66-31.17-19.66-38a13.19,13.19,0,0,1,.86-7.52c1.13-2.16,3-2.35,4.8,1.68,3.17,7.17,16.32,10.17,15,19.17C84.56,368.82,85.15,375.28,85.53,380.55Z"/></g><path class="cls-5" d="M427.46,448.67c-.23-.52-23.54-51.89-34.63-66.3-6.62-8.6-10.84-11.08-15.31-13.7a46.7,46.7,0,0,1-10.09-7.44c-9.54-9.28-18.48-30.05-21.27-41.48-1.78-7.29-6.39-17.67-9.76-25.26-1.81-4.09-3.12-7-3.49-8.37-.64-2.35,1.13-6.88,3.91-13.52a64.93,64.93,0,0,0,3.33-9c.93-4.23,1.73-7.51,2.08-8.89l-1.12-.69c-1.59-1-3.74-3-4.94-7.36-1.28-4.6,14-18.39,18.43-19.71,2.71-.8,7.6-.52,12.78-.22a78.61,78.61,0,0,0,10.17.19c5.71-.53,7.61,2.07,8.13,3.12a35.47,35.47,0,0,1,4.35,3c1.81,1.49,5,4.47,6.25,5.67,2.83-1.62,13.71-7.31,18.35-2.18,4.91,5.43,12.07,21.09,15.92,29.51s8.93,18.88,11.41,22.43c1.49,2.13,1.43,5.55,1.36,9.88a58.8,58.8,0,0,0,.8,12.91c2.06,10.31,3.77,37.12,3.77,46.45s24.3,41.07,24.54,41.39l-1.59,1.22c-1-1.33-25-32.63-25-42.61,0-9.26-1.69-35.85-3.73-46.05a61.35,61.35,0,0,1-.84-13.33c.07-4,.12-7.11-1-8.71-3.21-4.6-9.68-18.57-11.59-22.74-3.8-8.32-10.88-23.8-15.58-29-3.44-3.8-13.07.83-16.48,2.93l-.66.4-.56-.53s-4.5-4.29-6.7-6.1a33.38,33.38,0,0,0-4.35-3l-.36-.2-.12-.39c0-.09-.94-2.59-6.2-2.11a79.48,79.48,0,0,1-10.46-.18c-4.78-.27-9.72-.56-12.1.15-4.72,1.39-17.8,14.61-17.07,17.25,1,3.69,2.77,5.4,4.06,6.19l2.38,1.46-.18.71s-1,4-2.24,9.54a65.7,65.7,0,0,1-3.43,9.32c-1.93,4.62-4.34,10.36-3.83,12.22.32,1.18,1.68,4.23,3.39,8.08,3.4,7.65,8,18.13,9.87,25.59,2.74,11.19,11.46,31.5,20.73,40.52a45.07,45.07,0,0,0,9.71,7.15c4.44,2.61,9,5.3,15.88,14.21,11.24,14.59,33.91,64.58,34.87,66.7Z"/><path class="cls-5" d="M366.1,323.2l-2-.38c.1-.52,2.54-12.9,4.31-17.11a47.81,47.81,0,0,0,2.23-6.39c-.32-1.8-2.61-14.62-3.27-22l-.7-7.78c-.49-1.3-4.11-11-4.67-15.43a24.78,24.78,0,0,1,1.13-9.87l1.89.65a23.12,23.12,0,0,0-1,9c.56,4.42,4.57,15,4.61,15.1l.06.27.71,7.92c.7,7.78,3.25,21.85,3.28,22l0,.2,0,.2a45.78,45.78,0,0,1-2.39,6.92C368.6,310.5,366.12,323.07,366.1,323.2Z"/><path class="cls-5" d="M362.89,251.08a11.81,11.81,0,0,1-6.3-3.36c-2.94-2.86-5.77-9.38-5.89-9.66l1.84-.79c0,.06,2.79,6.43,5.44,9a10,10,0,0,0,5.14,2.81Z"/><path class="cls-5" d="M346.26,255.5a15.32,15.32,0,0,1-3.11-.27l.44-2a18.82,18.82,0,0,0,8.5-.63,27.91,27.91,0,0,0,8.25-4l1.22,1.59a29.4,29.4,0,0,1-8.91,4.3A22.76,22.76,0,0,1,346.26,255.5Z"/><path class="cls-5" d="M369.31,305.5l-2.62-2a4.37,4.37,0,0,1-2-3.89,9.09,9.09,0,0,0-.79-3.59c-1.71-4-5.59-11.09-5.63-11.16l-.26-.48.26-.48s2-3.87,1.63-10.38c-.43-7.1-4.16-13.64-7.36-15.63-3.5-2.18-9.23-2.6-9.29-2.6l.14-2c.25,0,6.29.46,10.21,2.9,4.22,2.63,7.87,10.19,8.3,17.21a24,24,0,0,1-1.62,10.95c.89,1.65,3.95,7.35,5.46,10.89a11.09,11.09,0,0,1,1,4.28,2.45,2.45,0,0,0,1.18,2.41l2.62,2Z"/><path class="cls-5" d="M362.84,309.42l-1.62-1.17c.23-.33,2.34-3.2,3.82-4a19.47,19.47,0,0,1,3.41-1.39l.57,1.92a17.72,17.72,0,0,0-3,1.22A16.29,16.29,0,0,0,362.84,309.42Z"/><path class="cls-5" d="M342.64,268.46c-.52,0-1,0-1.09,0l.14-2c.34,0,.92,0,1.31,0a15.24,15.24,0,0,0,1.7-6.21c.27-2.66,0-3.25,0-3.28a.75.75,0,0,0,.72.29l-.2-2a1.21,1.21,0,0,1,1,.37c.44.44.89,1.38.55,4.81-.29,2.95-1.42,7.72-3.19,8A6.5,6.5,0,0,1,342.64,268.46Z"/><path class="cls-5" d="M401.22,273.7c-1.65-.55-4.88-3.81-7.05-10.56-1.09-3.4-2.12-7.36-3.11-11.19-1.09-4.21-2.11-8.18-3.22-11.47a56.84,56.84,0,0,0-3.83-9.24l1.73-1a57.24,57.24,0,0,1,4,9.61c1.13,3.36,2.17,7.36,3.26,11.61,1,3.8,2,7.73,3.07,11.07,2.17,6.77,5.16,9.07,5.78,9.27Z"/><path class="cls-5" d="M418.13,270.14a11.13,11.13,0,0,1-7.57-6c-2.5-4.91-8.81-16.09-11.2-18.89s-4.3-4.86-4.32-4.88l1.47-1.36s1.88,2,4.36,4.93c2.69,3.14,9.26,14.94,11.47,19.28a9.11,9.11,0,0,0,6.16,5l.11,0Z"/><path class="cls-5" d="M361.66,271.82l-1.84-.78,1.92-4.56c-.67-.7-2.05-2.16-4.12-4.58-3.23-3.77-2.82-9.39-2.8-9.63l2,.16s-.36,5,2.33,8.17c2.93,3.41,4.47,4.92,4.48,4.93l.49.48Z"/><path class="cls-5" d="M360.06,288.07a4.73,4.73,0,0,0-2.39-2,7.61,7.61,0,0,0-3.78,0l-.55-1.92a9.5,9.5,0,0,1,5,0,6.72,6.72,0,0,1,3.52,3Z"/><path class="cls-5" d="M126.78,511.25l-.08-1.19c0-.21-1.43-21-10.24-39.64-5-10.57-13.7-24.42-21.38-36.65-6.17-9.83-11.5-18.32-14-23.52-3.55-7.52-4-11.46-4.36-14.93a28.33,28.33,0,0,0-1.19-6.19c-2-6.26-8.61-20.88-13.26-29.5-4.78-8.86-1.78-14,0-17.14S77.75,331.12,81.22,329c-.74-3-3.65-14.7-5.65-22.44-.61-2.34-1.12-4.08-1.54-5.48-1.17-3.93-1.56-5.26.85-6.64,2.66-1.52,6.22-2.89,10.1.07,2.27,1.73,4.35,5.86,6.19,9.5a32.87,32.87,0,0,0,3.12,5.47c1.92,2.2,4.07,6,6.79,10.74.68,1.2,1.4,2.46,2.15,3.75,2.07,3.57,3.75,9.71,5.23,15.13,1.17,4.27,2.27,8.3,3.25,9.84,2.17,3.41,9.9,15.89,10.9,17.5,1.31.92,10.26,7.13,15.34,8,4.11.71,6.9.44,8.52-.82a4.9,4.9,0,0,0,1.73-3.73c.49-6.4.91-15.85.91-19.09,0-2.87.46-7.63.57-8.72-.4-1.21-2.46-7.49-4-14.23-1.67-7.53,1.24-13.78,7.08-15.19,5.41-1.31,7.77,1.74,7.87,1.87l.11.18c.08.16,7.61,16.14,11.86,19.29,5,3.68,6.24,7.67,5.23,16.42s-.61,29.27,1.8,38,4,36.73,1.17,47.68c-3,11.5-1,26.62,0,32.59,1.5,9,4.5,27.5,4.5,27.5l.15.92ZM80.14,294.8a8.78,8.78,0,0,0-4.28,1.41c-1,.59-1,.59.08,4.33.42,1.42.95,3.18,1.56,5.55,2.31,8.9,5.8,23,5.84,23.18l.18.72-.64.38c-6.62,3.94-17.57,11-18.81,13.14-1.79,3.09-4.24,7.32,0,15.19s11.1,22.75,13.41,29.83a30,30,0,0,1,1.27,6.59c.38,3.48.78,7.08,4.18,14.3,2.4,5.09,7.7,13.54,13.84,23.31,7.71,12.27,16.44,26.18,21.49,36.85C126,486,128.16,504,128.6,508.76l54.63-13.18c-.62-3.83-3-18.78-4.35-26.58-1-6.09-3-21.54,0-33.41,2.67-10.35,1.22-38.08-1.16-46.65-2.55-9.19-2.89-29.82-1.86-38.72s-.54-11.69-4.44-14.58c-4.49-3.33-11.66-18.31-12.42-19.93-.33-.36-2-2-5.75-1.07-4.71,1.14-7,6.41-5.59,12.81,1.64,7.36,3.95,14.16,4,14.23l.07.21,0,.22c0,.06-.58,5.65-.58,8.73,0,3.28-.42,12.8-.92,19.24a6.87,6.87,0,0,1-2.49,5.15c-2.78,2.17-7.09,1.73-10.09,1.21-5.92-1-15.91-8.16-16.33-8.46l-.16-.12-.11-.17c-.09-.14-8.69-14-11-17.66-1.14-1.79-2.23-5.77-3.49-10.38-1.45-5.3-3.09-11.3-5-14.65-.75-1.3-1.47-2.56-2.16-3.76-2.56-4.49-4.77-8.37-6.56-10.41a32.74,32.74,0,0,1-3.4-5.88c-1.74-3.45-3.71-7.36-5.62-8.81A5.86,5.86,0,0,0,80.14,294.8Z"/><path class="cls-5" d="M163.66,330.1a28.35,28.35,0,0,0-2.84-.44,11.79,11.79,0,0,0-2.34,0,7.17,7.17,0,0,1-3.58-.52c-2.92-1.19-4.14-7.83-4.53-10.62l2-.28c.66,4.73,2,8.53,3.3,9a5.22,5.22,0,0,0,2.71.37,13.8,13.8,0,0,1,2.7.06,21.67,21.67,0,0,1,3.33.56l-.74,1.86Z"/><path class="cls-5" d="M87,385.65c-.05-.33-.14-.66-.23-1-.47-1.87-1.25-5-.27-13.47,1.18-10.27.75-18-1.47-26.55-2.31-8.92-3.67-15.16-3.68-15.23l2-.42c0,.06,1.36,6.27,3.66,15.15s2.74,16.75,1.53,27.28c-.93,8.12-.23,10.91.23,12.75.11.45.21.85.27,1.23Z"/><path class="cls-5" d="M87.13,361.81a42.91,42.91,0,0,0-3.63-9.88A23.49,23.49,0,0,0,77,345.34l1.09-1.68a25.17,25.17,0,0,1,7.15,7.25,44.12,44.12,0,0,1,3.85,10.45Z"/><path class="cls-5" d="M81.81,348.23l-1.29-1.53s1-.85,1.61-1.42a33.06,33.06,0,0,0,2.13-4.56l1.85.75c-.69,1.69-1.94,4.63-2.61,5.27S81.81,348.23,81.81,348.23Z"/><path class="cls-5" d="M137.38,380.84a1.47,1.47,0,0,1-.32,0l.43-2h0a25.64,25.64,0,0,0,8-3.2,5.12,5.12,0,0,0,2.65-4.5l2-.17a7.09,7.09,0,0,1-3.6,6.37C143.57,379.13,139,380.84,137.38,380.84Z"/><path class="cls-5" d="M174.32,343.09s-1.62-.5-4.15-1a21.49,21.49,0,0,0-6,0l-.29-2a23.27,23.27,0,0,1,6.68,0c2.64.55,4.28,1.05,4.35,1.08Z"/><path class="cls-5" d="M78.76,305.86l-1-1.71a20,20,0,0,0,2.52-1.73A12.31,12.31,0,0,0,78,297.06c-.34-.37-.52-.4-.52-.4s-.08.13-.09.14L75.58,296a2.31,2.31,0,0,1,1.61-1.28,2.57,2.57,0,0,1,2.28,1c1.48,1.6,3.4,6.44,2.52,7.74A14.27,14.27,0,0,1,78.76,305.86Zm1.49-3.33Z"/><path class="cls-5" d="M372.67,233.34l-1.95-.45c.31-1.36,1.52-5.8,4-5.86,1.89,0,4.15,0,4.17,0l0,2s-2.24,0-4.08,0C374.27,229,373.21,231,372.67,233.34Z"/></g></g><g id="_7" data-name="7"><g class="cls-11"><g id="_Группа_3" data-name="&lt;Группа&gt;"><path class="cls-8" d="M27.68,1070.8c-19.27,12.34-49.58,29.25-86.06,41-57.39,18.5-116.48,36.71-147.79,57.51-14,9.28-25.85,35.36-34.66,61.44a561.71,561.71,0,0,0-17.27,64.62s203.66-67.08,251.65-88.64S50.3,1055,50.3,1055A272.75,272.75,0,0,1,27.68,1070.8Zm-1720.24,0c-14.39-9.22-22.62-15.8-22.62-15.8s8.81,130.23,56.8,151.73,251.59,88.64,251.59,88.64a561.71,561.71,0,0,0-17.27-64.62c-8.81-26.08-20.68-52.16-34.6-61.44-31.37-20.79-90.46-39-147.85-57.51C-1642.93,1100.05-1673.3,1083.08-1692.56,1070.8Zm95.87-462.59c-2.94-14.57,51.4-66.2,107.2-66.2,54,0,39.24,33,38.24,35.13L-1315,392.22l1,.7c-43.59,61.38-116.84,191.5-116.84,204.89,0,16.62,70.49,8.81,202.66,6.81,111.61-1.64,684.34-1.64,795.95,0,132.17,2,202.66,9.81,202.66-6.81,0-13.39-73.31-143.74-116.84-205.07l.7-.53,135.93,184.45C-212,573-221.27,554-170.81,554c55.8,0,83.3,36.83,82.53,51.69C-90,639.17-180,621.31-180,621.31s98.39,35,158.6,68.14S80,843.06,93.18,925.3c8.52,52.87-4.88,174.93-18.62,275.26-7.64,55.75-15.39,104.79-19.56,131.52-5.4,34.36-82.71,57.86-164.89,73.31-21.73,4.05-43.76,7.58-65,10.57-73.31,10.34-135.81,14.51-135.81,14.51s-32.31-7.34-85.18-7.34-162.95,15-271.68,17.62c-81.36,1.88-244.25,1.64-325.6,0-108.73-2.23-218.81-17.62-271.68-17.62s-85.18,7.34-85.18,7.34-60.68-4.05-132.64-14c-24.08-3.41-49.4-7.4-74.19-12.22-79.89-15.45-153.61-38.59-158.84-72.13-3.52-22.56-9.57-61-16-105.85-14.86-104.21-31.43-243.42-22.2-300.93,13.22-82.24,54.34-202.66,114.55-235.85s158.6-68.14,158.6-68.14S-1593.76,622.78-1596.7,608.21Zm772.86,687.1c49.28-.35,373.77-4,452.43-35.19,85.18-33.78,104.27-88.11,102.8-104.27-.59-6.23-9.4-27.43-25.73-52.57-16.86-26-41.77-56.27-73.84-78.6-17.56-12.16-37.3-22-59-27.43-91.75-22.91-354.92-24.79-397.15-25-34.31.12-305.87,1.59-399.32,25a175.17,175.17,0,0,0-48.23,20.44c-36.83,22.32-65.14,55.8-83.88,84.41-16.86,25.67-26,47.4-26.49,53.75-1.47,16.15,17.62,70.49,102.8,104.27C-1198.84,1292.08-859.61,1295.13-823.84,1295.31ZM14.11,867C43.48,819,20,764.23-2.57,768.16s-197.67,78.3-218.28,89.05c-24.79,12.92-97.92,94-97.92,94s30.37,29.37,54.81,30.37,40.18,1.94,140-30.37S-15.26,915,14.11,867ZM-267.26,1383c11.75-12.69-58.74-28.37-91.81-32.31s-897.45-3.88-930.47,0-103.56,19.62-91.81,32.31,291.77,33.31,414.13,32.31,199.25-.65,285.84,0C-559,1416.26-279,1395.7-267.26,1383ZM-1400.91,981.57c24.5-1,54.81-30.37,54.81-30.37s-75.37-88.11-97.86-94-195.84-85.18-218.34-89.05-46,50.87-16.62,98.86,38.18,51.87,138,84.18S-1425.41,982.57-1400.91,981.57Z"/></g><path class="cls-5" d="M-822.64,1443.08c-64.12,0-128.83-.5-170.52-1.34-60.59-1.23-122.85-6.67-172.87-11-40.46-3.53-75.41-6.59-98.79-6.59-52.13,0-84.63,7.25-85,7.32l-.14,0h-.15c-.89-.06-89.56-6.05-178.53-21.12-119.84-20.3-183.11-46.58-188.06-78.11l-.64-4.07c-12.5-79.66-50.55-322.07-37.54-403,7.38-45.89,21.85-95.66,39.72-136.56,22-50.4,48.07-85,75.33-100,51.48-28.37,131.74-58.36,153.28-66.23-9.77,0-30.46-.07-51.15-1.12-58-2.94-59.55-10.37-60-12.81-.8-4,2.12-10.3,8.24-17.77,15.71-19.19,56.73-49.63,99.94-49.63,20.21,0,33.3,4.58,38.88,13.62,3.63,5.87,3.29,12.31,2.28,16.9l132.57-179.9,1.61,1.19-136.35,185-1.7-1c.06-.12,5.72-11.72-.11-21.14-5.2-8.4-17.71-12.66-37.17-12.66-42.53,0-82.92,30-98.4,48.9-5.65,6.9-8.5,12.77-7.83,16.11,2,10,71.62,12.85,115,12.29l6-.08-5.69,2c-1,.35-99,35.3-158.45,68.07-26.87,14.81-52.62,49.06-74.46,99.05-17.8,40.75-32.23,90.34-39.58,136.08-13,80.65,25.05,322.82,37.54,402.4l.64,4.07c4.73,30.16,69.19,56.59,186.4,76.45,87.2,14.77,174.13,20.81,178.2,21.09,2.43-.53,34.66-7.33,85.25-7.33,23.47,0,58.45,3.06,99,6.59,50,4.37,112.21,9.8,172.74,11,79.4,1.61,242.35,2,325.6,0,59.76-1.41,118.75-6.5,170.79-11,41.35-3.56,77.07-6.64,100.91-6.64,50.59,0,82.82,6.8,85.25,7.33,4.06-.28,91-6.32,178.2-21.09C-15.16,1388.5,49.3,1362.07,54,1331.91l.64-4.07c12.49-79.58,50.51-321.75,37.54-402.4-7.35-45.73-21.78-95.33-39.58-136.08-21.84-50-47.59-84.24-74.46-99.05-59.45-32.77-157.47-67.72-158.46-68.07l.5-1.93c.65.11,65.6,10.58,85.16-4.95a13.09,13.09,0,0,0,5.37-9.75c.38-5.79-4.21-14.68-11.68-22.66-7.87-8.4-30.58-27.94-71.33-27.94-27.5,0-36,5.68-38.29,10.45-2.2,4.58.82,9.47,1.75,10.81l.29.39-1.58,1.22s-.19-.24-.42-.56l-136-184.51,1.61-1.19L-213.3,570.15a10.29,10.29,0,0,1,.93-5.55c3.68-7.7,17.17-11.6,40.1-11.6,41.53,0,64.74,20,72.79,28.57s12.64,17.75,12.22,24.16a15.18,15.18,0,0,1-6.12,11.19c-15.82,12.56-58.21,9-77.28,6.68,25.66,9.45,100.79,37.93,149.81,65,27.26,15,53.31,49.61,75.33,100,17.87,40.89,32.35,90.67,39.72,136.56,13,81-25,323.37-37.54,403l-.64,4.07c-4.95,31.53-68.22,57.81-188.06,78.11-89,15.07-177.64,21.06-178.53,21.12h-.15l-.14,0c-.32-.07-32.82-7.32-85-7.32-23.75,0-59.43,3.07-100.74,6.63-52.08,4.49-111.1,9.57-170.92,11C-707,1442.67-764.6,1443.08-822.64,1443.08Z"/></g></g><g id="Numbers"><path class="cls-5" d="M22.36,43.81V36.37H11.65V32L21.88,12.6h6V31.33H31v5H27.92v7.44Zm0-12.48V24.94c0-1.68.19-3.5.34-5.14H22.5c-.72,1.73-1.34,3.12-2.16,4.85L17,31.23v.1Z"/></g></svg>