<svg xmlns="http://www.w3.org/2000/svg" xmlns:xlink="http://www.w3.org/1999/xlink" viewBox="0 0 425.2 425.2"><defs><style>.cls-1{fill:none;}.cls-2{clip-path:url(#clip-path);}.cls-3{clip-path:url(#clip-path-2);}.cls-4{fill:#eee;}.cls-5{fill:#fff;}.cls-6{fill:#cdd0d5;}.cls-7{fill:#002339;}.cls-8{fill:#dcdcdc;}.cls-9{fill:#b9b9b9;}.cls-10{clip-path:url(#clip-path-4);}.cls-11{clip-path:url(#clip-path-6);}</style><clipPath id="clip-path"><rect class="cls-1" x="445.2" y="-445.2" width="425.2" height="425.2"/></clipPath><clipPath id="clip-path-2"><rect class="cls-1" width="425.2" height="425.2"/></clipPath><clipPath id="clip-path-4"><rect class="cls-1" x="445.2" width="425.2" height="425.2"/></clipPath><clipPath id="clip-path-6"><rect class="cls-1" x="890.4" width="425.2" height="425.2"/></clipPath></defs><title>5</title><g id="_2" data-name="2"><g class="cls-2"><rect class="cls-1" x="394.1" y="-420.2" width="474.26" height="474.26"/></g></g><g id="_5" data-name="5"><g class="cls-3"><rect class="cls-4" width="425.2" height="425.2"/><g id="_Группа_" data-name="&lt;Группа&gt;"><path class="cls-5" d="M218.88,447.44c-1.76,2.06-29.43,36.3-32.25,43.41-2.94,7.34,49.46.47,48,0s-25.55-9.93-24-18.91C212,463.53,218.12,449.2,218.88,447.44Zm206.71-45.76c.94-2.06,18.86-39.89,12.69-49.87-6.4-10.28-33.78,11.28-33.78,11.28s1.94,4.41,17.5,1.47C437.22,361.67,426.12,399.68,425.59,401.68Zm30.31-42.53c7.81,16.68-4.93,53.87-30.37,79.3s-61.68,40.18-142,58.74S180.76,512.88,169,506s29.72-63.85,63-84.35S362,356.33,432.41,339.59C439.57,337.88,448,342.53,455.9,359.15ZM315,446.32c18.44,18.09,44.41,18.09,44.41,18.09S314.92,440.8,319.8,423s11.75-25.67,3.94-23.2-14.22,11.75-14.22,11.75S296.54,428.17,315,446.32Z"/><path class="cls-5" d="M438.28,351.81c6.17,10-11.75,47.82-12.69,49.87.53-2,11.63-40-3.58-37.12-15.57,2.94-17.5-1.47-17.5-1.47S431.88,341.53,438.28,351.81Z"/><path class="cls-5" d="M359.45,464.41s-26,0-44.41-18.09-5.52-34.77-5.52-34.77,6.34-9.28,14.22-11.75.94,5.4-3.94,23.2S359.45,464.41,359.45,464.41Z"/><path class="cls-5" d="M180.76,536.37C156.32,535.37,126,506,126,506s73.13-81.06,97.92-94c20.62-10.75,195.79-85.18,218.28-89.05s46.05,50.87,16.68,98.86-38.18,51.87-138,84.18S205.25,537.37,180.76,536.37Zm244.78-97.92C451,413,463.72,375.83,455.9,359.15s-16.33-21.26-23.5-19.56C362,356.33,265.29,401.21,232,421.65S157.26,499.19,169,506s34.31,9.81,114.55-8.81S400.1,463.94,425.53,438.45Z"/><path class="cls-6" d="M-698.66-20.67c35.3-2.64,594.64-2.64,630,0C-29.48-17.74,27.27,94.81,27.27,94.81l-98.86-3.88S-85.28,28.26-103.9,14.63-186.14-1.11-228.26,6.7-263.5,90.94-263.5,90.94H-503.87S-497,14.57-539.12,6.7-644.85.94-663.42,14.63s-32.31,76.31-32.31,76.31l-98.92,3.88S-737.84-17.74-698.66-20.67Z"/><path class="cls-6" d="M-366.3-133.75c137.4.18,271.21,13.57,311.27,18.09C57.58-102.91,44.83-102.91,73.26-82.35c5.58,4.05,14.45,14.92,25.08,29.9C141.87,8.87,215.18,139.22,215.18,152.61c0,16.62-70.49,8.81-202.66,6.81-111.61-1.64-684.34-1.64-795.95,0-132.17,2-202.66,9.81-202.66-6.81,0-13.39,73.25-143.51,116.84-204.89,10.63-15.1,19.56-26,25.14-30.08,28.37-20.56,15.68-20.56,128.23-33.31C-671.93-120.65-516.91-134-366.3-133.75ZM-68.66-20.67c-35.36-2.64-594.7-2.64-630,0-39.18,2.94-96,115.49-96,115.49l98.92-3.88S-682,28.26-663.42,14.63s82.24-15.74,124.3-7.93,35.24,84.24,35.24,84.24H-263.5s-6.81-76.36,35.24-84.24S-122.52.94-103.9,14.63s32.31,76.31,32.31,76.31l98.86,3.88S-29.48-17.74-68.66-20.67Z"/><path class="cls-5" d="M126,506s30.37,29.37,54.81,30.37,40.18,1.94,140-30.37,108.67-36.18,138-84.18S464.71,319,442.16,323,244.49,401.27,223.87,412C199.09,424.94,126,506,126,506ZM472.41,625.6c-19.27,12.34-49.58,29.25-86.06,41-57.39,18.5-116.48,36.71-147.79,57.51-14,9.28-25.85,35.36-34.66,61.44a561.71,561.71,0,0,0-17.27,64.62s203.66-67.08,251.65-88.64S495,609.8,495,609.8A272.75,272.75,0,0,1,472.41,625.6ZM85.66,905.44c-33-3.88-897.45-3.88-930.47,0s-103.56,19.62-91.81,32.31,291.77,33.31,414.13,32.31,199.25-.65,285.84,0c122.36,1,402.38-19.56,414.13-32.31S118.73,909.38,85.66,905.44ZM17.52,552.06c-91.75-22.91-354.92-24.79-397.15-25-34.31.12-305.87,1.59-399.32,25a175.17,175.17,0,0,0-48.23,20.44c-36.83,22.32-65.14,55.8-83.88,84.41-16.86,25.67-26,47.4-26.49,53.75-1.47,16.15,17.62,70.49,102.8,104.27,80.65,32,419.88,35,455.66,35.19,49.28-.35,373.77-4,452.43-35.19,85.18-33.78,104.27-88.11,102.8-104.27-.59-6.23-9.4-27.43-25.73-52.57-16.86-26-41.77-56.27-73.84-78.54C59,567.33,39.25,557.52,17.52,552.06ZM-1247.83,625.6c-14.39-9.22-22.62-15.8-22.62-15.8s8.81,130.23,56.8,151.73,251.59,88.64,251.59,88.64a561.71,561.71,0,0,0-17.27-64.62c-8.81-26.08-20.68-52.16-34.6-61.44-31.31-20.79-90.46-39-147.85-57.51C-1198.2,654.85-1228.57,637.88-1247.83,625.6Zm135.75,333.48c-79.89-15.51-153.61-38.65-158.84-72.19-3.52-22.56-9.57-61-16-105.85-14.86-104.21-31.43-243.42-22.2-300.93,13.22-82.24,54.34-202.66,114.55-235.85s158.6-68.14,158.6-68.14S-1149,177.58-1152,163s51.4-66.2,107.2-66.2c54,0,39.24,33,38.24,35.13L-870.24-53l1,.7c-43.59,61.38-116.84,191.5-116.84,204.89,0,16.62,70.49,8.81,202.66,6.81,111.61-1.64,684.34-1.64,795.95,0,132.17,2,202.66,9.81,202.66-6.81,0-13.39-73.31-143.74-116.84-205.07L99-53,235,131.47c-2.23-3.64-11.51-22.67,38.95-22.67,55.8,0,83.3,36.83,82.53,51.69-1.7,33.48-91.7,15.63-91.7,15.63s98.39,35,158.6,68.14S524.69,397.86,537.91,480.1C546.42,533,533,655,519.29,755.36c-7.64,55.75-15.39,104.79-19.56,131.52-5.4,34.36-82.71,57.86-164.89,73.31-21.73,4.05-43.76,7.58-65,10.57-73.31,10.34-135.81,14.51-135.81,14.51s-32.31-7.34-85.18-7.34-162.95,15-271.68,17.62c-81.36,1.88-244.25,1.64-325.6,0-108.73-2.23-218.81-17.62-271.68-17.62s-85.18,7.34-85.18,7.34-60.68-4.05-132.64-14C-1062,967.83-1087.29,963.83-1112.08,959.08Zm155.9-422.7c24.5-1,54.86-30.37,54.86-30.37s-75.42-88.11-97.92-94S-1195,326.84-1217.58,323s-46,50.87-16.62,98.86,38.18,51.87,138,84.18S-980.62,537.37-956.18,536.37Z"/></g><path class="cls-7" d="M166.19,164c-17,0-38.42-.64-64.37-1.41s-55.43-1.65-89.29-2.15c-111.58-1.65-684.34-1.65-795.92,0-33.86.5-63.31,1.38-89.29,2.15-66.84,2-103.67,3.08-112.32-5.32a6.36,6.36,0,0,1-2.06-4.69c0-9.17,31.16-66.88,60.47-116.52,29.9-50.63,67.11-108.54,81.9-119.25,3.31-2.4,6.08-4.53,8.52-6.41,19-14.6,20.51-15.79,120.21-27.06,41.87-4.73,194.51-18.12,345.8-18.12h3.85c145.81.22,285,15.13,311.41,18.12C44.79-105.38,46.34-104.19,65.31-89.59c2.44,1.88,5.21,4,8.52,6.41h0c14.79,10.71,52,68.62,81.9,119.25C185,85.72,216.2,143.43,216.2,152.59a6.36,6.36,0,0,1-2.06,4.69C208.84,162.42,193,164,166.19,164Zm-551.62-6.8c171.1,0,342.2.41,398,1.24,33.88.5,63.33,1.38,89.32,2.15,64.12,1.91,102.82,3.06,110.87-4.75a4.37,4.37,0,0,0,1.45-3.25c0-7.61-26.44-58.35-60.19-115.51C124.21-13.37,87.2-71,72.66-81.56,69.32-84,66.54-86.12,64.09-88,45.53-102.29,44-103.46-55.12-114.66c-26.4-3-165.48-17.88-311.19-18.11-152.51-.22-307.23,13.33-349.43,18.11C-814.88-103.46-816.39-102.29-835-88c-2.45,1.89-5.23,4-8.57,6.44C-858.06-71-895.08-13.37-924.87,37.09c-33.75,57.16-60.19,107.9-60.19,115.51a4.37,4.37,0,0,0,1.45,3.25c8,7.81,46.75,6.66,110.87,4.75,26-.77,55.45-1.65,89.32-2.15C-727.63,157.62-556.53,157.21-385.43,157.21Z"/><path class="cls-7" d="M-377.91,997.88c-64.12,0-128.83-.5-170.52-1.34-60.59-1.23-122.85-6.67-172.87-11-40.46-3.53-75.41-6.59-98.79-6.59-52.13,0-84.63,7.25-85,7.32l-.14,0h-.15c-.89-.06-89.56-6.05-178.53-21.12C-1203.7,944.83-1267,918.55-1271.92,887l-.64-4.07c-12.5-79.66-50.55-322.06-37.54-403,7.38-45.89,21.85-95.66,39.72-136.56,22-50.4,48.07-85,75.33-100,51.48-28.37,131.74-58.36,153.28-66.23-9.77,0-30.46-.07-51.15-1.12-58-2.94-59.55-10.37-60-12.81-.8-4,2.12-10.3,8.24-17.77,15.71-19.19,56.73-49.63,99.94-49.63,20.21,0,33.3,4.58,38.88,13.62,3.63,5.87,3.29,12.31,2.28,16.9L-871-53.59l1.61,1.19-136.35,185-1.7-1c.06-.12,5.72-11.72-.11-21.14-5.2-8.4-17.71-12.66-37.17-12.66-42.53,0-82.92,30-98.4,48.9-5.65,6.9-8.5,12.77-7.83,16.11,2,10,71.63,12.85,115,12.29l6-.08-5.69,2c-1,.35-99,35.3-158.45,68.07-26.87,14.81-52.62,49.06-74.46,99.05-17.8,40.75-32.23,90.34-39.58,136.08-13,80.65,25.05,322.82,37.54,402.4l.64,4.07c4.73,30.16,69.19,56.59,186.4,76.45,87.2,14.77,174.13,20.81,178.2,21.09,2.43-.53,34.66-7.33,85.25-7.33,23.47,0,58.45,3.06,99,6.59,50,4.37,112.21,9.8,172.74,11,79.4,1.61,242.35,2,325.6,0C-163,993.12-104,988-52,983.55c41.35-3.56,77.07-6.64,100.91-6.64,50.59,0,82.82,6.8,85.25,7.33,4.06-.28,91-6.32,178.2-21.09C429.58,943.3,494,916.87,498.77,886.71l.64-4.06c12.49-79.58,50.51-321.76,37.55-402.42-7.35-45.73-21.78-95.33-39.58-136.08-21.84-50-47.59-84.24-74.46-99.05C363.46,212.34,265.44,177.38,264.45,177l.5-1.93c.65.11,65.6,10.58,85.16-4.95a13.09,13.09,0,0,0,5.37-9.75c.38-5.79-4.21-14.68-11.68-22.66-7.87-8.4-30.58-27.94-71.33-27.94-27.5,0-36,5.68-38.29,10.45-2.2,4.58.82,9.46,1.75,10.8l.29.39-1.58,1.22s-.19-.24-.41-.56L98.26-52.41l1.61-1.19L231.44,124.95a10.29,10.29,0,0,1,.93-5.55c3.68-7.7,17.17-11.6,40.1-11.6,41.53,0,64.74,20,72.79,28.57s12.64,17.75,12.22,24.16a15.19,15.19,0,0,1-6.12,11.19c-15.82,12.56-58.21,9-77.28,6.68,25.66,9.45,100.79,37.93,149.81,65,27.26,15,53.31,49.61,75.33,100,17.87,40.89,32.35,90.67,39.72,136.56,13,81-25,323.38-37.54,403l-.64,4.06c-4.95,31.53-68.22,57.81-188.06,78.11-89,15.07-177.64,21.06-178.53,21.12H134l-.14,0c-.32-.07-32.82-7.32-85-7.32-23.75,0-59.43,3.07-100.74,6.63-52.07,4.49-111.1,9.57-170.92,11C-262.31,997.47-319.87,997.88-377.91,997.88Z"/><path class="cls-7" d="M273.45,179.37c-15.72-8.59-39.28-47.05-40.27-48.69l1.71-1c.24.4,24.27,39.64,39.52,48Z"/><path class="cls-4" d="M56-7.53s44.57,26.67,80.57,68,55.09,70.67,55.09,70.67-17.5-56.67-52-101.33L105.27-14.87Z"/><path class="cls-4" d="M0,130.47S-10.31,335.25,57.93,389.13c38,30,226,28.67,303.33,28.67,97,0,83.47,12,83.47,12L4.6,441.8l-14.33-8.67Z"/></g><g class="cls-3"><g id="_Группа_2" data-name="&lt;Группа&gt;"><path class="cls-5" d="M200.58,164.05l-26.12,17.5-2.06,4.75c-2,4.75-12.06,15.25-12.06,15.25s.62,0-1.12,10.5-7.71,6-7.71,6l-.54.31c-3-4.21-5.84-13.44-5.84-16.56,0-1.66,2.24-7.58,5.25-14.17,1.78-3.91,3.84-8.07,5.85-11.71,2.75-5,5.43-9,7.23-10.12,4.14-2.58,21.32-18.62,31.61-26.61,3-2.31,5.38-3.94,6.72-4.39,6-2,75.34-14.67,83-16s16.34-17,27.34-27C319.5,85.1,367.72,32,398.76-2.38l26.9-2.32V60c-28.32,25.08-92,81.69-102.59,92.55-13.64,14-8.11,22.46-11.86,33.46s-16.75,22.5-24.5,22.75-35,20.25-41.25,25.06S227,240,227,240a11.41,11.41,0,0,1-4.5-10.61s.67-1.23,1.17-2.23,4.16-4.33,9.93-10.66c2.38-2.62,3.34-4.07,3.65-4.87a65.85,65.85,0,0,0-11.5,8.39c-5.61,5.32-14,8.16-14.45,8.3a19,19,0,0,1-3.47-2.16c-7.38-5.74-3.63-12.92-3.51-13.15h0s6-7.17,10.74-13.84c2.7-3.8,3.22-6.19,3.16-7.55-2,1.84-6.1,5.69-13.9,12.77-10.31,9.36-13.55,9-14.3,8.73h0a12.38,12.38,0,0,1-3.15-2.85,16.16,16.16,0,0,1-2.52-4.75c-1.22-3.52,1.05-9.36,4.23-15.34,4.66-8.75,11.27-17.78,11.77-20.16a17,17,0,0,0,.29-2h0A23.23,23.23,0,0,0,200.58,164.05Z"/><path class="cls-8" d="M425.66,60V73.39c-10.35,10-25.18,24.12-30.7,28.91-8.83,7.67-55.17,57.33-65.83,70.67-9.6,12-17.85,26.15-23.29,33.6-.6.83-1.18,1.58-1.71,2.23-5.34,6.5-14.67,4-30.84,11.8s-25.5,16.87-28.66,17.7c-1.88.49-5.74,2.5-9.75,3.16-2.77.46-5.61.28-7.92-1.49,0,0,12.25-1.3,18.5-6.11s33.5-24.81,41.25-25.06,20.75-11.75,24.5-22.75-1.78-19.42,11.86-33.46C333.62,141.73,397.34,85.12,425.66,60Z"/><path class="cls-7" d="M402.88,283.86a18.68,18.68,0,0,1,3,26.22l-41.82,52.81a18.69,18.69,0,0,1-25.87,3.35c-25.26-19-75.63-57.35-87.74-70.44-16.33-17.67-15.58-54.33-15.58-54.33h0c4-.66,7.87-2.67,9.75-3.16,3.16-.83,12.5-9.9,28.66-17.7s25.5-5.3,30.84-11.8c.53-.65,1.11-1.4,1.71-2.23Zm-.75,11.27-1.67-4.66-93-74.48-4.67,1.48ZM350.46,362.8V358s-69.33-48.17-85.33-72.17-6.34-43.33-9-44.79-9.67,8.34-9.67,8.34-1,4.45,0,12.64,1,17.48,13.33,29.81S350.46,362.8,350.46,362.8Z"/><polygon class="cls-5" points="400.46 290.47 402.13 295.13 302.79 217.47 307.46 215.99 400.46 290.47"/><path class="cls-5" d="M350.46,358v4.83s-78.33-58.67-90.67-71S247.46,270.19,246.46,262s0-12.64,0-12.64,7-9.81,9.67-8.34-7,20.79,9,44.79S350.46,358,350.46,358Z"/><path class="cls-8" d="M225.71,220a65.85,65.85,0,0,1,11.5-8.39c-.31.8-1.27,2.25-3.65,4.87-5.77,6.33-9.43,9.66-9.93,10.66s-1.17,2.23-1.17,2.23a15.44,15.44,0,0,1-11.2-1.07C211.66,228.15,220.1,225.31,225.71,220Z"/><path class="cls-7" d="M197.22,105.55l6.17,8.75s-10.54,6.61-9.43,15.75l1.11,9.14c-10.29,8-27.47,24-31.61,26.61-1.8,1.12-4.48,5.14-7.23,10.12l-6.62-14.37-12.45,6.74-14.58-10.08c10-15.26,26.07-37.87,37.76-44.16A75.71,75.71,0,0,1,197.22,105.55Zm-3,10.25,1.69-6a67.75,67.75,0,0,0-33.38,9.27c-16.06,9.75-31.06,35.25-31.06,35.25l2.91,2.25s17.67-28.5,33.75-35.25S194.21,115.8,194.21,115.8ZM186,137.55l-6.49-7.47s-3.26,1-10,6-17.95,18.25-17.95,18.25h15.11Z"/><path class="cls-8" d="M165.57,203.69c-.2,0-.44.66-.44.66Zm0,0c.26,0,.45,1.15-.12,6.48a12.29,12.29,0,0,1-2.94,7.2,10.23,10.23,0,0,1-9.06,3.1,4.62,4.62,0,0,1-2.49-2.11l.54-.31s6,4.5,7.71-6,1.12-10.5,1.12-10.5,10-10.5,12.06-15.25l2.06-4.75,26.12-17.5a23.23,23.23,0,0,1,0,3.92h0L183.1,182.67,181,184.45l-5.57,4.68-6.92,10.26Z"/><path class="cls-7" d="M183.1,182.67,200.58,168a17,17,0,0,1-.29,2c-.5,2.38-7.11,11.41-11.77,20.16Z"/><path class="cls-5" d="M195.9,109.78l-1.69,6s-10-1.25-26.09,5.5-33.75,35.25-33.75,35.25l-2.91-2.25s15-25.5,31.06-35.25A67.75,67.75,0,0,1,195.9,109.78Z"/><path class="cls-6" d="M183.1,182.67l5.42,7.46c-3.18,6-5.45,11.82-4.23,15.34a16.16,16.16,0,0,0,2.52,4.75l-.85.4s-1.75.43-5.77-.45-1.73-8.12,0-15.34.78-10.37.78-10.37h0Z"/><path class="cls-5" d="M179.47,130.08l6.49,7.47L166.62,154.3H151.51s11.2-13.25,17.95-18.25S179.47,130.08,179.47,130.08Z"/><path class="cls-7" d="M170.71,213c.25,7.08-7.25,11-7.25,11l-.94-6.62a12.29,12.29,0,0,0,2.94-7.2c.57-5.33.38-6.48.12-6.48l2.9-4.3A59.91,59.91,0,0,1,170.71,213Z"/><path class="cls-7" d="M149.61,161.55l6.62,14.37c-2,3.64-4.07,7.8-5.85,11.71l-10.67-17.58-2.55-1.76Z"/><path class="cls-7" d="M137.16,168.29l2.55,1.76-15.75,12-10.5-9.25s3.63-6.18,9.12-14.59Z"/><path class="cls-5" d="M84.3,368.06c-5,5.28-17,14.43-35.24,7.19,0,0-2.15,1.59-7.87-7.68-2.41-3.88-4.1-7-5.27-9.26C29,358.26,16,356.06,7.21,341.8-5,322.07,23,313.73,24.4,313.32l.06,0-.06,0c-.78.14-9,1.61-23.94-.59V231.06l113-58.26,10.5,9.25L109.59,331.49a57,57,0,0,1,10.23,1.31c17.64,4,11.87,26,2.76,32s-21.12-4.5-21.12-4.5S94.48,375.29,84.3,368.06Z"/></g><path class="cls-7" d="M232.44,242.68a9.74,9.74,0,0,1-6.08-1.91,12.33,12.33,0,0,1-5-10.08,17.53,17.53,0,0,1-14.18-3.75c-5.57-4.33-5.27-9.52-4.53-12.34a30.06,30.06,0,0,1-5.32,1.22c-4.67.52-11.14-1.81-14-10-2.23-6.45,5.71-19,11.5-28.24,1.75-2.78,3.43-5.44,4.13-6.93l-22.83,19.18-9.42,13.95c.19,1,.12,2.8-.28,6.52-.43,4-2,7.15-4.67,9.12a11.27,11.27,0,0,1-8.5,2.06c-4.61-.84-9.15-15.74-9.15-19.65S157,168.64,162.93,165c2-1.26,7.57-6.12,13.46-11.26,10-8.7,21.24-18.56,25.09-19.84,6.25-2.08,76.48-14.88,83.15-16,4.29-.75,9.38-6.92,14.76-13.45a126.93,126.93,0,0,1,12.07-13.31c10.83-9.85,112-125.75,113-126.92l1.62-1.86,3.39,63.22,8.1,37.8-.4.39c-.33.32-32.79,31.77-41.54,39.37-9.08,7.88-55.13,57.32-65.71,70.54-6.08,7.6-11.72,16.24-16.26,23.18-3.45,5.29-6.44,9.85-8.75,12.67-3.05,3.72-7.17,4.67-12.88,6a79.81,79.81,0,0,0-18.29,6.09,143,143,0,0,0-22.19,13.61c-3.18,2.29-5.28,3.79-6.66,4.16-.58.15-1.44.49-2.42.88C239.83,241.19,236.09,242.68,232.44,242.68Zm-8.67-14.85-.32,1.72a10.33,10.33,0,0,0,4.12,9.63c4.07,3.11,10.14.71,14.15-.88a26.72,26.72,0,0,1,2.65-1c1-.27,3.22-1.85,6-3.85a144.76,144.76,0,0,1,22.49-13.78,81.55,81.55,0,0,1,18.71-6.24c5.52-1.27,9.16-2.1,11.78-5.3,2.24-2.73,5.2-7.26,8.62-12.49,4.56-7,10.23-15.65,16.37-23.33,10.61-13.26,56.84-62.88,66-70.8,8.19-7.1,37.3-35.27,41.06-38.91l-7.9-36.95-3.13-58.38C410.77-17.15,323.09,83.19,312.8,92.54a125.43,125.43,0,0,0-11.87,13.1c-5.87,7.12-10.95,13.27-16,14.15-9.1,1.58-77,14-82.85,16-3.47,1.16-15.08,11.3-24.41,19.45-6.21,5.42-11.57,10.11-13.71,11.45-4.9,3.07-17.86,31.13-17.86,35.15,0,4.28,4.74,17.18,7.51,17.68a9.37,9.37,0,0,0,6.94-1.69c2.21-1.65,3.51-4.25,3.88-7.73.16-1.46.25-2.57.3-3.4l-3.57,5.28,3-7.95a2.4,2.4,0,0,1,.69-1.07l9.88-14.56,24.85-20.88a25.29,25.29,0,0,0-.3-5.66l2-.38a25.2,25.2,0,0,1,0,8.73c-.28,1.35-1.9,4-4.73,8.45-4.95,7.85-13.22,21-11.31,26.52,3.23,9.32,11,8.76,11.87,8.67a35,35,0,0,0,6.83-1.78l2.52-.94-1.29,2.36c-.14.27-3.48,6.68,3.24,11.9,7,5.43,13.64,3.1,13.71,3.08Z"/><path class="cls-7" d="M205.06,213.61l-1.53-1.28c.06-.07,6-7.21,10.69-13.77,4.08-5.74,2.79-7.8,2.78-7.82l1.56-1.25c.25.3,2.33,3.13-2.71,10.23C211.14,206.34,205.12,213.54,205.06,213.61Z"/><path class="cls-7" d="M223.34,229.84l-1.76-1s.66-1.21,1.15-2.2c.32-.64,1.22-1.58,3.42-3.84,1.66-1.71,3.93-4,6.67-7,3.34-3.66,3.52-4.65,3.53-4.75a.59.59,0,0,0,.21.43.52.52,0,0,0,.43.15l-.39-2a1.45,1.45,0,0,1,1.56.67c.55,1,.1,2.46-3.86,6.82-2.75,3-5,5.38-6.71,7.1a34.29,34.29,0,0,0-3.07,3.34C224,228.6,223.34,229.84,223.34,229.84Z"/><path class="cls-7" d="M161,178.71a4.58,4.58,0,0,1-2.66-2.61,3.33,3.33,0,0,1,.2-2.53l1.75,1-.87-.49.88.47a1.34,1.34,0,0,0,0,1,2.8,2.8,0,0,0,1.58,1.4Z"/><path class="cls-7" d="M151.28,209.78c-3.81-.89-4.53-5.09-4.56-5.27l2-.32-1,.16,1-.16c0,.12.54,3.06,3,3.64Z"/><path class="cls-7" d="M149.52,188.15l-10.09-16.63-15.52,11.82L112.18,173l.42-.71c1.18-2,29.1-49.35,47.27-59.12a75.91,75.91,0,0,1,37.42-8.62l.48,0,7.05,10-.89.56c-.1.06-10,6.39-9,14.78l1.11,9.14-2,.24L193,130.17c-1-8.16,6.41-14.25,9-16.13l-5.3-7.52c-3-.1-19.78-.25-35.87,8.4-16.5,8.87-42.46,51.62-46.07,57.67l9.26,8.16,16-12.18,11.24,18.53Z"/><polygon class="cls-7" points="155.32 176.35 149.15 162.94 136.69 169.68 135.74 167.92 150.07 160.17 157.14 175.51 155.32 176.35"/><path class="cls-7" d="M162.67,225.54l-1.13-8,2-.28.72,5.08c2-1.41,5.65-4.65,5.48-9.31a59.29,59.29,0,0,0-2.19-13.32l1.91-.58a60.34,60.34,0,0,1,2.28,13.84c.27,7.62-7.46,11.77-7.79,11.94Z"/><path class="cls-7" d="M184.63,211.73a22,22,0,0,1-4.66-.58,3.44,3.44,0,0,1-2.28-1.58c-1.56-2.51-.39-7.23,1-12.7.19-.75.37-1.51.56-2.27,1.62-6.78.8-9.82.79-9.85l1.92-.57c0,.14,1,3.49-.76,10.89-.18.76-.37,1.53-.56,2.28-1.14,4.61-2.32,9.37-1.21,11.17a1.48,1.48,0,0,0,1,.68,14.29,14.29,0,0,0,5.33.46l.46,1.95A7.06,7.06,0,0,1,184.63,211.73Z"/><rect class="cls-7" x="184.81" y="181.79" width="2" height="9.23" transform="translate(-74.07 144.75) rotate(-35.99)"/><path class="cls-7" d="M134.64,158l-4.48-3.47.45-.76c.62-1.05,15.31-25.83,31.4-35.6a68,68,0,0,1,33.92-9.41l1.28,0-2.26,8.08-.85-.1c-.1,0-10-1.12-25.58,5.43s-33.11,34.57-33.29,34.85Zm-1.86-4,1.34,1c3.26-5.08,18.89-28.53,33.62-34.71,13.66-5.73,22.94-5.79,25.73-5.64l1.11-3.94c-4.28.12-18.42,1.15-31.53,9.11C148.91,128.49,135.4,149.78,132.78,154.06Z"/><path class="cls-7" d="M167,155.3H149.35l1.39-1.65c.46-.54,11.36-13.4,18.12-18.41s10.18-6.09,10.32-6.13l.62-.18,7.57,8.72Zm-13.3-2h12.56l18.3-15.85-5.37-6.19a46.65,46.65,0,0,0-9.12,5.59C164.88,140.69,156.91,149.61,153.69,153.3Z"/><rect class="cls-7" x="130.14" y="153.72" width="2" height="20.83" transform="translate(-78.44 178.74) rotate(-55.36)"/><path class="cls-7" d="M349.45,371a19.65,19.65,0,0,1-11.84-4c-27.69-20.8-75.93-57.63-87.88-70.56-16.42-17.76-15.88-53.52-15.85-55l2,0c0,.36-.55,36.47,15.32,53.63,12.29,13.29,65.36,53.6,87.61,70.32a17.58,17.58,0,0,0,24.48-3.17l41.82-52.82a17.72,17.72,0,0,0-2.85-24.81l-97-77.29,1.25-1.56,97,77.29a19.72,19.72,0,0,1,3.17,27.62l-41.82,52.82A19.6,19.6,0,0,1,349.45,371Z"/><path class="cls-7" d="M351.46,364.8l-1.6-1.2c-3.2-2.4-78.53-58.85-90.77-71.09-11.53-11.53-12.51-20.43-13.38-28.28-.08-.71-.16-1.42-.24-2.11-1-8.27,0-12.79,0-13l0-.2.12-.17c2.26-3.17,7.85-10.35,11-8.64,1.34.73,1.11,2.65.69,6.12-.93,7.69-2.66,22,8.66,39,15.71,23.57,84.38,71.42,85.07,71.91l.43.3Zm-104.06-115a42.73,42.73,0,0,0,.05,12.11c.09.7.16,1.41.24,2.13.83,7.52,1.77,16.05,12.8,27.08s77.74,61.28,89,69.71v-2.3c-6.4-4.47-69.72-49-85.17-72.14-11.73-17.6-9.88-33-9-40.34a17.44,17.44,0,0,0,.25-4.16C254.46,241.58,250.62,245.29,247.4,249.76Z"/><path class="cls-7" d="M404.23,298.05l-103.54-81,7-2.21.42.33,93.22,74.66Zm-99.33-80.2L400,292.22l-.41-1.15-92.36-74Z"/><rect class="cls-7" x="43.52" y="259.22" width="145.84" height="2" transform="matrix(0.1, -1, 1, 0.1, -153.72, 351.23)"/><rect class="cls-7" x="-43.69" y="211.59" width="159.98" height="2" transform="translate(-93.39 40.28) rotate(-27.28)"/><rect class="cls-7" x="28.57" y="266.1" width="138.89" height="2" transform="translate(-184.2 303.19) rotate(-77.14)"/><rect class="cls-7" x="-31.94" y="237.55" width="158" height="2" transform="translate(-142.67 86.48) rotate(-40.13)"/><rect class="cls-7" x="-4.02" y="275.47" width="168.06" height="2" transform="translate(-205.45 239.73) rotate(-66.53)"/><circle class="cls-5" cx="173.1" cy="369.82" r="19.75"/><path class="cls-7" d="M173.1,390.57a20.75,20.75,0,1,1,20.75-20.75A20.77,20.77,0,0,1,173.1,390.57Zm0-39.49a18.75,18.75,0,1,0,18.75,18.75A18.77,18.77,0,0,0,173.1,351.08Z"/><circle class="cls-5" cx="75.36" cy="359.95" r="9.87"/><path class="cls-7" d="M75.36,370.82a10.87,10.87,0,1,1,10.87-10.87A10.89,10.89,0,0,1,75.36,370.82Zm0-19.75a8.87,8.87,0,1,0,8.87,8.87A8.88,8.88,0,0,0,75.36,351.08Z"/><circle class="cls-5" cx="11.52" cy="387.32" r="19.75"/><path class="cls-7" d="M11.52,408.07a20.75,20.75,0,1,1,20.75-20.75A20.77,20.77,0,0,1,11.52,408.07Zm0-39.49a18.75,18.75,0,1,0,18.75,18.75A18.77,18.77,0,0,0,11.52,368.58Z"/><circle class="cls-5" cx="104.76" cy="403.01" r="11.95"/><path class="cls-7" d="M104.76,416A12.95,12.95,0,1,1,117.71,403,13,13,0,0,1,104.76,416Zm0-23.9A10.95,10.95,0,1,0,115.71,403,11,11,0,0,0,104.76,392.06Z"/><circle class="cls-5" cx="46.55" cy="385.41" r="11.95"/><path class="cls-7" d="M46.55,398.36A12.95,12.95,0,1,1,59.5,385.41,13,13,0,0,1,46.55,398.36Zm0-23.9A10.95,10.95,0,1,0,57.5,385.41,11,11,0,0,0,46.55,374.47Z"/><circle class="cls-5" cx="153.87" cy="357.68" r="11.95"/><path class="cls-7" d="M153.87,370.63a12.95,12.95,0,1,1,12.95-12.95A13,13,0,0,1,153.87,370.63Zm0-23.9a10.95,10.95,0,1,0,10.95,10.95A11,11,0,0,0,153.87,346.73Z"/><circle class="cls-5" cx="0.37" cy="425.74" r="9.66"/><path class="cls-7" d="M.38,436.39a10.66,10.66,0,1,1,0-21.31,10.66,10.66,0,0,1,0,21.31Zm0-19.31a8.66,8.66,0,1,0,0,17.31,8.66,8.66,0,0,0,0-17.31Z"/><circle class="cls-5" cx="97.22" cy="367.09" r="5.82"/><path class="cls-7" d="M97.22,373.91a6.82,6.82,0,1,1,6.82-6.82A6.83,6.83,0,0,1,97.22,373.91Zm0-11.64a4.82,4.82,0,1,0,4.82,4.82A4.83,4.83,0,0,0,97.22,362.27Z"/><circle class="cls-5" cx="204.15" cy="324.84" r="9.87"/><path class="cls-7" d="M204.15,335.71A10.87,10.87,0,1,1,215,324.84,10.89,10.89,0,0,1,204.15,335.71Zm0-19.75a8.87,8.87,0,1,0,8.87,8.87A8.88,8.88,0,0,0,204.15,316Z"/><circle class="cls-5" cx="226.02" cy="331.98" r="5.82"/><path class="cls-7" d="M226,338.8a6.82,6.82,0,1,1,6.82-6.82A6.83,6.83,0,0,1,226,338.8Zm0-11.64a4.82,4.82,0,1,0,4.82,4.82A4.83,4.83,0,0,0,226,327.16Z"/><circle class="cls-5" cx="141.11" cy="326.38" r="5.82"/><path class="cls-7" d="M141.11,333.2a6.82,6.82,0,1,1,6.82-6.82A6.83,6.83,0,0,1,141.11,333.2Zm0-11.64a4.82,4.82,0,1,0,4.82,4.82A4.83,4.83,0,0,0,141.11,321.56Z"/><circle class="cls-5" cx="173.1" cy="281.3" r="5.82"/><path class="cls-7" d="M173.1,288.12a6.82,6.82,0,1,1,6.82-6.82A6.83,6.83,0,0,1,173.1,288.12Zm0-11.64a4.82,4.82,0,1,0,4.82,4.82A4.83,4.83,0,0,0,173.1,276.48Z"/><circle class="cls-5" cx="18.38" cy="352.15" r="2.91"/><path class="cls-7" d="M18.38,356.06a3.91,3.91,0,1,1,3.91-3.91A3.92,3.92,0,0,1,18.38,356.06Zm0-5.82a1.91,1.91,0,1,0,1.91,1.91A1.91,1.91,0,0,0,18.38,350.24Z"/><circle class="cls-5" cx="113.71" cy="355.06" r="2.91"/><path class="cls-7" d="M113.71,359a3.91,3.91,0,1,1,3.91-3.91A3.91,3.91,0,0,1,113.71,359Zm0-5.82a1.91,1.91,0,1,0,1.91,1.91A1.91,1.91,0,0,0,113.71,353.15Z"/><circle class="cls-5" cx="141.11" cy="391.31" r="2.91"/><path class="cls-7" d="M141.11,395.22a3.91,3.91,0,1,1,3.91-3.91A3.91,3.91,0,0,1,141.11,395.22Zm0-5.82a1.91,1.91,0,1,0,1.91,1.91A1.91,1.91,0,0,0,141.11,389.4Z"/><circle class="cls-5" cx="261.5" cy="373.47" r="2.91"/><path class="cls-7" d="M261.5,377.38a3.91,3.91,0,1,1,3.91-3.91A3.92,3.92,0,0,1,261.5,377.38Zm0-5.82a1.91,1.91,0,1,0,1.91,1.91A1.91,1.91,0,0,0,261.5,371.56Z"/><circle class="cls-5" cx="207.06" cy="281.3" r="2.91"/><path class="cls-7" d="M207.06,285.21A3.91,3.91,0,1,1,211,281.3,3.92,3.92,0,0,1,207.06,285.21Zm0-5.82A1.91,1.91,0,1,0,209,281.3,1.91,1.91,0,0,0,207.06,279.39Z"/><circle class="cls-5" cx="64.08" cy="404.16" r="2.91"/><path class="cls-7" d="M64.08,408.07A3.91,3.91,0,1,1,68,404.16,3.92,3.92,0,0,1,64.08,408.07Zm0-5.82A1.91,1.91,0,1,0,66,404.16,1.91,1.91,0,0,0,64.08,402.25Z"/><circle class="cls-5" cx="42.28" cy="407.07" r="5.82"/><path class="cls-7" d="M42.28,413.89a6.82,6.82,0,1,1,6.82-6.82A6.83,6.83,0,0,1,42.28,413.89Zm0-11.64a4.82,4.82,0,1,0,4.82,4.82A4.83,4.83,0,0,0,42.28,402.25Z"/><path class="cls-7" d="M177.76,357.68s8,1.09,10.81,8.33c2.27,5.93-2,7.34-1.93,5.81,0-1.05,0,0-1.54-3.93A25.11,25.11,0,0,0,177.76,357.68Z"/><path class="cls-7" d="M105.15,395.27s6,.81,8.06,6.21c1.69,4.42-1.46,5.47-1.44,4.33,0-.79,0,0-1.14-2.93A18.73,18.73,0,0,0,105.15,395.27Z"/><path class="cls-7" d="M11.93,372.76s10.13,1.37,13.63,10.5c2.87,7.47-2.47,9.26-2.44,7.33,0-1.33,0,0-1.94-5A31.67,31.67,0,0,0,11.93,372.76Z"/><path class="cls-9" d="M290.15,250.64a7.41,7.41,0,0,0,2.21,3.08,4,4,0,0,0,6-.7c1.46-1.82,1.3-3.78.69-6.2s-1.37-5.92.68-8.47a6.39,6.39,0,0,1,9.39-1,6.6,6.6,0,0,1,2.2,3l-2.11,1.49a5.31,5.31,0,0,0-1.81-2.56,3.5,3.5,0,0,0-5.11.53c-1.58,2-1.16,3.55-.37,6.41,1,3.58.63,6.25-1.14,8.44a6.79,6.79,0,0,1-10,1.09,8.54,8.54,0,0,1-2.66-3.54Z"/><path class="cls-9" d="M317.21,244.16l-6.81,8.47,5.54,4.45,6.81-8.47,2.26,1.81-15.88,19.76-2.26-1.81,7.42-9.24-5.54-4.45-7.42,9.24-2.26-1.81L315,242.34Z"/><path class="cls-9" d="M319.79,269l-6.08,4.86-2.17-1.74L331.93,256l2.49,2-11.48,23.3-2.23-1.79,3.44-7Zm5.54,1.46,3-5.84c.84-1.64,1.89-3.5,2.84-5.15l-.12-.09c-1.44,1.31-3.1,2.77-4.42,3.88l-5.05,4.19Z"/><path class="cls-9" d="M344,284.2c2-2.73,4.14-5.75,6-7.91l-.12-.09c-2.21,1.85-4.62,3.77-7.1,5.59l-9.88,7.31-1.44-1.15,4.82-10.75c1.38-3,2.75-5.95,4.21-8.54l-.09-.07c-1.86,2.32-4.19,5-6.57,7.7l-7.1,8.05-2-1.62,17-18.82,2.43,2-4.94,10.89c-1.42,3.15-2.48,5.49-3.88,8.08l.09.07c2.2-2,4.14-3.47,6.93-5.62L351.9,272l2.52,2-14.73,20.68-2.11-1.7Z"/><path class="cls-9" d="M358.41,277.73A16.8,16.8,0,0,1,362,280a7.68,7.68,0,0,1,3.19,5,7.12,7.12,0,0,1-1.81,5.25,8.05,8.05,0,0,1-4.45,3.08,7.43,7.43,0,0,1-6.43-1.55c-.38-.31-.67-.54-1-.83L345,299l-2.26-1.81ZM353.06,289a4.79,4.79,0,0,0,.81.79c2.23,1.79,4.9,1.53,7.14-1.26,1.63-2,2.24-4.52-.26-6.53a5.94,5.94,0,0,0-1.38-.87Z"/><path class="cls-9" d="M372.91,304.91c-6,7.42-10.8,8.21-14,5.67s-2.68-7.89,2.67-14.55,10.45-8.2,13.91-5.42S378,298.61,372.91,304.91Zm-9-7c-3.27,4.08-5.73,8.76-3.24,10.76s6.69-1.72,9.8-5.59c3-3.7,5.8-8.61,3.22-10.68S367.16,293.93,363.93,297.95Z"/><path class="cls-9" d="M386,315.42c-6,7.42-10.8,8.21-14,5.67s-2.68-7.89,2.67-14.55,10.45-8.2,13.91-5.42S391.05,309.11,386,315.42Zm-9-7c-3.27,4.08-5.73,8.76-3.24,10.76s6.69-1.72,9.8-5.59c3-3.7,5.8-8.61,3.22-10.68S380.24,304.43,377,308.45Z"/><path class="cls-9" d="M320.82,296.27l-5.61,7,6.75,5.42-1.27,1.58-6.75-5.42-5.65,7-1.64-1.32,5.65-7-6.74-5.42,1.27-1.58,6.74,5.42,5.61-7Z"/><path class="cls-9" d="M340.71,305.39l-6.81,8.47,5.54,4.45,6.81-8.47,2.26,1.81-15.88,19.76-2.26-1.81,7.42-9.24-5.54-4.45-7.42,9.24-2.26-1.81,15.88-19.76Z"/><path class="cls-9" d="M335.33,333.59l1.18-1.47,3.38-.9c4.78-1.32,10.35-2.73,13.22-6.31,1.7-2.11,1.79-4.15,0-5.59a6,6,0,0,0-3.6-1.16l.81-2.15a7.65,7.65,0,0,1,4.76,1.7c3.17,2.54,2.66,6,.35,8.87-2.87,3.58-8,5.15-12.94,6.5l-2.7.72,0,.06,6.36,5.11-1.6,2Z"/><path class="cls-9" d="M363.86,340.78c-5.58,6.95-10.07,8-12.82,5.81-3-2.38-1.92-7.33,3.07-13.55,5.16-6.42,9.77-8.26,12.88-5.77S368.73,334.71,363.86,340.78Zm-7.47-6c-3.7,4.6-5.5,8.47-3.62,10s5.14-1.23,8.81-5.8,5.56-8.42,3.74-9.88S360.06,330.25,356.39,334.82Z"/><polygon class="cls-7" points="128 186.8 132 352.8 117 327.8 128 186.8"/></g></g><g id="_5-2" data-name="5"><g class="cls-10"><g id="_Группа_3" data-name="&lt;Группа&gt;"><path class="cls-6" d="M341.3,14.63C322.68.94,259.06-1.11,216.94,6.7S181.7,90.94,181.7,90.94H-58.67S-51.8,14.57-93.92,6.7-199.65.94-218.27,14.63s-32.31,76.31-32.31,76.31l-98.86,3.88s56.8-112.55,95.92-115.49c35.36-2.64,594.7-2.64,630.06,0,39.18,2.94,95.92,115.49,95.92,115.49l-98.86-3.88S359.92,28.26,341.3,14.63Z"/><path class="cls-6" d="M660.38,152.61c0,16.62-70.49,8.81-202.66,6.81-111.61-1.64-684.34-1.64-795.95,0-132.17,2-202.66,9.81-202.66-6.81,0-13.39,73.25-143.56,116.78-204.95,10.69-15,19.62-26,25.2-30,28.37-20.56,15.68-20.56,128.23-33.31,43.94-5,199-18.33,349.57-18.09,137.4.18,271.21,13.57,311.27,18.09C502.78-102.91,490-102.91,518.46-82.35c5.58,4.05,14.39,14.92,25,29.9C587.07,8.87,660.38,139.22,660.38,152.61ZM-93.92,6.7c42.12,7.87,35.24,84.24,35.24,84.24H181.7S174.88,14.57,216.94,6.7,322.68.94,341.3,14.63s32.31,76.31,32.31,76.31l98.86,3.88S415.72-17.74,376.54-20.67c-35.36-2.64-594.7-2.64-630.06,0-39.12,2.94-95.92,115.49-95.92,115.49l98.86-3.88s13.75-62.68,32.31-76.31S-136-1.11-93.92,6.7Z"/><path class="cls-5" d="M-802.63,625.6c-14.39-9.22-22.62-15.8-22.62-15.8s8.81,130.23,56.8,151.73,251.59,88.64,251.59,88.64a561.71,561.71,0,0,0-17.27-64.62c-8.81-26.08-20.62-52.16-34.6-61.44-31.37-20.79-90.46-39-147.85-57.51C-753,654.85-783.37,637.88-802.63,625.6Zm311.21,312.15c11.75,12.75,291.77,33.31,414.13,32.31s199.25-.65,285.84,0c122.36,1,402.38-19.56,414.13-32.31s-58.74-28.37-91.81-32.31-897.45-3.88-930.47,0S-503.17,925.06-491.42,937.75Zm1323-271.15c-57.39,18.5-116.48,36.71-147.79,57.51-14,9.28-25.85,35.36-34.66,61.44a561.71,561.71,0,0,0-17.27,64.62s203.66-67.08,251.65-88.64S940.23,609.8,940.23,609.8a265.51,265.51,0,0,1-22.62,15.74C898.34,637.94,868,654.85,831.56,666.6ZM780,960.19c-21.73,4.05-43.82,7.58-65,10.57-73.31,10.34-135.81,14.51-135.81,14.51s-32.31-7.34-85.18-7.34-162.95,15-271.68,17.62c-81.36,1.88-244.25,1.64-325.6,0-108.73-2.23-218.81-17.62-271.68-17.62s-85.18,7.34-85.18,7.34-60.68-4.05-132.64-14c-24.14-3.41-49.46-7.4-74.19-12.22-79.89-15.45-153.61-38.59-158.84-72.13-3.52-22.56-9.57-61-16-105.85-14.86-104.21-31.43-243.42-22.2-300.93,13.22-82.24,54.34-202.66,114.55-235.85s158.6-68.14,158.6-68.14-113.08,1.47-116-13.1,51.4-66.2,107.2-66.2c54,0,39.24,33,38.24,35.13L-425-53l.94.65C-467.63,9-540.88,139.22-540.88,152.61c0,16.62,70.49,8.81,202.66,6.81,111.61-1.64,684.34-1.64,795.95,0,132.17,2,202.66,9.81,202.66-6.81,0-13.39-73.31-143.74-116.9-205.07h.06l.7-.53L680.18,131.47c-2.23-3.64-11.51-22.67,38.95-22.67,55.8,0,83.3,36.83,82.53,51.69C800,194,710,176.11,710,176.11s98.39,35,158.6,68.14S969.89,397.86,983.11,480.1C991.63,533,978.23,655,964.49,755.36c-7.64,55.75-15.39,104.79-19.56,131.52C939.52,921.25,862.16,944.74,780,960.19ZM626,536.37c24.5,1,40.18,1.94,140-30.37s108.67-36.18,138-84.18S909.92,319,887.36,323,689.69,401.27,669.08,412c-24.79,12.92-97.92,94-97.92,94S601.52,535.37,626,536.37ZM521.75,579.49c-17.56-12.16-37.3-22-59-27.43-91.75-22.91-354.92-24.79-397.15-25-34.31.12-305.87,1.59-399.32,25A175.17,175.17,0,0,0-382,572.5c-36.83,22.32-65.14,55.8-83.88,84.41-16.8,25.67-25.91,47.4-26.49,53.75-1.47,16.15,17.62,70.49,102.8,104.27,80.65,32,419.88,35,455.66,35.19,49.28-.35,373.77-4,452.43-35.19,85.18-33.78,104.27-88.11,102.8-104.27-.53-6.23-9.34-27.43-25.73-52.57C578.73,632.06,553.83,601.81,521.75,579.49ZM-511,536.37c24.5-1,54.81-30.37,54.81-30.37s-75.37-88.11-97.86-94S-749.88,326.84-772.38,323s-46,50.87-16.62,98.86,38.18,51.87,138,84.18S-535.48,537.37-511,536.37Z"/></g><path class="cls-7" d="M611.39,164c-17,0-38.42-.64-64.37-1.41s-55.43-1.65-89.29-2.15c-111.58-1.65-684.34-1.65-795.92,0-33.86.5-63.31,1.38-89.29,2.15-66.84,2-103.67,3.08-112.32-5.32a6.36,6.36,0,0,1-2.06-4.69c0-9.17,31.16-66.88,60.47-116.52,29.9-50.63,67.11-108.54,81.9-119.25,3.31-2.4,6.08-4.53,8.52-6.41,19-14.6,20.51-15.79,120.21-27.06,41.87-4.73,194.51-18.12,345.8-18.12h3.85c145.81.22,285,15.13,311.41,18.12C490-105.38,491.54-104.19,510.51-89.59c2.44,1.88,5.21,4,8.52,6.41h0c14.79,10.71,52,68.62,81.9,119.25,29.31,49.64,60.47,107.35,60.47,116.52a6.36,6.36,0,0,1-2.06,4.69C654,162.42,638.2,164,611.39,164Zm-551.62-6.8c171.1,0,342.2.41,398,1.24,33.88.5,63.33,1.38,89.32,2.15,64.12,1.91,102.82,3.06,110.87-4.75a4.37,4.37,0,0,0,1.45-3.25c0-7.61-26.44-58.35-60.19-115.51C569.41-13.37,532.4-71,517.85-81.56c-3.33-2.41-6.11-4.55-8.57-6.44-18.56-14.29-20.07-15.45-119.21-26.66-26.4-3-165.49-17.88-311.19-18.11-152.46-.21-307.23,13.33-349.43,18.11C-369.68-103.46-371.19-102.29-389.75-88c-2.45,1.89-5.23,4-8.57,6.44C-412.86-71-449.88-13.37-479.67,37.09c-33.75,57.16-60.19,107.9-60.19,115.51a4.37,4.37,0,0,0,1.45,3.25c8,7.81,46.75,6.66,110.87,4.75,26-.77,55.44-1.65,89.32-2.15C-282.43,157.62-111.33,157.21,59.77,157.21Z"/><path class="cls-7" d="M67.29,997.88c-64.12,0-128.83-.5-170.52-1.34-60.59-1.23-122.85-6.67-172.87-11-40.46-3.53-75.41-6.59-98.79-6.59-52.13,0-84.63,7.25-85,7.32l-.14,0h-.15c-.89-.06-89.56-6.05-178.53-21.12C-758.5,944.83-821.77,918.55-826.72,887l-.64-4.06c-12.5-79.66-50.56-322.08-37.54-403,7.38-45.89,21.85-95.66,39.72-136.56,22-50.4,48.07-85,75.33-100C-698.37,215-618.11,185-596.57,177.13c-9.77,0-30.46-.07-51.15-1.12-58-2.94-59.55-10.37-60-12.81-.8-4,2.12-10.3,8.24-17.77,15.71-19.19,56.73-49.64,99.94-49.64,20.21,0,33.3,4.58,38.88,13.62,3.63,5.87,3.29,12.31,2.28,16.9l132.57-179.9,1.61,1.19-136.35,185-1.7-1c.06-.12,5.72-11.72-.11-21.14-5.2-8.4-17.71-12.66-37.17-12.66-42.53,0-82.92,30-98.4,48.9-5.65,6.9-8.5,12.77-7.83,16.11,2,10,71.63,12.85,115,12.29l6-.08-5.69,2c-1,.35-99,35.3-158.45,68.07-26.87,14.81-52.62,49.06-74.46,99.05-17.8,40.75-32.23,90.34-39.58,136.08-13,80.65,25.05,322.83,37.55,402.42l.64,4.06c4.73,30.16,69.19,56.59,186.42,76.45,87.2,14.77,174.11,20.81,178.18,21.09,2.43-.53,34.66-7.33,85.25-7.33,23.47,0,58.45,3.06,99,6.59,50,4.37,112.21,9.8,172.74,11,79.4,1.61,242.35,2,325.6,0,59.76-1.41,118.75-6.5,170.79-11,41.35-3.56,77.07-6.64,100.91-6.64,50.59,0,82.82,6.8,85.25,7.33,4.06-.28,91-6.32,178.2-21.09C874.78,943.3,939.24,916.87,944,886.71l.64-4.07c12.49-79.58,50.51-321.75,37.54-402.4-7.35-45.73-21.78-95.33-39.58-136.08-21.84-50-47.59-84.24-74.46-99.05C808.66,212.34,710.64,177.38,709.65,177l.5-1.93c.65.11,65.6,10.58,85.16-4.95a13.09,13.09,0,0,0,5.37-9.75c.38-5.79-4.21-14.68-11.68-22.66-7.87-8.4-30.58-27.94-71.33-27.94-27.5,0-36,5.68-38.29,10.45-2.2,4.58.82,9.47,1.75,10.81l.29.39-1.58,1.22s-.19-.24-.42-.56l-136-184.51,1.61-1.19L676.64,124.95a10.29,10.29,0,0,1,.93-5.55c3.68-7.7,17.17-11.6,40.1-11.6,41.53,0,64.74,20,72.79,28.57s12.64,17.75,12.22,24.16a15.18,15.18,0,0,1-6.12,11.19c-15.82,12.56-58.21,9-77.28,6.68,25.66,9.45,100.79,37.93,149.8,65,27.26,15,53.31,49.61,75.33,100,17.87,40.89,32.35,90.67,39.72,136.56,13,81-25,323.37-37.54,403l-.64,4.07c-4.95,31.53-68.22,57.81-188.06,78.11-89,15.07-177.64,21.06-178.53,21.12h-.15l-.14,0c-.32-.07-32.82-7.32-85-7.32-23.75,0-59.43,3.07-100.74,6.63-52.07,4.49-111.1,9.57-170.92,11C182.89,997.47,125.33,997.88,67.29,997.88Z"/></g><g class="cls-10"><g id="_Группа_4" data-name="&lt;Группа&gt;"><path class="cls-5" d="M603.28,295.21c-1-.42-2.47-1-4.47-1.76-5.82-2.24-17-6.64-23.33-10.92a81.34,81.34,0,0,0-7.37-4.38s8.24,1.68,11.31,2.51,22.77,13.48,23.73,14.06Zm2.44,1c.56.07,9.2,1.21,12.26-3.7,3.17-5.07-.48-9.73-3.72-11.38-3-1.53-15.9-6.71-24.25-10.61-.77-.35-1.5-.7-2.18-1-6.57-3.21-16.44-9.06-24.44-13.2h0c-1.81-.94-3.53-1.79-5.1-2.51-4.7-2.14-8.67-3.27-11.76-4.56h0c.59.06,10.07,1,13.65,2.8s8.62.9,14.35,2.53c5.37,1.52,20.4,6.6,22.26,7.24l.19.06c5.2,1.72,11.19,4.27,14.87,3.32l1.88-.75.12-.05c3.58-1.89,3.93-5.13,3.69-8.23-.28-3.51-1.54-5.52-7.79-6.78S595,244.86,588,243.89a30.42,30.42,0,0,1-6.4-1.7c-4.06-1.5-8-3.6-12.51-5.17-.41-.15-.85-.3-1.27-.43-7.36-2.34-14,.21-22.9-5.74-2.11-1.42-4.21-2.94-6.18-4.43h0c-2.1-1.58-4.05-3.13-5.73-4.49,0,0,8.1.3,11.53-.66s5.32-.78,9.93,1.26a119.93,119.93,0,0,0,12.34,4.24h0c2.32,0,4.11-.07,4.37-.11.65-.13,3,2.68,6.76,4.91,2.34,1.39,3.67,2,5.61,2a24.2,24.2,0,0,0,4.51-.63c5.24-1.06,4.71-7.8,2.31-8.8s-12.49-9.15-13.85-9.92-9.25-1.59-14.69-3.22a74.55,74.55,0,0,0-11.16-2.76,56.26,56.26,0,0,0-8-.58c-8.87,0-12.52,1.2-19.3,1.45l-2,.06c-4,.1-6.49,0-10.44,1.23a50.17,50.17,0,0,0-4.71,1.74c-7.93,3.34-42.42,15.16-48.44,17.3s-11.71,2-28.8,4.16c-11.7,1.45-28.12,4.63-37.33,6.48l-2.6,1.62L415,283.13c6.82-.8,13.32-1.42,17.08-1.41,10.64,0,14.28-4.21,16.13-2.81s24.52,2.76,41.22,2.75,24.87-4.54,30.7-4.65,15.25,3.64,17.5,3.8,13.82,11.41,23.41,15.44,12.69,3.86,18.75,7.94c4,2.71,8.7,5.88,11.39,7.72l.58.23c5.77,2.17,11.69,3,15.9,1.67h0A8.69,8.69,0,0,0,611,312c3.92-3.63,1.83-7.92-.11-10.55A33.73,33.73,0,0,0,605.72,296.23Z"/><path class="cls-8" d="M518.1,289.88a5.29,5.29,0,0,1,1.7-1.15c3.09-1.19,9.28-.49,13.91.31s5.84.62,5.84.62,17.24,7.06,22.23,9.4,21.62,9.87,29.43,12.86c-2.69-1.83-7.36-5-11.39-7.72-6.06-4.08-9.15-3.91-18.75-7.94S539.92,281,537.65,280.82s-11.67-3.91-17.5-3.8-14,4.63-30.7,4.65-39.36-1.34-41.22-2.75-5.5,2.85-16.13,2.81c-3.76,0-10.26.61-17.08,1.41l5.77,9.24c8.16-1.24,15.55-2.39,19.23-3,10.94-1.83,6.86-2.23,18.07,1.09s25.89,1.8,35.24,6.87c8,4.34,20.79,4.44,24.24,4.38Z"/></g><path class="cls-7" d="M516.27,302.7c-4.74,0-15.94-.46-23.42-4.51-5.24-2.83-12.17-3.54-19.52-4.28-5.27-.53-10.73-1.08-15.54-2.51-1.59-.47-2.88-.87-3.94-1.2-4.85-1.5-4.85-1.5-9.08-.69-1.17.22-2.65.5-4.6.83-10.83,1.81-53.93,8.25-54.37,8.32l-.3-2c.43-.06,43.52-6.51,54.34-8.31,1.93-.32,3.39-.6,4.55-.82,4.63-.88,4.81-.87,10,.75,1.06.33,2.34.72,3.92,1.19,4.63,1.37,10,1.91,15.17,2.44,7.21.73,14.68,1.48,20.27,4.51,9,4.88,24.45,4.24,24.6,4.23l.09,2C518.36,302.67,517.55,302.7,516.27,302.7Z"/><path class="cls-7" d="M385,242.48l-.42-2c.27-.06,27.43-5.82,44.37-7.93,5.54-.69,9.92-1.15,13.44-1.52,7.45-.78,11.2-1.17,15.16-2.58l7.84-2.74c12-4.18,34.44-12,40.55-14.54,6.84-2.88,9.74-2.94,14.53-3,.9,0,1.86,0,2.94-.08,2.77-.1,5-.37,7.33-.66a85.07,85.07,0,0,1,12-.79,56.9,56.9,0,0,1,18.29,3l1.17.35a89.62,89.62,0,0,0,9.2,2c3.22.57,4.93.89,5.69,1.32.53.3,1.91,1.34,4.29,3.15,3.21,2.44,8.06,6.12,9.47,6.71,1.59.67,2.57,2.9,2.33,5.32a5.84,5.84,0,0,1-4.82,5.4c-5.43,1.1-6.84.91-10.83-1.46a35.38,35.38,0,0,1-5-3.68,16.4,16.4,0,0,0-1.35-1.08c-1.86.16-12,.32-15.74-.82-2.67-.81-6-.49-7.92-.31a11.44,11.44,0,0,1-1.59.1c-.71,0-4.68.45-7,.77l-.27-2c1-.14,6.3-.86,7.41-.79.19,0,.75,0,1.28-.09,2.11-.2,5.63-.54,8.69.39,3.52,1.06,14.09.87,15.06.74.75-.14,1.38.39,2.74,1.56a33.6,33.6,0,0,0,4.69,3.48c3.56,2.11,4.44,2.23,9.41,1.22a3.91,3.91,0,0,0,3.23-3.63c.16-1.59-.46-3-1.11-3.28-1.52-.64-5.38-3.53-9.9-7-1.86-1.42-3.62-2.75-4.06-3A34.07,34.07,0,0,0,571,214a91.27,91.27,0,0,1-9.42-2l-1.18-.35a55.22,55.22,0,0,0-17.73-2.95,85.38,85.38,0,0,0-11.75.77c-2.39.29-4.65.56-7.5.67-1.09,0-2.07.06-3,.08-4.71.09-7.31.15-13.8,2.88-6.17,2.59-27.76,10.1-40.67,14.59-3.64,1.27-6.47,2.25-7.83,2.73-4.19,1.49-8.25,1.91-15.62,2.68-3.51.37-7.87.82-13.4,1.51C412.3,236.67,385.23,242.42,385,242.48Zm186.45-14.82h0Z"/></g></g><g id="_7" data-name="7"><g class="cls-11"><g id="_Группа_5" data-name="&lt;Группа&gt;"><path class="cls-5" d="M1362.81,625.6c-19.27,12.34-49.58,29.25-86.06,41-57.39,18.5-116.48,36.71-147.79,57.51-14,9.28-25.85,35.36-34.66,61.44A561.71,561.71,0,0,0,1077,850.17s203.66-67.08,251.65-88.64,56.74-151.73,56.74-151.73A272.75,272.75,0,0,1,1362.81,625.6Zm-1720.24,0c-14.39-9.22-22.62-15.8-22.62-15.8s8.81,130.23,56.8,151.73,251.59,88.64,251.59,88.64a561.71,561.71,0,0,0-17.27-64.62c-8.81-26.08-20.68-52.16-34.6-61.44-31.37-20.79-90.46-39-147.85-57.51C-307.79,654.85-338.16,637.88-357.43,625.6ZM-261.56,163c-2.94-14.57,51.4-66.2,107.2-66.2,54,0,39.24,33,38.24,35.13L20.16-53l1,.7C-22.43,9.11-95.68,139.22-95.68,152.61c0,16.62,70.49,8.81,202.66,6.81,111.61-1.64,684.34-1.64,795.95,0,132.17,2,202.66,9.81,202.66-6.81,0-13.39-73.31-143.74-116.84-205.07l.7-.53,135.93,184.45c-2.23-3.64-11.51-22.67,38.95-22.67,55.8,0,83.3,36.83,82.53,51.69-1.7,33.48-91.7,15.63-91.7,15.63s98.39,35,158.6,68.14,101.33,153.61,114.55,235.85c8.52,52.87-4.88,174.93-18.62,275.26-7.64,55.75-15.39,104.79-19.56,131.52-5.4,34.36-82.71,57.86-164.89,73.31-21.73,4.05-43.76,7.58-65,10.57-73.31,10.34-135.81,14.51-135.81,14.51s-32.31-7.34-85.18-7.34-162.95,15-271.68,17.62c-81.36,1.88-244.25,1.64-325.6,0-108.73-2.23-218.81-17.62-271.68-17.62s-85.18,7.34-85.18,7.34-60.68-4.05-132.64-14c-24.08-3.41-49.4-7.4-74.19-12.22-79.89-15.45-153.61-38.59-158.84-72.13-3.52-22.56-9.57-61-16-105.85-14.86-104.21-31.43-243.42-22.2-300.93,13.22-82.24,54.34-202.66,114.55-235.85s158.6-68.14,158.6-68.14S-258.63,177.58-261.56,163ZM511.3,850.11c49.28-.35,373.77-4,452.43-35.19,85.18-33.78,104.27-88.11,102.8-104.27-.59-6.23-9.4-27.43-25.73-52.57-16.86-26-41.77-56.27-73.84-78.6-17.56-12.16-37.3-22-59-27.43-91.75-22.91-354.92-24.79-397.15-25-34.31.12-305.87,1.59-399.32,25A175.17,175.17,0,0,0,63.22,572.5c-36.83,22.32-65.14,55.8-83.88,84.41-16.86,25.67-26,47.4-26.49,53.75-1.47,16.15,17.62,70.49,102.8,104.27C136.29,846.88,475.52,849.93,511.3,850.11Zm837.95-428.28c29.37-48,5.87-102.8-16.68-98.86S1134.9,401.27,1114.28,412c-24.79,12.92-97.92,94-97.92,94s30.37,29.37,54.81,30.37,40.18,1.94,140-30.37S1319.87,469.82,1349.24,421.83ZM1067.87,937.75c11.75-12.69-58.74-28.37-91.81-32.31s-897.45-3.88-930.47,0S-58,925.06-46.22,937.75s291.77,33.31,414.13,32.31,199.25-.65,285.84,0C776.1,971.06,1056.12,950.5,1067.87,937.75ZM-65.78,536.37C-41.28,535.37-11,506-11,506s-75.37-88.11-97.86-94S-304.68,326.84-327.18,323s-46,50.87-16.62,98.86,38.18,51.87,138,84.18S-90.27,537.37-65.78,536.37Z"/><path class="cls-6" d="M917.67,94.81l-98.86-3.88S805.12,28.26,786.5,14.63,704.26-1.11,662.15,6.7,626.9,90.94,626.9,90.94H386.53S393.4,14.57,351.29,6.7,245.55.94,226.93,14.63s-32.31,76.31-32.31,76.31L95.76,94.81s56.8-112.55,95.92-115.49c35.36-2.64,594.7-2.64,630.06,0C860.93-17.74,917.67,94.81,917.67,94.81Z"/><path class="cls-6" d="M988.75-52.45c43.53,61.33,116.84,191.67,116.84,205.07,0,16.62-70.49,8.81-202.66,6.81-111.61-1.64-684.34-1.64-795.95,0-132.17,2-202.66,9.81-202.66-6.81,0-13.39,73.25-143.51,116.84-204.89,10.63-15.1,19.56-26,25.14-30.08C74.67-102.91,62-102.91,174.53-115.66c43.94-5,199-18.33,349.57-18.09,137.4.18,271.21,13.57,311.27,18.09C948-102.91,935.23-102.91,963.67-82.35,969.25-78.3,978.12-67.43,988.75-52.45ZM818.81,90.94l98.86,3.88S860.93-17.74,821.75-20.67c-35.36-2.64-594.7-2.64-630.06,0C152.56-17.74,95.76,94.81,95.76,94.81l98.86-3.88s13.75-62.68,32.31-76.31S309.17-1.11,351.29,6.7s35.24,84.24,35.24,84.24H626.9S620.09,14.57,662.15,6.7,767.88.94,786.5,14.63,818.81,90.94,818.81,90.94Z"/></g><path class="cls-7" d="M1056.59,164c-17,0-38.42-.64-64.37-1.41s-55.43-1.65-89.29-2.15c-111.58-1.65-684.34-1.65-795.92,0-33.86.5-63.31,1.38-89.29,2.15-66.84,2-103.67,3.08-112.32-5.32a6.36,6.36,0,0,1-2.06-4.69c0-9.17,31.16-66.88,60.47-116.52C-6.3-14.56,30.92-72.47,45.71-83.18c3.31-2.4,6.08-4.53,8.52-6.41,19-14.6,20.51-15.79,120.21-27.06,41.87-4.73,194.51-18.12,345.8-18.12h3.85c145.81.22,285,15.13,311.41,18.12,99.69,11.27,101.24,12.46,120.21,27.06,2.44,1.88,5.21,4,8.52,6.41h0c14.79,10.71,52,68.62,81.9,119.25,29.32,49.64,60.47,107.35,60.47,116.52a6.36,6.36,0,0,1-2.06,4.69C1099.24,162.42,1083.4,164,1056.59,164ZM505,157.21c171.1,0,342.2.41,398,1.24,33.88.5,63.33,1.38,89.32,2.15,64.12,1.91,102.82,3.06,110.87-4.75a4.37,4.37,0,0,0,1.45-3.25c0-7.61-26.44-58.35-60.19-115.51C1014.61-13.37,977.6-71,963.05-81.56c-3.33-2.41-6.11-4.55-8.57-6.44-18.56-14.29-20.07-15.45-119.21-26.66-26.4-3-165.49-17.88-311.19-18.11C371.6-133,216.86-119.43,174.66-114.66,75.52-103.46,74-102.29,55.45-88c-2.45,1.89-5.23,4-8.57,6.44C32.34-71-4.68-13.37-34.47,37.09-68.22,94.25-94.66,145-94.66,152.59a4.37,4.37,0,0,0,1.45,3.25c8,7.81,46.75,6.66,110.87,4.75,26-.77,55.45-1.65,89.32-2.15C162.77,157.62,333.87,157.21,505,157.21Z"/><path class="cls-7" d="M512.49,997.88c-64.12,0-128.83-.5-170.52-1.34-60.59-1.23-122.85-6.67-172.87-11-40.46-3.53-75.41-6.59-98.79-6.59-52.13,0-84.63,7.25-85,7.32l-.14,0h-.15c-.89-.06-89.56-6.05-178.53-21.12C-313.3,944.83-376.57,918.55-381.52,887l-.64-4.07c-12.5-79.66-50.55-322.07-37.54-403,7.38-45.89,21.85-95.66,39.72-136.56,22-50.4,48.07-85,75.33-100C-253.17,215-172.91,185-151.37,177.13c-9.77,0-30.46-.07-51.15-1.12-58-2.94-59.55-10.37-60-12.81-.8-4,2.12-10.3,8.24-17.77,15.71-19.19,56.73-49.63,99.94-49.63,20.21,0,33.3,4.58,38.88,13.62,3.63,5.87,3.29,12.31,2.28,16.9L19.36-53.59,21-52.41l-136.35,185-1.7-1c.06-.12,5.72-11.72-.11-21.14-5.2-8.4-17.71-12.66-37.17-12.66-42.53,0-82.92,30-98.4,48.9-5.65,6.9-8.5,12.77-7.83,16.11,2,10,71.62,12.85,115,12.29l6-.08-5.69,2c-1,.35-99,35.3-158.45,68.07-26.87,14.81-52.62,49.06-74.46,99.05-17.8,40.75-32.23,90.34-39.58,136.08-13,80.65,25.05,322.82,37.54,402.4l.64,4.07c4.73,30.16,69.19,56.59,186.4,76.45C-105.93,977.93-19,984-14.94,984.25c2.43-.53,34.66-7.33,85.25-7.33,23.47,0,58.45,3.06,99,6.59,50,4.37,112.21,9.8,172.74,11,79.4,1.61,242.35,2,325.6,0,59.76-1.41,118.75-6.5,170.79-11,41.35-3.56,77.07-6.64,100.91-6.64,50.59,0,82.82,6.8,85.25,7.33,4.06-.28,91-6.32,178.2-21.09,117.22-19.86,181.67-46.29,186.4-76.45l.64-4.07c12.49-79.58,50.51-321.75,37.54-402.4-7.35-45.73-21.78-95.33-39.58-136.08-21.84-50-47.59-84.24-74.46-99.05-59.45-32.77-157.47-67.72-158.46-68.07l.5-1.93c.65.11,65.6,10.58,85.16-4.95a13.09,13.09,0,0,0,5.37-9.75c.38-5.79-4.21-14.68-11.68-22.66-7.87-8.4-30.58-27.94-71.33-27.94-27.5,0-36,5.68-38.29,10.45-2.2,4.58.82,9.47,1.75,10.81l.29.39-1.58,1.22s-.19-.24-.42-.56l-136-184.51,1.61-1.19,131.57,178.54a10.29,10.29,0,0,1,.93-5.55c3.68-7.7,17.17-11.6,40.1-11.6,41.53,0,64.74,20,72.79,28.57s12.64,17.75,12.22,24.16a15.18,15.18,0,0,1-6.12,11.19c-15.82,12.56-58.21,9-77.28,6.68,25.66,9.45,100.79,37.93,149.81,65,27.26,15,53.31,49.61,75.33,100,17.87,40.89,32.35,90.67,39.72,136.56,13,81-25,323.37-37.54,403l-.64,4.07c-4.95,31.53-68.22,57.81-188.06,78.11-89,15.07-177.64,21.06-178.53,21.12h-.15l-.14,0c-.32-.07-32.82-7.32-85-7.32-23.75,0-59.43,3.07-100.74,6.63-52.08,4.49-111.1,9.57-170.92,11C628.09,997.47,570.53,997.88,512.49,997.88Z"/></g></g><g id="Numbers"><path class="cls-7" d="M28.64,18.08H20.39l-.72,5.57h1A9.93,9.93,0,0,1,26.48,26a9.52,9.52,0,0,1,2.69,7.15c0,6.1-4,11-10.85,11a14,14,0,0,1-5.86-1.25l1-5a10.37,10.37,0,0,0,4.46,1.1c3.07,0,5.09-2,5.09-5.33,0-4.18-3.17-5.57-6.77-5.57a15.21,15.21,0,0,0-2.21.1L15.73,12.6H28.64Z"/></g></svg>