<svg xmlns="http://www.w3.org/2000/svg" xmlns:xlink="http://www.w3.org/1999/xlink" viewBox="0 0 425.2 425.2"><defs><style>.cls-1{fill:none;}.cls-2{clip-path:url(#clip-path);}.cls-3{fill:#cdd0d5;}.cls-4{clip-path:url(#clip-path-3);}.cls-5{fill:#fff;}.cls-6{fill:#002339;}.cls-7{fill:#eee;}.cls-8{clip-path:url(#clip-path-4);}.cls-9{fill:#dcdcdc;}.cls-10{fill:#a0a0a0;}.cls-11{fill:#b9b9b9;}.cls-12{fill:#9aa2ab;}.cls-13{clip-path:url(#clip-path-6);}</style><clipPath id="clip-path"><rect class="cls-1" y="-445.2" width="425.2" height="425.2"/></clipPath><clipPath id="clip-path-3"><rect class="cls-1" x="-445.2" width="425.2" height="425.2"/></clipPath><clipPath id="clip-path-4"><rect class="cls-1" width="425.2" height="425.2"/></clipPath><clipPath id="clip-path-6"><rect class="cls-1" x="445.2" width="425.2" height="425.2"/></clipPath></defs><title>6</title><g id="_2" data-name="2"><g class="cls-2"><g class="cls-2"><g id="_Группа_" data-name="&lt;Группа&gt;"><path class="cls-3" d="M425.2-23.32V5.79C415.3,6.47,399.89,7,375.87,7,305.6,7,94.8-14.75,81.42-27.58s42.93-20.08,42.93-20.08C143.32-40.69,157-46,157-46s90.9,14.22,155.32,16.17,99.83-1.39,99.83-1.39,1.8,3.35,8,5.86Z"/></g></g><rect class="cls-1" x="-51.1" y="-420.2" width="474.26" height="474.26"/></g></g><g id="_5" data-name="5"><g class="cls-4"><g id="_Группа_2" data-name="&lt;Группа&gt;"><path class="cls-5" d="M-226.32,447.44c-1.76,2.06-29.43,36.3-32.25,43.41-2.94,7.34,49.46.47,48,0s-25.55-9.93-24-18.91C-233.19,463.53-227.08,449.2-226.32,447.44Zm206.71-45.76c.94-2.06,18.86-39.89,12.69-49.87-6.4-10.28-33.78,11.28-33.78,11.28s1.94,4.41,17.5,1.47C-8,361.67-19.08,399.68-19.61,401.68ZM10.7,359.15c7.81,16.68-4.93,53.87-30.37,79.3s-61.68,40.18-142,58.74-102.8,15.68-114.55,8.81,29.72-63.85,63-84.35,129.94-65.32,200.37-82.06C-5.63,337.88,2.83,342.53,10.7,359.15Zm-140.86,87.17c18.44,18.09,44.41,18.09,44.41,18.09S-130.28,440.8-125.4,423s11.75-25.67,3.94-23.2-14.22,11.75-14.22,11.75S-148.66,428.17-130.16,446.32Z"/><path class="cls-5" d="M-264.44,536.37c-24.44-1-54.81-30.37-54.81-30.37s73.13-81.06,97.92-94C-200.71,401.27-25.54,326.84-3,323S43,373.83,13.64,421.83s-38.18,51.87-138,84.18S-239.95,537.37-264.44,536.37Zm244.78-97.92C5.77,413,18.52,375.83,10.7,359.15s-16.33-21.26-23.5-19.56c-70.43,16.74-167.12,61.62-200.37,82.06s-74.78,77.54-63,84.35,34.31,9.81,114.55-8.81S-45.1,463.94-19.67,438.45Z"/><path class="cls-5" d="M-319.25,506s30.37,29.37,54.81,30.37,40.18,1.94,140-30.37,108.67-36.18,138-84.18S19.51,319-3,323-200.71,401.27-221.33,412C-246.11,424.94-319.25,506-319.25,506ZM27.21,625.6c-19.27,12.34-49.58,29.25-86.06,41-57.39,18.5-116.48,36.71-147.79,57.51-14,9.28-25.85,35.36-34.66,61.44a561.71,561.71,0,0,0-17.27,64.62S-54.91,783.09-6.92,761.53,49.83,609.8,49.83,609.8A272.75,272.75,0,0,1,27.21,625.6ZM-359.54,905.44c-33-3.88-897.45-3.88-930.47,0s-103.56,19.62-91.81,32.31,291.77,33.31,414.13,32.31,199.25-.65,285.84,0c122.36,1,402.38-19.56,414.13-32.31S-326.47,909.38-359.54,905.44Zm-68.14-353.39c-91.75-22.91-354.92-24.79-397.15-25-34.31.12-305.87,1.59-399.32,25a175.17,175.17,0,0,0-48.23,20.44c-36.83,22.32-65.14,55.8-83.88,84.41-16.86,25.67-26,47.4-26.49,53.75-1.47,16.15,17.62,70.49,102.8,104.27,80.65,32,419.88,35,455.66,35.19,49.28-.35,373.77-4,452.43-35.19,85.18-33.78,104.27-88.11,102.8-104.27-.59-6.23-9.4-27.43-25.73-52.57-16.86-26-41.77-56.27-73.84-78.54C-386.21,567.33-405.95,557.52-427.68,552.06ZM-1693,625.6c-14.39-9.22-22.62-15.8-22.62-15.8s8.81,130.23,56.8,151.73,251.59,88.64,251.59,88.64a561.71,561.71,0,0,0-17.27-64.62c-8.81-26.08-20.68-52.16-34.6-61.44-31.31-20.79-90.46-39-147.85-57.51C-1643.4,654.85-1673.77,637.88-1693,625.6Zm135.75,333.48c-79.89-15.51-153.61-38.65-158.84-72.19-3.52-22.56-9.57-61-16-105.85-14.86-104.21-31.43-243.42-22.2-300.93,13.22-82.24,54.34-202.66,114.55-235.85s158.6-68.14,158.6-68.14-113.08,1.47-116-13.1,51.4-66.2,107.2-66.2c54,0,39.24,33,38.24,35.13L-1315.44-53l1,.7c-43.59,61.38-116.84,191.5-116.84,204.89,0,16.62,70.49,8.81,202.66,6.81,111.61-1.64,684.34-1.64,795.95,0,132.17,2,202.66,9.81,202.66-6.81,0-13.39-73.31-143.74-116.84-205.07l.7-.53,135.93,184.45c-2.23-3.64-11.51-22.67,38.95-22.67,55.8,0,83.3,36.83,82.53,51.69-1.7,33.48-91.7,15.63-91.7,15.63s98.39,35,158.6,68.14S79.49,397.86,92.71,480.1C101.22,533,87.83,655,74.09,755.36,66.45,811.11,58.7,860.16,54.52,886.88c-5.4,34.36-82.71,57.86-164.89,73.31-21.73,4.05-43.76,7.58-65,10.57-73.31,10.34-135.81,14.51-135.81,14.51s-32.31-7.34-85.18-7.34S-559.27,993-668,995.55c-81.36,1.88-244.25,1.64-325.6,0-108.73-2.23-218.81-17.62-271.68-17.62s-85.18,7.34-85.18,7.34-60.68-4.05-132.64-14C-1507.18,967.83-1532.49,963.83-1557.28,959.08Zm155.9-422.7c24.5-1,54.86-30.37,54.86-30.37s-75.42-88.11-97.92-94-195.79-85.18-218.34-89.05-46,50.87-16.62,98.86,38.18,51.87,138,84.18S-1425.82,537.37-1401.38,536.37Z"/></g><path class="cls-6" d="M-823.11,997.88c-64.12,0-128.83-.5-170.52-1.34-60.59-1.23-122.85-6.67-172.87-11-40.46-3.53-75.41-6.59-98.79-6.59-52.13,0-84.63,7.25-85,7.32l-.14,0h-.15c-.89-.06-89.56-6.05-178.53-21.12-119.84-20.3-183.11-46.58-188.06-78.11l-.64-4.07c-12.5-79.66-50.55-322.06-37.54-403,7.38-45.89,21.85-95.66,39.72-136.56,22-50.4,48.07-85,75.33-100C-1588.77,215-1508.51,185-1487,177.13c-9.77,0-30.46-.07-51.15-1.12-58-2.94-59.55-10.37-60-12.81-.8-4,2.12-10.3,8.24-17.77,15.71-19.19,56.73-49.63,99.94-49.63,20.21,0,33.3,4.58,38.88,13.62,3.63,5.87,3.29,12.31,2.28,16.9l132.57-179.9,1.61,1.19-136.35,185-1.7-1c.06-.12,5.72-11.72-.11-21.14-5.2-8.4-17.71-12.66-37.17-12.66-42.53,0-82.92,30-98.4,48.9-5.65,6.9-8.5,12.77-7.83,16.11,2,10,71.63,12.85,115,12.29l6-.08-5.69,2c-1,.35-99,35.3-158.45,68.07-26.87,14.81-52.62,49.06-74.46,99.05-17.8,40.75-32.23,90.34-39.58,136.08-13,80.65,25.05,322.82,37.54,402.4l.64,4.07c4.73,30.16,69.19,56.59,186.4,76.45,87.2,14.77,174.13,20.81,178.2,21.09,2.43-.53,34.66-7.33,85.25-7.33,23.47,0,58.45,3.06,99,6.59,50,4.37,112.21,9.8,172.74,11,79.4,1.61,242.35,2,325.6,0,59.76-1.41,118.75-6.5,170.79-11,41.35-3.56,77.07-6.64,100.91-6.64,50.59,0,82.82,6.8,85.25,7.33,4.06-.28,91-6.32,178.2-21.09,117.22-19.86,181.67-46.29,186.4-76.45l.64-4.06c12.49-79.58,50.51-321.76,37.55-402.42C84.4,434.51,70,384.91,52.17,344.16c-21.84-50-47.59-84.24-74.46-99.05C-81.74,212.34-179.76,177.38-180.75,177l.5-1.93c.65.11,65.6,10.58,85.16-4.95a13.09,13.09,0,0,0,5.37-9.75c.38-5.79-4.21-14.68-11.68-22.66-7.87-8.4-30.58-27.94-71.33-27.94-27.5,0-36,5.68-38.29,10.45-2.2,4.58.82,9.46,1.75,10.8l.29.39-1.58,1.22s-.19-.24-.41-.56l-136-184.51,1.61-1.19,131.57,178.54a10.29,10.29,0,0,1,.93-5.55c3.68-7.7,17.17-11.6,40.1-11.6,41.53,0,64.74,20,72.79,28.57s12.64,17.75,12.22,24.16a15.19,15.19,0,0,1-6.12,11.19c-15.82,12.56-58.21,9-77.28,6.68,25.66,9.45,100.79,37.93,149.81,65C5.93,258.38,32,293,54,343.36,71.87,384.26,86.35,434,93.72,479.92c13,81-25,323.38-37.54,403L55.54,887c-4.95,31.53-68.22,57.81-188.06,78.11-89,15.07-177.64,21.06-178.53,21.12h-.15l-.14,0c-.32-.07-32.82-7.32-85-7.32-23.75,0-59.43,3.07-100.74,6.63-52.07,4.49-111.1,9.57-170.92,11C-707.51,997.47-765.07,997.88-823.11,997.88Z"/><path class="cls-7" d="M-445.2,130.47s-10.31,204.79,57.93,258.67c38,30,226,28.67,303.33,28.67,97,0,83.47,12,83.47,12l-440.13,12-14.33-8.67Z"/></g></g><g id="_5-2" data-name="5"><g class="cls-8"><rect class="cls-7" width="425.2" height="425.2"/><g id="_Группа_3" data-name="&lt;Группа&gt;"><path class="cls-5" d="M218.88,447.44c-1.76,2.06-29.43,36.3-32.25,43.41-2.94,7.34,49.46.47,48,0s-25.55-9.93-24-18.91C212,463.53,218.12,449.2,218.88,447.44Zm206.71-45.76c.94-2.06,18.86-39.89,12.69-49.87-6.4-10.28-33.78,11.28-33.78,11.28s1.94,4.41,17.5,1.47C437.23,361.67,426.12,399.68,425.59,401.68Zm30.31-42.53c7.81,16.68-4.93,53.87-30.37,79.3s-61.68,40.18-142,58.74S180.76,512.88,169,506s29.72-63.85,63-84.35,130-65.32,200.43-82.06C439.58,337.88,448,342.53,455.91,359.15ZM315,446.32c18.44,18.09,44.41,18.09,44.41,18.09S314.93,440.8,319.8,423s11.75-25.67,3.94-23.2-14.22,11.75-14.22,11.75S296.54,428.17,315,446.32Z"/><path class="cls-5" d="M438.28,351.81c6.17,10-11.75,47.82-12.69,49.87.53-2,11.63-40-3.58-37.12-15.57,2.94-17.5-1.47-17.5-1.47S431.88,341.53,438.28,351.81Z"/><path class="cls-5" d="M359.45,464.41s-26,0-44.41-18.09-5.52-34.77-5.52-34.77,6.34-9.28,14.22-11.75.94,5.4-3.94,23.2S359.45,464.41,359.45,464.41Z"/><path class="cls-5" d="M180.76,536.37C156.32,535.37,126,506,126,506s73.13-81.06,97.92-94c20.62-10.75,195.79-85.18,218.28-89.05s46.05,50.87,16.68,98.86-38.18,51.87-138,84.18S205.26,537.37,180.76,536.37Zm244.78-97.92c25.44-25.44,38.18-62.62,30.37-79.3s-16.33-21.26-23.5-19.56C362,356.33,265.29,401.21,232,421.65S157.26,499.19,169,506s34.31,9.81,114.55-8.81S400.1,463.94,425.54,438.45Z"/><path class="cls-3" d="M-103.9,14.63C-122.52.94-186.14-1.11-228.26,6.7S-263.5,90.94-263.5,90.94H-503.87S-497,14.57-539.12,6.7-644.85.94-663.47,14.63s-32.31,76.31-32.31,76.31l-98.86,3.88s56.8-112.55,95.92-115.49c35.36-2.64,594.7-2.64,630.06,0C-29.48-17.74,27.27,94.81,27.27,94.81l-98.86-3.88S-85.28,28.26-103.9,14.63Z"/><path class="cls-3" d="M215.18,152.61c0,16.62-70.49,8.81-202.66,6.81-111.61-1.64-684.34-1.64-795.95,0-132.17,2-202.66,9.81-202.66-6.81,0-13.39,73.25-143.56,116.78-204.95,10.69-15,19.62-26,25.2-30,28.37-20.56,15.68-20.56,128.23-33.31,43.94-5,199-18.33,349.57-18.09,137.4.18,271.21,13.57,311.27,18.09C57.58-102.91,44.83-102.91,73.26-82.35c5.58,4.05,14.39,14.92,25,29.9C141.87,8.87,215.18,139.22,215.18,152.61ZM-539.12,6.7c42.12,7.87,35.24,84.24,35.24,84.24H-263.5s-6.81-76.36,35.24-84.24S-122.52.94-103.9,14.63s32.31,76.31,32.31,76.31l98.86,3.88S-29.48-17.74-68.66-20.67c-35.36-2.64-594.7-2.64-630.06,0-39.12,2.94-95.92,115.49-95.92,115.49l98.86-3.88S-682,28.26-663.47,14.63-581.23-1.11-539.12,6.7Z"/><path class="cls-5" d="M-1247.83,625.6c-14.39-9.22-22.62-15.8-22.62-15.8s8.81,130.23,56.8,151.73,251.59,88.64,251.59,88.64a561.71,561.71,0,0,0-17.27-64.62c-8.81-26.08-20.62-52.16-34.6-61.44-31.37-20.79-90.46-39-147.85-57.51C-1198.2,654.85-1228.57,637.88-1247.83,625.6Zm311.21,312.15c11.75,12.75,291.77,33.31,414.13,32.31s199.25-.65,285.84,0c122.36,1,402.38-19.56,414.13-32.31s-58.74-28.37-91.81-32.31-897.45-3.88-930.47,0S-948.37,925.06-936.62,937.75Zm1323-271.15c-57.39,18.5-116.48,36.71-147.79,57.51-14,9.28-25.85,35.36-34.66,61.44a561.71,561.71,0,0,0-17.27,64.62s203.66-67.08,251.65-88.64S495,609.8,495,609.8a265.51,265.51,0,0,1-22.62,15.74C453.14,637.94,422.83,654.85,386.36,666.6ZM334.84,960.19c-21.73,4.05-43.82,7.58-65,10.57-73.31,10.34-135.81,14.51-135.81,14.51s-32.31-7.34-85.18-7.34-162.95,15-271.68,17.62c-81.36,1.88-244.25,1.64-325.6,0-108.73-2.23-218.81-17.62-271.68-17.62s-85.18,7.34-85.18,7.34-60.68-4.05-132.64-14c-24.14-3.41-49.46-7.4-74.19-12.22-79.89-15.45-153.61-38.59-158.84-72.13-3.52-22.56-9.57-61-16-105.85-14.86-104.21-31.43-243.42-22.2-300.93,13.22-82.24,54.34-202.66,114.55-235.85s158.6-68.14,158.6-68.14S-1149,177.58-1152,163s51.4-66.2,107.2-66.2c54,0,39.24,33,38.24,35.13L-870.24-53l.94.65C-912.83,9-986.08,139.22-986.08,152.61c0,16.62,70.49,8.81,202.66,6.81,111.61-1.64,684.34-1.64,795.95,0,132.17,2,202.66,9.81,202.66-6.81,0-13.39-73.31-143.74-116.9-205.07h.06l.7-.53L235,131.47c-2.23-3.64-11.51-22.67,38.95-22.67,55.8,0,83.3,36.83,82.53,51.69-1.7,33.48-91.7,15.63-91.7,15.63s98.39,35,158.6,68.14S524.69,397.86,537.91,480.1C546.43,533,533,655,519.29,755.36c-7.64,55.75-15.39,104.79-19.56,131.52C494.32,921.25,417,944.74,334.84,960.19ZM180.76,536.37c24.5,1,40.18,1.94,140-30.37s108.67-36.18,138-84.18S464.72,319,442.16,323,244.49,401.27,223.88,412C199.09,424.94,126,506,126,506S156.32,535.37,180.76,536.37ZM76.55,579.49c-17.56-12.16-37.3-22-59-27.43-91.75-22.91-354.92-24.79-397.15-25-34.31.12-305.87,1.59-399.32,25a175.17,175.17,0,0,0-48.23,20.44c-36.83,22.32-65.14,55.8-83.88,84.41-16.8,25.67-25.91,47.4-26.49,53.75-1.47,16.15,17.62,70.49,102.8,104.27,80.65,32,419.88,35,455.66,35.19,49.28-.35,373.77-4,452.43-35.19,85.18-33.78,104.27-88.11,102.8-104.27-.53-6.23-9.34-27.43-25.73-52.57C133.53,632.06,108.63,601.81,76.55,579.49ZM-956.18,536.37c24.5-1,54.81-30.37,54.81-30.37s-75.37-88.11-97.86-94-195.84-85.18-218.34-89.05-46,50.87-16.62,98.86,38.18,51.87,138,84.18S-980.68,537.37-956.18,536.37Z"/></g><path class="cls-6" d="M166.19,164c-17,0-38.42-.64-64.37-1.41s-55.43-1.65-89.29-2.15c-111.58-1.65-684.34-1.65-795.92,0-33.86.5-63.31,1.38-89.29,2.15-66.84,2-103.67,3.08-112.32-5.32a6.36,6.36,0,0,1-2.06-4.69c0-9.17,31.16-66.88,60.47-116.52,29.9-50.63,67.11-108.54,81.9-119.25,3.31-2.4,6.08-4.53,8.52-6.41,19-14.6,20.51-15.79,120.21-27.06,41.87-4.73,194.51-18.12,345.8-18.12h3.85c145.81.22,285,15.13,311.41,18.12C44.79-105.38,46.34-104.19,65.31-89.59c2.44,1.88,5.21,4,8.52,6.41h0c14.79,10.71,52,68.62,81.9,119.25C185,85.72,216.2,143.43,216.2,152.59a6.36,6.36,0,0,1-2.06,4.69C208.84,162.42,193,164,166.19,164Zm-551.62-6.8c171.1,0,342.2.41,398,1.24,33.88.5,63.33,1.38,89.32,2.15,64.12,1.91,102.82,3.06,110.87-4.75a4.37,4.37,0,0,0,1.45-3.25c0-7.61-26.44-58.35-60.19-115.51C124.21-13.37,87.2-71,72.65-81.56,69.32-84,66.54-86.12,64.09-88,45.53-102.29,44-103.46-55.12-114.66c-26.4-3-165.49-17.88-311.19-18.11-152.46-.21-307.23,13.33-349.43,18.11C-814.88-103.46-816.39-102.29-835-88c-2.45,1.89-5.23,4-8.57,6.44C-858.06-71-895.08-13.37-924.87,37.09c-33.75,57.16-60.19,107.9-60.19,115.51a4.37,4.37,0,0,0,1.45,3.25c8,7.81,46.75,6.66,110.87,4.75,26-.77,55.44-1.65,89.32-2.15C-727.63,157.62-556.53,157.21-385.43,157.21Z"/><path class="cls-6" d="M-377.91,997.88c-64.12,0-128.83-.5-170.52-1.34-60.59-1.23-122.85-6.67-172.87-11-40.46-3.53-75.41-6.59-98.79-6.59-52.13,0-84.63,7.25-85,7.32l-.14,0h-.15c-.89-.06-89.56-6.05-178.53-21.12C-1203.7,944.83-1267,918.55-1271.92,887l-.64-4.06c-12.5-79.66-50.56-322.08-37.54-403,7.38-45.89,21.85-95.66,39.72-136.56,22-50.4,48.07-85,75.33-100,51.48-28.37,131.74-58.36,153.28-66.23-9.77,0-30.46-.07-51.15-1.12-58-2.94-59.55-10.37-60-12.81-.8-4,2.12-10.3,8.24-17.77,15.71-19.19,56.73-49.64,99.94-49.64,20.21,0,33.3,4.58,38.88,13.62,3.63,5.87,3.29,12.31,2.28,16.9L-871-53.59l1.61,1.19-136.35,185-1.7-1c.06-.12,5.72-11.72-.11-21.14-5.2-8.4-17.71-12.66-37.17-12.66-42.53,0-82.92,30-98.4,48.9-5.65,6.9-8.5,12.77-7.83,16.11,2,10,71.63,12.85,115,12.29l6-.08-5.69,2c-1,.35-99,35.3-158.45,68.07-26.87,14.81-52.62,49.06-74.46,99.05-17.8,40.75-32.23,90.34-39.58,136.08-13,80.65,25.05,322.83,37.55,402.42l.64,4.06c4.73,30.16,69.19,56.59,186.42,76.45,87.2,14.77,174.11,20.81,178.18,21.09,2.43-.53,34.66-7.33,85.25-7.33,23.47,0,58.45,3.06,99,6.59,50,4.37,112.21,9.8,172.74,11,79.4,1.61,242.35,2,325.6,0C-163,993.12-104,988-52,983.55c41.35-3.56,77.07-6.64,100.91-6.64,50.59,0,82.82,6.8,85.25,7.33,4.06-.28,91-6.32,178.2-21.09C429.58,943.3,494,916.87,498.77,886.71l.64-4.07c12.49-79.58,50.51-321.75,37.54-402.4-7.35-45.73-21.78-95.33-39.58-136.08-21.84-50-47.59-84.24-74.46-99.05C363.46,212.34,265.44,177.38,264.45,177l.5-1.93c.65.11,65.6,10.58,85.16-4.95a13.09,13.09,0,0,0,5.37-9.75c.38-5.79-4.21-14.68-11.68-22.66-7.87-8.4-30.58-27.94-71.33-27.94-27.5,0-36,5.68-38.29,10.45-2.2,4.58.82,9.47,1.75,10.81l.29.39-1.58,1.22s-.19-.24-.42-.56L98.26-52.41l1.61-1.19L231.44,124.95a10.29,10.29,0,0,1,.93-5.55c3.68-7.7,17.17-11.6,40.1-11.6,41.53,0,64.74,20,72.79,28.57s12.64,17.75,12.22,24.16a15.18,15.18,0,0,1-6.12,11.19c-15.82,12.56-58.21,9-77.28,6.68,25.66,9.45,100.79,37.93,149.8,65,27.26,15,53.31,49.61,75.33,100,17.87,40.89,32.35,90.67,39.72,136.56,13,81-25,323.37-37.54,403l-.64,4.07c-4.95,31.53-68.22,57.81-188.06,78.11-89,15.07-177.64,21.06-178.53,21.12H134l-.14,0c-.32-.07-32.82-7.32-85-7.32-23.75,0-59.43,3.07-100.74,6.63-52.07,4.49-111.1,9.57-170.92,11C-262.31,997.47-319.87,997.88-377.91,997.88Z"/><path class="cls-6" d="M273.45,179.37c-15.72-8.59-39.28-47.05-40.27-48.69l1.71-1c.24.4,24.27,39.64,39.52,48Z"/><path class="cls-7" d="M56-7.53s44.57,26.67,80.57,68,55.09,70.67,55.09,70.67-17.5-56.67-52-101.33L105.27-14.87Z"/><path class="cls-7" d="M0,130.47S-10.31,335.25,57.93,389.13c38,30,226,28.67,303.33,28.67,97,0,83.47,12,83.47,12L4.6,441.8l-14.33-8.67Z"/></g><g class="cls-8"><circle class="cls-5" cx="193.36" cy="169" r="19.75" transform="translate(-60.17 128.14) rotate(-32)"/><path class="cls-6" d="M193.4,189.75a20.93,20.93,0,0,1-4.71-.54,20.63,20.63,0,1,1,4.71.54Zm-.08-39.51a18.8,18.8,0,1,0,4.25.49A18.89,18.89,0,0,0,193.32,150.25Z"/><circle class="cls-5" cx="115.17" cy="173.19" r="9.87" transform="translate(-74.28 87.35) rotate(-32)"/><path class="cls-6" d="M115.19,184.07a11,11,0,0,1-2.47-.28,10.81,10.81,0,1,1,2.47.28Zm0-19.75a8.82,8.82,0,0,0-4.69,1.35h0a8.88,8.88,0,1,0,4.69-1.35Z"/><circle class="cls-5" cx="76.62" cy="358.15" r="19.75" transform="translate(-178.15 95.02) rotate(-32)"/><path class="cls-6" d="M76.66,378.9a20.84,20.84,0,0,1-4.71-.54,20.64,20.64,0,1,1,4.71.54Zm-.08-39.51a18.63,18.63,0,0,0-9.9,2.86h0a18.75,18.75,0,1,0,14.15-2.37A18.89,18.89,0,0,0,76.58,339.4Z"/><circle class="cls-5" cx="146.44" cy="154.11" r="11.95" transform="translate(-59.41 101.02) rotate(-32)"/><path class="cls-6" d="M146.47,167.06a13.06,13.06,0,0,1-2.94-.34,12.88,12.88,0,1,1,2.94.34Zm0-23.91a11,11,0,1,0,2.48.28A11,11,0,0,0,146.42,143.16Z"/><circle class="cls-5" cx="65.33" cy="323.9" r="11.95" transform="translate(-161.71 83.84) rotate(-32)"/><path class="cls-6" d="M65.35,336.84a12.94,12.94,0,1,1,6.84-2A13,13,0,0,1,65.35,336.84Zm0-23.9a11,11,0,1,0,2.48.28A11,11,0,0,0,65.31,312.95Z"/><circle class="cls-5" cx="213.85" cy="178.87" r="11.95" transform="translate(-62.29 140.5) rotate(-32)"/><path class="cls-6" d="M213.87,191.82a12.94,12.94,0,1,1,6.84-2A13,13,0,0,1,213.87,191.82Zm0-23.9a11,11,0,1,0,2.48.28A11,11,0,0,0,213.83,167.92Z"/><circle class="cls-5" cx="49.95" cy="387.96" r="9.66" transform="translate(-198 85.42) rotate(-32)"/><path class="cls-6" d="M50,398.62a10.73,10.73,0,0,1-2.42-.28,10.66,10.66,0,0,1-3.25-19.42h0A10.66,10.66,0,1,1,50,398.62Zm-4.61-18a8.66,8.66,0,1,0,11.93,2.75,8.67,8.67,0,0,0-11.93-2.75Z"/><circle class="cls-5" cx="69.08" cy="176.55" r="5.82" transform="translate(-83.06 63.43) rotate(-32)"/><path class="cls-6" d="M69.09,183.38a6.88,6.88,0,0,1-1.55-.18,6.78,6.78,0,1,1,1.55.18Zm0-11.64a4.82,4.82,0,1,0,4.1,2.27A4.79,4.79,0,0,0,69.07,171.73Z"/><circle class="cls-5" cx="125.05" cy="154.11" r="5.82" transform="translate(-62.66 89.68) rotate(-32)"/><path class="cls-6" d="M125.06,160.93a6.87,6.87,0,0,1-1.55-.18,6.82,6.82,0,0,1-2.08-12.43h0a6.82,6.82,0,1,1,3.63,12.61Zm0-11.65a4.79,4.79,0,0,0-2.55.73h0a4.79,4.79,0,1,0,2.55-.73Z"/><circle class="cls-5" cx="186.03" cy="122.51" r="5.82" transform="translate(-36.65 117.2) rotate(-32)"/><path class="cls-6" d="M186,129.33a6.82,6.82,0,1,1,3.6-1A6.82,6.82,0,0,1,186,129.33Zm0-11.64a4.82,4.82,0,1,0,4.1,2.26A4.79,4.79,0,0,0,186,117.69Z"/><circle class="cls-5" cx="66.17" cy="193.74" r="2.91" transform="translate(-92.61 64.5) rotate(-32)"/><path class="cls-6" d="M66.17,197.65a4,4,0,0,1-.89-.1,3.91,3.91,0,0,1-1.19-7.13h0a3.91,3.91,0,1,1,2.08,7.23Zm-1-5.53a1.91,1.91,0,1,0,2.63.61,1.91,1.91,0,0,0-2.63-.61Z"/><circle class="cls-5" cx="34.49" cy="322.5" r="2.91" transform="translate(-165.66 67.28) rotate(-32)"/><path class="cls-6" d="M34.5,326.41a4,4,0,0,1-.89-.1,3.89,3.89,0,1,1,.89.1Zm0-5.82a1.91,1.91,0,1,0,1.62.9A1.91,1.91,0,0,0,34.49,320.59Z"/><circle class="cls-5" cx="43.57" cy="342.53" r="5.82" transform="translate(-174.89 75.14) rotate(-32)"/><path class="cls-6" d="M43.58,349.34A6.82,6.82,0,0,1,40,336.74h0a6.82,6.82,0,1,1,3.63,12.6ZM41,338.44A4.82,4.82,0,1,0,47.66,340,4.79,4.79,0,0,0,41,338.44Z"/><path class="cls-6" d="M205.26,166.38s-.07-8.11-6.89-11.77c-5.59-3-7.53,1-6,1.18,1,.12,0,0,3.7,2A25.11,25.11,0,0,1,205.26,166.38Z"/><path class="cls-6" d="M154.07,156.21s.58-6-4.2-9.27c-3.91-2.66-5.66.17-4.55.41.77.17,0,0,2.59,1.78A18.73,18.73,0,0,1,154.07,156.21Z"/><g id="_Группа_4" data-name="&lt;Группа&gt;"><path class="cls-5" d="M158.08,295.21c-1-.42-2.47-1-4.47-1.76-5.82-2.24-17-6.64-23.33-10.92a81.34,81.34,0,0,0-7.37-4.38s8.24,1.68,11.31,2.51,22.77,13.48,23.73,14.06Zm2.44,1c.56.07,9.2,1.21,12.26-3.7,3.17-5.07-.48-9.73-3.72-11.38-3-1.53-15.9-6.71-24.25-10.61-.77-.35-1.5-.7-2.18-1-6.57-3.21-16.44-9.06-24.44-13.2h0c-1.81-.94-3.53-1.79-5.1-2.51-4.7-2.14-8.67-3.27-11.76-4.56h0c.59.06,10.07,1,13.65,2.8s8.62.9,14.35,2.53c5.37,1.52,20.4,6.6,22.26,7.24l.19.06c5.2,1.72,11.19,4.27,14.87,3.32l1.88-.75.12-.05c3.58-1.89,3.93-5.13,3.69-8.23-.28-3.51-1.54-5.52-7.79-6.78s-14.74-4.49-21.68-5.46a30.42,30.42,0,0,1-6.4-1.7c-4.06-1.5-8-3.6-12.51-5.17-.41-.15-.85-.3-1.27-.43-7.36-2.34-14,.21-22.9-5.74-2.11-1.42-4.21-2.94-6.18-4.43h0c-2.1-1.58-4.05-3.13-5.73-4.49,0,0,8.1.3,11.53-.66s5.32-.78,9.93,1.26a119.93,119.93,0,0,0,12.34,4.24h0c2.32,0,4.11-.07,4.37-.11.65-.13,3,2.68,6.76,4.91,2.34,1.39,3.67,2,5.61,2a24.2,24.2,0,0,0,4.51-.63c5.24-1.06,4.71-7.8,2.31-8.8s-12.49-9.15-13.85-9.92-9.25-1.59-14.69-3.22a74.55,74.55,0,0,0-11.16-2.76,56.26,56.26,0,0,0-8-.58c-8.87,0-12.52,1.2-19.3,1.45l-2,.06c-4,.1-6.49,0-10.44,1.23a50.17,50.17,0,0,0-4.71,1.74c-7.93,3.34-42.42,15.16-48.44,17.3s-11.71,2-28.8,4.16c-11.7,1.45-28.12,4.63-37.33,6.48l-2.6,1.62,25.9,41.44c6.82-.8,13.32-1.42,17.08-1.41,10.64,0,14.28-4.21,16.13-2.81s24.52,2.76,41.22,2.75,24.87-4.54,30.7-4.65,15.25,3.64,17.5,3.8,13.82,11.41,23.41,15.44,12.69,3.86,18.75,7.94c4,2.71,8.7,5.88,11.39,7.72l.58.23c5.77,2.17,11.69,3,15.9,1.67h0a8.69,8.69,0,0,0,3.26-1.85c3.92-3.63,1.83-7.92-.11-10.55A33.73,33.73,0,0,0,160.52,296.23Z"/><path class="cls-3" d="M65.8,210.38c4-1.2,6.46-1.14,10.44-1.23,0,0,1.18-15.59,3.79-26.2-2.08-1.27-5.09-2.33-6,1.46C73,188.95,68.11,203.61,65.8,210.38Z"/><path class="cls-9" d="M72.9,289.88a5.29,5.29,0,0,1,1.7-1.15c3.09-1.19,9.28-.49,13.91.31s5.84.62,5.84.62,17.24,7.06,22.23,9.4,21.62,9.87,29.43,12.86c-2.69-1.83-7.36-5-11.39-7.72-6.06-4.08-9.15-3.91-18.75-7.94S94.72,281,92.45,280.82s-11.67-3.91-17.5-3.8-14,4.63-30.7,4.65S4.88,280.32,3,278.92s-5.5,2.85-16.13,2.81c-3.76,0-10.26.61-17.08,1.41l5.77,9.24c8.16-1.24,15.55-2.39,19.23-3,10.94-1.83,6.86-2.23,18.07,1.09s25.89,1.8,35.24,6.87c8,4.34,20.79,4.44,24.24,4.38Z"/><path class="cls-10" d="M100.78,225.65c-1-.06-6.84.74-7.2.78,2,1.49,4.06,3,6.18,4.43,8.88,5.95,15.54,3.4,22.9,5.74.43.13.86.28,1.27.43,4.48,1.56,8.44,3.66,12.51,5.17l4-1.15c4-1.16-1.41-6.82-1.41-6.82l-.61-.67c-1.93,0-3.26-.58-5.61-2-3.75-2.22-6.1-5-6.76-4.91-.26,0-2,.11-4.37.11h0c-3.72,0-8.78-.18-11.13-.88C106.7,224.75,101.85,225.72,100.78,225.65Z"/><path class="cls-9" d="M93.58,226.43c.36,0,6.16-.84,7.2-.78s5.92-.89,9.74.26c2.35.7,7.41.88,11.13.88a119.93,119.93,0,0,1-12.34-4.24c-4.61-2-6.5-2.23-9.93-1.26s-11.53.66-11.53.66c1.68,1.37,3.64,2.92,5.73,4.49Z"/><path class="cls-9" d="M101.3,249.22h0c3.09,1.29,7.07,2.42,11.76,4.56,1.57.72,3.28,1.57,5.1,2.51h0A80.93,80.93,0,0,0,128.79,258c7.09.72,11.2,2.13,17,2.47a24.48,24.48,0,0,1,5.74,1.34c-1.86-.63-16.88-5.71-22.26-7.24-5.73-1.63-10.66-.71-14.35-2.53S101.89,249.28,101.3,249.22Z"/><path class="cls-11" d="M359.83,241.68h-.06c-.87,0-7.76-.42-18.18-.81-17.94,0-47.87,1.88-84.1,11.58-59,15.77-83.55,96.11-84.2,98.27.38-2,16.53-87.68,39.09-101.78,17.38-10.86,93.72-9.39,129.22-8.07a171.05,171.05,0,0,1,18.18.81A.11.11,0,0,1,359.83,241.68ZM167,486.77c1.33,3.5,13.44,34.34,30.23,41.64,17.6,7.66,53.61-111.63,54.43-114.35-.45,2.4-14.8,79.31-11.1,87,2,4.21,7.27,2.39,11.65-.18,5-5.11,10.06-10.4,15-15.62l0,0c.66-.92,22-30.48,28.48-41.11,6.6-10.81-1.43-19.94-7.13-33.68-5.61-13.51-12.6-46.73-12.82-47.77a0,0,0,0,0,0,0c-3.87-10.46-7.68-20.94-10-25.6-1.89-3.84-2.61-6.65-2.46-8.69.21-2.76,2-4.14,4.66-4.77,4.61-1.11,10.31-1.43,17.73,10.44.91,1.45,1.87,3,2.87,4.7,7.18,12,16.19,28.29,19.52,31.13,2,1.68,5.38,2.32,9.15,1.26a128.08,128.08,0,0,0,11.56-16.86c5.26-9.25,10.45-34,12.65-45.38.46-4.57,1-9.09,1.72-14v0c1.88-12.08,3.9-28.67,6.1-32.7s8.37-6.41,11.58-2.22,3.71,8.29,3.12,23.4c-.44,11.57-2.1,36.19-2.77,48.88v0c-.06,1.25-.12,2.4-.17,3.39h0a7.74,7.74,0,0,0,1.23,2.26c1.78,2.23,3.46,2.16,3.46,2.16,3,.18,9-11.57,13-20.25a.94.94,0,0,1,.09-.2c1.32-3,2.63-6,3.83-8.71a.47.47,0,0,1,.05-.14v0c1.31-3,2.49-5.75,3.43-8,4.77-11.24,12.59-29.39,19.27-34.74s11.37.27,12.56,4.53-8.22,26.95-10.21,35.56c-.17.73-.44,1.63-.8,2.68l-.13.36c-.3.87-.66,1.83-1.07,2.86l-.07.2c-2.9,7.92-9.75,27.19-9,30.45.95,4.12,2.68,4.29,2.68,4.29,1.9-1.75,4-3.9,6.41-6.45q1.07-1.15,2.21-2.41c12.19-13.51,27.56-36.09,30.9-38.77s9.75-3.74,12.3,1.75.58,8.48-10.76,23.82c-9,12.16-13.39,19.22-17.23,25l0,0c-1,1.52-2,2.95-3,4.36a23,23,0,0,1-1.66,2.08c-2.1,3.43-3.73,7.22-1.8,8.66,2.67,2,8.36,1.84,11.59,1.55h0a59.31,59.31,0,0,0,10.88-5.89c6.95-5,13.93-8.94,19.25-10.38a11,11,0,0,1,5.89-.32c5.09,1.54,8.82,6.57,3.81,11.77s-17.62,11.9-24.57,16.83l-.73.51c-4.33,3.06-26.55,18.86-29.05,24-2.78,5.71-15.25,26.78-26,39.7-8.33,10-17.9,27.19-21.81,34.48L529.83,377,462.75,269.61c-38.8-17.17-127.48-55.26-177.45-67.48C224.56,187.27,87.79,168,83.05,174.88A26.78,26.78,0,0,0,80,183c-2.62,10.61-3.79,26.2-3.79,26.2l2-.06c6.78-.25,10.42-1.49,19.3-1.45a56.26,56.26,0,0,1,8,.58A74.55,74.55,0,0,1,116.68,211c5.44,1.63,13.32,2.44,14.69,3.22s11.45,8.91,13.85,9.92,2.93,7.74-2.31,8.8a24.2,24.2,0,0,1-4.51.63l.61.67s5.38,5.66,1.41,6.82l-4,1.15a30.42,30.42,0,0,0,6.4,1.7c6.94,1,15.44,4.2,21.68,5.46s7.5,3.27,7.79,6.78c.24,3.1-.11,6.33-3.69,8.23l-.12.05a9.16,9.16,0,0,1-1.52.64l-.36.11c-3.21,1.26-9.44,3.62-12.18,4.05-3.8.6-9.45,1-9.45,1l-.17.37c8.34,3.9,21.28,9.09,24.25,10.61,3.25,1.65,6.9,6.3,3.72,11.38-3.06,4.91-11.7,3.77-12.26,3.7a33.73,33.73,0,0,1,5.13,5.18c1.93,2.62,4,6.92.11,10.55a8.69,8.69,0,0,1-3.26,1.85h0c-.45.34-8.68,6.25-23.68,0-15.44-6.47-38.87-11.88-52.29-14.49-12.74-2.48-14.8,19.36-15,21.56V321L66.28,437.52l91.06,145.72c8.38-12.81,18.39-28.35,21.83-34.69C185.18,537.48,168.59,491.1,167,486.77Z"/><path class="cls-10" d="M128.79,258a80.93,80.93,0,0,1-10.59-1.66c8,4.14,17.87,10,24.44,13.2.68.33,1.4.68,2.18,1l.17-.37s5.65-.36,9.45-1c2.75-.43,9-2.79,12.18-4.05-3.67,1-9.67-1.6-14.87-3.32l-.19-.06a24.48,24.48,0,0,0-5.74-1.34C140,260.1,135.88,258.7,128.79,258Z"/><path class="cls-10" d="M146,311.92c-7.81-3-24.56-10.58-29.43-12.86s-22.23-9.4-22.23-9.4-1.21.17-5.84-.62-10.82-1.5-13.91-.31a5.29,5.29,0,0,0-1.7,1.15l-.53,11.82-.85,19.15c.18-2.21,2.24-24,15-21.56,13.42,2.61,36.85,8,52.29,14.49,15,6.29,23.24.39,23.68,0-4.21,1.37-10.13.51-15.9-1.67Z"/><path class="cls-9" d="M134.22,280.67c-3.07-.83-11.31-2.51-11.31-2.51a81.34,81.34,0,0,1,7.37,4.38c6.36,4.28,17.51,8.67,23.33,10.92,2,.78,3.44,1.34,4.47,1.76l-.14-.48C157,294.15,137.29,281.49,134.22,280.67Z"/><path class="cls-5" d="M166.61,265.16l.36-.11a9.16,9.16,0,0,0,1.52-.64Z"/><path class="cls-10" d="M173.28,350.71c.65-2.16,25.2-82.5,84.2-98.27,36.24-9.7,66.16-11.59,84.1-11.58-35.49-1.32-111.84-2.79-129.22,8.07C189.81,263,173.65,348.71,173.28,350.71Z"/><path class="cls-12" d="M341.58,240.86c10.42.39,17.31.76,18.18.81A171.05,171.05,0,0,0,341.58,240.86Z"/><path class="cls-12" d="M359.76,241.67h.06A.11.11,0,0,0,359.76,241.67Z"/><path class="cls-5" d="M412.94,398.61l.65.77c5.88-4.78,22.37-13.52,29.31-18.23l.73-.51c6.94-4.93,19.56-11.63,24.57-16.83s1.27-10.23-3.81-11.77a11,11,0,0,0-5.89.32s-27.13,18.54-36,23.76-18.88,8.94-21.56,5.12,3.19-8.41,3.46-8.62h0a57,57,0,0,1,4.42-4.86l.1-.1c2.67-2.68,6.68-5.93,9.58-9.23a62.89,62.89,0,0,1,4.62-6.44l0,0c3.85-5.82,8.24-12.89,17.23-25,11.34-15.34,13.3-18.34,10.76-23.82s-9-4.43-12.3-1.75-18.71,25.25-30.9,38.77q-1.14,1.26-2.21,2.41s-14.09,23.4-18.46,21.12,2.17-12,2.44-12.42h0c2.68-7.38,11.68-26.15,15.93-37l.07-.2c.5-1.36.87-2.36,1.07-2.86l.13-.36c.36-1,.63-2,.8-2.68,2-8.61,11.4-31.3,10.21-35.56s-5.88-9.89-12.56-4.53-14.5,23.5-19.27,34.74c-.94,2.21-2.12,5-3.43,8v0a.89.89,0,0,1-.05.14c-.33.79-1.82,4.35-3.83,8.71a.94.94,0,0,0-.09.2c-3.15,7.1-6.4,14.31-8.6,19v0c-.17.79-3.31,15.3-8.45,14.4-4.18-.73-2.05-13.46-1-18.75.25-1.23.44-2.05.49-2.25v0c.67-12.68,2.33-37.3,2.77-48.88.58-15.1.08-19.21-3.12-23.4s-9.38-1.8-11.58,2.22-4.22,20.62-6.1,32.7v0c0,.38-.27,3.51-.62,8.06-1,12.61-2.65,36.17-2.54,42.49.17,8.76-4.28,18.62-3.67,21.48s-5.88,11.34-5.88,11.34-2.86-11.18-7.92-6.55c-3.4,3.11-5.87,4.31-8.89,3.64a16.25,16.25,0,0,1-5-2.32c-5.86-3.71-20-34.33-20-34.33-1-1.67-2-3.25-2.87-4.7-7.42-11.87-13.12-11.56-17.73-10.44-2.64.64-4.45,2-4.66,4.77-.15,2,.56,4.85,2.46,8.69,2.3,4.66,6.11,15.14,10,25.6a0,0,0,0,1,0,0c.53,1.43,1.06,2.86,1.59,4.28l2.52,2.27s7.13,5.57,8.4,18c.46,4.47,1.09,7.2,2,9.09,1.55,3.4,3.84,4.11,7.17,7.32,5.19,5,16.08,23.85,17.31,30.16s-32.93,35.88-34.21,37l0,0c-4.14,4.6-8.61,9.46-13.22,14.38l0,0c-4.9,5.22-10,10.51-15,15.62-10.59,10.83-21,20.88-29.11,27.9-15.44,13.3-43.69,36.95-65.41,55.06l11.54,18.46,166-103.75c.73-1,1.48-2.1,2.24-3.23s1.41-2,2.14-3.08l0,0c.86-1.49,21.19-36.26,28.07-41.42,7-5.27,30.85-32.25,32.12-33a.3.3,0,0,0,.07-.07c.63-1-9.48-5.79-4.45-6.93C399.4,409.84,408.63,402.28,412.94,398.61ZM342.6,421.67c-1.43-3.23,5-36.95,5.29-36.52s-6,25.33,0,21.65,17.87-29.26,17.87-29.26C366.14,377.87,344,424.9,342.6,421.67Z"/><path class="cls-9" d="M342.52,303s-.4,2.28-1.1,5.91c-.69,6.71-1.29,13.52-2.52,21.65-2.07,13.67-4.45,24-11.24,33a20.19,20.19,0,0,1-10.46,7.62c-2.16,2.66-3.58,4.2-3.58,4.2l0,.07c3,.67,5.49-.53,8.89-3.64,5.06-4.64,7.92,6.55,7.92,6.55s6.49-8.48,5.88-11.34,3.84-12.72,3.67-21.48C339.87,339.13,341.57,315.57,342.52,303Z"/><path class="cls-10" d="M338.91,330.52c1.23-8.14,1.83-14.94,2.52-21.65-2.2,11.4-7.4,36.13-12.65,45.38a128.08,128.08,0,0,1-11.56,16.86,20.19,20.19,0,0,0,10.46-7.62C334.46,354.53,336.84,344.2,338.91,330.52Z"/><path class="cls-10" d="M277.32,366.93c-.53-1.41-1.06-2.85-1.59-4.28.22,1,7.21,34.26,12.82,47.77,5.7,13.74,13.73,22.87,7.13,33.68-6.5,10.63-27.82,40.19-28.48,41.11,4.61-4.92,9.08-9.78,13.22-14.38l0,0c13.46-14.94,23.55-27.17,24.26-29.89,1.31-5-8.27-29.42-14.87-44.43-1.72-3.91-3.24-7.18-4.32-9.31C283.37,382.93,280.39,375.19,277.32,366.93Z"/><path class="cls-9" d="M279.83,369.21l-2.52-2.27c3.07,8.26,6.05,16,8.2,20.24,1.08,2.13,2.6,5.4,4.32,9.31l.34-.15c-.86-1.89-1.5-4.62-2-9.09C287,374.77,279.83,369.21,279.83,369.21Z"/><path class="cls-9" d="M308.06,369.85c-3.33-2.84-12.34-19.15-19.52-31.13,0,0,14.19,30.62,20,34.33a16.25,16.25,0,0,0,5,2.32l0-.07s1.42-1.54,3.58-4.2C313.44,372.17,310,371.53,308.06,369.85Z"/><path class="cls-10" d="M370.12,338.82c2.21-4.69,5.46-11.91,8.6-19-4,8.68-10,20.42-13,20.25,0,0-1.68.07-3.46-2.16a7.74,7.74,0,0,1-1.23-2.26c0,.72-.05,1.37-.08,1.93,0,1,0,1.79,0,2.2.16,4,4.48,8.11,7,3.6.47-.85,1.25-2.45,2.24-4.53Z"/><path class="cls-9" d="M360.93,337.57c0-.56,0-1.21.08-1.93h0a10.32,10.32,0,0,1-.32-1.14c-1.08,5.3-3.2,18,1,18.75,5.15.9,8.29-13.61,8.45-14.4-1,2.08-1.77,3.68-2.24,4.53-2.49,4.5-6.81.42-7-3.6C360.88,339.36,360.9,338.61,360.93,337.57Z"/><path class="cls-10" d="M396.69,344.68c-.75-3.26,6.1-22.53,9-30.45-4.25,10.84-13.24,29.61-15.93,37h0s-.05.16-.12.36l-.2.57c-.07.22-.16.48-.25.76a4.69,4.69,0,0,0-.21,1.14c.08,2.54,3.68,1.14,10.38-5.08C399.38,349,397.64,348.81,396.69,344.68Z"/><path class="cls-9" d="M290.18,396.33l-.34.15c6.61,15,16.18,39.4,14.87,44.43-.71,2.72-10.8,14.94-24.26,29.89,1.28-1.11,35.41-30.79,34.21-37s-12.12-25.15-17.31-30.16C294,400.44,291.73,399.73,290.18,396.33Z"/><path class="cls-9" d="M389.2,352.92c.09-.28.17-.53.25-.76s.12-.37.2-.57.11-.32.12-.36c-.27.42-6.72,10.19-2.44,12.42s18.46-21.12,18.46-21.12c-2.38,2.55-4.51,4.69-6.41,6.45-6.7,6.23-10.31,7.62-10.38,5.08A4.69,4.69,0,0,1,389.2,352.92Z"/><path class="cls-9" d="M347.89,385.14c-.26-.42-6.72,33.29-5.29,36.52s23.54-43.8,23.13-44.13c0,0-11.95,25.57-17.87,29.26S348.15,385.57,347.89,385.14Z"/><path class="cls-12" d="M240.58,501c-3.69-7.67,10.66-84.58,11.1-87-.82,2.72-36.83,122-54.43,114.35-16.79-7.3-28.9-38.14-30.23-41.64,1.57,4.32,18.16,50.71,12.15,61.78-3.44,6.34-13.46,21.89-21.83,34.69l.36.58c21.72-18.11,50-41.76,65.41-55.06,8.14-7,18.52-17.07,29.11-27.9C247.85,503.43,242.61,505.25,240.58,501Z"/><path class="cls-10" d="M418.55,358.44c-2.9,3.3-6.92,6.55-9.58,9.23a.39.39,0,0,1-.1.1c-2.28,2.31-3.52,4.18-2.11,5.26,2.36,1.81,12.37-.44,21.6-4.38-3.23.28-8.92.44-11.59-1.55C414.82,365.67,416.44,361.87,418.55,358.44Z"/><path class="cls-9" d="M404.43,372.64c-.27.21-6.08,4.88-3.46,8.62s12.74.1,21.56-5.12,36-23.76,36-23.76c-5.33,1.44-12.3,5.42-19.25,10.38a59.31,59.31,0,0,1-10.88,5.89h0c-9.23,3.94-19.24,6.2-21.6,4.38-1.41-1.08-.17-2.95,2.11-5.26a57,57,0,0,0-4.42,4.86Z"/><path class="cls-9" d="M413.59,399.38l-.65-.77c-4.31,3.67-13.54,11.23-17.43,12.11-5,1.14,5.07,5.93,4.45,6.93l1.45,1.23c5.19-8.75,8.59-16,11-18.41A15.1,15.1,0,0,1,413.59,399.38Z"/><path class="cls-10" d="M442.9,381.15c-6.95,4.72-23.43,13.45-29.31,18.23a15.1,15.1,0,0,0-1.2,1.08c-2.39,2.44-5.79,9.66-11,18.41a122.38,122.38,0,0,1-18.51,24.49c-15.92,15.77-31.56,32.41-43.2,48.81l0,0q-1.1,1.55-2.14,3.08c-.76,1.12-1.51,2.19-2.24,3.23L366,479.33c3.91-7.29,13.48-24.47,21.81-34.48,10.79-12.92,23.26-34,26-39.7C416.35,400,438.57,384.21,442.9,381.15Z"/><path class="cls-9" d="M400,417.64a.3.3,0,0,1-.07.07c-1.27.79-25.1,27.77-32.12,33-6.87,5.16-27.21,39.92-28.07,41.42,11.64-16.4,27.28-33,43.2-48.81a122.38,122.38,0,0,0,18.51-24.49Z"/></g><path class="cls-6" d="M128.58,609.34l-1.28-1.54c.68-.56,68.07-56.46,95.15-79.8,27.84-24,79.77-81.49,81.29-87.33,1.45-5.57-13-40.91-19.12-53-2.77-5.48-6.86-16.58-10.82-27.3-3.54-9.58-6.88-18.63-9-22.85-2.54-5.14-3.19-8.87-2-11.42.81-1.73,2.4-2.86,4.87-3.46,5.42-1.31,11.45-.89,18.81,10.88,2.48,4,5.41,9,8.26,13.84,5.67,9.69,11.54,19.71,13.94,21.76a8.13,8.13,0,0,0,6.13,1.48c2.53-.27,7.46-1.64,12-7.68,6.41-8.46,8.9-18.32,11-32.51,1-6.88,1.63-12.81,2.2-18.55s1.11-11.12,2-17.12c.39-2.49.78-5.18,1.18-7.91,1.57-10.7,3.19-21.76,5-25.12a9.73,9.73,0,0,1,7.46-4.92,6.46,6.46,0,0,1,5.79,2.57c3.37,4.41,3.93,8.45,3.33,24-.28,7.19-1,19.65-1.7,30.64-.74,12.17-1.43,23.66-1.35,25.72.09,2.24,1.63,4.26,2.95,4.57.81.19,1.53-.29,2.15-1.41,2.49-4.5,13.6-29.64,18.22-40.5,4.38-10.3,12.52-29.48,19.56-35.13,3.43-2.75,6.25-2.65,8-2.08,3.37,1.08,5.41,4.52,6.14,7.13s-1.79,10.56-5.78,22.16c-1.89,5.5-3.68,10.7-4.42,13.9-1,4.53-5.91,15.41-10.62,25.94-3.83,8.57-8.17,18.28-8.13,19.73a.69.69,0,0,0,0,.27c.71.22,5.54-1.91,17.21-14.85,6.7-7.43,14.35-17.58,20.49-25.73,5.19-6.89,8.94-11.87,10.53-13.14a10.66,10.66,0,0,1,8.72-2.19,7.39,7.39,0,0,1,5.11,4.3c2.79,6,.49,9.49-10.87,24.84-7.41,10-11.69,16.58-15.13,21.84-1.82,2.79-3.4,5.2-5.08,7.58a56.38,56.38,0,0,1-7.87,8.17c-2.84,2.59-6.06,5.52-6,6.81,0,.07,0,.17.2.32,2.69,2.06,20.88-2.86,31.3-10.3,6.88-4.91,19.42-12.85,26-10.85,3.41,1,6,3.37,6.69,6.11.45,1.71.39,4.37-2.44,7.31-3.33,3.45-9.72,7.42-15.89,11.26-3.29,2-6.39,4-8.81,5.69-2.81,2-7.64,4.82-12.75,7.82-7.38,4.32-15.74,9.23-18.36,11.88-1.42,1.45-3.35,4.93-5.79,9.34-4.93,8.9-12.37,22.34-23.71,33.57-14.34,14.2-32.44,32.92-45.25,51.79-11.77,17.33-20.13,24.11-20.48,24.39l-1.25-1.56c.08-.07,8.5-6.9,20.07-23.95,12.9-19,31.09-37.82,45.5-52.09,11.13-11,18.5-24.32,23.37-33.11,2.62-4.72,4.51-8.14,6.12-9.78,2.8-2.85,10.92-7.61,18.77-12.21,5.08-3,9.87-5.78,12.61-7.73,2.47-1.75,5.6-3.7,8.92-5.76,6.07-3.77,12.35-7.67,15.51-10.95,1.73-1.79,2.4-3.67,1.95-5.42-.53-2-2.62-3.88-5.33-4.7-4.17-1.26-13.25,2.69-24.28,10.56-9.4,6.71-29.46,13.5-33.68,10.26a2.38,2.38,0,0,1-1-1.82c-.09-2.22,2.88-4.94,6.66-8.37a55.13,55.13,0,0,0,7.58-7.84c1.66-2.35,3.23-4.75,5-7.52,3.45-5.29,7.75-11.86,15.2-21.94,11.41-15.43,12.9-18,10.66-22.81a5.39,5.39,0,0,0-3.75-3.2,8.76,8.76,0,0,0-7,1.8c-1.4,1.12-5.47,6.53-10.19,12.79-6.17,8.19-13.84,18.37-20.6,25.87-5.69,6.31-15.79,16.69-19.45,15.33a2,2,0,0,1-1.29-2c-.06-1.83,3-8.67,8.3-20.61,4.45-10,9.49-21.23,10.49-25.57.76-3.3,2.57-8.54,4.48-14.1,2.85-8.29,6.4-18.61,5.74-21s-2.39-5-4.83-5.76c-1.88-.61-3.95,0-6.14,1.74-6.65,5.33-14.67,24.21-19,34.35-4.75,11.19-15.75,36.06-18.31,40.69-1.51,2.73-3.55,2.58-4.36,2.39-2.35-.56-4.36-3.45-4.48-6.44-.09-2.16.58-13.17,1.35-25.92.67-11,1.42-23.43,1.7-30.6.58-15,.09-18.82-2.92-22.75a4.48,4.48,0,0,0-4-1.79,7.76,7.76,0,0,0-5.86,3.89c-1.66,3-3.33,14.41-4.8,24.45-.4,2.73-.8,5.43-1.19,7.93-.93,6-1.46,11.33-2,17s-1.17,11.72-2.21,18.65c-2.19,14.51-4.77,24.63-11.43,33.42-5,6.64-10.56,8.15-13.41,8.46a10.13,10.13,0,0,1-7.65-1.94c-2.66-2.27-8.34-12-14.36-22.27-2.83-4.84-5.77-9.85-8.23-13.79-7-11.24-12.28-11.05-16.64-10-1.83.44-3,1.21-3.52,2.36-.9,1.93-.24,5.19,2,9.69,2.13,4.31,5.49,13.41,9,23,3.94,10.67,8,21.71,10.73,27.09,4.21,8.34,21.13,47.28,19.27,54.44-1.77,6.84-55,65.16-81.92,88.35C196.67,552.86,129.26,608.77,128.58,609.34Z"/><path class="cls-6" d="M363.39,350.5c-.14-.09-3.41-2.27-3.67-5.92a43.42,43.42,0,0,1,.22-7.12l2,.24a42.08,42.08,0,0,0-.22,6.74c.19,2.65,2.75,4.38,2.78,4.4Z"/><path class="cls-6" d="M403.42,379.62c-.21-.41-2-4.08-.52-6.5,1.25-2.12,5.2-6,5.37-6.15l1.4,1.43a45.46,45.46,0,0,0-5,5.74c-.75,1.27.2,3.8.59,4.59Z"/><path class="cls-6" d="M356.4,276.19c-1.1-.13-4.77-.64-5.86-1.67-.85-.79-1.17-4.19-.94-10.11l2,.08c-.13,3.54,0,7.77.36,8.61a16.06,16.06,0,0,0,4.69,1.1Zm-4.42-3Z"/><path class="cls-6" d="M409.37,283.77c-.52-.13-5.08-1.38-6.17-4s2.1-9.17,2.74-10.47l1.79.88c-1.65,3.36-3.15,7.69-2.68,8.83.54,1.31,3.24,2.45,4.82,2.85Z"/><path class="cls-6" d="M340.2,378.82l-2-.06c0-1.2.09-10.55-.7-14.45-1-4.89,2.41-6.61,2.56-6.68l.88,1.8c-.08,0-2.15,1.16-1.47,4.49C340.36,368.38,340.2,378.72,340.2,378.82Z"/><path class="cls-6" d="M272.21,339.28l-1-1.74c.73-.42,2.71-1.89,2.34-3.17-.79-2.75-3-6.51-4-6.81s-3.1.27-4.28.72L263,329.74l-1.06-1.7,2.57-1.59c.37-.14,3.7-1.4,5.67-.8,2.34.71,4.75,6.06,5.35,8.17C276.36,336.88,272.38,339.18,272.21,339.28Z"/><rect class="cls-6" x="274.83" y="354.57" width="8.35" height="2" transform="translate(-146.11 202.1) rotate(-32.03)"/><path class="cls-6" d="M358.94,305.47c0-.08-1-1.86-5.14-1.59l-.12-2c5.73-.36,7,2.66,7.1,2.79Z"/><path class="cls-6" d="M398.68,322.36a25.25,25.25,0,0,0-3.31-3.07l1.14-1.64a26.93,26.93,0,0,1,3.66,3.37Z"/><rect class="cls-6" x="422.42" y="341.55" width="2" height="5" transform="translate(-117.98 276.64) rotate(-32)"/><path class="cls-6" d="M71.07,302.7c-4.74,0-15.94-.46-23.42-4.51-5.24-2.83-12.17-3.54-19.52-4.28-5.27-.53-10.73-1.08-15.54-2.51-1.59-.47-2.88-.87-3.94-1.2-4.85-1.5-4.85-1.5-9.08-.69-1.17.22-2.65.5-4.6.83-10.83,1.81-53.93,8.25-54.37,8.32l-.3-2c.43-.06,43.52-6.51,54.34-8.31,1.93-.32,3.39-.6,4.55-.82,4.63-.88,4.81-.87,10,.75,1.06.33,2.34.72,3.92,1.19,4.63,1.37,10,1.91,15.17,2.44,7.21.73,14.68,1.48,20.27,4.51,9,4.88,24.45,4.24,24.6,4.23l.09,2C73.16,302.67,72.35,302.7,71.07,302.7Z"/><rect class="cls-6" x="-7.66" y="365.83" width="154.22" height="2" transform="translate(-300.12 419.73) rotate(-87.43)"/><path class="cls-6" d="M157.77,315.47a33.57,33.57,0,0,1-11.55-2.38c-7.66-2.88-25.66-11.07-30.07-13.12-4.62-2.16-20-8.47-22-9.29a31.32,31.32,0,0,1-5.85-.65C82,288.93,77.2,288.8,75,289.67s-4.08,4.76-4.62,6.2l-1.87-.71c.23-.62,2.36-6,5.77-7.36,2.65-1,7.5-.94,14.43.25a26.2,26.2,0,0,0,5.55.62l.25,0,.25.09c.17.07,17.32,7.1,22.28,9.42,4.39,2.05,22.32,10.2,29.93,13.06,8,3,14.92,3,18.16,0,2.59-2.4,2.51-5.5-.23-9.22a32.31,32.31,0,0,0-5-5L157,294.69l3.7.55c.08,0,8.51,1.22,11.29-3.24a6.12,6.12,0,0,0,.85-5,8.46,8.46,0,0,0-4.18-4.93c-1.34-.68-4.86-2.18-8.95-3.91-5.69-2.42-12.78-5.42-17.47-7.72-3.6-1.76-8.11-4.26-12.88-6.91-5.9-3.28-12-6.66-16.67-8.79-2.85-1.3-5.44-2.23-7.72-3-4.5-1.61-8-2.89-10.12-5.85a60.21,60.21,0,0,1-4.71-8l1.81-.85a59.34,59.34,0,0,0,4.54,7.72c1.7,2.44,4.83,3.56,9.15,5.11,2.32.83,5,1.78,7.88,3.11,4.74,2.16,10.88,5.57,16.81,8.86,4.75,2.64,9.23,5.13,12.79,6.87,4.64,2.27,11.7,5.27,17.37,7.67,4.29,1.82,7.68,3.26,9.08,4a10.39,10.39,0,0,1,5.2,6.18,8.15,8.15,0,0,1-1.08,6.63c-2.28,3.65-7.11,4.33-10.27,4.34a26.93,26.93,0,0,1,3.1,3.41c3.35,4.54,3.34,8.76,0,11.88C164.44,314.54,161.44,315.47,157.77,315.47Z"/><path class="cls-6" d="M164.83,266.37c-3.09,0-6.92-1.33-10.65-2.63-3.19-1.11-6.19-2.16-8.44-2.29a67.4,67.4,0,0,1-8.62-1.2c-2.53-.47-5.15-.95-8.45-1.29a77.07,77.07,0,0,1-10.78-1.7l.51-1.93A76.7,76.7,0,0,0,128.89,257c3.38.35,6,.84,8.61,1.31a66,66,0,0,0,8.38,1.17c2.52.15,5.66,1.24,9,2.4,4.48,1.56,9.11,3.17,11.81,2.27,4.52-1.52,4.9-4.7,4.65-7.9-.22-2.75-.82-4.64-7-5.88-2.67-.54-5.68-1.42-8.87-2.34a96.33,96.33,0,0,0-12.75-3.11c-4.32-.6-8.15-2.3-12.21-4.09a79.72,79.72,0,0,0-8.14-3.24,33.06,33.06,0,0,0-7.73-1.21c-4.71-.36-9.58-.73-15.42-4.65a190.41,190.41,0,0,1-17.64-13.75l1.33-1.49A188.21,188.21,0,0,0,100.31,230c5.4,3.62,10,4,14.46,4.32a35.1,35.1,0,0,1,8.18,1.3A80.9,80.9,0,0,1,131.3,239c3.92,1.74,7.63,3.37,11.67,3.94a97.54,97.54,0,0,1,13,3.17c3.15.92,6.13,1.78,8.71,2.3,6.77,1.37,8.27,3.85,8.58,7.69.28,3.6-.14,8-6,10A7.68,7.68,0,0,1,164.83,266.37Z"/><path class="cls-6" d="M160.06,297.13s-1.17-.55-6.81-2.74c-4.59-1.77-16.79-6.49-23.53-11a85.12,85.12,0,0,0-21-10.14c-6.77-2-11.55-8.4-11.75-8.67l1.61-1.19c0,.06,4.59,6.11,10.72,7.95a87.36,87.36,0,0,1,21.58,10.4c6.55,4.41,18.6,9.06,23.13,10.82,5.8,2.24,6.92,2.78,7,2.8Z"/><path class="cls-6" d="M-60.24,242.48l-.42-2c.27-.06,27.43-5.82,44.37-7.93,5.54-.69,9.92-1.15,13.44-1.52,7.45-.78,11.2-1.17,15.16-2.58l7.84-2.74c12-4.18,34.44-12,40.55-14.54,6.84-2.88,9.74-2.94,14.53-3,.9,0,1.86,0,2.94-.08,2.77-.1,5-.37,7.33-.66a85.07,85.07,0,0,1,12-.79,56.9,56.9,0,0,1,18.29,3L117,210a89.62,89.62,0,0,0,9.2,2c3.22.57,4.93.89,5.69,1.32.53.3,1.91,1.34,4.29,3.15,3.21,2.44,8.06,6.12,9.47,6.71,1.59.67,2.57,2.9,2.33,5.32a5.84,5.84,0,0,1-4.82,5.4c-5.43,1.1-6.84.91-10.83-1.46a35.38,35.38,0,0,1-5-3.68,16.4,16.4,0,0,0-1.35-1.08c-1.86.16-12,.32-15.74-.82-2.67-.81-6-.49-7.92-.31a11.44,11.44,0,0,1-1.59.1c-.71,0-4.68.45-7,.77l-.27-2c1-.14,6.3-.86,7.41-.79.19,0,.75,0,1.28-.09,2.11-.2,5.63-.54,8.69.39,3.52,1.06,14.09.87,15.06.74.75-.14,1.38.39,2.74,1.56a33.6,33.6,0,0,0,4.69,3.48c3.56,2.11,4.44,2.23,9.41,1.22a3.91,3.91,0,0,0,3.23-3.63c.16-1.59-.46-3-1.11-3.28-1.52-.64-5.38-3.53-9.9-7-1.86-1.42-3.62-2.75-4.06-3a34.07,34.07,0,0,0-5.06-1.09,91.27,91.27,0,0,1-9.42-2l-1.18-.35a55.22,55.22,0,0,0-17.73-2.95,85.38,85.38,0,0,0-11.75.77c-2.39.29-4.65.56-7.5.67-1.09,0-2.07.06-3,.08-4.71.09-7.31.15-13.8,2.88-6.17,2.59-27.76,10.1-40.67,14.59-3.64,1.27-6.47,2.25-7.83,2.73-4.19,1.49-8.25,1.91-15.62,2.68-3.51.37-7.87.82-13.4,1.51C-32.9,236.67-60,242.42-60.24,242.48Zm186.45-14.82h0Z"/><path class="cls-6" d="M145.44,230.67a8.43,8.43,0,0,1-5-1.51c-2.36-1.79-2-3.75-1.49-4.54l1.67,1.1c0,.05-.37.79,1,1.85a7.08,7.08,0,0,0,4.61,1.06l.28,2A8.3,8.3,0,0,1,145.44,230.67Z"/><path class="cls-6" d="M169.1,261c-.23,0-5.55-.18-8.06-2.19-2.84-2.27-1.17-6.25-1.1-6.42l1.84.79s-1.14,2.75.51,4.07,5.52,1.71,6.87,1.75Z"/><path class="cls-6" d="M169.39,293.85c-1.33-.08-8.05-.61-9.32-3.75a9.88,9.88,0,0,1-.22-6.16l1.9.62a8,8,0,0,0,.17,4.8c.59,1.46,4.78,2.34,7.58,2.5Z"/><path class="cls-6" d="M164,311.54c-.18,0-.9-.09-1.48-.13-3.57-.24-6.87-.6-7.94-2.32-1.46-2.33,0-7.36.17-7.92l1.91.58c-.58,1.93-1.09,5.16-.39,6.28s4.8,1.27,6.38,1.38,2.05.14,2.42.5l-1.39,1.44A.79.79,0,0,0,164,311.54Z"/><path class="cls-6" d="M83.45,283.92a9.35,9.35,0,0,1-4.27-.84c-3.2-1.67-5.46-.43-5.48-.42l-1-1.74a7.92,7.92,0,0,1,7.4.38c2.74,1.43,8.72,0,10.8-.66l.62,1.9A30.14,30.14,0,0,1,83.45,283.92Z"/><path class="cls-6" d="M70.9,255.48l-.57-1.92c1.29-.38,7.84-2.26,9.45-2.2a44.35,44.35,0,0,1,6.84,1.84L86,255.1a42.34,42.34,0,0,0-6.3-1.74C78.76,253.31,74,254.57,70.9,255.48Z"/><path class="cls-6" d="M122.64,290.73,121,289.66l1.56-2.45a11.6,11.6,0,0,0,1.63-4.71l2,.16a13.59,13.59,0,0,1-1.94,5.63Z"/><path class="cls-6" d="M129.12,267.64l-1.92-.57a5.42,5.42,0,0,0,.19-3.07l-1.32-2.12,1.7-1.06,1.32,2.12C130,264.42,129.28,267.11,129.12,267.64Z"/><path class="cls-6" d="M127.68,244.78l-2-.17a8.44,8.44,0,0,0-.86-3.61,28.86,28.86,0,0,0-1.74-3.44l1.68-1.08a29.83,29.83,0,0,1,1.88,3.7A10.13,10.13,0,0,1,127.68,244.78Z"/><path class="cls-6" d="M106.92,212.2c-.18-1.19-.8-2.88-1.53-3l.26-2c2.55.33,3.19,4.23,3.25,4.67Z"/><path class="cls-6" d="M463.18,274.29c-.78-.44-78.68-44-161.61-66.66-38.26-10.47-89.06-20.39-139.37-27.22-54.17-7.35-76.8-7-78.33-5C79.34,182,77.26,209,77.24,209.23l-2-.15c.09-1.13,2.15-27.75,7-34.78,4-5.87,67.32,2.38,80,4.09,50.48,6.84,101.48,16.79,139.91,27.31,83.18,22.76,161.28,66.4,162.06,66.84Z"/><polygon class="cls-6" points="306.64 231.36 329.43 267.39 289.66 282.78 306.64 231.36"/><polygon class="cls-6" points="207.57 198.66 167.8 214.04 190.59 250.08 207.57 198.66"/><rect class="cls-6" x="189.76" y="229.25" width="118.43" height="23.33" transform="translate(409.88 547.74) rotate(-161.73)"/></g></g><g id="_7" data-name="7"><g class="cls-13"><g id="_Группа_5" data-name="&lt;Группа&gt;"><path class="cls-5" d="M917.61,625.6c-19.27,12.34-49.58,29.25-86.06,41-57.39,18.5-116.48,36.71-147.79,57.51-14,9.28-25.85,35.36-34.66,61.44a561.71,561.71,0,0,0-17.27,64.62s203.66-67.08,251.65-88.64S940.23,609.8,940.23,609.8A272.75,272.75,0,0,1,917.61,625.6Zm-1720.24,0c-14.39-9.22-22.62-15.8-22.62-15.8s8.81,130.23,56.8,151.73,251.59,88.64,251.59,88.64a561.71,561.71,0,0,0-17.27-64.62c-8.81-26.08-20.68-52.16-34.6-61.44-31.37-20.79-90.46-39-147.85-57.51C-753,654.85-783.36,637.88-802.63,625.6ZM-706.76,163c-2.94-14.57,51.4-66.2,107.2-66.2,54,0,39.24,33,38.24,35.13L-425-53l1,.7c-43.59,61.38-116.84,191.5-116.84,204.89,0,16.62,70.49,8.81,202.66,6.81,111.61-1.64,684.34-1.64,795.95,0,132.17,2,202.66,9.81,202.66-6.81,0-13.39-73.31-143.74-116.84-205.07l.7-.53L680.18,131.47c-2.23-3.64-11.51-22.67,38.95-22.67,55.8,0,83.3,36.83,82.53,51.69C800,194,710,176.11,710,176.11s98.39,35,158.6,68.14S969.89,397.86,983.11,480.1C991.63,533,978.23,655,964.49,755.36c-7.64,55.75-15.39,104.79-19.56,131.52-5.4,34.36-82.71,57.86-164.89,73.31-21.73,4.05-43.76,7.58-65,10.57-73.31,10.34-135.81,14.51-135.81,14.51s-32.31-7.34-85.18-7.34-162.95,15-271.68,17.62c-81.36,1.88-244.25,1.64-325.6,0-108.73-2.23-218.81-17.62-271.68-17.62s-85.18,7.34-85.18,7.34-60.68-4.05-132.64-14c-24.08-3.41-49.4-7.4-74.19-12.22-79.89-15.45-153.61-38.59-158.84-72.13-3.52-22.56-9.57-61-16-105.85-14.86-104.21-31.43-243.42-22.2-300.93,13.22-82.24,54.34-202.66,114.55-235.85s158.6-68.14,158.6-68.14S-703.83,177.58-706.76,163ZM66.1,850.11c49.28-.35,373.77-4,452.43-35.19,85.18-33.78,104.27-88.11,102.8-104.27-.59-6.23-9.4-27.43-25.73-52.57-16.86-26-41.77-56.27-73.84-78.6-17.56-12.16-37.3-22-59-27.43-91.75-22.91-354.92-24.79-397.15-25-34.31.12-305.87,1.59-399.32,25A175.17,175.17,0,0,0-382,572.5c-36.83,22.32-65.14,55.8-83.88,84.41-16.86,25.67-26,47.4-26.49,53.75-1.47,16.15,17.62,70.49,102.8,104.27C-308.91,846.88,30.32,849.93,66.1,850.11ZM904,421.83c29.37-48,5.87-102.8-16.68-98.86S689.7,401.27,669.08,412c-24.79,12.92-97.92,94-97.92,94s30.37,29.37,54.81,30.37,40.18,1.94,140-30.37S874.67,469.82,904,421.83ZM622.67,937.75c11.75-12.69-58.74-28.37-91.81-32.31s-897.45-3.88-930.47,0-103.56,19.62-91.81,32.31,291.77,33.31,414.13,32.31,199.25-.65,285.84,0C330.9,971.06,610.92,950.5,622.67,937.75ZM-511,536.37c24.5-1,54.81-30.37,54.81-30.37s-75.37-88.11-97.86-94S-749.88,326.84-772.38,323s-46,50.87-16.62,98.86,38.18,51.87,138,84.18S-535.47,537.37-511,536.37Z"/><path class="cls-3" d="M472.47,94.81l-98.86-3.88S359.92,28.26,341.3,14.63,259.06-1.11,216.95,6.7,181.7,90.94,181.7,90.94H-58.67S-51.8,14.57-93.91,6.7-199.65.94-218.27,14.63s-32.31,76.31-32.31,76.31l-98.86,3.88s56.8-112.55,95.92-115.49c35.36-2.64,594.7-2.64,630.06,0C415.73-17.74,472.47,94.81,472.47,94.81Z"/><path class="cls-3" d="M543.55-52.45C587.08,8.87,660.38,139.22,660.38,152.61c0,16.62-70.49,8.81-202.66,6.81-111.61-1.64-684.34-1.64-795.95,0-132.17,2-202.66,9.81-202.66-6.81,0-13.39,73.25-143.51,116.84-204.89,10.63-15.1,19.56-26,25.14-30.08,28.37-20.56,15.68-20.56,128.23-33.31,43.94-5,199-18.33,349.57-18.09,137.4.18,271.21,13.57,311.27,18.09C502.78-102.91,490-102.91,518.47-82.35,524-78.3,532.92-67.43,543.55-52.45ZM373.61,90.94l98.86,3.88S415.73-17.74,376.55-20.67c-35.36-2.64-594.7-2.64-630.06,0-39.12,2.94-95.92,115.49-95.92,115.49l98.86-3.88s13.75-62.68,32.31-76.31S-136-1.11-93.91,6.7s35.24,84.24,35.24,84.24H181.7S174.89,14.57,216.95,6.7,322.68.94,341.3,14.63,373.61,90.94,373.61,90.94Z"/></g><path class="cls-6" d="M611.39,164c-17,0-38.42-.64-64.37-1.41s-55.43-1.65-89.29-2.15c-111.58-1.65-684.34-1.65-795.92,0-33.86.5-63.31,1.38-89.29,2.15-66.84,2-103.67,3.08-112.32-5.32a6.36,6.36,0,0,1-2.06-4.69c0-9.17,31.16-66.88,60.47-116.52,29.9-50.63,67.11-108.54,81.9-119.25,3.31-2.4,6.08-4.53,8.52-6.41,19-14.6,20.51-15.79,120.21-27.06,41.87-4.73,194.51-18.12,345.8-18.12h3.85c145.81.22,285,15.13,311.41,18.12C490-105.38,491.54-104.19,510.51-89.59c2.44,1.88,5.21,4,8.52,6.41h0c14.79,10.71,52,68.62,81.9,119.25,29.32,49.64,60.47,107.35,60.47,116.52a6.36,6.36,0,0,1-2.06,4.69C654,162.42,638.2,164,611.39,164Zm-551.62-6.8c171.1,0,342.2.41,398,1.24,33.88.5,63.33,1.38,89.32,2.15,64.12,1.91,102.82,3.06,110.87-4.75a4.37,4.37,0,0,0,1.45-3.25c0-7.61-26.44-58.35-60.19-115.51C569.41-13.37,532.4-71,517.85-81.56c-3.33-2.41-6.11-4.55-8.57-6.44-18.56-14.29-20.07-15.45-119.21-26.66-26.4-3-165.49-17.88-311.19-18.11C-73.6-133-228.34-119.43-270.54-114.66-369.68-103.46-371.19-102.29-389.75-88c-2.45,1.89-5.23,4-8.57,6.44C-412.86-71-449.88-13.37-479.67,37.09c-33.75,57.16-60.19,107.9-60.19,115.51a4.37,4.37,0,0,0,1.45,3.25c8,7.81,46.75,6.66,110.87,4.75,26-.77,55.45-1.65,89.32-2.15C-282.43,157.62-111.33,157.21,59.77,157.21Z"/><path class="cls-6" d="M67.29,997.88c-64.12,0-128.83-.5-170.52-1.34-60.59-1.23-122.85-6.67-172.87-11-40.46-3.53-75.41-6.59-98.79-6.59-52.13,0-84.63,7.25-85,7.32l-.14,0h-.15c-.89-.06-89.56-6.05-178.53-21.12C-758.5,944.83-821.77,918.55-826.72,887l-.64-4.07c-12.5-79.66-50.55-322.07-37.54-403,7.38-45.89,21.85-95.66,39.72-136.56,22-50.4,48.07-85,75.33-100C-698.37,215-618.11,185-596.57,177.13c-9.77,0-30.46-.07-51.15-1.12-58-2.94-59.55-10.37-60-12.81-.8-4,2.12-10.3,8.24-17.77,15.71-19.19,56.73-49.63,99.94-49.63,20.21,0,33.3,4.58,38.88,13.62,3.63,5.87,3.29,12.31,2.28,16.9l132.57-179.9,1.61,1.19-136.35,185-1.7-1c.06-.12,5.72-11.72-.11-21.14-5.2-8.4-17.71-12.66-37.17-12.66-42.53,0-82.92,30-98.4,48.9-5.65,6.9-8.5,12.77-7.83,16.11,2,10,71.62,12.85,115,12.29l6-.08-5.69,2c-1,.35-99,35.3-158.45,68.07-26.87,14.81-52.62,49.06-74.46,99.05-17.8,40.75-32.23,90.34-39.58,136.08-13,80.65,25.05,322.82,37.54,402.4l.64,4.07c4.73,30.16,69.19,56.59,186.4,76.45,87.2,14.77,174.13,20.81,178.2,21.09,2.43-.53,34.66-7.33,85.25-7.33,23.47,0,58.45,3.06,99,6.59,50,4.37,112.21,9.8,172.74,11,79.4,1.61,242.35,2,325.6,0,59.76-1.41,118.75-6.5,170.79-11,41.35-3.56,77.07-6.64,100.91-6.64,50.59,0,82.82,6.8,85.25,7.33,4.06-.28,91-6.32,178.2-21.09C874.78,943.3,939.24,916.87,944,886.71l.64-4.07c12.49-79.58,50.51-321.75,37.54-402.4-7.35-45.73-21.78-95.33-39.58-136.08-21.84-50-47.59-84.24-74.46-99.05C808.66,212.34,710.64,177.38,709.65,177l.5-1.93c.65.11,65.6,10.58,85.16-4.95a13.09,13.09,0,0,0,5.37-9.75c.38-5.79-4.21-14.68-11.68-22.66-7.87-8.4-30.58-27.94-71.33-27.94-27.5,0-36,5.68-38.29,10.45-2.2,4.58.82,9.47,1.75,10.81l.29.39-1.58,1.22s-.19-.24-.42-.56l-136-184.51,1.61-1.19L676.64,124.95a10.29,10.29,0,0,1,.93-5.55c3.68-7.7,17.17-11.6,40.1-11.6,41.53,0,64.74,20,72.79,28.57s12.64,17.75,12.22,24.16a15.18,15.18,0,0,1-6.12,11.19c-15.82,12.56-58.21,9-77.28,6.68,25.66,9.45,100.79,37.93,149.81,65,27.26,15,53.31,49.61,75.33,100,17.87,40.89,32.35,90.67,39.72,136.56,13,81-25,323.37-37.54,403l-.64,4.07c-4.95,31.53-68.22,57.81-188.06,78.11-89,15.07-177.64,21.06-178.53,21.12h-.15l-.14,0c-.32-.07-32.82-7.32-85-7.32-23.75,0-59.43,3.07-100.74,6.63-52.08,4.49-111.1,9.57-170.92,11C182.89,997.47,125.33,997.88,67.29,997.88Z"/></g></g><g id="Numbers"><path class="cls-6" d="M28.16,17.31a19.23,19.23,0,0,0-2.59.34c-4.13.91-6.19,4.37-7,8.3h.14a5.86,5.86,0,0,1,4.8-2.5c4.22,0,7.06,3.79,7.06,9.7,0,5.47-2.78,11-8.88,11-5.9,0-9.5-5.14-9.5-12.87,0-6.82,2.26-11.47,5.14-14.55A14.17,14.17,0,0,1,25,12.56a21.4,21.4,0,0,1,3.17-.34ZM24.42,33.1c0-2.64-.91-5.14-2.93-5.14a2.85,2.85,0,0,0-2.54,2.11,7.2,7.2,0,0,0-.34,2.74c0,4.08,1.15,6.82,3,6.82C23.75,39.63,24.42,36.85,24.42,33.1Z"/></g></svg>