<svg xmlns="http://www.w3.org/2000/svg" xmlns:xlink="http://www.w3.org/1999/xlink" viewBox="0 0 425.2 425.2"><defs><style>.cls-1{fill:none;}.cls-2{clip-path:url(#clip-path);}.cls-3{fill:#fff;}.cls-4{fill:#002339;}.cls-5{fill:#eee;}.cls-6{fill:#b9b9b9;}.cls-7{fill:#dcdcdc;}.cls-8{clip-path:url(#clip-path-3);}.cls-9{fill:#cdd0d5;}.cls-10{clip-path:url(#clip-path-4);}.cls-11{fill:#a0a0a0;}.cls-12{fill:#687381;}.cls-13{fill:#9aa2ab;}</style><clipPath id="clip-path"><rect class="cls-1" x="-445.2" width="425.2" height="425.2"/></clipPath><clipPath id="clip-path-3"><rect class="cls-1" width="425.2" height="425.2"/></clipPath><clipPath id="clip-path-4"><rect class="cls-1" width="425.19" height="425.19"/></clipPath></defs><title>7</title><g id="_5-2" data-name="5"><g class="cls-2"><g id="_Группа_" data-name="&lt;Группа&gt;"><path class="cls-3" d="M-226.32,447.44c-1.76,2.06-29.43,36.3-32.25,43.41-2.94,7.34,49.46.47,48,0s-25.55-9.93-24-18.91C-233.19,463.53-227.08,449.2-226.32,447.44Zm206.71-45.76c.94-2.06,18.86-39.89,12.69-49.87-6.4-10.28-33.78,11.28-33.78,11.28s1.94,4.41,17.5,1.47C-8,361.67-19.08,399.68-19.61,401.68Zm30.31-42.53c7.81,16.68-4.93,53.87-30.37,79.3s-61.68,40.18-142,58.74-102.8,15.68-114.55,8.81,29.72-63.85,63-84.35,130-65.32,200.43-82.06C-5.62,337.88,2.83,342.53,10.71,359.15Zm-140.86,87.17c18.44,18.09,44.41,18.09,44.41,18.09S-130.27,440.8-125.4,423s11.75-25.67,3.94-23.2-14.22,11.75-14.22,11.75S-148.66,428.17-130.16,446.32Z"/><path class="cls-3" d="M-264.44,536.37c-24.44-1-54.81-30.37-54.81-30.37s73.13-81.06,97.92-94C-200.71,401.27-25.54,326.84-3,323S43,373.83,13.64,421.83s-38.18,51.87-138,84.18S-239.94,537.37-264.44,536.37Zm244.78-97.92C5.77,413,18.52,375.83,10.71,359.15s-16.33-21.26-23.5-19.56c-70.43,16.74-167.12,61.62-200.43,82.06s-74.72,77.54-63,84.35,34.31,9.81,114.55-8.81S-45.1,463.94-19.66,438.45Z"/><path class="cls-3" d="M-1693,625.6c-14.39-9.22-22.62-15.8-22.62-15.8s8.81,130.23,56.8,151.73,251.59,88.64,251.59,88.64a561.71,561.71,0,0,0-17.27-64.62c-8.81-26.08-20.62-52.16-34.6-61.44-31.37-20.79-90.46-39-147.85-57.51C-1643.4,654.85-1673.77,637.88-1693,625.6Zm311.21,312.15c11.75,12.75,291.77,33.31,414.13,32.31s199.25-.65,285.84,0c122.36,1,402.38-19.56,414.13-32.31s-58.74-28.37-91.81-32.31-897.45-3.88-930.47,0S-1393.57,925.06-1381.82,937.75Zm1323-271.15c-57.39,18.5-116.48,36.71-147.79,57.51-14,9.28-25.85,35.36-34.66,61.44a561.71,561.71,0,0,0-17.27,64.62S-54.91,783.09-6.92,761.53,49.83,609.8,49.83,609.8a265.51,265.51,0,0,1-22.62,15.74C7.94,637.94-22.37,654.85-58.84,666.6Zm-51.52,293.59c-21.73,4.05-43.82,7.58-65,10.57-73.31,10.34-135.81,14.51-135.81,14.51s-32.31-7.34-85.18-7.34S-559.26,993-668,995.55c-81.36,1.88-244.25,1.64-325.6,0-108.73-2.23-218.81-17.62-271.68-17.62s-85.18,7.34-85.18,7.34-60.68-4.05-132.64-14c-24.14-3.41-49.46-7.4-74.19-12.22-79.89-15.45-153.61-38.59-158.84-72.13-3.52-22.56-9.57-61-16-105.85-14.86-104.21-31.43-243.42-22.2-300.93,13.22-82.24,54.34-202.66,114.55-235.85s158.6-68.14,158.6-68.14-113.08,1.47-116-13.1,51.4-66.2,107.2-66.2c54,0,39.24,33,38.24,35.13L-1315.44-53l.94.65C-1358,9-1431.28,139.22-1431.28,152.61c0,16.62,70.49,8.81,202.66,6.81,111.61-1.64,684.34-1.64,795.95,0,132.17,2,202.66,9.81,202.66-6.81,0-13.39-73.31-143.74-116.9-205.07h.06l.7-.53,135.93,184.45c-2.23-3.64-11.51-22.67,38.95-22.67,55.8,0,83.3,36.83,82.53,51.69-1.7,33.48-91.7,15.63-91.7,15.63s98.39,35,158.6,68.14S79.49,397.86,92.71,480.1C101.23,533,87.83,655,74.09,755.36,66.45,811.11,58.7,860.16,54.53,886.88,49.12,921.25-28.24,944.74-110.36,960.19ZM-264.44,536.37c24.5,1,40.18,1.94,140-30.37s108.67-36.18,138-84.18S19.52,319-3,323-200.71,401.27-221.32,412c-24.79,12.92-97.92,94-97.92,94S-288.88,535.37-264.44,536.37Zm-104.21,43.12c-17.56-12.16-37.3-22-59-27.43-91.75-22.91-354.92-24.79-397.15-25-34.31.12-305.87,1.59-399.32,25a175.17,175.17,0,0,0-48.23,20.44c-36.83,22.32-65.14,55.8-83.88,84.41-16.8,25.67-25.91,47.4-26.49,53.75-1.47,16.15,17.62,70.49,102.8,104.27,80.65,32,419.88,35,455.66,35.19,49.28-.35,373.77-4,452.43-35.19,85.18-33.78,104.27-88.11,102.8-104.27-.53-6.23-9.34-27.43-25.73-52.57C-311.67,632.06-336.57,601.81-368.65,579.49Zm-1032.73-43.12c24.5-1,54.81-30.37,54.81-30.37s-75.37-88.11-97.86-94-195.84-85.18-218.34-89.05-46,50.87-16.62,98.86,38.18,51.87,138,84.18S-1425.88,537.37-1401.38,536.37Z"/></g><path class="cls-4" d="M-823.11,997.88c-64.12,0-128.83-.5-170.52-1.34-60.59-1.23-122.85-6.67-172.87-11-40.46-3.53-75.41-6.59-98.79-6.59-52.13,0-84.63,7.25-85,7.32l-.14,0h-.15c-.89-.06-89.56-6.05-178.53-21.12-119.84-20.3-183.11-46.58-188.06-78.11l-.64-4.06c-12.5-79.66-50.56-322.08-37.54-403,7.38-45.89,21.85-95.66,39.72-136.56,22-50.4,48.07-85,75.33-100C-1588.77,215-1508.51,185-1487,177.13c-9.77,0-30.46-.07-51.15-1.12-58-2.94-59.55-10.37-60-12.81-.8-4,2.12-10.3,8.24-17.77,15.71-19.19,56.73-49.64,99.94-49.64,20.21,0,33.3,4.58,38.88,13.62,3.63,5.87,3.29,12.31,2.28,16.9l132.57-179.9,1.61,1.19-136.35,185-1.7-1c.06-.12,5.72-11.72-.11-21.14-5.2-8.4-17.71-12.66-37.17-12.66-42.53,0-82.92,30-98.4,48.9-5.65,6.9-8.5,12.77-7.83,16.11,2,10,71.63,12.85,115,12.29l6-.08-5.69,2c-1,.35-99,35.3-158.45,68.07-26.87,14.81-52.62,49.06-74.46,99.05-17.8,40.75-32.23,90.34-39.58,136.08-13,80.65,25.05,322.83,37.55,402.42l.64,4.06c4.73,30.16,69.19,56.59,186.42,76.45,87.2,14.77,174.11,20.81,178.18,21.09,2.43-.53,34.66-7.33,85.25-7.33,23.47,0,58.45,3.06,99,6.59,50,4.37,112.21,9.8,172.74,11,79.4,1.61,242.35,2,325.6,0,59.76-1.41,118.75-6.5,170.79-11,41.35-3.56,77.07-6.64,100.91-6.64,50.59,0,82.82,6.8,85.25,7.33,4.06-.28,91-6.32,178.2-21.09,117.22-19.86,181.67-46.29,186.4-76.45l.64-4.07c12.49-79.58,50.51-321.75,37.54-402.4C84.4,434.51,70,384.91,52.17,344.16c-21.84-50-47.59-84.24-74.46-99.05C-81.74,212.34-179.76,177.38-180.75,177l.5-1.93c.65.11,65.6,10.58,85.16-4.95a13.09,13.09,0,0,0,5.37-9.75c.38-5.79-4.21-14.68-11.68-22.66-7.87-8.4-30.58-27.94-71.33-27.94-27.5,0-36,5.68-38.29,10.45-2.2,4.58.82,9.47,1.75,10.81l.29.39-1.58,1.22s-.19-.24-.42-.56l-136-184.51,1.61-1.19,131.57,178.54a10.29,10.29,0,0,1,.93-5.55c3.68-7.7,17.17-11.6,40.1-11.6,41.53,0,64.74,20,72.79,28.57s12.64,17.75,12.22,24.16a15.18,15.18,0,0,1-6.12,11.19c-15.82,12.56-58.21,9-77.28,6.68,25.66,9.45,100.79,37.93,149.8,65C5.93,258.38,32,293,54,343.36,71.87,384.26,86.35,434,93.72,479.92c13,81-25,323.37-37.54,403L55.54,887c-4.95,31.53-68.22,57.81-188.06,78.11-89,15.07-177.64,21.06-178.53,21.12h-.15l-.14,0c-.32-.07-32.82-7.32-85-7.32-23.75,0-59.43,3.07-100.74,6.63-52.07,4.49-111.1,9.57-170.92,11C-707.51,997.47-765.07,997.88-823.11,997.88Z"/><path class="cls-5" d="M-445.2,130.47s-10.31,204.79,57.93,258.67c38,30,226,28.67,303.33,28.67,97,0,83.47,12,83.47,12l-440.13,12-14.33-8.67Z"/></g><g class="cls-2"><g id="_Группа_2" data-name="&lt;Группа&gt;"><path class="cls-6" d="M-85.37,241.68h-.06c-.87,0-7.76-.42-18.18-.81-17.94,0-47.87,1.88-84.1,11.58-59,15.77-83.55,96.11-84.2,98.27.38-2,16.53-87.68,39.09-101.78,17.38-10.86,93.72-9.39,129.22-8.07a171.05,171.05,0,0,1,18.18.81A.11.11,0,0,1-85.37,241.68ZM-278.18,486.77c1.33,3.5,13.44,34.34,30.23,41.64,17.6,7.66,53.61-111.63,54.43-114.35-.45,2.4-14.8,79.31-11.1,87,2,4.21,7.27,2.39,11.65-.18,5-5.11,10.06-10.4,15-15.62l0,0c.66-.92,22-30.48,28.48-41.11,6.6-10.81-1.43-19.94-7.13-33.68-5.61-13.51-12.6-46.73-12.82-47.77a0,0,0,0,0,0,0c-3.87-10.46-7.68-20.94-10-25.6-1.89-3.84-2.61-6.65-2.46-8.69.21-2.76,2-4.14,4.66-4.77,4.61-1.11,10.31-1.43,17.73,10.44.91,1.45,1.87,3,2.87,4.7,7.18,12,16.19,28.29,19.52,31.13,2,1.68,5.38,2.32,9.15,1.26a128.08,128.08,0,0,0,11.56-16.86c5.26-9.25,10.45-34,12.65-45.38.46-4.57,1-9.09,1.72-14v0c1.88-12.08,3.9-28.67,6.1-32.7s8.37-6.41,11.58-2.22,3.71,8.29,3.12,23.4c-.44,11.57-2.1,36.19-2.77,48.88v0c-.06,1.25-.12,2.4-.17,3.39h0A7.74,7.74,0,0,0-83,337.91c1.78,2.23,3.46,2.16,3.46,2.16,3,.18,9-11.57,13-20.25a.94.94,0,0,1,.09-.2c1.32-3,2.63-6,3.83-8.71a.47.47,0,0,1,.05-.14v0c1.31-3,2.49-5.75,3.43-8,4.77-11.24,12.59-29.39,19.27-34.74s11.37.27,12.56,4.53-8.22,26.95-10.21,35.56c-.17.73-.44,1.63-.8,2.68l-.13.36c-.3.87-.66,1.83-1.07,2.86l-.07.2c-2.9,7.92-9.75,27.19-9,30.45.95,4.12,2.68,4.29,2.68,4.29,1.9-1.75,4-3.9,6.41-6.45q1.07-1.15,2.21-2.41C-25,326.61-9.64,304-6.3,301.35s9.75-3.74,12.3,1.75.58,8.48-10.76,23.82c-9,12.16-13.39,19.22-17.23,25l0,0c-1,1.52-2,2.95-3,4.36a23,23,0,0,1-1.66,2.08c-2.1,3.43-3.73,7.22-1.8,8.66,2.67,2,8.36,1.84,11.59,1.55h0A59.31,59.31,0,0,0-6,362.76C1,357.8,8,353.82,13.29,352.37a11,11,0,0,1,5.89-.32c5.09,1.54,8.82,6.57,3.81,11.77S5.38,375.71-1.57,380.64l-.73.51c-4.33,3.06-26.55,18.86-29.05,24-2.78,5.71-15.25,26.78-26,39.7-8.33,10-17.9,27.19-21.81,34.48L84.63,377,17.55,269.61c-38.8-17.17-127.48-55.26-177.45-67.48-60.74-14.86-197.51-34.15-202.25-27.26a26.78,26.78,0,0,0-3,8.08c-2.62,10.61-3.79,26.2-3.79,26.2l2-.06c6.78-.25,10.42-1.49,19.3-1.45a56.26,56.26,0,0,1,8,.58A74.55,74.55,0,0,1-328.52,211c5.44,1.63,13.32,2.44,14.69,3.22s11.45,8.91,13.85,9.92,2.93,7.74-2.31,8.8a24.2,24.2,0,0,1-4.51.63l.61.67s5.38,5.66,1.41,6.82l-4,1.15a30.42,30.42,0,0,0,6.4,1.7c6.94,1,15.44,4.2,21.68,5.46s7.5,3.27,7.79,6.78c.24,3.1-.11,6.33-3.69,8.23l-.12.05a9.16,9.16,0,0,1-1.52.64l-.36.11c-3.21,1.26-9.44,3.62-12.18,4.05-3.8.6-9.45,1-9.45,1l-.17.37c8.34,3.9,21.28,9.09,24.25,10.61,3.25,1.65,6.9,6.3,3.72,11.38-3.06,4.91-11.7,3.77-12.26,3.7a33.73,33.73,0,0,1,5.13,5.18c1.93,2.62,4,6.92.11,10.55a8.69,8.69,0,0,1-3.26,1.85h0c-.45.34-8.68,6.25-23.68,0-15.44-6.47-38.87-11.88-52.29-14.49-12.74-2.48-14.8,19.36-15,21.56V321l-5.22,116.49,91.06,145.72c8.38-12.81,18.39-28.35,21.83-34.69C-260,537.48-276.61,491.1-278.18,486.77Z"/><path class="cls-3" d="M-32.26,398.61l.65.77c5.88-4.78,22.37-13.52,29.31-18.23l.73-.51C5.38,375.71,18,369,23,363.82s1.27-10.23-3.81-11.77a11,11,0,0,0-5.89.32s-27.13,18.54-36,23.76-18.88,8.94-21.56,5.12,3.19-8.41,3.46-8.62h0a57,57,0,0,1,4.42-4.86l.1-.1c2.67-2.68,6.68-5.93,9.58-9.23A62.89,62.89,0,0,1-22,352l0,0c3.85-5.82,8.24-12.89,17.23-25C6.57,311.59,8.54,308.59,6,303.11s-9-4.43-12.3-1.75S-25,326.61-37.21,340.12q-1.14,1.26-2.21,2.41s-14.09,23.4-18.46,21.12,2.17-12,2.44-12.42h0c2.68-7.38,11.68-26.15,15.93-37l.07-.2c.5-1.36.87-2.36,1.07-2.86l.13-.36c.36-1,.63-2,.8-2.68,2-8.61,11.4-31.3,10.21-35.56s-5.88-9.89-12.56-4.53-14.5,23.5-19.27,34.74c-.94,2.21-2.12,5-3.43,8v0a.89.89,0,0,1-.05.14c-.33.79-1.82,4.35-3.83,8.71a.94.94,0,0,0-.09.2c-3.15,7.1-6.4,14.31-8.6,19v0c-.17.79-3.31,15.3-8.45,14.4-4.18-.73-2.05-13.46-1-18.75.25-1.23.44-2.05.49-2.25v0c.67-12.68,2.33-37.3,2.77-48.88.58-15.1.08-19.21-3.12-23.4s-9.38-1.8-11.58,2.22-4.22,20.62-6.1,32.7v0c0,.38-.27,3.51-.62,8.06-1,12.61-2.65,36.17-2.54,42.49.17,8.76-4.28,18.62-3.67,21.48s-5.88,11.34-5.88,11.34-2.86-11.18-7.92-6.55c-3.4,3.11-5.87,4.31-8.89,3.64a16.25,16.25,0,0,1-5-2.32c-5.86-3.71-20-34.33-20-34.33-1-1.67-2-3.25-2.87-4.7-7.42-11.87-13.12-11.56-17.73-10.44-2.64.64-4.45,2-4.66,4.77-.15,2,.56,4.85,2.46,8.69,2.3,4.66,6.11,15.14,10,25.6a0,0,0,0,1,0,0c.53,1.43,1.06,2.86,1.59,4.28l2.52,2.27s7.13,5.57,8.4,18c.46,4.47,1.09,7.2,2,9.09,1.55,3.4,3.84,4.11,7.17,7.32,5.19,5,16.08,23.85,17.31,30.16s-32.93,35.88-34.21,37l0,0c-4.14,4.6-8.61,9.46-13.22,14.38l0,0c-4.9,5.22-10,10.51-15,15.62-10.59,10.83-21,20.88-29.11,27.9-15.44,13.3-43.69,36.95-65.41,55.06L-276,602.28l166-103.75c.73-1,1.48-2.1,2.24-3.23s1.41-2,2.14-3.08l0,0c.86-1.49,21.19-36.26,28.07-41.42,7-5.27,30.85-32.25,32.12-33a.3.3,0,0,0,.07-.07c.63-1-9.48-5.79-4.45-6.93C-45.8,409.84-36.57,402.28-32.26,398.61Zm-70.34,23.06c-1.43-3.23,5-36.95,5.29-36.52s-6,25.33,0,21.65,17.87-29.26,17.87-29.26C-79.06,377.87-101.17,424.9-102.6,421.67Z"/><path class="cls-7" d="M-40.77,372.64c-.27.21-6.08,4.88-3.46,8.62s12.74.1,21.56-5.12,36-23.76,36-23.76C8,353.82,1,357.8-6,362.76a59.31,59.31,0,0,1-10.88,5.89h0c-9.23,3.94-19.24,6.2-21.6,4.38-1.41-1.08-.17-2.95,2.11-5.26a57,57,0,0,0-4.42,4.86Z"/></g><path class="cls-4" d="M-316.62,609.34l-1.28-1.54c.68-.56,68.07-56.46,95.15-79.8,27.84-24,79.77-81.49,81.29-87.33,1.45-5.57-13-40.91-19.12-53-2.77-5.48-6.86-16.58-10.82-27.3-3.54-9.58-6.88-18.63-9-22.85-2.54-5.14-3.19-8.87-2-11.42.81-1.73,2.4-2.86,4.87-3.46,5.42-1.31,11.45-.89,18.81,10.88,2.48,4,5.41,9,8.26,13.84,5.67,9.69,11.54,19.71,13.94,21.76a8.13,8.13,0,0,0,6.13,1.48c2.53-.27,7.46-1.64,12-7.68,6.41-8.46,8.9-18.32,11-32.51,1-6.88,1.63-12.81,2.2-18.55s1.11-11.12,2-17.12c.39-2.49.78-5.18,1.18-7.91,1.57-10.7,3.19-21.76,5-25.12a9.73,9.73,0,0,1,7.46-4.92,6.46,6.46,0,0,1,5.79,2.57c3.37,4.41,3.93,8.45,3.33,24-.28,7.19-1,19.65-1.7,30.64-.74,12.17-1.43,23.66-1.35,25.72.09,2.24,1.63,4.26,2.95,4.57.81.19,1.53-.29,2.15-1.41,2.49-4.5,13.6-29.64,18.22-40.5,4.38-10.3,12.52-29.48,19.56-35.13,3.43-2.75,6.25-2.65,8-2.08,3.37,1.08,5.41,4.52,6.14,7.13s-1.79,10.56-5.78,22.16c-1.89,5.5-3.68,10.7-4.42,13.9-1,4.53-5.91,15.41-10.62,25.94-3.83,8.57-8.17,18.28-8.13,19.73a.69.69,0,0,0,0,.27c.71.22,5.54-1.91,17.21-14.85,6.7-7.43,14.35-17.58,20.49-25.73,5.19-6.89,8.94-11.87,10.53-13.14a10.66,10.66,0,0,1,8.72-2.19,7.39,7.39,0,0,1,5.11,4.3c2.79,6,.49,9.49-10.87,24.84-7.41,10-11.69,16.58-15.13,21.84-1.82,2.79-3.4,5.2-5.08,7.58A56.38,56.38,0,0,1-32,365.11c-2.84,2.59-6.06,5.52-6,6.81,0,.07,0,.17.2.32,2.69,2.06,20.87-2.86,31.3-10.3,6.88-4.91,19.42-12.85,26-10.85,3.41,1,6,3.37,6.69,6.11.45,1.71.39,4.37-2.44,7.31C20.39,368,14,371.93,7.83,375.77c-3.29,2-6.39,4-8.81,5.69-2.81,2-7.64,4.82-12.75,7.82-7.38,4.32-15.74,9.23-18.36,11.88-1.42,1.45-3.35,4.93-5.79,9.34-4.93,8.9-12.37,22.34-23.71,33.57C-75.95,458.28-94,477-106.86,495.86-118.63,513.2-127,520-127.33,520.25l-1.25-1.56c.08-.07,8.5-6.9,20.07-23.95,12.9-19,31.09-37.82,45.5-52.09,11.13-11,18.5-24.32,23.37-33.11,2.62-4.72,4.51-8.14,6.12-9.78,2.8-2.85,10.92-7.61,18.77-12.21,5.08-3,9.87-5.78,12.61-7.73,2.47-1.75,5.6-3.7,8.92-5.76,6.07-3.77,12.35-7.67,15.51-10.95,1.73-1.79,2.4-3.67,1.95-5.42-.53-2-2.62-3.88-5.33-4.7-4.17-1.26-13.25,2.69-24.28,10.56-9.4,6.71-29.46,13.5-33.68,10.26A2.38,2.38,0,0,1-40,372c-.09-2.22,2.88-4.94,6.66-8.37a55.13,55.13,0,0,0,7.58-7.84c1.66-2.35,3.23-4.75,5-7.52,3.45-5.29,7.75-11.86,15.2-21.94,11.41-15.43,12.9-18,10.66-22.81a5.39,5.39,0,0,0-3.75-3.2,8.76,8.76,0,0,0-7,1.8c-1.4,1.12-5.47,6.53-10.19,12.79-6.17,8.19-13.84,18.37-20.6,25.87-5.69,6.31-15.79,16.69-19.45,15.33a2,2,0,0,1-1.29-2c-.06-1.83,3-8.67,8.3-20.61,4.45-10,9.49-21.23,10.49-25.57.76-3.3,2.57-8.54,4.48-14.1,2.85-8.29,6.4-18.61,5.74-21s-2.39-5-4.83-5.76c-1.88-.61-3.95,0-6.14,1.74-6.65,5.33-14.67,24.21-19,34.35-4.75,11.19-15.75,36.06-18.31,40.69-1.51,2.73-3.55,2.58-4.36,2.39-2.35-.56-4.36-3.45-4.48-6.44-.09-2.16.58-13.17,1.35-25.92.67-11,1.42-23.43,1.7-30.6.58-15,.09-18.82-2.92-22.75a4.48,4.48,0,0,0-4-1.79,7.76,7.76,0,0,0-5.86,3.89c-1.66,3-3.33,14.41-4.8,24.45-.4,2.73-.8,5.43-1.19,7.93-.93,6-1.46,11.33-2,17s-1.17,11.72-2.21,18.65c-2.19,14.51-4.77,24.63-11.43,33.42-5,6.64-10.56,8.15-13.41,8.46a10.13,10.13,0,0,1-7.65-1.94c-2.66-2.27-8.34-12-14.36-22.27-2.83-4.84-5.77-9.85-8.23-13.79-7-11.24-12.28-11.05-16.64-10-1.83.44-3,1.21-3.52,2.36-.9,1.93-.24,5.19,2,9.69,2.13,4.31,5.49,13.41,9,23,3.94,10.67,8,21.71,10.73,27.09,4.21,8.34,21.13,47.28,19.27,54.44-1.77,6.84-55,65.16-81.92,88.35C-248.53,552.86-315.94,608.77-316.62,609.34Z"/><path class="cls-4" d="M14.21,364.51c-.74-.81-3.13-3.59-3-5.38a1.72,1.72,0,0,1,.66-1.25c1.36-1,7.27-4.56,7.52-4.71l1,1.72c-2,1.2-6,3.63-7.21,4.49,0,.62,1.17,2.35,2.46,3.77Z"/><path class="cls-4" d="M18,274.29c-.78-.44-78.68-44-161.61-66.66-38.26-10.47-89.06-20.39-139.37-27.22-54.17-7.35-76.8-7-78.33-5-4.53,6.59-6.61,33.52-6.64,33.79l-2-.15c.09-1.13,2.15-27.75,7-34.78,4-5.87,67.32,2.38,80,4.09,50.48,6.84,101.48,16.79,139.91,27.31C-59.92,228.47,18.19,272.11,19,272.55Z"/></g></g><g id="_7" data-name="7"><g class="cls-8"><rect class="cls-5" width="425.2" height="425.2"/><g id="_Группа_3" data-name="&lt;Группа&gt;"><path class="cls-3" d="M472.41,625.6c-19.27,12.34-49.58,29.25-86.06,41-57.39,18.5-116.48,36.71-147.79,57.51-14,9.28-25.85,35.36-34.66,61.44a561.71,561.71,0,0,0-17.27,64.62s203.66-67.08,251.65-88.64S495,609.8,495,609.8A272.75,272.75,0,0,1,472.41,625.6Zm-1720.24,0c-14.39-9.22-22.62-15.8-22.62-15.8s8.81,130.23,56.8,151.73,251.59,88.64,251.59,88.64a561.71,561.71,0,0,0-17.27-64.62c-8.81-26.08-20.68-52.16-34.6-61.44-31.37-20.79-90.46-39-147.85-57.51C-1198.19,654.85-1228.56,637.88-1247.83,625.6ZM-1152,163c-2.94-14.57,51.4-66.2,107.2-66.2,54,0,39.24,33,38.24,35.13L-870.24-53l1,.7c-43.59,61.38-116.84,191.5-116.84,204.89,0,16.62,70.49,8.81,202.66,6.81,111.61-1.64,684.34-1.64,795.95,0,132.17,2,202.66,9.81,202.66-6.81,0-13.39-73.31-143.74-116.84-205.07l.7-.53L235,131.47c-2.23-3.64-11.51-22.67,38.95-22.67,55.8,0,83.3,36.83,82.53,51.69-1.7,33.48-91.7,15.63-91.7,15.63s98.39,35,158.6,68.14S524.69,397.86,537.91,480.1C546.43,533,533,655,519.29,755.36c-7.64,55.75-15.39,104.79-19.56,131.52-5.4,34.36-82.71,57.86-164.89,73.31-21.73,4.05-43.76,7.58-65,10.57-73.31,10.34-135.81,14.51-135.81,14.51s-32.31-7.34-85.18-7.34-162.95,15-271.68,17.62c-81.36,1.88-244.25,1.64-325.6,0-108.73-2.23-218.81-17.62-271.68-17.62s-85.18,7.34-85.18,7.34-60.68-4.05-132.64-14c-24.08-3.41-49.4-7.4-74.19-12.22-79.89-15.45-153.61-38.59-158.84-72.13-3.52-22.56-9.57-61-16-105.85-14.86-104.21-31.43-243.42-22.2-300.93,13.22-82.24,54.34-202.66,114.55-235.85s158.6-68.14,158.6-68.14S-1149,177.58-1152,163Zm772.86,687.1c49.28-.35,373.77-4,452.43-35.19,85.18-33.78,104.27-88.11,102.8-104.27-.59-6.23-9.4-27.43-25.73-52.57-16.86-26-41.77-56.27-73.84-78.6-17.56-12.16-37.3-22-59-27.43-91.75-22.91-354.92-24.79-397.15-25-34.31.12-305.87,1.59-399.32,25a175.17,175.17,0,0,0-48.23,20.44c-36.83,22.32-65.14,55.8-83.88,84.41-16.86,25.67-26,47.4-26.49,53.75-1.47,16.15,17.62,70.49,102.8,104.27C-754.11,846.88-414.88,849.93-379.1,850.11ZM458.84,421.83c29.37-48,5.87-102.8-16.68-98.86S244.5,401.27,223.88,412C199.09,424.94,126,506,126,506s30.37,29.37,54.81,30.37,40.18,1.94,140-30.37S429.47,469.82,458.84,421.83ZM177.47,937.75c11.75-12.69-58.74-28.37-91.81-32.31s-897.45-3.88-930.47,0-103.56,19.62-91.81,32.31,291.77,33.31,414.13,32.31,199.25-.65,285.84,0C-114.3,971.06,165.72,950.5,177.47,937.75ZM-956.18,536.37c24.5-1,54.81-30.37,54.81-30.37s-75.37-88.11-97.86-94-195.84-85.18-218.34-89.05-46,50.87-16.62,98.86,38.18,51.87,138,84.18S-980.67,537.37-956.18,536.37Z"/><path class="cls-9" d="M27.27,94.81l-98.86-3.88S-85.28,28.26-103.9,14.63-186.14-1.11-228.25,6.7-263.5,90.94-263.5,90.94H-503.87S-497,14.57-539.11,6.7-644.85.94-663.47,14.63s-32.31,76.31-32.31,76.31l-98.86,3.88s56.8-112.55,95.92-115.49c35.36-2.64,594.7-2.64,630.06,0C-29.47-17.74,27.27,94.81,27.27,94.81Z"/><path class="cls-3" d="M425.6,401.68c.94-2.06,18.86-39.89,12.69-49.87-6.4-10.28-33.78,11.28-33.78,11.28s1.94,4.41,17.5,1.47C437.17,361.67,426.13,399.68,425.6,401.68ZM218.89,447.44c-1.76,2.06-29.43,36.3-32.25,43.41-2.94,7.34,49.46.47,48,0s-25.55-9.93-24-18.91C212,463.53,218.12,449.2,218.89,447.44Zm237-88.29c7.81,16.68-4.93,53.87-30.37,79.3s-61.68,40.18-142,58.74S180.76,512.88,169,506s29.72-63.85,63-84.35,130-65.32,200.43-82.06C439.58,337.88,448,342.53,455.91,359.15ZM315,446.32c18.44,18.09,44.41,18.09,44.41,18.09S314.93,440.8,319.8,423s11.75-25.67,3.94-23.2-14.22,11.75-14.22,11.75S296.54,428.17,315,446.32Z"/><path class="cls-9" d="M98.35-52.45C141.88,8.87,215.18,139.22,215.18,152.61c0,16.62-70.49,8.81-202.66,6.81-111.61-1.64-684.34-1.64-795.95,0-132.17,2-202.66,9.81-202.66-6.81,0-13.39,73.25-143.51,116.84-204.89,10.63-15.1,19.56-26,25.14-30.08,28.37-20.56,15.68-20.56,128.23-33.31,43.94-5,199-18.33,349.57-18.09,137.4.18,271.21,13.57,311.27,18.09C57.58-102.91,44.83-102.91,73.27-82.35,78.85-78.3,87.72-67.43,98.35-52.45ZM-71.59,90.94l98.86,3.88S-29.47-17.74-68.65-20.67c-35.36-2.64-594.7-2.64-630.06,0-39.12,2.94-95.92,115.49-95.92,115.49l98.86-3.88S-682,28.26-663.47,14.63-581.23-1.11-539.11,6.7s35.24,84.24,35.24,84.24H-263.5s-6.81-76.36,35.24-84.24S-122.52.94-103.9,14.63-71.59,90.94-71.59,90.94Z"/><path class="cls-3" d="M442.16,323c22.56-3.94,46.05,50.87,16.68,98.86s-38.18,51.87-138,84.18-115.54,31.37-140,30.37S126,506,126,506s73.13-81.06,97.92-94C244.5,401.27,419.66,326.84,442.16,323ZM425.54,438.45c25.44-25.44,38.18-62.62,30.37-79.3s-16.33-21.26-23.5-19.56C362,356.33,265.29,401.21,232,421.65S157.27,499.19,169,506s34.31,9.81,114.55-8.81S400.1,463.94,425.54,438.45Z"/><path class="cls-3" d="M359.45,464.41s-26,0-44.41-18.09-5.52-34.77-5.52-34.77,6.34-9.28,14.22-11.75.94,5.4-3.94,23.2S359.45,464.41,359.45,464.41Z"/><path class="cls-3" d="M438.28,351.81c6.17,10-11.75,47.82-12.69,49.87.53-2,11.57-40-3.58-37.12-15.57,2.94-17.5-1.47-17.5-1.47S431.88,341.53,438.28,351.81Z"/></g><path class="cls-4" d="M166.19,164c-17,0-38.42-.64-64.37-1.41s-55.43-1.65-89.29-2.15c-111.58-1.65-684.34-1.65-795.92,0-33.86.5-63.31,1.38-89.29,2.15-66.84,2-103.67,3.08-112.32-5.32a6.36,6.36,0,0,1-2.06-4.69c0-9.17,31.16-66.88,60.47-116.52,29.9-50.63,67.11-108.54,81.9-119.25,3.31-2.4,6.08-4.53,8.52-6.41,19-14.6,20.51-15.79,120.21-27.06,41.87-4.73,194.51-18.12,345.8-18.12h3.85c145.81.22,285,15.13,311.41,18.12C44.79-105.38,46.34-104.19,65.31-89.59c2.44,1.88,5.21,4,8.52,6.41h0c14.79,10.71,52,68.62,81.9,119.25C185,85.72,216.2,143.43,216.2,152.59a6.36,6.36,0,0,1-2.06,4.69C208.84,162.42,193,164,166.19,164Zm-551.62-6.8c171.1,0,342.2.41,398,1.24,33.88.5,63.33,1.38,89.32,2.15,64.12,1.91,102.82,3.06,110.87-4.75a4.37,4.37,0,0,0,1.45-3.25c0-7.61-26.44-58.35-60.19-115.51C124.21-13.37,87.2-71,72.65-81.56,69.32-84,66.54-86.12,64.09-88,45.53-102.29,44-103.46-55.12-114.66c-26.4-3-165.49-17.88-311.19-18.11-152.49-.22-307.23,13.33-349.43,18.11C-814.88-103.46-816.39-102.29-835-88c-2.45,1.89-5.23,4-8.57,6.44C-858.06-71-895.08-13.37-924.87,37.09c-33.75,57.16-60.19,107.9-60.19,115.51a4.37,4.37,0,0,0,1.45,3.25c8,7.81,46.75,6.66,110.87,4.75,26-.77,55.45-1.65,89.32-2.15C-727.63,157.62-556.53,157.21-385.43,157.21Z"/><path class="cls-4" d="M-377.91,997.88c-64.12,0-128.83-.5-170.52-1.34-60.59-1.23-122.85-6.67-172.87-11-40.46-3.53-75.41-6.59-98.79-6.59-52.13,0-84.63,7.25-85,7.32l-.14,0h-.15c-.89-.06-89.56-6.05-178.53-21.12C-1203.7,944.83-1267,918.55-1271.92,887l-.64-4.07c-12.5-79.66-50.55-322.07-37.54-403,7.38-45.89,21.85-95.66,39.72-136.56,22-50.4,48.07-85,75.33-100,51.48-28.37,131.74-58.36,153.28-66.23-9.77,0-30.46-.07-51.15-1.12-58-2.94-59.55-10.37-60-12.81-.8-4,2.12-10.3,8.24-17.77,15.71-19.19,56.73-49.63,99.94-49.63,20.21,0,33.3,4.58,38.88,13.62,3.63,5.87,3.29,12.31,2.28,16.9L-871-53.59l1.61,1.19-136.35,185-1.7-1c.06-.12,5.72-11.72-.11-21.14-5.2-8.4-17.71-12.66-37.17-12.66-42.53,0-82.92,30-98.4,48.9-5.65,6.9-8.5,12.77-7.83,16.11,2,10,71.62,12.85,115,12.29l6-.08-5.69,2c-1,.35-99,35.3-158.45,68.07-26.87,14.81-52.62,49.06-74.46,99.05-17.8,40.75-32.23,90.34-39.58,136.08-13,80.65,25.05,322.82,37.54,402.4l.64,4.07c4.73,30.16,69.19,56.59,186.4,76.45,87.2,14.77,174.13,20.81,178.2,21.09,2.43-.53,34.66-7.33,85.25-7.33,23.47,0,58.45,3.06,99,6.59,50,4.37,112.21,9.8,172.74,11,79.4,1.61,242.35,2,325.6,0C-163,993.12-104,988-52,983.55c41.35-3.56,77.07-6.64,100.91-6.64,50.59,0,82.82,6.8,85.25,7.33,4.06-.28,91-6.32,178.2-21.09C429.58,943.3,494,916.87,498.77,886.71l.64-4.07c12.49-79.58,50.51-321.75,37.54-402.4-7.35-45.73-21.78-95.33-39.58-136.08-21.84-50-47.59-84.24-74.46-99.05C363.46,212.34,265.44,177.38,264.45,177l.5-1.93c.65.11,65.6,10.58,85.16-4.95a13.09,13.09,0,0,0,5.37-9.75c.38-5.79-4.21-14.68-11.68-22.66-7.87-8.4-30.58-27.94-71.33-27.94-27.5,0-36,5.68-38.29,10.45-2.2,4.58.82,9.47,1.75,10.81l.29.39-1.58,1.22s-.19-.24-.42-.56L98.26-52.41l1.61-1.19L231.44,124.95a10.29,10.29,0,0,1,.93-5.55c3.68-7.7,17.17-11.6,40.1-11.6,41.53,0,64.74,20,72.79,28.57s12.64,17.75,12.22,24.16a15.18,15.18,0,0,1-6.12,11.19c-15.82,12.56-58.21,9-77.28,6.68,25.66,9.45,100.79,37.93,149.81,65,27.26,15,53.31,49.61,75.33,100,17.87,40.89,32.35,90.67,39.72,136.56,13,81-25,323.37-37.54,403l-.64,4.07c-4.95,31.53-68.22,57.81-188.06,78.11-89,15.07-177.64,21.06-178.53,21.12H134l-.14,0c-.32-.07-32.82-7.32-85-7.32-23.75,0-59.43,3.07-100.74,6.63-52.08,4.49-111.1,9.57-170.92,11C-262.31,997.47-319.87,997.88-377.91,997.88Z"/><path class="cls-5" d="M0,130.47S-10.31,335.25,57.93,389.13c38,30,226,28.67,303.33,28.67,97,0,83.47,12,83.47,12L4.6,441.8l-14.33-8.67Z"/><path class="cls-4" d="M273.45,179.37c-15.72-8.59-39.28-47.05-40.27-48.69l1.71-1c.24.4,24.27,39.64,39.52,48Z"/><path class="cls-5" d="M56-7.53s44.57,26.67,80.57,68,55.09,70.67,55.09,70.67-17.5-56.67-52-101.33L105.27-14.87Z"/></g><g class="cls-10"><circle class="cls-3" cx="259.02" cy="377.54" r="9.87" transform="translate(-160.71 194.63) rotate(-32)"/><path class="cls-4" d="M259,388.42a10.94,10.94,0,0,1-2.47-.28,10.87,10.87,0,0,1-3.32-19.82h0a10.87,10.87,0,1,1,5.78,20.1Zm0-19.75a8.82,8.82,0,0,0-4.68,1.35h0a8.82,8.82,0,1,0,4.68-1.35Z"/><circle class="cls-3" cx="290.3" cy="358.46" r="11.95" transform="translate(-145.84 208.3) rotate(-32)"/><path class="cls-4" d="M290.32,371.4a12.95,12.95,0,0,1-6.88-23.93h0a12.95,12.95,0,1,1,6.88,23.93Zm-5.82-22.23a10.95,10.95,0,1,0,15.09,3.48,11,11,0,0,0-15.09-3.48Z"/><circle class="cls-3" cx="268.9" cy="358.46" r="5.82" transform="translate(-149.09 196.96) rotate(-32)"/><path class="cls-4" d="M268.91,365.28a6.82,6.82,0,1,1,3.6-1A6.82,6.82,0,0,1,268.91,365.28Zm0-11.64a4.83,4.83,0,1,0,1.09.13A4.91,4.91,0,0,0,268.89,353.64Z"/><circle class="cls-3" cx="249.15" cy="350.16" r="2.91" transform="translate(-147.7 185.24) rotate(-32)"/><path class="cls-4" d="M249.15,354.07a3.91,3.91,0,0,1-2.08-7.23h0a3.91,3.91,0,1,1,2.08,7.23Zm-1-5.53a1.91,1.91,0,1,0,2.63.61,1.91,1.91,0,0,0-2.63-.61Z"/><path class="cls-4" d="M297.92,360.56s.58-6-4.2-9.27c-3.91-2.66-5.66.17-4.55.41.77.17,0,0,2.59,1.78A18.73,18.73,0,0,1,297.92,360.56Z"/><circle class="cls-3" cx="305.2" cy="375.08" r="19.75" transform="translate(-152.39 218.72) rotate(-32)"/><path class="cls-4" d="M305.24,395.83a20.9,20.9,0,0,1-4.71-.54,20.75,20.75,0,0,1-6.33-37.81h0a20.75,20.75,0,1,1,11,38.35Zm-10-36.65a18.75,18.75,0,1,0,14.15-2.37,18.63,18.63,0,0,0-14.15,2.37Z"/><circle class="cls-3" cx="341.15" cy="375.08" r="11.95" transform="translate(-146.92 237.77) rotate(-32)"/><path class="cls-4" d="M341.17,388a13,13,0,0,1-2.94-.34,12.87,12.87,0,1,1,2.94.34Zm0-23.9a10.88,10.88,0,0,0-5.78,1.66h0a11,11,0,1,0,5.78-1.66Z"/><path class="cls-4" d="M315.23,385.37s5.94-5.52,4-13c-1.56-6.15-5.83-4.87-4.93-3.63.62.85,0,0,1,4.09A25.11,25.11,0,0,1,315.23,385.37Z"/><g id="_Группа_4" data-name="&lt;Группа&gt;"><path class="cls-11" d="M425.19,404v19.2c-10.62-6-62-35-92.92-51-31.53-16.37-82.13-27-91-28.81a32.28,32.28,0,0,0,.41-4.85h0c.94.18,46.69,9.14,87.6,22.33C364.63,372.2,412.18,397,425.19,404Z"/><path class="cls-6" d="M258.24,331.56l-.14.78,31.17,5.46c32.33,5.68,89,23,89,23s11.66,1.33,14.33-3-18-11.33-34-14.75C343,339.71,262,331.93,258.24,331.56Zm167-84.9V404c-13-6.94-60.56-31.77-95.92-43.17-40.91-13.19-86.66-22.15-87.6-22.33,6.1-1,10.76-3.17,11.93-5.92,2.25-5.25,2.75-9.5-6-13s-16-9.25-21.5-10.75-22.5-3.5-34.5-8.5c-6-2.5-10.55-6.68-14.76-10.76,0,0-5.45-42.41-32.68-58.24-17.55-10.2-25.59-24.18-29.08-32.83,0,0,16.94,17.33,34.73,25.33s46.46,16.33,45.62,23.67-15.11,7.43-9,17.21,9.71,13.38,30.26,12.58c16.37-.63,57.54-6.05,73.62-8.23a0,0,0,0,0,0,0c16.41-.51,21.06-1.79,22.23-4.4,1.5-3.33-4.83-24.39-4.83-24.39a11.24,11.24,0,0,0-2.44.76l-22.56-57.88c18.53,7.38,52.46,21,92.9,37.57C402.24,231.6,417,240.24,425.19,246.66Zm-50.92,83.75c15.33-3.38-10-12.94-31.1-14.78s-72.62,10.17-72.62,10.17H289.6c11,0,60.33,6.33,60.33,6.33S358.93,333.8,374.27,330.41Z"/><path class="cls-11" d="M358.6,343.05c16,3.42,36.67,10.42,34,14.75s-14.33,3-14.33,3-56.67-17.32-89-23l-31.17-5.46.14-.78C262,331.93,343,339.71,358.6,343.05Z"/><path class="cls-11" d="M343.17,315.63c21.1,1.84,46.43,11.4,31.1,14.78s-24.34,1.72-24.34,1.72-49.33-6.33-60.33-6.33H270.55S322.07,313.8,343.17,315.63Z"/><path class="cls-4" d="M290.37,269a0,0,0,0,1,0,0c-4.55.15-10,.24-16.57.27-30.17.17-67.17,6-69.5,3.5s0-17.33,0-17.33a14.51,14.51,0,0,1,2.65-.74,54.74,54.74,0,0,1,9.8-.93c9.12-.17,6.13,4.17,6.13,4.17l71.58-6.34s2.84-7.66,5-8.41c1.32-.45,3.94-1.5,5.9-2.22a11.24,11.24,0,0,1,2.44-.76s6.33,21.06,4.83,24.39C311.43,267.24,306.78,268.52,290.37,269Z"/><path class="cls-12" d="M247.25,233.78c5.17.27,8.26-.61,10.85-2.48,4.5-3.25,3.25-9,0-14.75s-13.75-9.5-28.75-16.25c-9.78-4.4-14-5-17.54-6.3l38.48-6.15,4.71-.76,17.47-2.79,9.47-1.51.83.33L305.33,241c-2,.72-4.58,1.77-5.9,2.22-2.16.75-5,8.41-5,8.41L222.85,258s3-4.34-6.13-4.17a54.74,54.74,0,0,0-9.8.93l-.64-9.89h0l-1.28-20c9.16,1.43,12.92,3.35,26.85,6.45A96.29,96.29,0,0,0,247.25,233.78Z"/><path class="cls-12" d="M282.6,182.68l.17.44-.83-.33Z"/><path class="cls-11" d="M273.77,269.3c6.55,0,12-.12,16.57-.27-16.08,2.18-57.25,7.6-73.62,8.23-20.55.8-24.12-2.79-30.26-12.58s8.14-9.88,9-17.21S167.6,231.8,149.81,223.8s-34.73-25.33-34.73-25.33a45.5,45.5,0,0,1-2.41-7.59,113.25,113.25,0,0,1,15.18,3.92c12.25,4.5,16.25,8.25,22.75,14s9.75,13.25,23,15.5a42.12,42.12,0,0,0,13.27.39c-.85,2.34-2.54,8.71,2.61,11.73,6.16,3.64,9.53,2,9.74,1.93a8.49,8.49,0,0,0,2,3.33c4.12,3.88,4.94,3.29,5.06,3.16l.64,9.89a14.51,14.51,0,0,0-2.65.74s-2.34,14.83,0,17.33S243.6,269.47,273.77,269.3Z"/><path class="cls-3" d="M258.1,231.3c-2.59,1.87-5.68,2.75-10.85,2.48-.59-.28-10.26-4.69-19.06-6-9.07-1.33-11.26-3-23.26-9.7s-13-.63-28.09-1.36-18.24-5.94-25.24-13.17S135.93,191.8,97.27,178.8s-50.67-9.33-55-17.33,13.76-36,13.76-36h0c5.71-4.16,11.79-7.22,17.53-8.51h0c.84.3,39.86,14.26,54.86,22.67,15.17,8.5,19.74,11.16,19.74,11.16a44.55,44.55,0,0,0,10,2h0a19.15,19.15,0,0,0,2.14,0c6.63-.38,44.75-11.75,54.5-13.25s13-2.75,17.25,3.25a68.24,68.24,0,0,1,7.09,13.79l-.66.19c4.06,3.88,8.4,8.65,8.74,9,1.95,1,3.85,2,5.58,3.13,9.75,6.13,10.87,7.38,13.63,9.88s6,5.49,6,5.49h0L255,187.09s-2.4-1.12-10.4-4.41-20.33-5.71-25-3.05a75,75,0,0,0-9.62,7.43l-.21,0-3.28,3.1a1.09,1.09,0,0,1-.13.11l-.09.09-.17.16a18.15,18.15,0,0,0,5.71,3.45c3.51,1.32,7.76,1.9,17.54,6.3,15,6.75,25.5,10.5,28.75,16.25S262.6,228.05,258.1,231.3Z"/><path class="cls-7" d="M255,187.09l-4.71.76h0s-15.11-4.29-17.61-4.79-10.7,3.12-15,3.25a57.52,57.52,0,0,0-7.74.76,75,75,0,0,1,9.62-7.43c4.67-2.66,17-.25,25,3.05S255,187.09,255,187.09Z"/><path class="cls-3" d="M162.67,386.58l-1.4.83h0c-.57.29-12.65,6.4-19.27,2.47a7,7,0,0,1-1-.76c-6.43-5.51-14.16-16.83-21-33.92s-18.16-32.58-25.16-38.08c-3.88-3-39.34-4.86-57.42-21.08-14.41-12.94-12.91-40.8-12.87-41.51h0c1.87-5.12,3.75-10,5.21-14.29,0,0,25.16,9.81,40.91,15.06s31.25,12.5,49.5,15.75,34.75,4,44,8.25c4.63,2.13,8.51,6.14,12.74,10.24s8.77,8.26,14.76,10.76c12,5,29,7,34.5,8.5s12.75,7.25,21.5,10.75,8.25,7.75,6,13c-1.17,2.75-5.83,4.94-11.93,5.92h0a47.42,47.42,0,0,1-17.76-.67l-1-.25a55,55,0,0,0-8.76-1.51,70.28,70.28,0,0,0-14.32.14A63.87,63.87,0,0,0,186.46,339l-1,.36s.11,2.9.18,6.31c0,1.32.06,2.71.07,4.05,1.09.42,5.43,2.26,7.08,5.48a5.24,5.24,0,0,1,.29.64c.18.48.35.95.51,1.4,0,0,3.54.3,9.29.55a31.88,31.88,0,0,1,11.24,3,5.33,5.33,0,0,1,.47-2.24c.82-2,3-5.12,8.92-8.06,9.87-4.92,16.4-1.81,16.4-1.81a20.3,20.3,0,0,1-1.78,3.78c-3.67,6-17.67,28.5-23.33,31.33s-12.34,5.67-26.17,6.33c-1.57.08-3.13.08-4.68,0A86.88,86.88,0,0,1,162.67,386.58Z"/><path class="cls-13" d="M250.29,187.84h0L211.81,194a18.15,18.15,0,0,1-5.71-3.45l.17-.16.09-.09a1.09,1.09,0,0,0,.13-.11c.61-.56,1.9-1.74,3.49-3.13a57.52,57.52,0,0,1,7.74-.76c4.26-.13,12.46-3.75,15-3.25S250.29,187.84,250.29,187.84Z"/><path class="cls-7" d="M112.67,190.88c-14.36-3-33.74-5.84-50.32-9.33-7.69-1.62-13.83-3.05-18.61-4.25-9.22-2.33-13.4-3.77-14-4-.39-4.84.19-12.74,5.09-23C39.3,141,47.22,131.9,56,125.47h0s-18.1,28-13.76,36,16.33,4.33,55,17.33,47.33,17.53,54.33,24.77,10.15,12.44,25.24,13.17,16.09-5.34,28.09,1.36,14.19,8.37,23.26,9.7c8.8,1.29,18.47,5.7,19.06,6a96.29,96.29,0,0,1-15.4-2.48c-13.93-3.1-17.69-5-26.85-6.45-1.2-.2-2.49-.38-3.9-.55-1.08-.13-2.09-.22-3-.28a53.31,53.31,0,0,0-11.21.67,42.12,42.12,0,0,1-13.27-.39c-13.25-2.25-16.5-9.75-23-15.5s-10.5-9.5-22.75-14A113.25,113.25,0,0,0,112.67,190.88Z"/><path class="cls-7" d="M241.24,343.32a29.79,29.79,0,0,1-1.36,5.37s-6.53-3.11-16.4,1.81c-5.9,2.94-8.1,6-8.92,8.06l-2-.76-5.83-3.5s11.66-8.5,12.8-10.4,4.32-6.1,4.32-6.1a47.42,47.42,0,0,0,17.76.67A32.28,32.28,0,0,1,241.24,343.32Z"/><path class="cls-13" d="M222.85,337.55l1,.25s-3.18,4.2-4.32,6.1-12.8,10.4-12.8,10.4l-11.23.73c.82-1.27,5.91-9.09,9.73-13.06a24.69,24.69,0,0,1,8.82-5.93A55,55,0,0,1,222.85,337.55Z"/><path class="cls-7" d="M195.54,355l11.23-.73,5.83,3.5,2,.76a5.33,5.33,0,0,0-.47,2.24,31.88,31.88,0,0,0-11.24-3c-5.75-.25-9.29-.55-9.29-.55-.16-.45-.33-.92-.51-1.4a5.24,5.24,0,0,0-.29-.64Z"/><path class="cls-13" d="M214.09,336a24.69,24.69,0,0,0-8.82,5.93c-3.82,4-8.91,11.79-9.73,13.06l-2.78.18c-1.65-3.22-6-5.06-7.08-5.48,0-1.34,0-2.73-.07-4.05l4.82.24,9.34-9.74A70.28,70.28,0,0,1,214.09,336Z"/><path class="cls-7" d="M199.22,238.35c-1.83-5.14-1.26-12.94-1.14-14.33.93.06,1.94.15,3,.28,1.41.17,2.7.35,3.9.55l1.28,20h0c-.12.13-.94.72-5.06-3.16A8.49,8.49,0,0,1,199.22,238.35Z"/><path class="cls-13" d="M199.77,336.18l-9.34,9.74-4.82-.24c-.07-3.41-.18-6.31-.18-6.31l1-.36A63.87,63.87,0,0,1,199.77,336.18Z"/><path class="cls-7" d="M198.08,224c-.12,1.39-.69,9.19,1.14,14.33-.21.1-3.58,1.71-9.74-1.93-5.15-3-3.46-9.39-2.61-11.73A53.31,53.31,0,0,1,198.08,224Z"/><path class="cls-7" d="M161.25,387.42h0l1.4-.83a86.88,86.88,0,0,0,21.25,3.59s-12,2.46-22.49,4.13c-10.06,1.6-15.68,1.21-21.7-3.22l2.25-1.19C148.6,393.82,160.68,387.71,161.25,387.42Z"/><path class="cls-7" d="M158.2,152.79a44.55,44.55,0,0,1-10-2s-4.57-2.66-19.74-11.16c-15-8.41-54-22.37-54.86-22.67a25.39,25.39,0,0,1,6.78-.66,36.89,36.89,0,0,1,9.25,2.26C110.82,126,151.65,149.05,158.2,152.79Z"/><path class="cls-7" d="M142,389.89l-2.25,1.19-.8-.61c-6.33-5-25.83-33.84-36.33-46.67S79.43,323.3,58.77,316s-44-10.13-44-10.13c2-5.85,0-14.27,3-29.29a160.65,160.65,0,0,1,6.71-22c0,.71-1.54,28.57,12.87,41.51,18.08,16.22,53.54,18,57.42,21.08,7,5.5,18.33,21,25.16,38.08s14.57,28.41,21,33.92A7,7,0,0,0,142,389.89Z"/><path class="cls-3" d="M29.76,173.32c.58.21,4.76,1.65,14,4-1.91,2.28-7.84,9-11.3,9.25-4.16.25-10.34-7-20.59-10A31.68,31.68,0,0,1,0,170.1V50.27L30.92,93.19c7.23-3.56,15.8-6.1,23.18-3.64,16.5,5.5,35.5,18.75,35.5,22.75v6.26a36.89,36.89,0,0,0-9.25-2.26,25.39,25.39,0,0,0-6.78.66h0c-5.74,1.29-11.82,4.35-17.53,8.51C47.22,131.9,39.3,141,34.85,150.3,30,160.58,29.37,168.48,29.76,173.32Z"/><path class="cls-3" d="M32.35,227.8c.44,2.44-.76,6.9-2.66,12.44-1.46,4.26-3.34,9.17-5.21,14.29h0a160.65,160.65,0,0,0-6.71,22c-3,15-1,23.44-3,29.29a10.73,10.73,0,0,1-1.92,3.46C10,312.74,4.31,313.06,0,312.7V218.18a73.19,73.19,0,0,0,11.1,5.12C16.6,225.05,31.1,220.8,32.35,227.8Z"/></g><path class="cls-4" d="M179.53,343.35a.74.74,0,0,0,.05-.5l-2,.39c-.2-1,.59-2.46,8.51-5.18,9.12-3.14,24.09-4.82,37-1.48,13.75,3.57,27.74-.13,29.58-4.43,1-2.33,1.81-4.77,1-6.82-.77-1.85-2.86-3.44-6.41-4.86a94.33,94.33,0,0,1-11.87-6.06c-3.67-2.11-6.84-3.93-9.52-4.66-1.58-.43-4.24-.92-7.32-1.5-7.9-1.47-18.72-3.47-27.3-7-6.69-2.79-11.5-7.48-16.16-12-3.75-3.66-7.3-7.12-11.37-9-6-2.76-15.36-4-26.18-5.52-5.63-.77-11.45-1.56-17.58-2.66-13-2.31-24.56-6.63-35.77-10.8-4.76-1.77-9.26-3.45-13.87-5-15.59-5.2-40.71-15-41-15.07l.73-1.86c.25.1,25.32,9.86,40.86,15,4.65,1.55,9.37,3.31,13.94,5,11.12,4.14,22.63,8.43,35.42,10.7,6.09,1.08,11.89,1.88,17.5,2.64,11,1.5,20.45,2.79,26.74,5.68,4.39,2,8.05,5.59,11.93,9.37,4.52,4.41,9.2,9,15.53,11.61,8.38,3.49,19.08,5.48,26.89,6.92,3.26.6,5.83,1.08,7.48,1.53,2.93.8,6.21,2.68,10,4.85A92.71,92.71,0,0,0,248,318.62c4.08,1.63,6.53,3.58,7.52,5.95,1.13,2.73.2,5.64-1,8.37-2.65,6.17-18.76,9-31.92,5.57-12.47-3.23-27-1.61-35.82,1.44C180.35,342.17,179.56,343.3,179.53,343.35Z"/><path class="cls-4" d="M2.62,313.82a37.51,37.51,0,0,1-8.53-1.05l.5-1.94c.13,0,12.95,3.27,17.48-2.17,2.53-3,2.63-6.92,2.77-12.79a104.22,104.22,0,0,1,1.94-19.52c1.75-8.7,5.4-18.55,8.62-27.25C28.79,240,32,231.4,31.37,228s-5.46-3.55-12.24-3.3c-3.22.12-6.27.23-8.33-.42-5.54-1.76-13.85-6.63-14.2-6.84l1-1.72c.08,0,8.47,5,13.8,6.66,1.73.55,4.61.44,7.65.33,6.23-.23,13.31-.5,14.28,4.95.71,4-2.27,12-6,22.18-3.19,8.62-6.82,18.4-8.54,26.95a102.37,102.37,0,0,0-1.9,19.18c-.15,6.06-.26,10.45-3.23,14C11.06,313,6.63,313.82,2.62,313.82Z"/><path class="cls-4" d="M152.55,396.16a21.33,21.33,0,0,1-14.23-4.91c-4-3.14-12.5-14.74-21.52-27-5.36-7.3-10.91-14.84-15-19.81-10.06-12.3-22.23-20-43.39-27.52-20.32-7.21-43.55-10-43.78-10.07l.24-2c.23,0,23.68,2.89,44.21,10.17,21.54,7.64,34,15.54,44.27,28.14,4.09,5,9.65,12.57,15,19.89,8.54,11.63,17.38,23.65,21.15,26.63,5.72,4.52,10.8,5.36,21.72,3.63,10.36-1.64,22.32-4.1,22.44-4.13l.4,2c-.12,0-12.13,2.49-22.53,4.14A58.53,58.53,0,0,1,152.55,396.16Z"/><path class="cls-4" d="M194.46,363.54s-.66-2.6-1.85-6c-.16-.45-.33-.91-.51-1.38-1.37-3.64-6.95-5.6-7-5.62l.65-1.89c.27.09,6.52,2.3,8.22,6.81q.27.73.52,1.42c1.23,3.45,1.88,6,1.9,6.14Z"/><path class="cls-4" d="M192.82,356.21l-.13-2,13.72-.89c4.46-3.26,11.56-8.7,12.3-9.93,1.15-1.92,4.25-6,4.38-6.19l1.59,1.21s-3.16,4.18-4.26,6-11.1,9.25-13.07,10.69l-.23.17Z"/><rect class="cls-4" x="208.68" y="352.65" width="2" height="6.8" transform="translate(-203.51 352.66) rotate(-59.03)"/><path class="cls-4" d="M186.13,357.19l-1.39-1.44a.77.77,0,0,0-.2.3c.28-1,.17-9.23-.1-16.65l2-.07C187,356.3,186.49,356.83,186.13,357.19Z"/><path class="cls-4" d="M196.28,355.75l-1.69-1.07c.23-.37,5.77-9,10-13.4a25.68,25.68,0,0,1,9.22-6.18l.65,1.89a24.11,24.11,0,0,0-8.43,5.68C201.94,346.87,196.33,355.66,196.28,355.75Z"/><polygon class="cls-4" points="190.84 346.95 184.55 346.62 184.65 344.63 190.03 344.9 199.04 335.49 200.49 336.87 190.84 346.95"/><path class="cls-4" d="M253,332.53c-.33-.07-8-1.71-11.72-3.31a4.67,4.67,0,0,1-2.64-2.58,6,6,0,0,1,.15-4.17l1.83.81-.92-.4.92.4c-.13.3-1.19,3,1.45,4.12,3.53,1.53,11.26,3.17,11.34,3.19Z"/><rect class="cls-4" x="156.1" y="387.39" width="7.06" height="2" transform="translate(-176.57 136.8) rotate(-30.85)"/><path class="cls-4" d="M215.2,362.45l-1.55-.76a31.12,31.12,0,0,0-10.84-2.9c-5.71-.25-9.3-.55-9.33-.55l.17-2s3.59.3,9.25.55a31.71,31.71,0,0,1,10.38,2.53c.52-2.13,2.49-6.1,9.76-9.72,10.19-5.08,17-2,17.28-1.82l-.86,1.81c-.06,0-6.27-2.81-15.53,1.81-9,4.5-8.83,9.28-8.83,9.33Z"/><path class="cls-4" d="M32.23,187.56c-2.23,0-4.71-1.6-7.83-3.61a48.54,48.54,0,0,0-12.83-6.43A30.92,30.92,0,0,1-4.21,167.13L-2.59,166a29.48,29.48,0,0,0,14.72,9.62,50.21,50.21,0,0,1,13.36,6.67c2.93,1.89,5.23,3.37,6.89,3.29,2.71-.16,8.3-6,11.19-9.62l1.57,1.25c-.82,1-8.16,10.1-12.63,10.37Z"/><path class="cls-4" d="M248.94,234.83c-4.18,0-9.66-.85-17.31-2.55-6.32-1.41-10.48-2.55-14.15-3.56A98.36,98.36,0,0,0,201,225.29a44,44,0,0,0-12.43.19,44.47,44.47,0,0,1-15.11-.2c-10.32-1.75-14.81-6.62-19.15-11.34a60.64,60.64,0,0,0-4.34-4.4l-.61-.54c-6.1-5.41-10.14-9-21.82-13.27-7.58-2.78-22.08-5.32-37.43-8-9.35-1.64-19-3.33-27.93-5.2-23.55-5-32.43-8.16-32.8-8.29l.69-1.88c.09,0,9.15,3.29,32.52,8.21,8.88,1.87,18.53,3.56,27.86,5.19,15.44,2.7,30,5.25,37.78,8.1,12,4.42,16.18,8.09,22.46,13.65l.61.54a62.27,62.27,0,0,1,4.49,4.54c4.3,4.67,8.37,9.08,18,10.72a42.16,42.16,0,0,0,14.52.19,45.72,45.72,0,0,1,12.93-.19,99.89,99.89,0,0,1,16.8,3.48c3.64,1,7.77,2.14,14,3.53,14.86,3.3,21,3.34,25.45.17,3.45-2.49,3.35-7-.28-13.45-2.55-4.51-10.38-7.95-21.22-12.7-2.22-1-4.58-2-7.07-3.13a95.92,95.92,0,0,0-13.87-5.12c-3.77-1.1-6-1.77-9.62-4.77-6.61-5.56-5.16-14.55-5.09-14.93l2,.34c0,.08-1.32,8.26,4.41,13.06,3.25,2.73,5.26,3.32,8.89,4.39a97.8,97.8,0,0,1,14.12,5.22c2.48,1.11,4.83,2.15,7,3.12,11.61,5.09,19.29,8.46,22.16,13.55,5.26,9.3,2.75,13.86-.28,16.05C256.17,233.93,253.24,234.83,248.94,234.83Z"/><path class="cls-4" d="M29.93,179.19c-.19-.45-4.58-11.28,4-29.32,9.13-19.16,30.78-35.33,46.45-34.57s76.62,35.65,79.2,37.13l-1,1.73c-.63-.36-63-36.14-78.3-36.87l-.94,0c-14.6,0-35.13,15.64-43.61,33.45-8.17,17.16-4,27.58-4,27.68Z"/><path class="cls-4" d="M90.6,118.56h-2V112.3c0-3.12-17.84-16.14-34.82-21.8C38,85.24,16,104.11,15.76,104.31l-1.31-1.51c.94-.81,23.12-19.81,40-14.19C70,93.79,90.6,107.3,90.6,112.3Z"/><rect class="cls-4" x="12.76" y="40.01" width="2" height="58.72" transform="translate(-37.95 21.13) rotate(-35.77)"/><path class="cls-4" d="M154,382.77a21.34,21.34,0,0,1-9.38-4.72l1.39-1.44a19.69,19.69,0,0,0,8.45,4.22Z"/><path class="cls-4" d="M217.59,316.12l-1.74-1a12.88,12.88,0,0,0,1.59-5.79l2-.11A14.68,14.68,0,0,1,217.59,316.12Z"/><path class="cls-4" d="M257.91,232.28c-.87-.17-2-.33-3.24-.5C249,231,242,230,241.24,226.12c-.32-1.62.55-4.94.72-5.59.07-.25.73-2.66,2.69-3.31,1.61-.54,7.58.94,10.07,1.61l-.51,1.93c-3.65-1-8.11-1.88-8.93-1.64s-1.28,1.51-1.39,1.93a15.66,15.66,0,0,0-.7,4.68c.5,2.48,7.54,3.47,11.75,4.07,1.24.18,2.42.34,3.34.52Z"/><polygon class="cls-4" points="304.67 242.04 281.96 183.79 211.96 194.99 211.65 193.01 283.24 181.56 306.53 241.31 304.67 242.04"/><path class="cls-4" d="M238.29,157a68.16,68.16,0,0,0-7-13.64c-3.47-4.91-6-4.49-13.6-3.27l-2.69.43c-4.53.7-15.57,3.63-26.25,6.48C176,150.4,164,153.59,160.41,153.8c-6.77.39-16.21-3.29-16.61-3.44l.73-1.86c.09,0,9.45,3.67,15.77,3.31,3.41-.19,15.88-3.51,27.94-6.72,11.22-3,21.82-5.81,26.46-6.52l2.67-.42c7.8-1.26,11.35-1.84,15.55,4.08a68.88,68.88,0,0,1,7.25,14.11Z"/><path class="cls-4" d="M271.8,185s-3.25-3-6-5.49l-.58-.53c-2.37-2.17-3.94-3.61-12.9-9.24-9.53-6-24.38-10.85-24.53-10.9l.62-1.9c.62.2,15.23,5,25,11.1,9.12,5.73,10.74,7.21,13.19,9.45l.58.53c2.75,2.5,6,5.5,6,5.5Z"/><path class="cls-4" d="M206.79,191.28l-1.37-1.46,3.88-3.66.29-.05a60.67,60.67,0,0,1,8.11-.81,37,37,0,0,0,7.69-1.76c3.21-1,6-1.77,7.5-1.47,2.51.5,17.06,4.64,17.68,4.81l-.55,1.92c-.15,0-15.09-4.29-17.53-4.77-1-.2-4,.66-6.54,1.43a37.36,37.36,0,0,1-8.2,1.84,60.53,60.53,0,0,0-7.52.73Z"/><path class="cls-4" d="M218.31,222.11l-1.18-1.62c2.93-2.14,4.73-8.52,4.75-8.59l1.93.54C223.73,212.73,221.81,219.56,218.31,222.11Z"/><path class="cls-4" d="M246.54,166.48c-.08-.09-8.05-8.86-12.56-12.4s-10.64-7.79-10.7-7.83l1.14-1.64c.06,0,6.2,4.29,10.8,7.9s12.47,12.26,12.81,12.63Z"/><rect class="cls-4" x="204.93" y="223.77" width="2" height="30.99" transform="translate(-14.95 13.73) rotate(-3.68)"/><path class="cls-4" d="M208.53,274.42c-2.93,0-4.39-.3-5-.94-2.54-2.72-.66-15.61-.26-18.17l.08-.53.49-.22c.14-.06,3.63-1.59,12.84-1.75,4-.06,6.41.69,7.28,2.32a2.9,2.9,0,0,1,.31,1.71l69.42-6.14c.91-2.37,3.17-7.65,5.39-8.42.74-.25,1.88-.69,3.09-1.16,4.72-1.81,5.28-2,5.79-1.85l.57.13.17.56c1.08,3.58,6.36,21.59,4.79,25.09-1.71,3.79-7.69,5.08-39.74,5.26-14.71.08-31.08,1.52-44.23,2.67C219,273.9,212.44,274.42,208.53,274.42Zm-3.37-18.22c-1,6.91-1.38,14.61-.17,15.91,1.37.88,13.06-.15,24.37-1.14,13.19-1.16,29.6-2.59,44.39-2.68,27.39-.15,36.61-1.14,37.93-4.08.9-2-2.08-14.21-4.61-22.79-1,.34-2.85,1-4.17,1.55s-2.4.92-3.15,1.18c-1,.36-3.1,4.33-4.39,7.82l-.22.59-74.33,6.58L222,257.4s.5-.78.19-1.34c-.17-.32-1.1-1.33-5.48-1.26C209.89,254.93,206.37,255.82,205.17,256.21Zm102.61-15Z"/><path class="cls-4" d="M205.94,246c-.82,0-2.25-.57-5.4-3.55-4.8-4.54-3.49-18.13-3.43-18.7l2,.2c-.37,3.65-.58,13.84,2.82,17,3.07,2.9,4,3,4,3a.69.69,0,0,0-.57.42l1.78.91a1.29,1.29,0,0,1-.94.65Z"/><path class="cls-4" d="M196.8,239.78a15.58,15.58,0,0,1-7.83-2.5c-5.66-3.33-4.21-10.55-2.65-13.91l1.81.84c-.15.33-3.66,8.1,1.85,11.34,5.71,3.36,8.75,1.91,8.79,1.89l.94,1.76A6.44,6.44,0,0,1,196.8,239.78Z"/><path class="cls-4" d="M428.12,406.68c-.58-.32-58.39-31.78-99.16-44.93-37.19-12-78.9-20.58-86.33-22.08-.12,2.54-.72,8.49-3.67,13.31-5.25,8.59-18.07,28.87-23.74,31.71s-12.59,5.76-26.57,6.44-27.15-3.86-27.71-4.05l.65-1.89c.13,0,13.49,4.6,27,3.95s20.18-3.44,25.77-6.23c4.25-2.13,14.63-17.39,22.93-31,3.48-5.69,3.41-13.39,3.41-13.47l0-1.23,1.21.24c.46.09,46.81,9.17,87.73,22.37s98.92,44.76,99.51,45.07Z"/><path class="cls-4" d="M175.85,289.67c-.05-.42-5.71-42.1-32.19-57.5-27.31-15.88-32-41.19-32-41.44l2-.34c0,.24,4.6,24.66,31.08,40.06,27.34,15.9,33.11,58.55,33.17,59Z"/><path class="cls-4" d="M378,361.76c-.57-.17-57-17.37-88.88-23l-32.33-5.67.35-2,32.33,5.67c32,5.62,88.55,22.85,89.12,23Z"/><path class="cls-4" d="M349.81,333.13c-.49-.06-49.4-6.33-60.21-6.33H270.55v-2H289.6c10.94,0,58.44,6.08,60.46,6.34Z"/><path class="cls-4" d="M204.3,300.69c-.45-.24-11.15-5.89-14.75-12.75-3.49-6.64-13.23-31.78-13.64-32.84l1.87-.72c.1.26,10.11,26.1,13.55,32.64,3.31,6.31,13.8,11.86,13.91,11.91Z"/><path class="cls-4" d="M274,276.46l-.16-2c24.33-1.93,50.53-5.29,52.25-7.56a2.13,2.13,0,0,0,.37-1.88c-.5-1.62-3-2.93-3.91-3.3l.74-1.86c.43.17,4.21,1.75,5.08,4.56a4.12,4.12,0,0,1-.62,3.59C325,272.11,285.93,275.52,274,276.46Z"/><path class="cls-4" d="M426.63,246.85c-.3-.16-30.79-16.16-71.65-34.17-60.13-26.52-93.43-37-93.75-37.06l.59-1.91c.33.1,33.73,10.58,94,37.14,40.92,18,71.47,34.07,71.77,34.23Z"/></g></g><g id="Numbers"><path class="cls-4" d="M30,12.6v4.13L20.2,43.81H14.05l9.6-25.59v-.1H13V12.6Z"/></g></svg>