<svg xmlns="http://www.w3.org/2000/svg" xmlns:xlink="http://www.w3.org/1999/xlink" viewBox="0 0 425.2 425.2"><defs><style>.cls-1{fill:none;}.cls-2{isolation:isolate;}.cls-3{clip-path:url(#clip-path);}.cls-4{fill:#cdd0d5;}.cls-5{fill:#a0a0a0;}.cls-6{fill:#b9b9b9;}.cls-7{fill:#fff;}.cls-8{fill:#002339;}.cls-9{fill:#dcdcdc;}.cls-10{clip-path:url(#clip-path-2);}.cls-11{fill:#eee;}.cls-12{fill:#9aa2ab;}.cls-13{fill:#687381;}.cls-14{fill:#354457;}.cls-15{fill:#231f20;}.cls-16{fill:#464d67;}.cls-17{mix-blend-mode:multiply;}.cls-18{clip-path:url(#clip-path-3);}</style><clipPath id="clip-path"><rect class="cls-1" y="-445.2" width="425.2" height="425.2"/></clipPath><clipPath id="clip-path-2"><rect class="cls-1" width="425.2" height="425.2"/></clipPath><clipPath id="clip-path-3"><rect class="cls-1" x="-444.73" width="425.2" height="425.2"/></clipPath></defs><title>8</title><g class="cls-2"><g id="_4" data-name="4"><g class="cls-3"><path class="cls-4" d="M70.87-222.2c-1.5-1-15.18,8.25-14.34,20.87S70.87-159,70.87-159s-7,19.83-4,27.06a66.86,66.86,0,0,1,4,13.46s-17.5,15.94-18.5,34.86,26.5,63.25,26.5,63.25l-8.5,58.5,175.24-4.45L193.87-141.66Z"/><g id="_Группа_" data-name="&lt;Группа&gt;"><path class="cls-5" d="M420.87-77.62l46,100.92-45.93,7.87c-5-13.76-15.66-43.88-15.42-53,.31-12-20-42.19-40.13-50.37s-22-64.69-30.19-77.31.34-33.8.34-33.8-5-4.85-7-9.5,17.28-37.35,17.28-37.35l.06,0Z"/><path class="cls-6" d="M249.89-205.56c.84-2.12,34.62-86.11,45.48-44.64,11,42-3,156.5-.5,177.74s14.5-26.24,20-30.61c4.88-3.87,12.92,71.19,14,89.44-.09,2.75-.09,4.18,0,3.93a19.84,19.84,0,0,0,0-3.93c.56-19.13,5.46-101.93,4.94-125.26-.59-26.7-12.4-18.31-13.4,12s-10.5-78.33-9-110.83-37.5-51.5-37.5-49.57S250.47-207.5,249.89-205.56ZM420.94,31.17,348.55,43.58C333.65,32.7,312.67,17,284.37-5.2,218.55-56.7,118-232.61,108.84-248.69l139.85-66.07a50.74,50.74,0,0,1,67.21,23.51l30,61-.06,0s-19.28,32.7-17.28,37.35,7,9.5,7,9.5-8.49,21.18-.34,33.8,10,69.13,30.19,77.31,40.44,38.37,40.13,50.37C405.28-12.71,415.9,17.41,420.94,31.17ZM186-181.37c31.38,8.17,87.38,3.62,87.38,3.62s-57.75-2.65-87.38-21c-28.85-17.92-36.51-30.72-36.89-31.37v0C149.27-228.94,155.11-189.41,186-181.37Z"/><path class="cls-5" d="M348.55,43.58,258.33,59,104.87-246.82l4-1.87C118-232.61,218.55-56.7,284.37-5.2,312.67,17,333.65,32.7,348.55,43.58Z"/><path class="cls-5" d="M104.87-246.82,258.33,59l-8.57,1.47L96.87-249.87l-5,4.16s30.25,63.1,63.36,132.41c-1.67,4.49-6.65,15.81-15.07,18.26L75.44-228.48a134.49,134.49,0,0,1,4.41-16.67l5.34-3,14.18-8Z"/><path class="cls-7" d="M249.76,60.51l-11.18,1.91c-5.16-11.58-30-63.83-57.76-122.11h0l-.12-.26-24.82-55.18s-.21.7-.64,1.84c-33.11-69.31-63.36-132.41-63.36-132.41l5-4.16Z"/><path class="cls-5" d="M238.58,62.42l-20.37,3.49L185.75-1c-.09-5.4,0-10.26.24-14.06C187.43-35,181-59,180.82-59.69,208.61-1.41,233.42,50.84,238.58,62.42Z"/><path class="cls-4" d="M218.21,65.91l-12,2c-3-5.8-9.8-19.24-19-37.34-.69-10.14-1.33-21.78-1.49-31.64Z"/><path class="cls-5" d="M188.15,43,92.63-143.45c6.84,11.52,15.43,24.84,23.78,34.68C141.49-59.3,169-5.2,187.24,30.62,187.55,35.14,187.86,39.36,188.15,43Z"/><path class="cls-5" d="M185.75-1c.16,9.86.8,21.5,1.49,31.64C169-5.2,141.49-59.3,116.41-108.77a74,74,0,0,0,9.46,9.57c5.55,4.5,10.31,5.33,14.29,4.16Z"/></g><path class="cls-8" d="M200.81,69.91,48-228.28l51.69-29.27,5.54,9.44,143-67.54a52,52,0,0,1,68.53,24l105,213.63L468.31,24.07ZM50.69-227.49,201.92,67.69l263.5-45.16L420-77.2,315-290.81a50,50,0,0,0-65.89-23L104.47-245.52,99-254.84Z"/><rect class="cls-8" x="184.99" y="-266.03" width="2" height="361.79" transform="translate(57.93 74.37) rotate(-26.65)"/><g id="_Группа_2" data-name="&lt;Группа&gt;"><path class="cls-7" d="M88.1-83.63h0a63.74,63.74,0,0,0-2.15-17.23c-.28-1.09-.55-2.14-.8-3.14h0c-1.54-6.1-2.52-10.44-2.79-11.67h0s0-.1-.07-.28a.31.31,0,0,0,0-.07c-.55-2.22-3.63-14.65-5.74-22.82-2.34-9-3.5-9.66-1.17-11s5.5-2.66,9,0S91.2-137.7,93.54-135s5.16,8,8.83,14.33,6.17,21.33,8.5,25,11,17.67,11,17.67.26.19.73.5a24.38,24.38,0,0,0,6.15,6.95c6,4.76,7.12,7.13,6.37,10.88s13.75-4.5,14.5-8.75c.18-1,.43-2.55.71-4.4.93-5.87,2.22-14.92,2.79-20.73.75-7.62,1.25-9.62-1.75-14.12s-4.57-17.56-4.57-17.56h0a8.71,8.71,0,0,1,6.25-6.27c4.83-1.17,6.83,1.5,6.83,1.5s7.67,16.33,12.17,19.66,5.83,6.84,4.83,15.5-.67,29.34,1.83,38.34,3.84,36.83,1.17,47.16c-2.42,9.38-1.68,21.48-.4,30.37H124.53A167.51,167.51,0,0,0,114.2-7.7c-10.66-22.5-20.5-37.5-23.33-47a97.33,97.33,0,0,1-3.28-20.49C87.9-78.18,88.08-81,88.1-83.63Z"/><path class="cls-9" d="M87.06-64.77a51,51,0,0,1,.39-9.18c0-.42.09-.83.14-1.24A97.33,97.33,0,0,0,90.87-54.7c2.83,9.5,12.67,24.5,23.33,47A167.51,167.51,0,0,1,124.53,21h-9C105.75,2.07,87.19-24.45,82-35.37c-5.5-11.66-3.34-14.33-5.5-21S67.7-77.7,63.2-86c-4.33-8-2-12.65-.21-15.81l2.41.29A13.19,13.19,0,0,0,64.54-94c1,6.83,16,35.33,19.66,38,1.91,1.38,1.74-2.91,1.33-8.62Z"/></g><path class="cls-8" d="M427.46,3.47c-.23-.52-23.54-51.89-34.63-66.3-6.62-8.6-10.84-11.08-15.31-13.7A46.7,46.7,0,0,1,367.42-84c-9.54-9.28-18.48-30.05-21.27-41.48-1.78-7.29-6.39-17.67-9.76-25.26-1.81-4.09-3.12-7-3.49-8.37-.64-2.35,1.13-6.88,3.91-13.52a64.93,64.93,0,0,0,3.33-9c.93-4.23,1.73-7.51,2.08-8.89l-1.12-.69c-1.59-1-3.74-3-4.94-7.36-1.28-4.6,14-18.39,18.43-19.71,2.71-.8,7.6-.52,12.78-.22a78.61,78.61,0,0,0,10.17.19c5.71-.53,7.61,2.07,8.13,3.12a35.47,35.47,0,0,1,4.35,3c1.81,1.49,5,4.47,6.25,5.67,2.83-1.62,13.71-7.31,18.35-2.18,4.91,5.43,12.07,21.09,15.92,29.51s8.93,18.88,11.41,22.43c1.49,2.13,1.43,5.55,1.36,9.88a58.8,58.8,0,0,0,.8,12.91c2.06,10.31,3.77,37.12,3.77,46.45s24.3,41.07,24.54,41.39l-1.59,1.22c-1-1.33-25-32.63-25-42.61,0-9.26-1.69-35.85-3.73-46.05a61.35,61.35,0,0,1-.84-13.33c.07-4,.12-7.11-1-8.71-3.21-4.6-9.68-18.57-11.59-22.74-3.8-8.32-10.88-23.8-15.58-29-3.44-3.8-13.07.83-16.48,2.93l-.66.4-.56-.53s-4.5-4.29-6.7-6.1a33.38,33.38,0,0,0-4.35-3l-.36-.2-.12-.39c0-.09-.94-2.59-6.2-2.11a79.48,79.48,0,0,1-10.46-.18c-4.78-.27-9.72-.56-12.1.15-4.72,1.39-17.8,14.61-17.07,17.25,1,3.69,2.77,5.4,4.06,6.19l2.38,1.46-.18.71s-1,4-2.24,9.54a65.7,65.7,0,0,1-3.43,9.32c-1.93,4.62-4.34,10.36-3.83,12.22.32,1.18,1.68,4.23,3.39,8.08,3.4,7.65,8,18.13,9.87,25.59,2.74,11.19,11.46,31.5,20.73,40.52a45.07,45.07,0,0,0,9.71,7.15c4.44,2.61,9,5.3,15.88,14.21C405.65-49.47,428.32.52,429.28,2.64Z"/><path class="cls-8" d="M126.78,66.05l-.08-1.19c0-.21-1.43-21-10.24-39.64-5-10.57-13.7-24.42-21.38-36.65-6.17-9.83-11.5-18.32-14-23.52-3.55-7.52-4-11.46-4.36-14.93a28.33,28.33,0,0,0-1.19-6.19c-2-6.26-8.61-20.88-13.26-29.5-4.78-8.86-1.78-14,0-17.14s15.41-11.39,18.88-13.48c-.74-3-3.65-14.7-5.65-22.44-.61-2.34-1.12-4.08-1.54-5.48-1.17-3.93-1.56-5.26.85-6.64,2.66-1.52,6.22-2.89,10.1.07,2.27,1.73,4.35,5.86,6.19,9.5a32.87,32.87,0,0,0,3.12,5.47c1.92,2.2,4.07,6,6.79,10.74.68,1.2,1.4,2.46,2.15,3.75,2.07,3.57,3.75,9.71,5.23,15.13,1.17,4.27,2.27,8.3,3.25,9.84,2.17,3.41,9.9,15.89,10.9,17.5,1.31.92,10.26,7.13,15.34,8,4.11.71,6.9.44,8.52-.82a4.9,4.9,0,0,0,1.73-3.73c.49-6.4.91-15.85.91-19.09,0-2.87.46-7.63.57-8.72-.4-1.21-2.46-7.49-4-14.23-1.67-7.53,1.24-13.78,7.08-15.19,5.41-1.31,7.77,1.74,7.87,1.87l.11.18c.08.16,7.61,16.14,11.86,19.29,5,3.68,6.24,7.67,5.23,16.42s-.61,29.27,1.8,38,4,36.73,1.17,47.68c-3,11.5-1,26.62,0,32.59,1.5,9,4.5,27.5,4.5,27.5l.15.92ZM80.14-150.4A8.78,8.78,0,0,0,75.86-149c-1,.59-1,.59.08,4.33.42,1.42.95,3.18,1.56,5.55,2.31,8.9,5.8,23,5.84,23.18l.18.72-.64.38c-6.62,3.94-17.57,11-18.81,13.14-1.79,3.09-4.24,7.32,0,15.19s11.1,22.75,13.41,29.83a30,30,0,0,1,1.27,6.59c.38,3.48.78,7.08,4.18,14.3,2.4,5.09,7.7,13.54,13.84,23.31,7.71,12.27,16.44,26.18,21.49,36.85,7.76,16.39,9.89,34.45,10.33,39.18l54.63-13.18c-.62-3.83-3-18.78-4.35-26.58-1-6.09-3-21.54,0-33.41,2.67-10.35,1.22-38.08-1.16-46.65-2.55-9.19-2.89-29.82-1.86-38.72s-.54-11.69-4.44-14.58c-4.49-3.33-11.66-18.31-12.42-19.93-.33-.36-2-2-5.75-1.07-4.71,1.14-7,6.41-5.59,12.81,1.64,7.36,3.95,14.16,4,14.23l.07.21,0,.22c0,.06-.58,5.65-.58,8.73,0,3.28-.42,12.8-.92,19.24A6.87,6.87,0,0,1,147.7-70c-2.78,2.17-7.09,1.73-10.09,1.21-5.92-1-15.91-8.16-16.33-8.46l-.16-.12L121-77.5c-.09-.14-8.69-14-11-17.66-1.14-1.79-2.23-5.77-3.49-10.38-1.45-5.3-3.09-11.3-5-14.65-.75-1.3-1.47-2.56-2.16-3.76-2.56-4.49-4.77-8.37-6.56-10.41a32.74,32.74,0,0,1-3.4-5.88c-1.74-3.45-3.71-7.36-5.62-8.81A5.86,5.86,0,0,0,80.14-150.4Z"/></g></g><g id="_8" data-name="8"><g class="cls-10"><rect class="cls-11" width="425.2" height="425.2"/><path class="cls-4" d="M479,367.19c38,15.31-45.4,24.48-237.4,22C127.28,387.68,65,379.33,65,367.19s84.42-41.5,198.72-44.26C479,317.71,467.74,362.65,479,367.19Z"/><g id="_Группа_3" data-name="&lt;Группа&gt;"><path class="cls-4" d="M454.2,309.14v11.19H390.67s45-3.33,54.67-6.33A30.25,30.25,0,0,0,454.2,309.14Z"/><polygon class="cls-4" points="454.2 179.89 454.2 186 396.84 186 454.2 179.89"/><path class="cls-4" d="M449.75,206.5c2.9.5-.87,1.3-9.09,2.25-11.95-.55-29.23-1.28-54.21-2.25-2.42-.09-4.88-.17-7.37-.22.29-1.23.59-2.42.93-3.57,8.41-.16,16.62-.26,24.43-.33C419.45,204.5,440.06,204.83,449.75,206.5Z"/><path class="cls-7" d="M440.66,208.75c5.6.25,10,.47,13.54.66v99.73a30.25,30.25,0,0,1-8.86,4.86c-9.67,3-54.67,6.33-54.67,6.33H454.2V336.4c-19.19.15-63.9.35-66.53-1-9-4.59-11.62-77-12.12-95v-.08a200.53,200.53,0,0,1,2.08-26.56C403.88,212.1,427.75,210.24,440.66,208.75Z"/><path class="cls-12" d="M434.88,158l.77,1.41c-10.43,5.49-16.51,18.28-16.51,18.28S398,181.83,414,170.33A179.15,179.15,0,0,1,434.88,158Z"/><path class="cls-4" d="M449.75,206.5c-9.69-1.67-30.3-2-45.31-4.12,20.58-.19,38.39-.12,49.76,0v7.06c-3.5-.19-7.94-.41-13.54-.66C448.88,207.8,452.65,207,449.75,206.5Z"/><path class="cls-7" d="M390.8,183c14.53-14.59,49.15-33.28,63.4-40.66v6.23c-4.92,2.24-12,5.58-19.32,9.37A179.15,179.15,0,0,0,414,170.33c-16,11.5,5.14,7.34,5.14,7.34s6.08-12.79,16.51-18.28a22.19,22.19,0,0,1,3.69-1.56,61.4,61.4,0,0,1,14.86-2.69v24.75L396.84,186H454.2v16.35c-11.37-.09-29.18-.16-49.76,0-7.46-1.06-13.53-2.56-16.19-4.88-4.81-4.21-1.16-10.27,2.52-14.43Z"/><path class="cls-7" d="M386.45,206.5c25,1,42.26,1.7,54.21,2.25-12.91,1.49-36.78,3.35-63,5,.41-2.61.89-5.1,1.45-7.45C381.57,206.33,384,206.41,386.45,206.5Z"/><path class="cls-7" d="M390.77,183.07c-3.68,4.16-7.33,10.22-2.52,14.43,2.66,2.32,8.73,3.82,16.19,4.88-7.81.07-16,.17-24.43.33a50.13,50.13,0,0,1,6.44-14.54A35.89,35.89,0,0,1,390.77,183.07Z"/><path class="cls-4" d="M387.67,335.41c2.63,1.34,47.34,1.14,66.53,1v2.27h-70s-5,4.5-7.17-40.17c-1.09-22.55-1.82-41.88-1.45-58.13C376,258.41,378.63,330.82,387.67,335.41Z"/><path class="cls-7" d="M314.75,222.37c-.12-1.37,37.09-1.2,37.09-1.2S330,234.25,326.25,234.33,314.88,223.75,314.75,222.37Z"/><path class="cls-13" d="M317.67,314.67c.6,14.37,2,28.08,0,40.2-.51-1.49-5.58-15.67-13.62-16.55-8.5-.93-115.26-6.32-134.84.47s-19.11,15.72-19.11,15.72c-2.64-11.82-2.81-25.35-2.81-39.9a86,86,0,0,1,86-86C280.8,228.58,315.69,267.39,317.67,314.67Z"/><path class="cls-12" d="M349,175.57a185.57,185.57,0,0,1-35.26-.46,4.54,4.54,0,0,0,2.26-.44s30.67-13,62.67-27.34c27-12.11,64.54-27.78,75.53-32.36v14.51c-15,9.44-59.43,36.75-82.7,42.52A143,143,0,0,1,349,175.57Z"/><path class="cls-4" d="M308.84,205.5c22.27-1.51,47.49-2.35,71.17-2.79-.34,1.15-.64,2.34-.93,3.57-76.17-1.74-182.87,13.26-186,13.7C195.17,219.56,244.11,209.9,308.84,205.5Z"/><path class="cls-7" d="M142.62,209.79A434.83,434.83,0,0,1,189,197c36.34-7.67,119.34-23.33,122.34-22.33a8.28,8.28,0,0,0,2.3.43h.1a185.57,185.57,0,0,0,35.26.46s-15,14.76-40.16,16.6c-18.47,1.34-64.5.83-104,6.33C166.57,203.83,144,209.45,142.62,209.79Z"/><path class="cls-14" d="M123.13,230.25l8.69-.94s-3.94,4.8-7.69,7.18a54.69,54.69,0,0,1-6.44,3.57s5.94-6.31,6.38-7.56S123.13,230.25,123.13,230.25Z"/><path class="cls-12" d="M100.28,309.37c.08,2.25.09,4.6.07,6.82H94.18a42.22,42.22,0,0,0,1.55-6.82Z"/><path class="cls-12" d="M93.61,318.12h6.71c-.1,4.68-.36,8.37-.57,8.46-.58.25-9.83,2.09-9.16.5C90.89,326.37,92.32,322.33,93.61,318.12Z"/><path class="cls-4" d="M90.59,327.08c-.67,1.59,8.58-.25,9.16-.5.21-.09.47-3.78.57-8.46H93.61C92.32,322.33,90.89,326.37,90.59,327.08Zm9.69-17.71H95.73a42.22,42.22,0,0,1-1.55,6.82h6.17C100.37,314,100.36,311.62,100.28,309.37Zm-.08-1.93c-.27-5.12-.91-9.22-2.2-9-2.67.4-15.83,6.58-21,9Zm8.14,18.73c-17.5,9.33-43.38.3-43.38.3.43-.1.71-.14.71-.14l.33-19s0-7,12.5-10.16,40.5-2.5,40.5-2.5S118.86,320.55,108.34,326.17Z"/><path class="cls-12" d="M100.2,307.44H77c5.12-2.44,18.28-8.62,21-9C99.29,298.22,99.93,302.32,100.2,307.44Z"/><path class="cls-4" d="M98.25,334.89c11.75.15,9-4.89,15-4.89s29.75,10.5,11.34,9.75-43.84-4.5-44.59-4.34A179.79,179.79,0,0,1,98.25,334.89Z"/><path class="cls-7" d="M94.84,239.08c-.51.22-5.23,2.41-3.34,4.48s5.32,1.94,5.32,1.94-8.5,2.06-10,.12,1.8-4.06,3.86-5A35.28,35.28,0,0,1,94.84,239.08Z"/><path class="cls-13" d="M94.84,239.08a35.28,35.28,0,0,0-4.16,1.54c-2.06.94-5.36,3.07-3.86,5s10-.12,10-.12-3.32.25-5.32-1.94S94.33,239.3,94.84,239.08Zm37-9.77-8.69.94s1.37,1,.94,2.25-6.38,7.56-6.38,7.56a54.69,54.69,0,0,0,6.44-3.57C127.88,234.11,131.82,229.31,131.82,229.31Zm-19.32,1c17.84-3.66,27.17-3.16,27.17-3.16s-9.83,10.7-20.67,15.43S85,249,85,249l-2.16-5A72.89,72.89,0,0,1,112.5,230.33Z"/><path class="cls-12" d="M85,249s23.17-1.67,34-6.4,20.67-15.43,20.67-15.43-9.33-.5-27.17,3.16A72.89,72.89,0,0,0,82.84,244l-2.58-.08c2-2,15.92-14.69,38.74-20.25,24.76-6,50.17-2.84,50.17-2.84s-10.5,9.67-31.5,19.34S103.17,253,103.17,253l-1.1-3.44s-1.07.13-6.07.63c-3.13.31-7.74.65-10.76.86Z"/><path class="cls-12" d="M85,249l.24,2.05-3,.2L80,244.17l.26-.25,2.58.08Z"/><path class="cls-7" d="M74.25,249c.92-3.66-8.84,4.55-10.5,6,0-1.18-.08-2.09-.08-2.63,0-4,7-8.33,26-20,11.18-6.86,31-15.23,52.88-22.52l.07,0c1.37-.34,23.95-6,62.22-11.29,39.5-5.5,85.53-5,104-6.33C334,190.33,349,175.57,349,175.57A143,143,0,0,0,371.5,172c23.27-5.77,67.75-33.08,82.7-42.52v12.9c-14.25,7.38-48.87,26.07-63.4,40.66l0,0a35.89,35.89,0,0,0-4.32,5.1A50.13,50.13,0,0,0,380,202.71c-23.68.44-48.9,1.28-71.17,2.79-64.73,4.4-113.67,14.06-115.77,14.48,3.14-.44,109.84-15.44,186-13.7-.56,2.35-1,4.84-1.45,7.45-40.54,2.52-86.73,4.5-106.88,3.77-41.5-1.51-75.5,8-104.83,19s-52.67,28.51-83.33,26S73.25,253,74.25,249Zm63.42-8.83c21-9.67,31.5-19.34,31.5-19.34s-25.41-3.19-50.17,2.84C96.18,229.23,82.29,242,80.26,243.92l-.26.25,2.19,7.08,3-.2c3-.21,7.63-.55,10.76-.86,5-.5,6.07-.63,6.07-.63l1.1,3.44S116.67,249.83,137.67,240.17Z"/><path class="cls-7" d="M66,307.33s-3,.67-4.33-1.66S62,298,63.67,289c1.44-7.78.39-26.52.08-34,1.66-1.41,11.42-9.62,10.5-6-1,4-22.33,11,8.34,13.5s54-15,83.33-26,63.33-20.5,104.83-19c20.15.73,66.34-1.25,106.88-3.77a200.53,200.53,0,0,0-2.08,26.56v.08c-.37,16.25.36,35.58,1.45,58.13,2.17,44.67,7.17,40.17,7.17,40.17h70V355H317.67l0-.13c2-12.12.64-25.83,0-40.2-2-47.28-36.87-86.09-84.39-86.09a86,86,0,0,0-86,86c0,14.55.17,28.08,2.81,39.9-10.91-1.65-46.62-7.25-68.72-12.84-26.34-6.67-22-9.67-22-12,0-1.85,4-2.86,5.62-3.2,0,0,25.88,9,43.38-.3,10.52-5.62,10.66-31.5,10.66-31.5s-28-.67-40.5,2.5S66,307.33,66,307.33Zm285.84-86.16s-37.21-.17-37.09,1.2,7.75,12.05,11.5,12S351.84,221.17,351.84,221.17ZM124.59,339.75c18.41.75-5.34-9.75-11.34-9.75s-3.25,5-15,4.89a179.79,179.79,0,0,0-18.25.52C80.75,335.25,106.17,339,124.59,339.75Z"/></g><path class="cls-8" d="M458.34,356H316.49l.13-1.17c1.63-9.67,1.06-20.4.46-31.76-.15-2.76-.29-5.55-.41-8.37-2-48.53-37.88-85.13-83.39-85.13a85.13,85.13,0,0,0-85,85c0,14.9.21,28.17,2.78,39.68l.32,1.43-1.44-.22c-10.53-1.6-46.61-7.24-68.82-12.86-22.39-5.67-23.6-8.81-22.86-12.32a3.55,3.55,0,0,0,.1-.65c0-2.57,4.16-3.74,6.35-4.17l.3-17.07a4.63,4.63,0,0,1-4.18-2.26c-1.2-2.1-.47-5.64.73-11.5.36-1.74.76-3.69,1.16-5.84,1.27-6.84.56-22.6.18-31.07-.12-2.6-.2-4.48-.2-5.41,0-4.59,6.67-8.69,26.48-20.85s64.45-28,99.65-35.46c32.55-6.87,119.37-23.47,122.86-22.3,2.47.82,3.8.11,3.85.08l.11-.05c.31-.13,31-13.16,62.65-27.33s78.23-33.48,78.69-33.68l1.38-.57Zm-139.56-2H456.34V115.17c-8,3.32-48.71,20.29-77.26,33.08l-.41-.91.41.91c-31,13.91-61.21,26.72-62.63,27.32-.43.23-2.33,1.08-5.42,0-4-.66-84.49,14.49-121.81,22.36-35,7.39-79.43,23.18-99,35.21-17.53,10.76-25.52,15.67-25.52,19.15,0,.89.09,2.85.2,5.33.38,8.55,1.09,24.46-.21,31.52-.4,2.17-.8,4.13-1.16,5.88-1,5-1.78,8.67-1,10.11,1,1.68,3.23,1.19,3.25,1.19l1.24-.28-.37,21.11-.83.13c-2.82.45-5.49,1.59-5.49,2.35a5,5,0,0,1-.14,1.06c-.32,1.51-.91,4.32,21.39,10,21.21,5.37,55.17,10.77,67.2,12.61-2.33-11.36-2.52-24.27-2.52-38.69a87.13,87.13,0,0,1,87-87c46.6,0,83.31,37.42,85.39,87,.12,2.81.26,5.59.41,8.35C319.66,334,320.21,344.43,318.78,354Z"/><path class="cls-8" d="M88.83,331.43a81.37,81.37,0,0,1-24.2-4l.66-1.89c.25.09,25.67,8.78,42.57-.24,8.75-4.67,10-24.91,10.11-29.64-5.1-.08-28.33-.27-39.23,2.49C67.26,301,67,307.09,67,307.35H65c0-.32.15-7.82,13.25-11.14,12.49-3.16,39.62-2.56,40.77-2.53l1,0v1c0,1.08-.27,26.55-11.2,32.38C102.64,330.34,95.52,331.43,88.83,331.43Z"/><path class="cls-8" d="M102.5,254.19l-1.14-3.54-5.26.54c-5,.5-13.76,1.06-13.85,1.07l-.79,0-2.6-8.41.42-.43c.14-.15,14.73-14.74,39.48-20.77s50.27-2.89,50.53-2.85l2.14.27-1.58,1.46c-.11.1-10.86,9.89-31.76,19.51S103.53,253.94,103.4,254Zm.27-5.71,1.07,3.33c3.34-.88,15.78-4.42,33.42-12.54,15.79-7.27,25.67-14.6,29.47-17.67-6.81-.6-27.48-1.83-47.48,3a88.66,88.66,0,0,0-38.1,19.82l1.77,5.74c2.27-.15,8.93-.6,13-1,5-.5,6-.62,6-.62Z"/><path class="cls-8" d="M333.74,177.17a174.84,174.84,0,0,1-20.23-1.07l.26-2c.3,0,29.76,3.79,57.49-3.08s86.85-45.23,87.44-45.62l1.09,1.68c-.6.39-60,38.92-88.06,45.88C358.34,176.3,344.54,177.17,333.74,177.17Z"/><path class="cls-8" d="M412.46,179.43c-2.45,0-4.64-.44-5.27-1.88-.81-1.87,1.11-4.34,6.23-8,15.91-11.43,46.71-24.64,47-24.77l.79,1.84c-.17.07-10.17,4.36-21.65,10.13a59.56,59.56,0,0,1,23.4-2.37l-.27,2a58.77,58.77,0,0,0-23.06,2.46c-12.09,3.82-19.52,19.16-19.59,19.31l-.22.45-.49.1A38.14,38.14,0,0,1,412.46,179.43Zm18.65-18.31a157.64,157.64,0,0,0-16.52,10c-6,4.33-5.56,5.59-5.56,5.6.38.87,4.89.87,9.44,0C419.51,174.73,423.92,166.6,431.11,161.11Z"/><polygon class="cls-8" points="396.94 187 396.73 185.01 462 178.06 462 186 460 186 460 180.28 396.94 187"/><path class="cls-8" d="M316.72,355.31c0-.15-5.06-15.15-12.82-16-8.23-.9-114.89-6.34-134.4.42-18.46,6.4-18.44,14.65-18.44,14.73l-2,.09c0-.39-.28-9.75,19.78-16.71,19.77-6.85,127-1.43,135.27-.52,9,1,14.29,16.7,14.5,17.36Z"/><path class="cls-12" d="M230.92,233.33A77.92,77.92,0,1,1,153,311.25,77.93,77.93,0,0,1,230.92,233.33Zm64.75,77.92A64.75,64.75,0,1,0,230.92,376,64.75,64.75,0,0,0,295.67,311.25Z"/><path class="cls-13" d="M287,311.25c0,.74,0,1.48,0,2.21-2.79.1-8,.17-15.81-.24-11.57-.6-19.33-4.62-20.26-7.32a1.71,1.71,0,0,1-.08-.66c.24-2.13,24.33-8.2,33.73-10.49A55.89,55.89,0,0,1,287,311.25Z"/><path class="cls-6" d="M286.95,313.46a59.07,59.07,0,0,1-.62,6.43c-.1.64-.2,1.27-.33,1.9l-.06.36c-.12.6-.25,1.19-.38,1.77,0,.1,0,.2-.07.3-.15.62-.31,1.24-.47,1.85a0,0,0,0,0,0,0c-.19.67-.38,1.34-.59,2s-.43,1.32-.67,2c-6.26-2.42-24-9.06-35.58-11.47a18.82,18.82,0,0,0,.87-12.19l1.84-.52c.93,2.7,8.69,6.72,20.26,7.32C279,313.63,284.16,313.56,286.95,313.46Z"/><path class="cls-13" d="M286.33,319.89a59.07,59.07,0,0,0,.62-6.43A54.47,54.47,0,0,1,286.33,319.89Z"/><path class="cls-13" d="M286,321.79c.13-.63.23-1.26.33-1.9C286.24,320.53,286.13,321.16,286,321.79Z"/><path class="cls-13" d="M285.56,323.92c.13-.58.26-1.17.38-1.77C285.82,322.75,285.7,323.33,285.56,323.92Z"/><path class="cls-13" d="M285,326.07c.16-.61.32-1.23.47-1.85C285.35,324.84,285.19,325.46,285,326.07Z"/><path class="cls-6" d="M284.42,328.1c.21-.66.4-1.33.59-2C284.83,326.77,284.63,327.44,284.42,328.1Z"/><path class="cls-6" d="M284.53,294.75c-.15-.5-.31-1-.48-1.49C284.22,293.75,284.38,294.25,284.53,294.75Z"/><path class="cls-6" d="M284,293.26c.17.49.33,1,.48,1.49-9.4,2.29-33.49,8.36-33.73,10.49a1.71,1.71,0,0,0,.08.66l-1.84.52a17.66,17.66,0,0,0-1.1-3c9.74-5.19,25-17.16,30.62-21.72.63,1,1.23,2,1.79,3.09.29.53.56,1.06.83,1.6s.52,1.08.77,1.62.56,1.26.83,1.89l.56,1.4a.19.19,0,0,0,0,.08c.18.46.35.93.51,1.4Z"/><path class="cls-13" d="M283.75,330.08c.24-.66.46-1.32.67-2a55.92,55.92,0,0,1-11.76,20.6c-5.76-3.76-22.22-14.74-30.37-22.54a18.75,18.75,0,0,0,5.88-7.55C259.75,321,277.49,327.66,283.75,330.08Z"/><path class="cls-6" d="M283.87,292.75c-.16-.47-.33-.94-.51-1.4C283.54,291.81,283.71,292.28,283.87,292.75Z"/><path class="cls-6" d="M283.34,291.27l-.56-1.4C283,290.33,283.16,290.8,283.34,291.27Z"/><path class="cls-6" d="M281.95,288c-.25-.54-.5-1.09-.77-1.62C281.45,286.89,281.71,287.43,281.95,288Z"/><path class="cls-6" d="M281.18,286.36c-.27-.54-.54-1.07-.83-1.6C280.64,285.29,280.92,285.82,281.18,286.36Z"/><path class="cls-6" d="M280.35,284.76c-.56-1-1.16-2.08-1.79-3.09C279.2,282.68,279.79,283.71,280.35,284.76Z"/><path class="cls-6" d="M230.92,246.5a64.75,64.75,0,1,1-64.75,64.75A64.75,64.75,0,0,1,230.92,246.5Zm56,67c0-.73,0-1.47,0-2.21a55.89,55.89,0,0,0-2.47-16.5c-.15-.5-.31-1-.48-1.49l-.18-.51c-.16-.47-.33-.94-.51-1.4a.19.19,0,0,1,0-.08c-.18-.47-.37-.94-.56-1.4-.27-.63-.54-1.26-.83-1.89s-.5-1.09-.77-1.62-.54-1.07-.83-1.6c-.56-1-1.15-2.08-1.79-3.09a55.86,55.86,0,0,0-14.62-15.74c-.49-.37-1-.72-1.5-1.06s-.86-.58-1.29-.86l-.44-.27c-.46-.3-.92-.58-1.39-.85s-1.07-.62-1.61-.91-1.09-.59-1.64-.86-1.11-.55-1.67-.8a55.58,55.58,0,0,0-22.69-5.14h-.79l-1.45,0-.73,0c-.37,0-.75,0-1.12,0-.54,0-1.09.07-1.63.12a55.8,55.8,0,0,0-35,16.53c-.46.46-.91.93-1.34,1.41a55.65,55.65,0,0,0-12.77,23,50.3,50.3,0,0,0-1.19,5.34c-.11.6-.21,1.21-.28,1.82a54.74,54.74,0,0,0-.54,7.73,55.68,55.68,0,0,0,4.67,22.42c.45,1.06.95,2.09,1.47,3.11a.41.41,0,0,1,.05.09,56.22,56.22,0,0,0,19.66,21.62l.07,0c.51.33,1,.65,1.54.95s1,.61,1.57.9,1,.55,1.52.81l.09,0c.54.28,1.08.55,1.63.8s1.11.52,1.67.75a55.48,55.48,0,0,0,21.63,4.54h.51c.59,0,1.17,0,1.75,0s1.15,0,1.72-.08,1.14-.07,1.71-.13,1.12-.11,1.67-.18h0q.85-.11,1.68-.24c.56-.08,1.12-.17,1.67-.28s1.11-.21,1.65-.33,1.09-.24,1.63-.38a55.46,55.46,0,0,0,17.23-7.53h0l1.33-.91.36-.25c.86-.61,1.7-1.24,2.52-1.9l.4-.33c.4-.31.79-.64,1.17-1s.77-.67,1.15-1q2.12-1.93,4-4.06a55.92,55.92,0,0,0,11.76-20.6c.21-.66.41-1.33.59-2a0,0,0,0,1,0,0c.17-.61.33-1.23.47-1.85,0-.1,0-.2.07-.3.14-.59.26-1.17.38-1.77l.06-.36c.13-.63.24-1.26.33-1.9A54.47,54.47,0,0,0,286.95,313.46Z"/><path class="cls-6" d="M272.66,348.7q-1.92,2.13-4,4.06c-.38.34-.76.68-1.15,1s-.77.66-1.17,1l-.4.33c-.82.65-1.66,1.29-2.52,1.9l-.36.25-1.33.91h0c-5.11-8.27-18.28-29.23-20.37-28.8l-2.25-1.2a18.17,18.17,0,0,0,3.24-2C250.44,334,266.9,344.94,272.66,348.7Z"/><path class="cls-13" d="M263.94,265.93a55.86,55.86,0,0,1,14.62,15.74c-5.66,4.56-20.88,16.53-30.62,21.72a18.78,18.78,0,0,0-5.73-7.12C247.61,286.49,259.1,271.93,263.94,265.93Z"/><path class="cls-6" d="M267.47,353.77c.39-.33.77-.67,1.15-1C268.24,353.1,267.86,353.44,267.47,353.77Z"/><path class="cls-6" d="M266.3,354.75c.4-.32.79-.64,1.17-1C267.09,354.11,266.7,354.44,266.3,354.75Z"/><path class="cls-6" d="M263.38,357c.86-.61,1.7-1.25,2.52-1.9C265.08,355.74,264.24,356.37,263.38,357Z"/><path class="cls-6" d="M263.94,265.93c-.49-.36-1-.72-1.5-1.06C262.94,265.21,263.45,265.56,263.94,265.93Z"/><path class="cls-6" d="M262.44,264.87c.5.34,1,.7,1.5,1.06-4.84,6-16.33,20.56-21.73,30.34a18.61,18.61,0,0,0-9.73-3.7l.15-1.82c2.84,0,9.09-6.15,13.25-17,2.78-7.26,4.32-12.18,5.09-14.88,1.16.45,2.31.93,3.43,1.45.56.26,1.12.52,1.67.8s1.1.56,1.64.86,1.08.6,1.61.91l1.39.85.44.27Z"/><path class="cls-6" d="M261.69,358.14l1.33-.91Z"/><path class="cls-6" d="M262.44,264.87l-1.29-.86C261.58,264.29,262,264.57,262.44,264.87Z"/><path class="cls-6" d="M260.71,263.74l-1.39-.85C259.79,263.16,260.25,263.44,260.71,263.74Z"/><path class="cls-6" d="M259.32,262.89c-.53-.31-1.06-.61-1.61-.91C258.25,262.27,258.79,262.57,259.32,262.89Z"/><path class="cls-6" d="M257.71,262c-.54-.3-1.08-.58-1.64-.86C256.62,261.39,257.17,261.68,257.71,262Z"/><path class="cls-6" d="M256.07,261.12c-.55-.28-1.11-.54-1.67-.8C255,260.57,255.52,260.84,256.07,261.12Z"/><path class="cls-13" d="M254.4,260.32c-1.12-.52-2.27-1-3.43-1.45-.77,2.7-2.31,7.62-5.09,14.88-4.16,10.85-10.41,17-13.25,17a1.57,1.57,0,0,1-.63-.13c-2-.88-.26-25.83.46-35.41l-.75,0A55.58,55.58,0,0,1,254.4,260.32Z"/><path class="cls-6" d="M249,306.42a18.82,18.82,0,0,1-.87,12.19c-5.23-1.1-9.2-1.33-10.29.08s.92,4.12,4.41,7.47a18.17,18.17,0,0,1-3.24,2,18.62,18.62,0,0,1-8.13,1.85c-.39,0-.77,0-1.16,0-.58-5.13-1.58-8.82-3.22-9.41s-3.64,2.14-5.74,6.49a19.33,19.33,0,0,1-2.49-1.91,18.79,18.79,0,0,1-5.25-8.16c4.62-2.12,7.75-4.19,7.8-5.91s-3.33-2.85-8.32-3.5a18.6,18.6,0,0,1,.81-2.88,18.8,18.8,0,0,1,7.13-9c3.44,3.73,6.37,6.07,8,5.58s1.69-3.9.83-8.68c.53,0,1.05-.07,1.59-.07s1,0,1.56.07a18.61,18.61,0,0,1,9.73,3.7c-2.34,4.22-3.54,7.54-2.6,8.92s4.14.43,8.33-1.8A17.66,17.66,0,0,1,249,306.42Zm-11.66,4.83a6.46,6.46,0,1,0-6.46,6.46A6.46,6.46,0,0,0,237.38,311.25Z"/><path class="cls-13" d="M261.67,358.15a55.46,55.46,0,0,1-17.23,7.53c-1-2.73-2.55-7.46-4.45-14.53-3.27-12.15-1.3-21.27,1.31-21.8C243.39,328.92,256.56,349.88,261.67,358.15Z"/><path class="cls-12" d="M242.21,296.27a18.78,18.78,0,0,1,5.73,7.12c-4.19,2.23-7.37,3.21-8.33,1.8S239.87,300.49,242.21,296.27Z"/><path class="cls-12" d="M248.17,318.61a18.75,18.75,0,0,1-5.88,7.55c-3.49-3.35-5.46-6.11-4.41-7.47S242.94,317.51,248.17,318.61Z"/><path class="cls-6" d="M244.44,365.68l-1.63.38q-.83.18-1.65.33c-.56.1-1.11.2-1.67.28l-1.68.24h0c-.55.07-1.11.13-1.67.18s-1.14.1-1.71.13-1.14.06-1.72.08-1.16,0-1.75,0h-1c.37-7.1,1.17-25.84-.15-37.35.39,0,.77,0,1.16,0a18.62,18.62,0,0,0,8.13-1.85l2.25,1.2c-2.61.53-4.58,9.65-1.31,21.8C241.89,358.22,243.46,363,244.44,365.68Z"/><path class="cls-6" d="M242.81,366.06l1.63-.38C243.9,365.82,243.36,366,242.81,366.06Z"/><path class="cls-6" d="M241.16,366.39q.82-.15,1.65-.33C242.27,366.18,241.71,366.29,241.16,366.39Z"/><path class="cls-6" d="M239.49,366.67c.56-.08,1.11-.18,1.67-.28C240.61,366.5,240,366.59,239.49,366.67Z"/><path class="cls-6" d="M237.81,366.91l1.68-.24Q238.66,366.81,237.81,366.91Z"/><path class="cls-6" d="M236.1,367.09c.56-.05,1.12-.11,1.67-.18C237.22,367,236.66,367,236.1,367.09Z"/><path class="cls-6" d="M234.39,367.22c.57,0,1.14-.08,1.71-.13C235.53,367.15,235,367.19,234.39,367.22Z"/><circle class="cls-12" cx="230.92" cy="311.25" r="6.46"/><path class="cls-6" d="M232.67,367.3c.58,0,1.15,0,1.72-.08C233.82,367.26,233.24,367.29,232.67,367.3Z"/><path class="cls-6" d="M232.63,290.75l-.15,1.82c-.52,0-1-.07-1.56-.07s-1.06,0-1.59.07c-2-11-8.78-29.35-11.27-35.9a56,56,0,0,1,7.93-1.28c.54-.05,1.09-.09,1.63-.12l1.12,0c.24,0,.49,0,.73,0l1.45,0h.79l.75,0c-.72,9.58-2.41,34.53-.46,35.41A1.57,1.57,0,0,0,232.63,290.75Z"/><path class="cls-13" d="M229.91,367.31h.5a55.48,55.48,0,0,1-21.63-4.54c1.83-6.75,7.15-25.64,12-35.74a18.6,18.6,0,0,0,9,2.92C231.08,341.47,230.28,360.21,229.91,367.31Z"/><path class="cls-6" d="M229.47,255.19c-.24,0-.49,0-.73,0Z"/><path class="cls-12" d="M229.33,292.57c.86,4.78.83,8.19-.83,8.68s-4.58-1.85-8-5.58A18.65,18.65,0,0,1,229.33,292.57Z"/><path class="cls-6" d="M228.74,255.22l-1.12,0C228,255.24,228.37,255.23,228.74,255.22Z"/><path class="cls-6" d="M227.62,255.27c-.54,0-1.09.07-1.63.12C226.53,255.34,227.08,255.3,227.62,255.27Z"/><path class="cls-12" d="M226.54,320.55c1.64.59,2.64,4.28,3.22,9.41a18.6,18.6,0,0,1-9-2.92C222.9,322.69,224.92,320,226.54,320.55Z"/><path class="cls-13" d="M229.33,292.57a18.65,18.65,0,0,0-8.85,3.1c-7.76-8.43-18.1-24-22.07-30.1a55.78,55.78,0,0,0-7.45,6.35,55.8,55.8,0,0,1,35-16.53,56,56,0,0,0-7.93,1.28C220.55,263.22,227.32,281.54,229.33,292.57Z"/><path class="cls-12" d="M212.54,307.56c5,.65,8.37,1.73,8.32,3.5s-3.18,3.79-7.8,5.91a18.66,18.66,0,0,1-.89-5.72A18,18,0,0,1,212.54,307.56Z"/><path class="cls-6" d="M218.31,325.13A19.33,19.33,0,0,0,220.8,327c-4.87,10.1-10.19,29-12,35.74-.56-.24-1.12-.49-1.67-.75s-1.09-.52-1.63-.8l-.09,0c-.51-.26-1-.53-1.52-.81s-1.05-.59-1.57-.9-1-.63-1.54-.95l-.07,0c-1.5-1-2.94-2-4.34-3.1,6.26-7.39,22.17-26.44,21.11-28.3a2.35,2.35,0,0,0-1.64-1Z"/><path class="cls-6" d="M220.48,295.67a18.8,18.8,0,0,0-7.13,9l-1.32-.51c1.29-2.37-2.56-10.55-12-18.14-6.45-5.21-10.79-8.25-13-9.72.82-1,1.66-2,2.55-3,.44-.48.89-1,1.34-1.41a55.78,55.78,0,0,1,7.45-6.35C202.38,271.69,212.72,287.24,220.48,295.67Z"/><path class="cls-6" d="M218.31,325.13l-2.49,1c-3.36-.75-11,1-19.5,6.46-6.31,4.1-10.38,7.11-12.64,8.87-.95-1.48-1.84-3-2.65-4.59a.41.41,0,0,0-.05-.09c-.52-1-1-2.06-1.47-3.11q-1.07-2.44-1.9-5c7-1.89,25-6.92,35.45-11.69A18.79,18.79,0,0,0,218.31,325.13Z"/><path class="cls-13" d="M217.46,327.09c1.06,1.86-14.85,20.91-21.11,28.3,1.4,1.1,2.84,2.13,4.34,3.1A56.22,56.22,0,0,1,181,336.87c.81,1.57,1.7,3.11,2.65,4.59,2.26-1.76,6.33-4.77,12.64-8.87,8.48-5.51,16.14-7.21,19.5-6.46A2.35,2.35,0,0,1,217.46,327.09Z"/><path class="cls-6" d="M212,304.17l1.32.51a18.6,18.6,0,0,0-.81,2.88c-11.29-1.47-30.83-.67-37.54-.34.09-1.24.22-2.48.38-3.7.09-.61.18-1.22.28-1.82q.47-2.72,1.19-5.34c.32-1.16.68-2.32,1.07-3.45,8.59,3.53,32.45,13.14,33.92,11.53A1.31,1.31,0,0,0,212,304.17Z"/><path class="cls-13" d="M212.54,307.56a18,18,0,0,0-.37,3.69,18.66,18.66,0,0,0,.89,5.72c-10.43,4.77-28.43,9.8-35.45,11.69q.84,2.56,1.9,5a55.68,55.68,0,0,1-4.67-22.42,54.74,54.74,0,0,1,.54-7.73c-.16,1.22-.29,2.46-.38,3.7C181.71,306.89,201.25,306.09,212.54,307.56Z"/><path class="cls-13" d="M200.08,286c9.39,7.59,13.24,15.77,12,18.14a1.31,1.31,0,0,1-.19.27c-1.47,1.61-25.33-8-33.92-11.53-.39,1.13-.75,2.29-1.07,3.45a55.65,55.65,0,0,1,12.77-23c-.89,1-1.73,2-2.55,3C189.29,277.78,193.63,280.82,200.08,286Z"/><path class="cls-6" d="M207.11,362c.55.26,1.11.51,1.67.75C208.22,362.55,207.66,362.3,207.11,362Z"/><path class="cls-6" d="M205.48,361.23c.54.28,1.08.55,1.63.8C206.56,361.78,206,361.51,205.48,361.23Z"/><path class="cls-6" d="M203.87,360.38c.5.28,1,.55,1.52.81C204.88,360.93,204.37,360.66,203.87,360.38Z"/><path class="cls-6" d="M202.3,359.48c.52.31,1.05.61,1.57.9C203.34,360.09,202.82,359.79,202.3,359.48Z"/><path class="cls-6" d="M200.76,358.53c.51.32,1,.64,1.54.95C201.78,359.18,201.27,358.86,200.76,358.53Z"/><path class="cls-13" d="M191,271.92c-.45.46-.9.93-1.34,1.41C190,272.85,190.5,272.38,191,271.92Z"/><path class="cls-13" d="M179.51,333.67c.46,1.05.95,2.09,1.47,3.11C180.46,335.76,180,334.73,179.51,333.67Z"/><path class="cls-13" d="M176.85,296.36q-.72,2.63-1.19,5.34A50.3,50.3,0,0,1,176.85,296.36Z"/><path class="cls-13" d="M175.66,301.7c-.1.6-.19,1.21-.28,1.82C175.45,302.91,175.55,302.3,175.66,301.7Z"/><path class="cls-15" d="M230.92,389.67a78.42,78.42,0,1,1,78.42-78.42A78.51,78.51,0,0,1,230.92,389.67Zm0-155.84a77.42,77.42,0,1,0,77.42,77.42A77.51,77.51,0,0,0,230.92,233.83Z"/><path class="cls-15" d="M230.92,376.5a65.25,65.25,0,1,1,65.25-65.25A65.32,65.32,0,0,1,230.92,376.5Zm0-129.5a64.25,64.25,0,1,0,64.25,64.25A64.32,64.32,0,0,0,230.92,247Z"/><path class="cls-15" d="M286.49,321.89l-1-.2c.13-.62.24-1.24.32-1.87a54.15,54.15,0,0,0,.62-6.38c0-.73,0-1.46,0-2.19a55.45,55.45,0,0,0-2.45-16.35c-.15-.5-.31-1-.48-1.47l.95-.33c.17.5.33,1,.49,1.51a56.44,56.44,0,0,1,2.49,16.64c0,.75,0,1.5-.05,2.24a55.24,55.24,0,0,1-.62,6.48Q286.69,320.94,286.49,321.89Z"/><path class="cls-15" d="M283.4,292.91c-.16-.46-.33-.93-.5-1.38l.93-.36c.18.47.35.94.52,1.42Z"/><path class="cls-15" d="M282.87,291.45c-.18-.47-.37-.93-.55-1.39l.92-.38c.19.46.38.94.56,1.41Z"/><path class="cls-15" d="M281.49,288.18c-.24-.54-.49-1.07-.76-1.59s-.54-1.07-.82-1.59c-.6-1.12-1.18-2.12-1.77-3.06a55,55,0,0,0-14.49-15.6c-.49-.37-1-.71-1.49-1.05s-.86-.58-1.28-.85l.55-.84c.43.28.87.57,1.3.87s1,.7,1.52,1.07A56,56,0,0,1,279,281.41c.61,1,1.2,2,1.81,3.12.29.53.58,1.07.84,1.62s.53,1.08.78,1.64Z"/><path class="cls-15" d="M260.44,264.16c-.45-.3-.9-.57-1.37-.84s-1.06-.62-1.6-.9-1.08-.58-1.62-.85-1.1-.55-1.65-.79a54.88,54.88,0,0,0-22.49-5.1v-1a55.85,55.85,0,0,1,22.89,5.19c.56.25,1.13.52,1.69.81s1.11.56,1.66.87,1.09.6,1.63.92.94.55,1.41.86Z"/><path class="cls-15" d="M180.53,337c-.62-1.21-1.09-2.2-1.49-3.14a56.51,56.51,0,0,1-4.17-30.42c.07-.61.17-1.23.28-1.84a51,51,0,0,1,1.2-5.38A56.4,56.4,0,0,1,189.25,273c.43-.48.89-1,1.35-1.42a56.4,56.4,0,0,1,35.34-16.67l1.64-.12c.37,0,.76,0,1.13-.05l0,1c-.36,0-.73,0-1.09,0-.54,0-1.09.07-1.62.12a55.41,55.41,0,0,0-34.72,16.38c-.46.46-.9.92-1.32,1.39a55.42,55.42,0,0,0-12.66,22.83,50.17,50.17,0,0,0-1.18,5.29c-.11.6-.21,1.2-.28,1.79A55.51,55.51,0,0,0,180,333.47c.39.92.85,1.9,1.46,3.08Z"/><path class="cls-15" d="M200.42,358.91a56.71,56.71,0,0,1-19.84-21.81l.89-.46A55.71,55.71,0,0,0,201,358.07Z"/><path class="cls-15" d="M205.16,361.64c-.52-.26-1-.54-1.54-.82s-1.06-.59-1.58-.91-1-.62-1.56-1l.54-.84c.5.33,1,.64,1.52.94s1,.61,1.56.89,1,.55,1.51.8Z"/><path class="cls-15" d="M230.41,367.82a55.83,55.83,0,0,1-21.82-4.58c-.56-.23-1.13-.49-1.69-.76s-1.09-.52-1.64-.81l.46-.89c.53.28,1.06.54,1.61.79s1.1.52,1.65.74a54.83,54.83,0,0,0,21.44,4.5Z"/><path class="cls-15" d="M232.68,367.8l0-1c.56,0,1.13,0,1.69-.08s1.13-.07,1.69-.13,1.12-.11,1.66-.18l.13,1c-.56.07-1.12.13-1.69.18s-1.15.1-1.73.13S233.26,367.79,232.68,367.8Z"/><path class="cls-15" d="M237.87,367.41l-.12-1q.85-.1,1.66-.24c.56-.08,1.11-.17,1.65-.28s1.11-.21,1.64-.33,1.08-.24,1.61-.37a54.83,54.83,0,0,0,17.08-7.46l.55.84a55.82,55.82,0,0,1-17.38,7.6c-.54.14-1.09.27-1.65.38s-1.1.23-1.66.33-1.12.2-1.69.28S238.45,367.34,237.87,367.41Z"/><path class="cls-15" d="M262,358.56l-.55-.83,1.32-.9.58.82Z"/><path class="cls-15" d="M263.67,357.39l-.58-.82c.89-.63,1.71-1.25,2.5-1.88l.63.78C265.41,356.12,264.58,356.75,263.67,357.39Z"/><path class="cls-15" d="M266.61,355.15l-.61-.79c.39-.3.77-.62,1.14-1s.77-.67,1.15-1l.67.75c-.38.34-.77.69-1.16,1S267,354.83,266.61,355.15Z"/><path class="cls-15" d="M273,349l-.74-.67A55.79,55.79,0,0,0,283.94,328c.21-.65.41-1.32.58-2l1,.26c-.18.68-.38,1.35-.6,2A56.79,56.79,0,0,1,273,349Z"/><path class="cls-15" d="M285.5,326.21l-1-.27c.17-.6.33-1.21.46-1.83l1,.22C285.83,325,285.67,325.59,285.5,326.21Z"/><path class="cls-15" d="M286,324l-1-.23c.14-.58.26-1.16.38-1.75l1,.2C286.31,322.86,286.19,323.44,286,324Z"/><path class="cls-15" d="M247.48,303.6a18.3,18.3,0,0,0-5.58-6.93l.61-.8a19.33,19.33,0,0,1,5.88,7.31Z"/><path class="cls-15" d="M220.76,296.09l-.56-.83a19.22,19.22,0,0,1,9.09-3.18l.08,1A18.24,18.24,0,0,0,220.76,296.09Z"/><path class="cls-15" d="M212.58,317.13a19.1,19.1,0,0,1-.92-5.87,18.48,18.48,0,0,1,.38-3.79l1,.21a17.52,17.52,0,0,0-.36,3.59,18.14,18.14,0,0,0,.87,5.57Z"/><path class="cls-15" d="M229.73,330.46a19.18,19.18,0,0,1-9.2-3l.54-.84a18.18,18.18,0,0,0,8.72,2.84Z"/><path class="cls-15" d="M242.59,326.56l-.61-.79a18.28,18.28,0,0,0,5.72-7.35l.92.39A19.27,19.27,0,0,1,242.59,326.56Z"/><path class="cls-15" d="M230.92,367.83l-1.54,0,0-.53c.39-7.44,1.15-26-.15-37.27-.82-7.22-2.16-8.73-2.89-9-.54-.2-2.12,0-5.12,6.24-4.79,9.92-10,28.24-12,35.65l-.15.56-.53-.23c-.57-.24-1.13-.5-1.69-.76s-1.1-.52-1.65-.81-1.12-.57-1.62-.86-1.06-.59-1.58-.91l-1.42-.87-.21-.13c-1.5-1-3-2-4.38-3.13l-.41-.32.33-.4c15.83-18.69,21.25-26.6,21-27.77a2,2,0,0,0-1.3-.68c-3.43-.76-11.1,1.18-19.12,6.39-6.21,4-10.28,7-12.61,8.85l-.43.34-.3-.46c-1-1.5-1.86-3.06-2.67-4.63l-.05-.09c-.51-1-1-2.06-1.48-3.14-.7-1.61-1.34-3.31-1.92-5.05l-.16-.5.51-.14c7.22-1.95,25.12-7,35.37-11.66,6.48-3,7.49-4.7,7.51-5.47s-1-2.09-7.88-3c-11-1.43-29.84-.71-37.45-.34l-.56,0,0-.56c.09-1.2.22-2.46.38-3.73.09-.62.18-1.23.28-1.84.3-1.78.71-3.59,1.2-5.39.32-1.16.68-2.33,1.08-3.48l.17-.5.49.2c23,9.45,32.37,12.16,33.39,11.63l.08-.13c1-1.89-2.22-9.77-11.82-17.53-6.58-5.32-11-8.35-13-9.69l-.46-.3.34-.43c.88-1.09,1.72-2.08,2.57-3,.44-.48.9-1,1.35-1.42a56.41,56.41,0,0,1,7.52-6.41l.43-.3.28.44c4,6.23,14.27,21.62,22,30,4.83,5.24,6.78,5.66,7.51,5.44.55-.16,1.71-1.28.48-8.11-2-10.79-8.52-28.64-11.25-35.81l-.2-.53.55-.13a56.55,56.55,0,0,1,8-1.29l1.65-.12,1.13-.05.47,0h.25l0,1h-.27l-.45,0-1.08,0c-.58,0-1.12.07-1.66.12a55.63,55.63,0,0,0-7.3,1.14c2.84,7.52,9.16,24.84,11.09,35.45,1,5.77.66,8.71-1.18,9.25s-4.45-1.3-8.53-5.72c-7.62-8.28-17.6-23.22-21.84-29.73a55.46,55.46,0,0,0-7,6c-.45.46-.89.92-1.33,1.4-.72.79-1.44,1.62-2.18,2.53,2.2,1.48,6.43,4.47,12.59,9.44,9.59,7.75,13.5,16.16,12.08,18.77a1.74,1.74,0,0,1-.26.36c-.46.5-1.83,2-34-11.2-.32,1-.62,1.94-.89,2.92-.48,1.76-.88,3.54-1.18,5.29-.1.59-.19,1.2-.28,1.81-.14,1-.25,2.09-.33,3.1,8-.38,26.28-1,37.06.37,6,.79,8.81,2.06,8.76,4s-2.62,3.84-8.09,6.35C203.18,322,185.8,327,178.25,329c.52,1.54,1.1,3,1.72,4.47.46,1.06,1,2.09,1.46,3.08h0a.53.53,0,0,1,.08.16c.68,1.31,1.46,2.68,2.3,4,2.4-1.85,6.37-4.75,12.24-8.56,8.63-5.61,16.35-7.32,19.88-6.53a2.81,2.81,0,0,1,2,1.2c.36.63,1.32,2.31-20.83,28.47,1.24,1,2.53,1.87,3.84,2.72l.25.15,1.4.86c.52.31,1,.61,1.56.89s1,.54,1.5.8l.09,0c.53.28,1.06.54,1.61.79l1.13.52c2.12-7.77,7.2-25.51,11.9-35.27,2.53-5.25,4.55-7.39,6.36-6.74s2.86,3.75,3.55,9.82c1.28,11.13.57,29.15.18,36.92h.48c.58,0,1.16,0,1.73,0s1.14,0,1.7-.08,1.14-.08,1.7-.13,1.11-.11,1.65-.18h.1l1.6-.23c.54-.08,1.06-.17,1.59-.27s1.16-.22,1.7-.34l1.08-.25c-1-2.82-2.5-7.43-4.27-14-2.59-9.62-2-17.85,0-21a2.76,2.76,0,0,1,1.7-1.4c.65-.13,2.61-.54,20.62,28.59l.91-.63.37-.26c.76-.54,1.57-1.15,2.49-1.87l.39-.32c.41-.32.79-.64,1.16-1s.77-.67,1.15-1c1.27-1.16,2.49-2.37,3.61-3.59-5.58-3.66-21.9-14.57-30-22.28-4.21-4-5.63-6.63-4.46-8.14s4.58-1.57,10.79-.26c11.58,2.41,29.28,9,35.18,11.31.17-.49.33-1,.49-1.48s.38-1.28.57-1.92v-.15l.06-.06c.15-.57.3-1.14.43-1.72,0-.09,0-.21.08-.33.12-.54.25-1.13.37-1.72l.06-.34c.13-.64.23-1.26.33-1.9.29-1.93.49-3.89.59-5.83-3.11.1-8.17.12-15.31-.26-11-.57-19.59-4.42-20.71-7.66a2.24,2.24,0,0,1-.11-.87c.08-.67.3-2.67,33.59-10.8-.1-.32-.21-.65-.32-1l.95-.33c.17.5.33,1,.49,1.51l.15.5-.51.12c-23.82,5.8-32.86,9.07-33.36,10.1a1.47,1.47,0,0,0,.07.42c.85,2.46,8.4,6.37,19.81,7,7.54.39,12.73.35,15.77.24l.54,0,0,.54a59.74,59.74,0,0,1-.63,6.48c-.1.65-.2,1.29-.33,1.93l-.06.34c-.12.62-.25,1.21-.38,1.8a2.9,2.9,0,0,0-.07.29c-.16.64-.32,1.27-.48,1.88l0,.15c-.18.64-.36,1.28-.56,1.9s-.43,1.33-.68,2l-.17.48-.48-.18c-5.33-2.06-23.66-9-35.5-11.45-7.39-1.55-9.31-.73-9.79-.1-.35.45-.62,2,4.36,6.8,8.24,7.88,25.27,19.2,30.3,22.48l.49.32L273,349c-1.25,1.39-2.62,2.77-4.07,4.09-.39.35-.77.69-1.17,1s-.77.66-1.18,1l-.39.32c-.94.75-1.77,1.37-2.56,1.93l-.37.26-1.31.9-.11.1h-.49l-.15-.24c-12.87-20.83-18.76-28.41-19.89-28.57a1.94,1.94,0,0,0-1,.95c-1.84,3-2.39,10.89.12,20.23,1.88,7,3.45,11.75,4.44,14.49l.19.52-.54.13-1.64.38q-.84.18-1.67.33c-.61.11-1.15.21-1.69.28l-1.69.24h-.1c-.49.07-1.06.13-1.63.18s-1.15.1-1.73.13-1.14.06-1.73.08S231.51,367.83,230.92,367.83Z"/><path class="cls-15" d="M232.63,291.25a2.06,2.06,0,0,1-.83-.17c-.6-.27-2.43-1.09.13-35.39h-.23l0-1,1.27.05,0,.52c-1.84,24.51-1.54,34.14-.72,34.94a1.21,1.21,0,0,0,.39.06c2.29,0,8.52-5.57,12.78-16.68,2.74-7.15,4.27-12,5.08-14.84l.15-.53.51.2c1.27.49,2.41,1,3.46,1.46.58.27,1.14.53,1.69.81s1.11.56,1.66.87,1.08.6,1.62.92l1.4.86-.53.85-1.38-.84-1.59-.9c-.54-.3-1.07-.57-1.62-.85s-1.08-.53-1.63-.78c-.92-.43-1.87-.83-2.92-1.25-.85,2.91-2.36,7.64-5,14.39C242.37,284.29,236,291.25,232.63,291.25Z"/><path class="cls-15" d="M241.16,306.36a2.19,2.19,0,0,1-2-.88c-1-1.47-.18-4.47,2.58-9.44,5.28-9.56,16.51-23.86,21.45-30l-1.06-.74-1.28-.85.55-.84,1.21.81h0l.08.06c.5.34,1,.71,1.51,1.07l.42.31-.33.41c-4.73,5.87-16.32,20.56-21.68,30.27-3.26,5.88-3,7.78-2.62,8.4s1.71,1.22,7.68-2c10-5.32,25.9-17.93,30.54-21.67l.44-.35.3.48c.65,1,1.26,2.1,1.81,3.12.29.53.56,1.07.84,1.61s.46.94.68,1.42l.1.21-.91.42-.1-.21c-.21-.46-.43-.93-.66-1.39s-.54-1.06-.82-1.59c-.45-.85-.95-1.72-1.48-2.58-5.15,4.14-20.49,16.21-30.26,21.42C245,305.52,242.7,306.36,241.16,306.36Z"/><polygon class="cls-15" points="282.88 291.46 282.32 290.06 283.24 289.69 283.8 291.08 282.88 291.46"/><path class="cls-15" d="M283.4,292.91c-.16-.46-.33-.93-.5-1.38l.93-.36c.18.47.35.94.52,1.42Z"/><path class="cls-15" d="M230.92,318.21a7,7,0,1,1,7-7A7,7,0,0,1,230.92,318.21Zm0-12.92a6,6,0,1,0,6,6A6,6,0,0,0,230.92,305.29Z"/><polygon class="cls-16" points="191.22 98.96 184.47 109.21 199.97 109.21 191.22 98.96"/><polygon class="cls-16" points="103 106.34 96.25 116.59 111.75 116.59 103 106.34"/><polygon class="cls-16" points="252.83 135.25 252.67 122.98 239.84 131.68 252.83 135.25"/><polygon class="cls-16" points="160.1 143.75 159.94 131.48 147.11 140.18 160.1 143.75"/><polygon class="cls-16" points="51.83 84.89 51.67 72.62 38.84 81.31 51.83 84.89"/><polygon class="cls-16" points="120.91 122.05 125.96 127.56 128.27 118.4 120.91 122.05"/><polygon class="cls-16" points="212.07 114.25 217.12 119.77 219.43 110.6 212.07 114.25"/><polygon class="cls-16" points="70.32 83.95 75.38 89.47 77.68 80.31 70.32 83.95"/><polygon class="cls-16" points="41.65 202.66 46.7 208.18 49.01 199.02 41.65 202.66"/><polygon class="cls-16" points="62.34 142.82 67.39 148.34 69.7 139.17 62.34 142.82"/><polygon class="cls-16" points="153.61 157.33 158.66 162.85 160.97 153.69 153.61 157.33"/><polygon class="cls-16" points="228.16 124.64 235.61 123.97 229.72 116.58 228.16 124.64"/><polygon class="cls-16" points="149.84 92.96 157.29 92.28 151.4 84.89 149.84 92.96"/><polygon class="cls-16" points="62.34 178.11 67 191.78 85.67 181.36 62.34 178.11"/><polygon class="cls-16" points="95.71 163.85 96.25 149.42 75.09 152.46 95.71 163.85"/><polygon class="cls-16" points="64.44 163.85 54.37 152.68 45.33 158.59 64.44 163.85"/><polygon class="cls-16" points="228.99 148.79 218.92 137.62 209.88 143.53 228.99 148.79"/><path class="cls-16" d="M301,113.86s13.47,19.72-13.09,31.95-104.16,26.83-168.29,50.25-85.51,39.1-84.76,89.75c.59,40.16,1.51,55.8,17.5,72.75C74.6,382.12,241.5,404,241.5,404S73.39,393.2,45.37,372.8c-26.58-19.35-32.7-88.06-18.72-134.14s169.76-77,229.13-88.19S301,113.86,301,113.86Z"/><path class="cls-8" d="M4.62,145.71s13-32.64,56.69-20.43,56.86,31.24,56.86,31.24l-13.28,9.21,39.45,3.56V134.06L134,142.55s-37.07-25.86-71.73-28C9.19,111.39,4.62,145.71,4.62,145.71Z"/><path class="cls-8" d="M67.32,110.34s25.14-19.11,60.31-3.89,52.11,32.41,52.11,32.41L167.57,145l32.61,7.5,4-29.49L194.6,129s-23.9-23.31-58.83-32C87.93,85,67.32,110.34,67.32,110.34Z"/><g class="cls-17"><path class="cls-6" d="M111,221.73a203.3,203.3,0,0,1,32.25-5.09,294.35,294.35,0,0,1,29.67-.08L323,189.9,304,175.47S207.16,192,174.2,200.3C146.82,207.23,111,221.73,111,221.73Z"/></g><g class="cls-17"><path class="cls-6" d="M75.87,240.43a20.8,20.8,0,0,0,.67,6.79c1.06,3.89,2.34,7.28,3.17,7.42,2.94.5,10.18-.33,16.33-1s0,5.4,9.12,3.05c9.5-2.44,20-6.64,29.72-10.89,26.28-11.42,42-27.33,42-27.33s-2,10.53-2.67,14.33c-1.79,10.66,1.14,18.22,1.14,18.22s-25.58,15.5-27.92,58.2c-1.77,32.27,3,45.41,3,45.41s-68-10.75-83.5-17.25c-1.29-.54-12.64-7.76-7.28-8.61.58-.09,1.59-2.25,5.29-2.3,5.4-.08,12.32,3.22,20.15,3.58,9.4.44,19.52-2.15,21.87-3.75,14.75-10,11.14-27.29,12-31.63.37-1.83-29.39-.64-44.51,3.63-10.31,2.91-7.5,9.36-8.49,9-2-.66-4.76-.33-4.76-3.41,0-7.08,2.44-15.07,3.38-28.62.45-6.55-2.76-21.86-.08-25.27A45.1,45.1,0,0,1,75.87,240.43Z"/></g><g class="cls-17"><path class="cls-6" d="M180.12,217.84s109-19.65,138.91-23.2c21.35-2.53,56.78,41.24,47.79,109.1-4.91,37.06-9.88,51.27-9.88,51.27s-38,.25-39.27,0c-1.53-.29,3,6.49,0-39.54-1.9-29.22-13-61.82-48.29-78.6-26.68-12.7-57.55-11.57-88.56,9.53C172.16,252.33,180.12,217.84,180.12,217.84Z"/></g><g class="cls-17"><path class="cls-6" d="M365,335.05a67.07,67.07,0,0,1-1.67,10.5c-1.31,5.3-2.42,9.58-2.42,9.58l93.92-.08-1.5-21.33Z"/></g></g><circle class="cls-7" cx="356.48" cy="68.11" r="52.36"/><path class="cls-8" d="M356.48,124.3a56.19,56.19,0,1,1,56.19-56.19A56.26,56.26,0,0,1,356.48,124.3Zm0-104.72A48.52,48.52,0,1,0,405,68.11,48.58,48.58,0,0,0,356.48,19.58Z"/><path class="cls-8" d="M351,98.25h0A5,5,0,0,1,346.82,96L326.17,64a5,5,0,1,1,8.4-5.43l16.5,25.52,26.13-39.56a5,5,0,1,1,8.34,5.51L355.19,96A5,5,0,0,1,351,98.25Z"/></g><g id="_7" data-name="7"><g class="cls-18"><g id="_Группа_4" data-name="&lt;Группа&gt;"><path class="cls-7" d="M27.68,625.6c-19.27,12.34-49.58,29.25-86.06,41-57.39,18.5-116.48,36.71-147.79,57.51-14,9.28-25.85,35.36-34.66,61.44a561.71,561.71,0,0,0-17.27,64.62S-54.44,783.09-6.45,761.53,50.3,609.8,50.3,609.8A272.75,272.75,0,0,1,27.68,625.6Zm-1720.24,0c-14.39-9.22-22.62-15.8-22.62-15.8s8.81,130.23,56.8,151.73,251.59,88.64,251.59,88.64a561.71,561.71,0,0,0-17.27-64.62c-8.81-26.08-20.68-52.16-34.6-61.44-31.37-20.79-90.46-39-147.85-57.51C-1642.93,654.85-1673.3,637.88-1692.56,625.6ZM-1596.7,163c-2.94-14.57,51.4-66.2,107.2-66.2,54,0,39.24,33,38.24,35.13L-1315-53l1,.7c-43.59,61.38-116.84,191.5-116.84,204.89,0,16.62,70.49,8.81,202.66,6.81,111.61-1.64,684.34-1.64,795.95,0,132.17,2,202.66,9.81,202.66-6.81,0-13.39-73.31-143.74-116.84-205.07l.7-.53,135.93,184.45c-2.23-3.64-11.51-22.67,38.95-22.67,55.8,0,83.3,36.83,82.53,51.69C-90,194-180,176.11-180,176.11s98.39,35,158.6,68.14S80,397.86,93.18,480.1C101.69,533,88.3,655,74.56,755.36,66.92,811.11,59.17,860.16,55,886.88c-5.4,34.36-82.71,57.86-164.89,73.31-21.73,4.05-43.76,7.58-65,10.57-73.31,10.34-135.81,14.51-135.81,14.51s-32.31-7.34-85.18-7.34-162.95,15-271.68,17.62c-81.36,1.88-244.25,1.64-325.6,0-108.73-2.23-218.81-17.62-271.68-17.62s-85.18,7.34-85.18,7.34-60.68-4.05-132.64-14c-24.08-3.41-49.4-7.4-74.19-12.22-79.89-15.45-153.61-38.59-158.84-72.13-3.52-22.56-9.57-61-16-105.85-14.86-104.21-31.43-243.42-22.2-300.93,13.22-82.24,54.34-202.66,114.55-235.85s158.6-68.14,158.6-68.14S-1593.76,177.58-1596.7,163Zm772.86,687.1c49.28-.35,373.77-4,452.43-35.19,85.18-33.78,104.27-88.11,102.8-104.27-.59-6.23-9.4-27.43-25.73-52.57-16.86-26-41.77-56.27-73.84-78.6-17.56-12.16-37.3-22-59-27.43-91.75-22.91-354.92-24.79-397.15-25-34.31.12-305.87,1.59-399.32,25a175.17,175.17,0,0,0-48.23,20.44c-36.83,22.32-65.14,55.8-83.88,84.41-16.86,25.67-26,47.4-26.49,53.75-1.47,16.15,17.62,70.49,102.8,104.27C-1198.84,846.88-859.61,849.93-823.84,850.11ZM14.11,421.83C43.48,373.83,20,319-2.57,323S-200.24,401.27-220.86,412c-24.79,12.92-97.92,94-97.92,94s30.37,29.37,54.81,30.37,40.18,1.94,140-30.37S-15.26,469.82,14.11,421.83ZM-267.26,937.75c11.75-12.69-58.74-28.37-91.81-32.31s-897.45-3.88-930.47,0-103.56,19.62-91.81,32.31,291.77,33.31,414.13,32.31,199.25-.65,285.84,0C-559,971.06-279,950.5-267.26,937.75ZM-1400.91,536.37c24.5-1,54.81-30.37,54.81-30.37s-75.37-88.11-97.86-94-195.84-85.18-218.34-89.05-46,50.87-16.62,98.86,38.18,51.87,138,84.18S-1425.41,537.37-1400.91,536.37Z"/><path class="cls-7" d="M-19.14,401.68c.94-2.06,18.86-39.89,12.69-49.87-6.4-10.28-33.78,11.28-33.78,11.28s1.94,4.41,17.5,1.47C-7.56,361.67-18.61,399.68-19.14,401.68Zm-206.71,45.76c-1.76,2.06-29.43,36.3-32.25,43.41-2.94,7.34,49.46.47,48,0s-25.55-9.93-24-18.91C-232.72,463.53-226.61,449.2-225.85,447.44Zm237-88.29C19,375.83,6.24,413-19.2,438.45s-61.68,40.18-142,58.74S-264,512.88-275.72,506s29.72-63.85,63-84.35,130-65.32,200.43-82.06C-5.16,337.88,3.3,342.53,11.17,359.15Zm-140.86,87.17c18.44,18.09,44.41,18.09,44.41,18.09S-129.81,440.8-124.93,423s11.75-25.67,3.94-23.2-14.22,11.75-14.22,11.75S-148.19,428.17-129.69,446.32Z"/><path class="cls-7" d="M-2.57,323C20,319,43.48,373.83,14.11,421.83s-38.18,51.87-138,84.18-115.54,31.37-140,30.37S-318.78,506-318.78,506s73.13-81.06,97.92-94C-200.24,401.27-25.07,326.84-2.57,323ZM-19.2,438.45C6.24,413,19,375.83,11.17,359.15s-16.33-21.26-23.5-19.56c-70.43,16.74-167.12,61.62-200.43,82.06s-74.72,77.54-63,84.35,34.31,9.81,114.55-8.81S-44.63,463.94-19.2,438.45Z"/></g><path class="cls-8" d="M-822.64,997.88c-64.12,0-128.83-.5-170.52-1.34-60.59-1.23-122.85-6.67-172.87-11-40.46-3.53-75.41-6.59-98.79-6.59-52.13,0-84.63,7.25-85,7.32l-.14,0h-.15c-.89-.06-89.56-6.05-178.53-21.12-119.84-20.3-183.11-46.58-188.06-78.11l-.64-4.07c-12.5-79.66-50.55-322.07-37.54-403,7.38-45.89,21.85-95.66,39.72-136.56,22-50.4,48.07-85,75.33-100C-1588.3,215-1508,185-1486.5,177.13c-9.77,0-30.46-.07-51.15-1.12-58-2.94-59.55-10.37-60-12.81-.8-4,2.12-10.3,8.24-17.77,15.71-19.19,56.73-49.63,99.94-49.63,20.21,0,33.3,4.58,38.88,13.62,3.63,5.87,3.29,12.31,2.28,16.9l132.57-179.9,1.61,1.19-136.35,185-1.7-1c.06-.12,5.72-11.72-.11-21.14-5.2-8.4-17.71-12.66-37.17-12.66-42.53,0-82.92,30-98.4,48.9-5.65,6.9-8.5,12.77-7.83,16.11,2,10,71.62,12.85,115,12.29l6-.08-5.69,2c-1,.35-99,35.3-158.45,68.07-26.87,14.81-52.62,49.06-74.46,99.05-17.8,40.75-32.23,90.34-39.58,136.08-13,80.65,25.05,322.82,37.54,402.4l.64,4.07c4.73,30.16,69.19,56.59,186.4,76.45,87.2,14.77,174.13,20.81,178.2,21.09,2.43-.53,34.66-7.33,85.25-7.33,23.47,0,58.45,3.06,99,6.59,50,4.37,112.21,9.8,172.74,11,79.4,1.61,242.35,2,325.6,0,59.76-1.41,118.75-6.5,170.79-11,41.35-3.56,77.07-6.64,100.91-6.64,50.59,0,82.82,6.8,85.25,7.33,4.06-.28,91-6.32,178.2-21.09C-15.16,943.3,49.3,916.87,54,886.71l.64-4.07c12.49-79.58,50.51-321.75,37.54-402.4-7.35-45.73-21.78-95.33-39.58-136.08-21.84-50-47.59-84.24-74.46-99.05C-81.28,212.34-179.3,177.38-180.28,177l.5-1.93c.65.11,65.6,10.58,85.16-4.95a13.09,13.09,0,0,0,5.37-9.75c.38-5.79-4.21-14.68-11.68-22.66-7.87-8.4-30.58-27.94-71.33-27.94-27.5,0-36,5.68-38.29,10.45-2.2,4.58.82,9.47,1.75,10.81l.29.39-1.58,1.22s-.19-.24-.42-.56l-136-184.51,1.61-1.19L-213.3,124.95a10.29,10.29,0,0,1,.93-5.55c3.68-7.7,17.17-11.6,40.1-11.6,41.53,0,64.74,20,72.79,28.57s12.64,17.75,12.22,24.16a15.18,15.18,0,0,1-6.12,11.19c-15.82,12.56-58.21,9-77.28,6.68,25.66,9.45,100.79,37.93,149.81,65,27.26,15,53.31,49.61,75.33,100C72.34,384.26,86.81,434,94.19,479.92c13,81-25,323.37-37.54,403L56,887c-4.95,31.53-68.22,57.81-188.06,78.11-89,15.07-177.64,21.06-178.53,21.12h-.15l-.14,0c-.32-.07-32.82-7.32-85-7.32-23.75,0-59.43,3.07-100.74,6.63-52.08,4.49-111.1,9.57-170.92,11C-707,997.47-764.6,997.88-822.64,997.88Z"/><path class="cls-11" d="M-444.73,130.47S-455,335.25-386.8,389.13c38,30,226,28.67,303.33,28.67,97,0,83.47,12,83.47,12l-440.13,12-14.33-8.67Z"/></g></g><g id="Numbers"><path class="cls-8" d="M12.08,35.69a9.73,9.73,0,0,1,4.7-8.3v-.1a8.24,8.24,0,0,1-3.84-6.86c0-5.09,4-8.21,8.83-8.21,4.46,0,8.07,3,8.07,7.68a8,8,0,0,1-4.08,6.91v.1a9.07,9.07,0,0,1,4.8,8.16c0,5.76-4.22,9.12-9.36,9.12C15.88,44.19,12.08,40.78,12.08,35.69Zm12.38-.38a6.42,6.42,0,0,0-3.6-5.76A6.48,6.48,0,0,0,18.18,35c0,2.69,1.1,5,3.26,5C23.41,40,24.47,38,24.47,35.31ZM18.85,20.24a5.18,5.18,0,0,0,3.07,4.7c1.34-.72,2.16-2.64,2.16-4.46,0-2.11-.72-4-2.54-4S18.85,18.32,18.85,20.24Z"/></g></g></svg>