<svg width="25" height="24" viewBox="0 0 25 24" fill="none" xmlns="http://www.w3.org/2000/svg">
<mask id="path-1-inside-1_143_618" fill="white">
<path d="M13.1003 0.411955L16.2985 7.8908L24.4142 8.61712C24.541 8.62841 24.6618 8.67668 24.7615 8.75594C24.8613 8.83521 24.9355 8.94198 24.9752 9.06305C25.0148 9.18411 25.0181 9.31414 24.9845 9.43703C24.951 9.55992 24.8821 9.67027 24.7865 9.75441L18.6443 15.1113L20.4591 23.0458C20.4884 23.1725 20.4792 23.305 20.4326 23.4263C20.386 23.5477 20.3041 23.6523 20.1975 23.7267C20.091 23.8011 19.9645 23.8419 19.8346 23.8438C19.7046 23.8458 19.577 23.8088 19.4683 23.7376L12.5001 19.575L5.51157 23.7538C5.40209 23.8192 5.27583 23.851 5.14845 23.8452C5.02108 23.8395 4.8982 23.7964 4.79506 23.7215C4.69192 23.6465 4.61307 23.5429 4.56829 23.4235C4.5235 23.3041 4.51476 23.1742 4.54315 23.0499L6.35793 15.1153L0.221859 9.75441C0.124901 9.66941 0.0553678 9.55753 0.0220753 9.43296C-0.0112172 9.30839 -0.00676941 9.17674 0.0348547 9.0547C0.0764788 8.93266 0.153404 8.82573 0.255878 8.74746C0.358352 8.6692 0.481758 8.62313 0.610449 8.61509L8.69557 7.8908L11.8999 0.411955C11.9496 0.293783 12.033 0.192904 12.1398 0.121964C12.2466 0.0510253 12.3719 0.0131836 12.5001 0.0131836C12.6283 0.0131836 12.7536 0.0510253 12.8604 0.121964C12.9672 0.192904 13.0506 0.293783 13.1003 0.411955Z"/>
</mask>
<path d="M13.1003 0.411955L11.2565 1.18694L11.2614 1.19834L13.1003 0.411955ZM16.2985 7.8908L14.4596 8.67719L14.9296 9.77628L16.1202 9.88284L16.2985 7.8908ZM24.4142 8.61712L24.2359 10.6092L24.2369 10.6092L24.4142 8.61712ZM24.7865 9.75441L26.1011 11.2617L26.1075 11.256L24.7865 9.75441ZM18.6443 15.1113L17.3297 13.604L16.4278 14.3906L16.6946 15.5572L18.6443 15.1113ZM20.4591 23.0458L18.5094 23.4918L18.5107 23.4975L20.4591 23.0458ZM19.4683 23.7376L20.5637 22.0642L20.5293 22.0417L20.4939 22.0206L19.4683 23.7376ZM12.5001 19.575L13.5258 17.858L12.4996 17.245L11.4737 17.8584L12.5001 19.575ZM5.51157 23.7538L6.53676 25.4711L6.53799 25.4704L5.51157 23.7538ZM4.54315 23.0499L2.59349 22.604L2.59334 22.6047L4.54315 23.0499ZM6.35793 15.1153L8.30758 15.5613L8.57414 14.3958L7.6738 13.6092L6.35793 15.1153ZM0.221859 9.75441L-1.09659 11.2583L-1.09402 11.2606L0.221859 9.75441ZM0.610449 8.61509L0.735149 10.6112L0.762052 10.6095L0.788899 10.6071L0.610449 8.61509ZM8.69557 7.8908L8.87402 9.88282L10.0636 9.77626L10.5339 8.67846L8.69557 7.8908ZM11.8999 0.411955L13.7383 1.19963L13.7437 1.18693L11.8999 0.411955ZM11.2614 1.19834L14.4596 8.67719L18.1374 7.10441L14.9392 -0.374434L11.2614 1.19834ZM16.1202 9.88284L24.2359 10.6092L24.5924 6.62508L16.4768 5.89876L16.1202 9.88284ZM24.2369 10.6092C23.974 10.5859 23.7237 10.4858 23.5171 10.3216L26.006 7.19028C25.5999 6.86751 25.1081 6.67097 24.5914 6.62499L24.2369 10.6092ZM23.5171 10.3216C23.3105 10.1574 23.1566 9.93614 23.0744 9.68529L26.8759 8.4408C26.7145 7.94782 26.4121 7.51303 26.006 7.19028L23.5171 10.3216ZM23.0744 9.68529C22.9923 9.43445 22.9856 9.16503 23.0551 8.9104L26.9139 9.96366C27.0505 9.46325 27.0373 8.93376 26.8759 8.4408L23.0744 9.68529ZM23.0551 8.9104C23.1246 8.65577 23.2673 8.42712 23.4654 8.25279L26.1075 11.256C26.497 10.9134 26.7773 10.4641 26.9139 9.96366L23.0551 8.9104ZM23.4719 8.24712L17.3297 13.604L19.9589 16.6185L26.101 11.2617L23.4719 8.24712ZM16.6946 15.5572L18.5094 23.4918L22.4087 22.5999L20.594 14.6653L16.6946 15.5572ZM18.5107 23.4975C18.4499 23.2351 18.469 22.9606 18.5656 22.7091L22.2996 24.1435C22.4894 23.6494 22.5269 23.1098 22.4074 22.5942L18.5107 23.4975ZM18.5656 22.7091C18.6622 22.4577 18.8318 22.241 19.0527 22.0868L21.3424 25.3666C21.7764 25.0636 22.1098 24.6376 22.2996 24.1435L18.5656 22.7091ZM19.0527 22.0868C19.2735 21.9326 19.5354 21.8481 19.8047 21.8441L19.8644 25.8436C20.3937 25.8357 20.9084 25.6696 21.3424 25.3666L19.0527 22.0868ZM19.8047 21.8441C20.074 21.84 20.3383 21.9167 20.5637 22.0642L18.3729 25.4109C18.8157 25.7008 19.3352 25.8515 19.8644 25.8436L19.8047 21.8441ZM20.4939 22.0206L13.5258 17.858L11.4744 21.2919L18.4426 25.4545L20.4939 22.0206ZM11.4737 17.8584L4.48515 22.0373L6.53799 25.4704L13.5265 21.2915L11.4737 17.8584ZM4.48638 22.0366C4.71322 21.9012 4.97483 21.8353 5.23877 21.8473L5.05814 25.8432C5.57682 25.8666 6.09096 25.7372 6.53676 25.4711L4.48638 22.0366ZM5.23877 21.8473C5.50269 21.8592 5.7573 21.9484 5.971 22.1037L3.61912 25.3392C4.0391 25.6445 4.53947 25.8197 5.05814 25.8432L5.23877 21.8473ZM5.971 22.1037C6.18471 22.259 6.34809 22.4737 6.44087 22.7211L2.6957 24.1259C2.87805 24.6121 3.19913 25.0339 3.61912 25.3392L5.971 22.1037ZM6.44087 22.7211C6.53366 22.9684 6.55177 23.2376 6.49296 23.4951L2.59334 22.6047C2.47775 23.1108 2.51335 23.6398 2.6957 24.1259L6.44087 22.7211ZM6.4928 23.4958L8.30758 15.5613L4.40827 14.6694L2.59349 22.604L6.4928 23.4958ZM7.6738 13.6092L1.53774 8.24827L-1.09402 11.2606L5.04205 16.6215L7.6738 13.6092ZM1.54031 8.25052C1.7412 8.42664 1.88528 8.65845 1.95426 8.91657L-1.91011 9.94935C-1.77454 10.4566 -1.4914 10.9122 -1.09659 11.2583L1.54031 8.25052ZM1.95426 8.91657C2.02324 9.17467 2.01403 9.44746 1.92778 9.70032L-1.85807 8.40907C-2.02757 8.90602 -2.04568 9.4421 -1.91011 9.94935L1.95426 8.91657ZM1.92778 9.70032C1.84154 9.95319 1.68215 10.1747 1.46982 10.3369L-0.958065 7.15802C-1.37534 7.47671 -1.68858 7.91213 -1.85807 8.40907L1.92778 9.70032ZM1.46982 10.3369C1.25749 10.4991 1.0018 10.5945 0.735149 10.6112L0.485749 6.61898C-0.0382815 6.65171 -0.540791 6.83932 -0.958065 7.15802L1.46982 10.3369ZM0.788899 10.6071L8.87402 9.88282L8.51712 5.89878L0.431999 6.62306L0.788899 10.6071ZM10.5339 8.67846L13.7383 1.19961L10.0616 -0.375702L6.8572 7.10314L10.5339 8.67846ZM13.7437 1.18693C13.6408 1.43178 13.4678 1.6408 13.2466 1.78779L11.033 -1.54386C10.5982 -1.255 10.2584 -0.844215 10.0562 -0.363019L13.7437 1.18693ZM13.2466 1.78779C13.0254 1.93477 12.7657 2.01318 12.5001 2.01318V-1.98682C11.9781 -1.98682 11.4678 -1.83272 11.033 -1.54386L13.2466 1.78779ZM12.5001 2.01318C12.2345 2.01318 11.9748 1.93478 11.7536 1.78779L13.9672 -1.54386C13.5324 -1.83273 13.0221 -1.98682 12.5001 -1.98682V2.01318ZM11.7536 1.78779C11.5324 1.6408 11.3594 1.43178 11.2565 1.18693L14.944 -0.363019C14.7418 -0.844215 14.402 -1.255 13.9672 -1.54386L11.7536 1.78779Z" fill="#022237" mask="url(#path-1-inside-1_143_618)"/>
</svg>
