<svg width="25" height="24" viewBox="0 0 25 24" fill="none" xmlns="http://www.w3.org/2000/svg">
<path d="M13.1003 0.411955L16.2985 7.8908L24.4142 8.61712C24.541 8.62841 24.6618 8.67668 24.7615 8.75594C24.8613 8.83521 24.9355 8.94198 24.9752 9.06305C25.0148 9.18411 25.0181 9.31414 24.9845 9.43703C24.951 9.55992 24.8821 9.67027 24.7865 9.75441L18.6443 15.1113L20.4591 23.0458C20.4884 23.1725 20.4792 23.305 20.4326 23.4263C20.386 23.5477 20.3041 23.6523 20.1975 23.7267C20.091 23.8011 19.9645 23.8419 19.8346 23.8438C19.7046 23.8458 19.577 23.8088 19.4683 23.7376L12.5001 19.575L5.51157 23.7538C5.40209 23.8192 5.27583 23.851 5.14845 23.8452C5.02108 23.8395 4.8982 23.7964 4.79506 23.7215C4.69192 23.6465 4.61307 23.5429 4.56829 23.4235C4.5235 23.3041 4.51476 23.1742 4.54315 23.0499L6.35793 15.1153L0.221859 9.75441C0.124901 9.66941 0.0553678 9.55753 0.0220753 9.43296C-0.0112172 9.30839 -0.00676941 9.17674 0.0348547 9.0547C0.0764788 8.93266 0.153404 8.82573 0.255878 8.74746C0.358352 8.6692 0.481758 8.62313 0.610449 8.61509L8.69557 7.8908L11.8999 0.411955C11.9496 0.293783 12.033 0.192904 12.1398 0.121964C12.2466 0.0510253 12.3719 0.0131836 12.5001 0.0131836C12.6283 0.0131836 12.7536 0.0510253 12.8604 0.121964C12.9672 0.192904 13.0506 0.293783 13.1003 0.411955Z" fill="#022237"/>
</svg>
