<svg width="40" height="40" viewBox="0 0 40 40" fill="none" xmlns="http://www.w3.org/2000/svg">
<path fill-rule="evenodd" clip-rule="evenodd" d="M19.9989 1.96897e-05C24.6278 -0.00130345 29.1139 1.60251 32.6928 4.53816C36.2717 7.47381 38.7219 11.5596 39.6259 16.0994C40.5299 20.6391 39.8317 25.3519 37.6503 29.4346C35.469 33.5172 31.9394 36.7172 27.6631 38.4891C23.3868 40.2611 18.6284 40.4954 14.1987 39.1521C9.76904 37.8088 5.94221 34.971 3.37034 31.1224C0.798482 27.2737 -0.359265 22.6524 0.0943929 18.0458C0.548051 13.4392 2.58504 9.13242 5.85825 5.8594C7.71265 3.99881 9.91666 2.52328 12.3435 1.51769C14.7703 0.51211 17.372 -0.00367312 19.9989 1.96897e-05V1.96897e-05ZM15.6564 18.291C16.3028 19.4953 17.1003 20.6122 18.0295 21.6146C19.1113 22.7505 20.3838 23.6881 21.7892 24.3848C21.8399 24.4095 21.8956 24.4224 21.952 24.4224C22.0084 24.4224 22.0641 24.4095 22.1148 24.3848C22.2851 24.3064 22.4387 24.1959 22.5672 24.0593C22.7145 23.9036 22.8525 23.7395 22.9806 23.5677C23.5829 22.7735 24.3316 21.7871 25.3862 22.2656L25.4513 22.3015L28.9702 24.3392L29.006 24.362C29.2206 24.5169 29.3928 24.7233 29.5066 24.9622C29.6204 25.2012 29.6721 25.465 29.6571 25.7292C29.6332 26.3455 29.4564 26.9462 29.1428 27.4772C28.7539 28.1451 28.1604 28.6701 27.45 28.9746C26.7929 29.2584 26.0994 29.449 25.3895 29.541C24.3197 29.6975 23.2283 29.6062 22.1994 29.2741C21.0691 28.896 19.9916 28.3753 18.993 27.7246L18.8954 27.6693C18.3745 27.3438 17.8114 26.9955 17.2678 26.5853C15.0635 24.9223 13.2196 22.8293 11.8478 20.433C10.7215 18.3952 10.1095 16.2012 10.4416 14.1048C10.5804 12.9878 11.1277 11.9616 11.978 11.224C12.8486 10.5607 13.9469 10.2704 15.0314 10.4167C15.1049 10.4219 15.1759 10.4455 15.2379 10.4853C15.3 10.5251 15.3509 10.5799 15.3862 10.6446L17.6454 14.4531C17.7958 14.6253 17.8939 14.837 17.9279 15.0631C17.9619 15.2892 17.9305 15.5203 17.8374 15.7292C17.64 16.1254 17.3412 16.4623 16.9715 16.7057C16.8511 16.8099 16.7046 16.9141 16.5516 17.0313C16.047 17.3959 15.4709 17.819 15.6694 18.3334V18.3171L15.6564 18.291Z" fill="#612330"/>
</svg>
