<svg width="41" height="41" viewBox="0 0 41 41" fill="none" xmlns="http://www.w3.org/2000/svg">
<path d="M29.4688 29.4688H11.1818L6.71401 4.8958C6.66033 4.60059 6.50475 4.33358 6.27438 4.14132C6.04402 3.94906 5.75348 3.84375 5.45343 3.84375H2.5625" stroke="white" stroke-width="2" stroke-linecap="round" stroke-linejoin="round"/>
<path d="M12.8125 35.875C14.5815 35.875 16.0156 34.4409 16.0156 32.6719C16.0156 30.9028 14.5815 29.4688 12.8125 29.4688C11.0435 29.4688 9.60938 30.9028 9.60938 32.6719C9.60938 34.4409 11.0435 35.875 12.8125 35.875Z" stroke="white" stroke-width="2" stroke-linecap="round" stroke-linejoin="round"/>
<path d="M29.4688 35.875C31.2378 35.875 32.6719 34.4409 32.6719 32.6719C32.6719 30.9028 31.2378 29.4688 29.4688 29.4688C27.6997 29.4688 26.2656 30.9028 26.2656 32.6719C26.2656 34.4409 27.6997 35.875 29.4688 35.875Z" stroke="white" stroke-width="2" stroke-linecap="round" stroke-linejoin="round"/>
<path d="M10.017 23.0625H30.1256C30.7257 23.0625 31.3068 22.8519 31.7675 22.4674C32.2282 22.0828 32.5394 21.5488 32.6468 20.9584L34.5938 10.25H7.6875" stroke="white" stroke-width="2" stroke-linecap="round" stroke-linejoin="round"/>
</svg>
