<svg width="244" height="36" viewBox="0 0 244 36" fill="none" xmlns="http://www.w3.org/2000/svg">
<path d="M13.5942 16.8C15.1622 16.8 16.3569 16.4453 17.1782 15.736C18.0369 14.9893 18.4662 13.8693 18.4662 12.376C18.4662 10.9573 18.0182 9.87467 17.1222 9.128C16.2635 8.344 14.9942 7.952 13.3142 7.952C12.7169 7.952 12.2129 7.97067 11.8022 8.008C11.4289 8.008 11.0369 8.04533 10.6262 8.12V16.8H13.5942ZM10.6822 34.776C10.2715 34.888 9.61819 35 8.72219 35.112C7.86352 35.224 7.00485 35.28 6.14619 35.28C5.28752 35.28 4.52219 35.2053 3.85019 35.056C3.21552 34.944 2.67419 34.72 2.22619 34.384C1.77819 34.048 1.44219 33.5813 1.21819 32.984C0.994188 32.3867 0.882188 31.6027 0.882188 30.632V4.256C0.882188 3.472 1.08752 2.87466 1.49819 2.464C1.94619 2.016 2.54352 1.66133 3.29019 1.4C4.55952 0.951998 5.99685 0.634664 7.60219 0.447998C9.24485 0.223998 10.8875 0.111999 12.5302 0.111999C17.6822 0.111999 21.6209 1.21333 24.3462 3.416C27.0715 5.61867 28.4342 8.60533 28.4342 12.376C28.4342 14.2053 28.1355 15.8667 27.5382 17.36C26.9782 18.816 26.1195 20.0853 24.9622 21.168C23.8422 22.2133 22.4049 23.0347 20.6502 23.632C18.9329 24.192 16.9355 24.472 14.6582 24.472H10.6822V34.776ZM41.1195 34.944C40.7462 35.056 40.1488 35.168 39.3275 35.28C38.5435 35.392 37.7222 35.448 36.8635 35.448C36.0422 35.448 35.2955 35.392 34.6235 35.28C33.9888 35.168 33.4475 34.944 32.9995 34.608C32.5515 34.272 32.1968 33.824 31.9355 33.264C31.7115 32.6667 31.5995 31.9013 31.5995 30.968V14.168C31.5995 13.3093 31.7488 12.5813 32.0475 11.984C32.3835 11.3493 32.8502 10.7893 33.4475 10.304C34.0448 9.81867 34.7728 9.38933 35.6315 9.016C36.5275 8.60533 37.4795 8.25067 38.4875 7.952C39.4955 7.65333 40.5408 7.42933 41.6235 7.28C42.7062 7.09333 43.7888 7 44.8715 7C46.6635 7 48.0822 7.35467 49.1275 8.064C50.1728 8.736 50.6955 9.856 50.6955 11.424C50.6955 11.9467 50.6208 12.4693 50.4715 12.992C50.3222 13.4773 50.1355 13.9253 49.9115 14.336C49.1275 14.336 48.3248 14.3733 47.5035 14.448C46.6822 14.5227 45.8795 14.6347 45.0955 14.784C44.3115 14.9333 43.5648 15.1013 42.8555 15.288C42.1835 15.4373 41.6048 15.624 41.1195 15.848V34.944ZM81.7519 21.392C81.7519 23.7067 81.3972 25.7787 80.6879 27.608C79.9785 29.4 78.9705 30.912 77.6639 32.144C76.3945 33.376 74.8639 34.3093 73.0719 34.944C71.2799 35.5787 69.2825 35.896 67.0799 35.896C64.8772 35.896 62.8799 35.56 61.0879 34.888C59.2959 34.216 57.7465 33.264 56.4399 32.032C55.1705 30.7627 54.1812 29.232 53.4719 27.44C52.7625 25.648 52.4079 23.632 52.4079 21.392C52.4079 19.1893 52.7625 17.192 53.4719 15.4C54.1812 13.608 55.1705 12.096 56.4399 10.864C57.7465 9.59466 59.2959 8.624 61.0879 7.952C62.8799 7.28 64.8772 6.944 67.0799 6.944C69.2825 6.944 71.2799 7.29866 73.0719 8.008C74.8639 8.68 76.3945 9.65067 77.6639 10.92C78.9705 12.152 79.9785 13.664 80.6879 15.456C81.3972 17.248 81.7519 19.2267 81.7519 21.392ZM62.1519 21.392C62.1519 23.6693 62.5812 25.424 63.4399 26.656C64.3359 27.8507 65.5679 28.448 67.1359 28.448C68.7039 28.448 69.8985 27.832 70.7199 26.6C71.5785 25.368 72.0079 23.632 72.0079 21.392C72.0079 19.152 71.5785 17.4347 70.7199 16.24C69.8612 15.008 68.6479 14.392 67.0799 14.392C65.5119 14.392 64.2985 15.008 63.4399 16.24C62.5812 17.4347 62.1519 19.152 62.1519 21.392ZM95.9164 25.648C95.9164 26.6187 96.215 27.3093 96.8124 27.72C97.447 28.1307 98.3244 28.336 99.4444 28.336C100.004 28.336 100.583 28.2987 101.18 28.224C101.778 28.112 102.3 27.9813 102.748 27.832C103.084 28.2427 103.364 28.7093 103.588 29.232C103.85 29.7173 103.98 30.3147 103.98 31.024C103.98 32.4427 103.439 33.6 102.356 34.496C101.311 35.392 99.4444 35.84 96.7564 35.84C93.471 35.84 90.9324 35.0933 89.1404 33.6C87.3857 32.1067 86.5084 29.68 86.5084 26.32V2.352C86.919 2.24 87.4977 2.128 88.2444 2.016C89.0284 1.86666 89.8497 1.792 90.7084 1.792C92.351 1.792 93.6204 2.09066 94.5164 2.688C95.4497 3.248 95.9164 4.46133 95.9164 6.328V9.912H103.252C103.476 10.3227 103.682 10.8453 103.868 11.48C104.092 12.0773 104.204 12.7493 104.204 13.496C104.204 14.8027 103.906 15.7547 103.308 16.352C102.748 16.912 101.983 17.192 101.012 17.192H95.9164V25.648ZM122.882 35.896C120.679 35.896 118.626 35.5973 116.722 35C114.855 34.3653 113.213 33.432 111.794 32.2C110.413 30.968 109.311 29.4187 108.49 27.552C107.706 25.6853 107.314 23.5013 107.314 21C107.314 18.536 107.706 16.4267 108.49 14.672C109.311 12.88 110.375 11.424 111.682 10.304C112.989 9.14667 114.482 8.30666 116.162 7.784C117.842 7.224 119.559 6.944 121.314 6.944C123.293 6.944 125.085 7.24266 126.69 7.84C128.333 8.43733 129.733 9.25867 130.89 10.304C132.085 11.3493 132.999 12.6 133.634 14.056C134.306 15.512 134.642 17.0987 134.642 18.816C134.642 20.0853 134.287 21.056 133.578 21.728C132.869 22.4 131.879 22.8293 130.61 23.016L116.778 25.088C117.189 26.32 118.029 27.2533 119.298 27.888C120.567 28.4853 122.023 28.784 123.666 28.784C125.197 28.784 126.634 28.5973 127.978 28.224C129.359 27.8133 130.479 27.3467 131.338 26.824C131.935 27.1973 132.439 27.72 132.85 28.392C133.261 29.064 133.466 29.7733 133.466 30.52C133.466 32.2 132.682 33.4507 131.114 34.272C129.919 34.9067 128.575 35.336 127.082 35.56C125.589 35.784 124.189 35.896 122.882 35.896ZM121.314 13.888C120.418 13.888 119.634 14.0373 118.962 14.336C118.327 14.6347 117.805 15.0267 117.394 15.512C116.983 15.96 116.666 16.4827 116.442 17.08C116.255 17.64 116.143 18.2187 116.106 18.816L125.682 17.248C125.57 16.5013 125.159 15.7547 124.45 15.008C123.741 14.2613 122.695 13.888 121.314 13.888ZM154.569 14.448C153.635 14.448 152.739 14.5973 151.881 14.896C151.059 15.1947 150.331 15.6427 149.697 16.24C149.099 16.8 148.614 17.5093 148.241 18.368C147.867 19.2267 147.681 20.2347 147.681 21.392C147.681 23.7067 148.334 25.4427 149.641 26.6C150.985 27.7573 152.609 28.336 154.513 28.336C155.633 28.336 156.603 28.2053 157.425 27.944C158.246 27.6827 158.974 27.4027 159.609 27.104C160.355 27.6267 160.915 28.2053 161.289 28.84C161.662 29.4373 161.849 30.1653 161.849 31.024C161.849 32.5547 161.121 33.7493 159.665 34.608C158.209 35.4293 156.193 35.84 153.617 35.84C151.265 35.84 149.137 35.504 147.233 34.832C145.329 34.1227 143.686 33.152 142.305 31.92C140.961 30.6507 139.915 29.1387 139.169 27.384C138.422 25.6293 138.049 23.688 138.049 21.56C138.049 19.096 138.441 16.9493 139.225 15.12C140.046 13.2533 141.147 11.7227 142.529 10.528C143.91 9.33333 145.497 8.43733 147.289 7.84C149.118 7.24266 151.041 6.944 153.057 6.944C155.745 6.944 157.817 7.42933 159.273 8.4C160.729 9.37067 161.457 10.6213 161.457 12.152C161.457 12.8613 161.289 13.5333 160.953 14.168C160.617 14.7653 160.225 15.288 159.777 15.736C159.142 15.4373 158.377 15.1573 157.481 14.896C156.585 14.5973 155.614 14.448 154.569 14.448ZM178.271 28.952C178.906 28.952 179.596 28.896 180.343 28.784C181.127 28.6347 181.706 28.448 182.079 28.224V23.744L178.047 24.08C177.002 24.1547 176.143 24.3787 175.471 24.752C174.799 25.1253 174.463 25.6853 174.463 26.432C174.463 27.1787 174.743 27.7947 175.303 28.28C175.9 28.728 176.89 28.952 178.271 28.952ZM177.823 6.944C179.839 6.944 181.668 7.14933 183.311 7.56C184.991 7.97067 186.41 8.60533 187.567 9.464C188.762 10.2853 189.676 11.3493 190.311 12.656C190.946 13.9253 191.263 15.4373 191.263 17.192V29.736C191.263 30.7067 190.983 31.5093 190.423 32.144C189.9 32.7413 189.266 33.264 188.519 33.712C186.092 35.168 182.676 35.896 178.271 35.896C176.292 35.896 174.5 35.7093 172.895 35.336C171.327 34.9627 169.964 34.4027 168.807 33.656C167.687 32.9093 166.81 31.9573 166.175 30.8C165.578 29.6427 165.279 28.2987 165.279 26.768C165.279 24.192 166.044 22.2133 167.575 20.832C169.106 19.4507 171.476 18.592 174.687 18.256L182.023 17.472V17.08C182.023 15.9973 181.538 15.232 180.567 14.784C179.634 14.2987 178.271 14.056 176.479 14.056C175.06 14.056 173.679 14.2053 172.335 14.504C170.991 14.8027 169.778 15.176 168.695 15.624C168.21 15.288 167.799 14.784 167.463 14.112C167.127 13.4027 166.959 12.6747 166.959 11.928C166.959 10.9573 167.183 10.192 167.631 9.632C168.116 9.03467 168.844 8.53067 169.815 8.12C170.898 7.70933 172.167 7.41067 173.623 7.224C175.116 7.03733 176.516 6.944 177.823 6.944ZM206.604 34.944C206.231 35.056 205.633 35.168 204.812 35.28C204.028 35.392 203.207 35.448 202.348 35.448C201.527 35.448 200.78 35.392 200.108 35.28C199.473 35.168 198.932 34.944 198.484 34.608C198.036 34.272 197.681 33.824 197.42 33.264C197.196 32.6667 197.084 31.9013 197.084 30.968V14.168C197.084 13.3093 197.233 12.5813 197.532 11.984C197.868 11.3493 198.335 10.7893 198.932 10.304C199.529 9.81867 200.257 9.38933 201.116 9.016C202.012 8.60533 202.964 8.25067 203.972 7.952C204.98 7.65333 206.025 7.42933 207.108 7.28C208.191 7.09333 209.273 7 210.356 7C212.148 7 213.567 7.35467 214.612 8.064C215.657 8.736 216.18 9.856 216.18 11.424C216.18 11.9467 216.105 12.4693 215.956 12.992C215.807 13.4773 215.62 13.9253 215.396 14.336C214.612 14.336 213.809 14.3733 212.988 14.448C212.167 14.5227 211.364 14.6347 210.58 14.784C209.796 14.9333 209.049 15.1013 208.34 15.288C207.668 15.4373 207.089 15.624 206.604 15.848V34.944ZM243.067 26.88C243.067 29.7173 242.003 31.9387 239.875 33.544C237.747 35.1493 234.611 35.952 230.467 35.952C228.899 35.952 227.443 35.84 226.099 35.616C224.755 35.392 223.598 35.056 222.627 34.608C221.694 34.1227 220.947 33.5253 220.387 32.816C219.865 32.1067 219.603 31.2667 219.603 30.296C219.603 29.4 219.79 28.6533 220.163 28.056C220.537 27.4213 220.985 26.8987 221.507 26.488C222.59 27.0853 223.822 27.6267 225.203 28.112C226.622 28.56 228.246 28.784 230.075 28.784C231.233 28.784 232.11 28.616 232.707 28.28C233.342 27.944 233.659 27.496 233.659 26.936C233.659 26.4133 233.435 26.0027 232.987 25.704C232.539 25.4053 231.793 25.1627 230.747 24.976L229.067 24.64C225.819 24.0053 223.393 23.016 221.787 21.672C220.219 20.2907 219.435 18.3307 219.435 15.792C219.435 14.4107 219.734 13.16 220.331 12.04C220.929 10.92 221.769 9.98667 222.851 9.24C223.934 8.49333 225.222 7.91467 226.715 7.504C228.246 7.09333 229.926 6.888 231.755 6.888C233.137 6.888 234.425 7 235.619 7.224C236.851 7.41067 237.915 7.70933 238.811 8.12C239.707 8.53067 240.417 9.072 240.939 9.744C241.462 10.3787 241.723 11.144 241.723 12.04C241.723 12.8987 241.555 13.6453 241.219 14.28C240.921 14.8773 240.529 15.3813 240.043 15.792C239.745 15.6053 239.297 15.4187 238.699 15.232C238.102 15.008 237.449 14.8213 236.739 14.672C236.03 14.4853 235.302 14.336 234.555 14.224C233.846 14.112 233.193 14.056 232.595 14.056C231.363 14.056 230.411 14.2053 229.739 14.504C229.067 14.7653 228.731 15.1947 228.731 15.792C228.731 16.2027 228.918 16.5387 229.291 16.8C229.665 17.0613 230.374 17.304 231.419 17.528L233.155 17.92C236.739 18.7413 239.278 19.88 240.771 21.336C242.302 22.7547 243.067 24.6027 243.067 26.88Z" fill="white"/>
</svg>
