<svg width="65" height="52" viewBox="0 0 65 52" fill="none" xmlns="http://www.w3.org/2000/svg">
<g filter="url(#filter0_dd_263_190)">
<rect x="4.5" y="6.5" width="56" height="39" rx="3.5" fill="#006FCF" stroke="#F3F3F3"/>
<path fill-rule="evenodd" clip-rule="evenodd" d="M15.6583 34.8937V26.6592H24.8212L25.8043 27.8787L26.8199 26.6592H60.079V34.3258C60.079 34.3258 59.2092 34.8855 58.2033 34.8937H39.787L38.6787 33.5957V34.8937H35.0466V32.6779C35.0466 32.6779 34.5504 32.9872 33.4778 32.9872H32.2415V34.8937H26.7422L25.7605 33.6481L24.7638 34.8937H15.6583ZM4.98242 20.4529L7.04401 15.8691H10.6093L11.7793 18.4368V15.8691H16.2113L16.9078 17.7249L17.583 15.8691H37.478V16.8021C37.478 16.8021 38.5239 15.8691 40.2427 15.8691L46.6979 15.8907L47.8477 18.4247V15.8691H51.5566L52.5774 17.3247V15.8691H56.3204V24.1037H52.5774L51.5992 22.6434V24.1037H46.1499L45.6019 22.8056H44.137L43.5979 24.1037H39.9024C38.4235 24.1037 37.478 23.1897 37.478 23.1897V24.1037H31.9061L30.8003 22.8056V24.1037H10.0811L9.53351 22.8056H8.07324L7.52949 24.1037H4.98242V20.4529ZM4.99306 23.05L7.77368 16.8843H9.88175L12.6597 23.05H10.8095L10.2991 21.8154H7.31645L6.80339 23.05H4.99306ZM9.71162 20.4768L8.80246 18.3192L7.89065 20.4768H9.71162ZM12.8511 23.049V16.8832L15.4237 16.8924L16.92 20.8676L18.3805 16.8832H20.9325V23.049H19.3162V18.5058L17.6029 23.049H16.1855L14.4674 18.5058V23.049H12.8511ZM22.0384 23.049V16.8832H27.3125V18.2624H23.6717V19.3171H27.2275V20.6151H23.6717V21.7104H27.3125V23.049H22.0384ZM28.2483 23.05V16.8843H31.845C33.0368 16.8843 34.1046 17.5871 34.1046 18.8846C34.1046 19.9938 33.2043 20.7082 32.3315 20.7784L34.4582 23.05H32.483L30.5451 20.8596H29.8645V23.05H28.2483ZM31.7121 18.2635H29.8645V19.5615H31.736C32.06 19.5615 32.4777 19.3221 32.4777 18.9125C32.4777 18.5941 32.1553 18.2635 31.7121 18.2635ZM36.4147 23.049H34.7644V16.8832H36.4147V23.049ZM40.3278 23.049H39.9716C38.248 23.049 37.2016 21.754 37.2016 19.9915C37.2016 18.1854 38.2363 16.8832 40.4129 16.8832H42.1993V18.3436H40.3475C39.464 18.3436 38.8391 19.0012 38.8391 20.0067C38.8391 21.2008 39.5536 21.7023 40.583 21.7023H41.0083L40.3278 23.049ZM41.0641 23.05L43.8448 16.8843H45.9528L48.7308 23.05H46.8806L46.3702 21.8154H43.3875L42.8745 23.05H41.0641ZM45.7827 20.4768L44.8736 18.3192L43.9617 20.4768H45.7827ZM48.9196 23.049V16.8832H50.9745L53.5982 20.7571V16.8832H55.2145V23.049H53.2261L50.5358 19.0737V23.049H48.9196ZM16.7642 33.8391V27.6733H22.0384V29.0525H18.3975V30.1072H21.9533V31.4052H18.3975V32.5005H22.0384V33.8391H16.7642ZM42.6076 33.8391V27.6733H47.8817V29.0525H44.2409V30.1072H47.7797V31.4052H44.2409V32.5005H47.8817V33.8391H42.6076ZM22.2431 33.8391L24.811 30.7942L22.1819 27.6733H24.2182L25.784 29.6026L27.3551 27.6733H29.3116L26.7171 30.7562L29.2897 33.8391H27.2538L25.7335 31.9402L24.2501 33.8391H22.2431ZM29.4817 33.8401V27.6744H33.0519C34.5168 27.6744 35.3726 28.5748 35.3726 29.7482C35.3726 31.1647 34.2815 31.893 32.8419 31.893H31.1405V33.8401H29.4817ZM32.9323 29.0687H31.1405V30.4885H32.927C33.399 30.4885 33.7298 30.1901 33.7298 29.7786C33.7298 29.3406 33.3973 29.0687 32.9323 29.0687ZM36.0744 33.8391V27.6733H39.6712C40.8629 27.6733 41.9308 28.3761 41.9308 29.6736C41.9308 30.7828 41.0305 31.4972 40.1576 31.5675L42.2843 33.8391H40.3092L38.3712 31.6486H37.6907V33.8391H36.0744ZM39.5383 29.0525H37.6907V30.3505H39.5622C39.8861 30.3505 40.3039 30.1112 40.3039 29.7015C40.3039 29.3831 39.9815 29.0525 39.5383 29.0525ZM48.6303 33.8391V32.5005H51.865C52.3436 32.5005 52.5509 32.2538 52.5509 31.9833C52.5509 31.7241 52.3443 31.462 51.865 31.462H50.4033C49.1327 31.462 48.4251 30.7237 48.4251 29.6153C48.4251 28.6267 49.0731 27.6733 50.9612 27.6733H54.1087L53.4281 29.0606H50.706C50.1856 29.0606 50.0254 29.321 50.0254 29.5697C50.0254 29.8253 50.2234 30.1072 50.6209 30.1072H52.1521C53.5685 30.1072 54.1831 30.8734 54.1831 31.8768C54.1831 32.9555 53.4982 33.8391 52.075 33.8391H48.6303ZM54.3256 33.8391V32.5005H57.5603C58.0389 32.5005 58.2461 32.2538 58.2461 31.9833C58.2461 31.7241 58.0395 31.462 57.5603 31.462H56.0985C54.828 31.462 54.1204 30.7237 54.1204 29.6153C54.1204 28.6267 54.7684 27.6733 56.6564 27.6733H59.8039L59.1234 29.0606H56.4012C55.8809 29.0606 55.7207 29.321 55.7207 29.5697C55.7207 29.8253 55.9186 30.1072 56.3161 30.1072H57.8474C59.2637 30.1072 59.8783 30.8734 59.8783 31.8768C59.8783 32.9555 59.1935 33.8391 57.7702 33.8391H54.3256Z" fill="white"/>
</g>
<defs>
<filter id="filter0_dd_263_190" x="0" y="0" width="65" height="52" filterUnits="userSpaceOnUse" color-interpolation-filters="sRGB">
<feFlood flood-opacity="0" result="BackgroundImageFix"/>
<feColorMatrix in="SourceAlpha" type="matrix" values="0 0 0 0 0 0 0 0 0 0 0 0 0 0 0 0 0 0 127 0" result="hardAlpha"/>
<feOffset dy="2"/>
<feGaussianBlur stdDeviation="2"/>
<feComposite in2="hardAlpha" operator="out"/>
<feColorMatrix type="matrix" values="0 0 0 0 0 0 0 0 0 0 0 0 0 0 0 0 0 0 0.25 0"/>
<feBlend mode="normal" in2="BackgroundImageFix" result="effect1_dropShadow_263_190"/>
<feColorMatrix in="SourceAlpha" type="matrix" values="0 0 0 0 0 0 0 0 0 0 0 0 0 0 0 0 0 0 127 0" result="hardAlpha"/>
<feOffset dy="-2"/>
<feGaussianBlur stdDeviation="2"/>
<feComposite in2="hardAlpha" operator="out"/>
<feColorMatrix type="matrix" values="0 0 0 0 0 0 0 0 0 0 0 0 0 0 0 0 0 0 0.25 0"/>
<feBlend mode="normal" in2="effect1_dropShadow_263_190" result="effect2_dropShadow_263_190"/>
<feBlend mode="normal" in="SourceGraphic" in2="effect2_dropShadow_263_190" result="shape"/>
</filter>
</defs>
</svg>
