<svg width="65" height="52" viewBox="0 0 65 52" fill="none" xmlns="http://www.w3.org/2000/svg">
<g filter="url(#filter0_dd_263_281)">
<rect x="4.5" y="6.5" width="56" height="39" rx="3.5" fill="white" stroke="#F3F3F3"/>
<path fill-rule="evenodd" clip-rule="evenodd" d="M21.2743 20.9265C20.8597 21.4313 20.1963 21.8294 19.5329 21.7725C19.45 21.09 19.7748 20.3649 20.1549 19.9171C20.5695 19.3981 21.295 19.0284 21.8824 19C21.9515 19.7109 21.682 20.4076 21.2743 20.9265ZM21.8754 21.9076C21.291 21.873 20.7578 22.0884 20.3271 22.2624L20.3271 22.2624C20.0499 22.3744 19.8152 22.4692 19.6366 22.4692C19.4362 22.4692 19.1918 22.3693 18.9174 22.2571C18.5578 22.1102 18.1467 21.9422 17.7156 21.9502C16.7275 21.9645 15.8084 22.5403 15.304 23.4573C14.2675 25.2915 15.0345 28.0071 16.0365 29.5C16.5271 30.2393 17.1144 31.0498 17.8884 31.0213C18.2288 31.0081 18.4738 30.9012 18.7272 30.7905C19.019 30.6631 19.3222 30.5308 19.7955 30.5308C20.2525 30.5308 20.5423 30.6597 20.8206 30.7834C21.0852 30.9011 21.3393 31.014 21.7165 31.0071C22.5181 30.9929 23.0225 30.2678 23.5131 29.5284C24.0426 28.7349 24.2752 27.9605 24.3105 27.843L24.3147 27.8294C24.3138 27.8285 24.3073 27.8254 24.2958 27.82C24.1188 27.7366 22.766 27.0995 22.753 25.391C22.74 23.957 23.826 23.2304 23.997 23.116C24.0074 23.109 24.0144 23.1043 24.0176 23.1019C23.3266 22.0498 22.2486 21.936 21.8754 21.9076ZM27.4242 30.9289V19.846H31.4666C33.5534 19.846 35.0114 21.3246 35.0114 23.4858C35.0114 25.6469 33.5257 27.1398 31.4113 27.1398H29.0964V30.9289H27.4242ZM29.0964 21.2962H31.0243C32.4754 21.2962 33.3046 22.0924 33.3046 23.4929C33.3046 24.8934 32.4754 25.6967 31.0174 25.6967H29.0964V21.2962ZM40.5325 29.5995C40.0903 30.4668 39.1159 31.0142 38.0656 31.0142C36.5109 31.0142 35.426 30.0616 35.426 28.6256C35.426 27.2038 36.4763 26.3863 38.418 26.2654L40.5049 26.1374V25.5261C40.5049 24.6232 39.9313 24.1327 38.9086 24.1327C38.0656 24.1327 37.4506 24.5806 37.3263 25.263H35.8199C35.8682 23.827 37.1811 22.782 38.957 22.782C40.8711 22.782 42.1149 23.8128 42.1149 25.4123V30.9289H40.5671V29.5995H40.5325ZM38.5148 29.6991C37.6234 29.6991 37.0568 29.2583 37.0568 28.5829C37.0568 27.8863 37.6027 27.481 38.6461 27.4171L40.5049 27.2962V27.9218C40.5049 28.9597 39.648 29.6991 38.5148 29.6991ZM47.249 31.3626C46.5788 33.3033 45.8118 33.9431 44.181 33.9431C44.0566 33.9431 43.642 33.9289 43.5453 33.9005V32.5711C43.6489 32.5853 43.9046 32.5995 44.0359 32.5995C44.7753 32.5995 45.1899 32.2796 45.4455 31.4479L45.5975 30.9573L42.7644 22.8886H44.5127L46.482 29.436H46.5166L48.4859 22.8886H50.1858L47.249 31.3626Z" fill="black"/>
</g>
<defs>
<filter id="filter0_dd_263_281" x="0" y="0" width="65" height="52" filterUnits="userSpaceOnUse" color-interpolation-filters="sRGB">
<feFlood flood-opacity="0" result="BackgroundImageFix"/>
<feColorMatrix in="SourceAlpha" type="matrix" values="0 0 0 0 0 0 0 0 0 0 0 0 0 0 0 0 0 0 127 0" result="hardAlpha"/>
<feOffset dy="2"/>
<feGaussianBlur stdDeviation="2"/>
<feComposite in2="hardAlpha" operator="out"/>
<feColorMatrix type="matrix" values="0 0 0 0 0 0 0 0 0 0 0 0 0 0 0 0 0 0 0.25 0"/>
<feBlend mode="normal" in2="BackgroundImageFix" result="effect1_dropShadow_263_281"/>
<feColorMatrix in="SourceAlpha" type="matrix" values="0 0 0 0 0 0 0 0 0 0 0 0 0 0 0 0 0 0 127 0" result="hardAlpha"/>
<feOffset dy="-2"/>
<feGaussianBlur stdDeviation="2"/>
<feComposite in2="hardAlpha" operator="out"/>
<feColorMatrix type="matrix" values="0 0 0 0 0 0 0 0 0 0 0 0 0 0 0 0 0 0 0.25 0"/>
<feBlend mode="normal" in2="effect1_dropShadow_263_281" result="effect2_dropShadow_263_281"/>
<feBlend mode="normal" in="SourceGraphic" in2="effect2_dropShadow_263_281" result="shape"/>
</filter>
</defs>
</svg>
