<svg width="65" height="52" viewBox="0 0 65 52" fill="none" xmlns="http://www.w3.org/2000/svg">
<g filter="url(#filter0_dd_263_282)">
<rect x="4.5" y="6.5" width="56" height="39" rx="3.5" fill="white" stroke="#F3F3F3"/>
<path fill-rule="evenodd" clip-rule="evenodd" d="M31.436 30.1182V25.6071V25.6062H33.8343C34.823 25.6068 35.654 25.2907 36.3272 24.6578C37.0076 24.0571 37.3879 23.1935 37.3686 22.2934C37.3821 21.3982 37.0024 20.541 36.3272 19.9422C35.6599 19.3059 34.7625 18.9587 33.8343 18.9778H29.9844V30.1182H31.436ZM31.436 24.2382V20.3494V20.3485H33.8703C34.4129 20.3334 34.9359 20.5487 35.3066 20.9396C35.6796 21.2971 35.89 21.7881 35.89 22.3009C35.89 22.8137 35.6796 23.3048 35.3066 23.6622C34.9314 24.0449 34.41 24.254 33.8703 24.2382H31.436Z" fill="#5F6368"/>
<path fill-rule="evenodd" clip-rule="evenodd" d="M43.2536 23.0951C42.6327 22.5297 41.7858 22.2471 40.7129 22.2471C39.3346 22.2471 38.2938 22.7448 37.5906 23.7404L38.8691 24.5342C39.3415 23.8598 39.9832 23.5226 40.794 23.5226C41.311 23.5167 41.8113 23.703 42.1951 24.0444C42.5779 24.3564 42.798 24.8215 42.7947 25.3111V25.6382C42.2369 25.3271 41.527 25.1715 40.6651 25.1715C39.6553 25.1727 38.848 25.4062 38.2434 25.872C37.6387 26.3377 37.3363 26.965 37.3363 27.7537C37.3232 28.4719 37.6392 29.1577 38.1965 29.6204C38.7699 30.1182 39.4825 30.3671 40.3342 30.3671C41.332 30.3671 42.1314 29.9315 42.7325 29.0604H42.7956V30.1182H44.1841V25.4204C44.1847 24.4355 43.8745 23.6604 43.2536 23.0951ZM39.3163 28.7182C39.0122 28.5021 38.8328 28.1544 38.8348 27.7848C38.8348 27.3697 39.0323 27.024 39.4299 26.7395C39.8236 26.4592 40.3153 26.3191 40.9049 26.3191C41.7146 26.3191 42.3457 26.4968 42.7983 26.8524C42.7983 27.4533 42.5579 27.9768 42.077 28.4231C41.6439 28.8501 41.0567 29.0905 40.4442 29.0915C40.0358 29.099 39.6373 28.9672 39.3163 28.7182Z" fill="#5F6368"/>
<path fill-rule="evenodd" clip-rule="evenodd" d="M52.1559 22.4961L47.3088 33.4783H45.8104L47.6091 29.6356L44.4219 22.4961H45.9997L48.3033 27.9716H48.3349L50.5754 22.4961H52.1559Z" fill="#5F6368"/>
<path fill-rule="evenodd" clip-rule="evenodd" d="M25.5697 24.6348C25.5702 24.1987 25.5328 23.7633 25.4579 23.3335H19.3359V25.7984H22.8423C22.6973 26.5939 22.229 27.2965 21.5458 27.7433V29.3433H23.6384C24.8637 28.2295 25.5697 26.5824 25.5697 24.6348Z" fill="#4285F4"/>
<path fill-rule="evenodd" clip-rule="evenodd" d="M19.3372 30.889C21.089 30.889 22.5641 30.3219 23.6397 29.3441L21.547 27.7441C20.9646 28.1334 20.2145 28.3556 19.3372 28.3556C17.644 28.3556 16.2068 27.2303 15.6929 25.7139H13.5371V27.3628C14.639 29.5245 16.8832 30.8889 19.3372 30.889Z" fill="#34A853"/>
<path fill-rule="evenodd" clip-rule="evenodd" d="M15.6927 25.7139C15.421 24.9193 15.421 24.0588 15.6927 23.2641V21.6152H13.5369C12.6153 23.4233 12.6153 25.5547 13.5369 27.3628L15.6927 25.7139Z" fill="#FBBC04"/>
<path fill-rule="evenodd" clip-rule="evenodd" d="M19.3372 20.6221C20.263 20.6072 21.1575 20.9521 21.8274 21.5821L23.6803 19.7555C22.5054 18.6675 20.9489 18.0702 19.3372 18.0888C16.8832 18.0889 14.639 19.4533 13.5371 21.615L15.6929 23.2639C16.2068 21.7475 17.644 20.6221 19.3372 20.6221Z" fill="#EA4335"/>
</g>
<defs>
<filter id="filter0_dd_263_282" x="0" y="0" width="65" height="52" filterUnits="userSpaceOnUse" color-interpolation-filters="sRGB">
<feFlood flood-opacity="0" result="BackgroundImageFix"/>
<feColorMatrix in="SourceAlpha" type="matrix" values="0 0 0 0 0 0 0 0 0 0 0 0 0 0 0 0 0 0 127 0" result="hardAlpha"/>
<feOffset dy="2"/>
<feGaussianBlur stdDeviation="2"/>
<feComposite in2="hardAlpha" operator="out"/>
<feColorMatrix type="matrix" values="0 0 0 0 0 0 0 0 0 0 0 0 0 0 0 0 0 0 0.25 0"/>
<feBlend mode="normal" in2="BackgroundImageFix" result="effect1_dropShadow_263_282"/>
<feColorMatrix in="SourceAlpha" type="matrix" values="0 0 0 0 0 0 0 0 0 0 0 0 0 0 0 0 0 0 127 0" result="hardAlpha"/>
<feOffset dy="-2"/>
<feGaussianBlur stdDeviation="2"/>
<feComposite in2="hardAlpha" operator="out"/>
<feColorMatrix type="matrix" values="0 0 0 0 0 0 0 0 0 0 0 0 0 0 0 0 0 0 0.25 0"/>
<feBlend mode="normal" in2="effect1_dropShadow_263_282" result="effect2_dropShadow_263_282"/>
<feBlend mode="normal" in="SourceGraphic" in2="effect2_dropShadow_263_282" result="shape"/>
</filter>
</defs>
</svg>
