<svg width="65" height="52" viewBox="0 0 65 52" fill="none" xmlns="http://www.w3.org/2000/svg">
<g filter="url(#filter0_dd_263_283)">
<rect x="4.5" y="6.5" width="56" height="39" rx="3.5" fill="white" stroke="#F3F3F3"/>
<path d="M37.702 32.0848H27.957V14.4038H37.702V32.0848Z" fill="#6C6BBD"/>
<path d="M28.5761 23.2445C28.5761 19.6579 30.2394 16.4629 32.8297 14.404C30.9355 12.8984 28.5449 11.9998 25.9469 11.9998C19.7963 11.9998 14.8105 17.0342 14.8105 23.2445C14.8105 29.4549 19.7963 34.4893 25.9469 34.4893C28.5449 34.4893 30.9355 33.5906 32.8297 32.085C30.2394 30.0261 28.5761 26.8312 28.5761 23.2445" fill="#EB001B"/>
<path d="M50.8499 23.2445C50.8499 29.4549 45.8641 34.4893 39.7136 34.4893C37.1155 34.4893 34.725 33.5906 32.8301 32.085C35.421 30.0261 37.0844 26.8312 37.0844 23.2445C37.0844 19.6579 35.421 16.4629 32.8301 14.404C34.725 12.8984 37.1155 11.9998 39.7136 11.9998C45.8641 11.9998 50.8499 17.0342 50.8499 23.2445" fill="#0099DF"/>
<path d="M40.9989 37.0811C41.1285 37.0811 41.3148 37.1061 41.4571 37.1626L41.2588 37.7746C41.1229 37.7181 40.9869 37.6995 40.8566 37.6995C40.436 37.6995 40.2257 37.974 40.2257 38.4673V40.1416H39.582V37.1562H40.2193V37.5186C40.3864 37.2562 40.6279 37.0811 40.9989 37.0811V37.0811Z" fill="#231F20"/>
<path d="M38.6216 37.7492H37.5701V39.0982C37.5701 39.3977 37.6749 39.5979 37.9971 39.5979C38.1642 39.5979 38.3745 39.5414 38.5657 39.4292L38.7512 39.9847C38.5473 40.1284 38.2258 40.2163 37.9475 40.2163C37.1863 40.2163 36.9208 39.8038 36.9208 39.1104V37.7492H36.3203V37.1558H36.9208V36.25H37.5701V37.1558H38.6216V37.7492Z" fill="#231F20"/>
<path fill-rule="evenodd" clip-rule="evenodd" d="M31.185 37.0811C32.0142 37.0811 32.5835 37.718 32.5899 38.6488C32.5899 38.7354 32.5836 38.8155 32.5773 38.8964L32.5772 38.8983H30.3813C30.4741 39.4352 30.8515 39.629 31.2658 39.629C31.5625 39.629 31.8783 39.5167 32.1254 39.3166L32.4412 39.7977C32.0822 40.1037 31.6743 40.2159 31.2289 40.2159C30.3438 40.2159 29.7129 39.5975 29.7129 38.6488C29.7129 37.718 30.319 37.0811 31.185 37.0811ZM31.173 37.6616C30.7149 37.6616 30.4557 37.9554 30.387 38.3865H31.9215C31.8535 37.9239 31.5872 37.6616 31.173 37.6616Z" fill="#231F20"/>
<path d="M35.4172 37.9179C35.238 37.8049 34.8734 37.6612 34.4959 37.6612C34.1433 37.6612 33.933 37.7928 33.933 38.0115C33.933 38.211 34.1553 38.2675 34.4336 38.3047L34.7367 38.3483C35.3804 38.4426 35.7698 38.7172 35.7698 39.2419C35.7698 39.8102 35.2749 40.2163 34.4216 40.2163C33.9387 40.2163 33.4933 40.0912 33.1406 39.8288L33.4437 39.3227C33.6604 39.4914 33.9826 39.6351 34.428 39.6351C34.867 39.6351 35.1021 39.5043 35.1021 39.2726C35.1021 39.1046 34.935 39.0103 34.5823 38.9609L34.2793 38.9173C33.6172 38.823 33.2582 38.5234 33.2582 38.0366C33.2582 37.4432 33.7411 37.0807 34.4896 37.0807C34.9597 37.0807 35.3867 37.1873 35.6955 37.3932L35.4172 37.9179V37.9179Z" fill="#231F20"/>
<path fill-rule="evenodd" clip-rule="evenodd" d="M43.988 37.2019C43.7925 37.1211 43.5801 37.0811 43.3507 37.0811C43.1213 37.0811 42.9088 37.1211 42.7134 37.2019C42.518 37.2819 42.3501 37.3928 42.2085 37.5336C42.0669 37.6744 41.9557 37.841 41.875 38.0326C41.7943 38.2249 41.7539 38.4337 41.7539 38.6588C41.7539 38.884 41.7943 39.0928 41.875 39.2851C41.9557 39.4767 42.0669 39.644 42.2085 39.7848C42.3501 39.9257 42.518 40.0358 42.7134 40.1165C42.9088 40.1966 43.1213 40.2366 43.3507 40.2366C43.5801 40.2366 43.7925 40.1966 43.988 40.1165C44.1834 40.0358 44.3526 39.9257 44.495 39.7848C44.638 39.644 44.7492 39.4767 44.8299 39.2851C44.9106 39.0928 44.951 38.884 44.951 38.6588C44.951 38.4337 44.9106 38.2249 44.8299 38.0326C44.7492 37.841 44.638 37.6744 44.495 37.5336C44.3526 37.3928 44.1834 37.2819 43.988 37.2019ZM42.9818 37.7681C43.0958 37.7216 43.2183 37.698 43.3507 37.698C43.4831 37.698 43.6063 37.7216 43.7196 37.7681C43.8336 37.8153 43.9327 37.881 44.0156 37.9654C44.0999 38.0497 44.165 38.1513 44.2132 38.2692C44.2606 38.3872 44.284 38.5173 44.284 38.6588C44.284 38.8011 44.2606 38.9305 44.2132 39.0485C44.165 39.1664 44.0999 39.2679 44.0156 39.3523C43.9327 39.4367 43.8336 39.5024 43.7196 39.5496C43.6063 39.5968 43.4831 39.6197 43.3507 39.6197C43.2183 39.6197 43.0958 39.5968 42.9818 39.5496C42.8685 39.5024 42.77 39.4367 42.6872 39.3523C42.6043 39.2679 42.5392 39.1664 42.4918 39.0485C42.4443 38.9305 42.4209 38.8011 42.4209 38.6588C42.4209 38.5173 42.4443 38.3872 42.4918 38.2692C42.5392 38.1513 42.6043 38.0497 42.6872 37.9654C42.77 37.881 42.8685 37.8153 42.9818 37.7681Z" fill="#231F20"/>
<path fill-rule="evenodd" clip-rule="evenodd" d="M29.0223 37.1561V38.6488V40.1416H28.3793V39.7791C28.1747 40.0479 27.8659 40.2166 27.4453 40.2166C26.6161 40.2166 25.9668 39.5603 25.9668 38.6488C25.9668 37.7366 26.6161 37.0811 27.4453 37.0811C27.8659 37.0811 28.1747 37.2498 28.3793 37.5186V37.1561H29.0223ZM27.5253 37.693C26.9688 37.693 26.6282 38.1241 26.6282 38.6488C26.6282 39.1736 26.9688 39.604 27.5253 39.604C28.0571 39.604 28.4161 39.1922 28.4161 38.6488C28.4161 38.1055 28.0571 37.693 27.5253 37.693Z" fill="#231F20"/>
<path d="M25.3981 40.1416V38.2678C25.3981 37.5622 24.9527 37.0875 24.2353 37.0811C23.8579 37.0747 23.4678 37.1933 23.1958 37.6123C22.9919 37.2813 22.6697 37.0811 22.218 37.0811C21.9028 37.0811 21.5934 37.1748 21.3519 37.5243V37.1562H20.709V40.1416H21.3583V38.4866C21.3583 37.9683 21.643 37.6931 22.082 37.6931C22.509 37.6931 22.7257 37.974 22.7257 38.4802V40.1416H23.375V38.4866C23.375 37.9683 23.6724 37.6931 24.0987 37.6931C24.5384 37.6931 24.7487 37.974 24.7487 38.4802V40.1416H25.3981V40.1416Z" fill="#231F20"/>
</g>
<defs>
<filter id="filter0_dd_263_283" x="0" y="0" width="65" height="52" filterUnits="userSpaceOnUse" color-interpolation-filters="sRGB">
<feFlood flood-opacity="0" result="BackgroundImageFix"/>
<feColorMatrix in="SourceAlpha" type="matrix" values="0 0 0 0 0 0 0 0 0 0 0 0 0 0 0 0 0 0 127 0" result="hardAlpha"/>
<feOffset dy="2"/>
<feGaussianBlur stdDeviation="2"/>
<feComposite in2="hardAlpha" operator="out"/>
<feColorMatrix type="matrix" values="0 0 0 0 0 0 0 0 0 0 0 0 0 0 0 0 0 0 0.25 0"/>
<feBlend mode="normal" in2="BackgroundImageFix" result="effect1_dropShadow_263_283"/>
<feColorMatrix in="SourceAlpha" type="matrix" values="0 0 0 0 0 0 0 0 0 0 0 0 0 0 0 0 0 0 127 0" result="hardAlpha"/>
<feOffset dy="-2"/>
<feGaussianBlur stdDeviation="2"/>
<feComposite in2="hardAlpha" operator="out"/>
<feColorMatrix type="matrix" values="0 0 0 0 0 0 0 0 0 0 0 0 0 0 0 0 0 0 0.25 0"/>
<feBlend mode="normal" in2="effect1_dropShadow_263_283" result="effect2_dropShadow_263_283"/>
<feBlend mode="normal" in="SourceGraphic" in2="effect2_dropShadow_263_283" result="shape"/>
</filter>
</defs>
</svg>
