<svg width="65" height="52" viewBox="0 0 65 52" fill="none" xmlns="http://www.w3.org/2000/svg">
<g filter="url(#filter0_dd_263_97)">
<rect x="4.5" y="6.5" width="56" height="39" rx="3.5" fill="white" stroke="#F3F3F3"/>
<path fill-rule="evenodd" clip-rule="evenodd" d="M24.8825 36.8905V38.3673V39.8442H24.2464V39.4856C24.0446 39.7515 23.7385 39.9185 23.3223 39.9185C22.5019 39.9185 21.8588 39.2699 21.8588 38.3673C21.8588 37.4655 22.5019 36.8162 23.3223 36.8162C23.7385 36.8162 24.0446 36.9831 24.2464 37.2491V36.8905H24.8825ZM23.4015 37.4216C22.8508 37.4216 22.5138 37.8482 22.5138 38.3673C22.5138 38.8865 22.8508 39.313 23.4015 39.313C23.9276 39.313 24.2828 38.9049 24.2828 38.3673C24.2828 37.8298 23.9276 37.4216 23.4015 37.4216ZM46.3792 38.3673C46.3792 37.8482 46.7162 37.4216 47.2669 37.4216C47.7937 37.4216 48.1482 37.8298 48.1482 38.3673C48.1482 38.9049 47.7937 39.313 47.2669 39.313C46.7162 39.313 46.3792 38.8865 46.3792 38.3673ZM48.7486 35.7043V38.3673V39.8442H48.1118V39.4856C47.91 39.7515 47.6039 39.9185 47.1877 39.9185C46.3673 39.9185 45.7242 39.2699 45.7242 38.3673C45.7242 37.4655 46.3673 36.8162 47.1877 36.8162C47.6039 36.8162 47.91 36.9831 48.1118 37.2491V35.7043L48.7486 35.7043ZM32.7788 37.3912C33.1886 37.3912 33.4521 37.6508 33.5193 38.1077H32.0012C32.0691 37.6812 32.3255 37.3912 32.7788 37.3912ZM31.3342 38.3673C31.3342 37.4464 31.9339 36.8162 32.7914 36.8162C33.6111 36.8162 34.1744 37.4464 34.1807 38.3673C34.1807 38.4536 34.1744 38.5342 34.1681 38.6142H31.9955C32.0873 39.1461 32.4607 39.3378 32.8706 39.3378C33.1641 39.3378 33.4766 39.226 33.7218 39.0287L34.0336 39.5047C33.6784 39.8074 33.2748 39.9185 32.8341 39.9185C31.9584 39.9185 31.3342 39.3066 31.3342 38.3673ZM40.4726 38.3673C40.4726 37.8482 40.8096 37.4216 41.3603 37.4216C41.8864 37.4216 42.2416 37.8298 42.2416 38.3673C42.2416 38.9049 41.8864 39.313 41.3603 39.313C40.8096 39.313 40.4726 38.8865 40.4726 38.3673ZM42.8413 36.8905V38.3673V39.8442H42.2052V39.4856C42.0027 39.7515 41.6972 39.9185 41.2811 39.9185C40.4607 39.9185 39.8176 39.2699 39.8176 38.3673C39.8176 37.4655 40.4607 36.8162 41.2811 36.8162C41.6972 36.8162 42.0027 36.9831 42.2052 37.2491V36.8905H42.8413ZM36.88 38.3673C36.88 39.2635 37.4979 39.9185 38.4409 39.9185C38.8816 39.9185 39.1751 39.8194 39.4932 39.5662L39.1877 39.047C38.9488 39.2203 38.698 39.313 38.422 39.313C37.9141 39.3066 37.5407 38.936 37.5407 38.3673C37.5407 37.7986 37.9141 37.428 38.422 37.4216C38.698 37.4216 38.9488 37.5143 39.1877 37.6876L39.4932 37.1684C39.1751 36.9152 38.8816 36.8162 38.4409 36.8162C37.4979 36.8162 36.88 37.4712 36.88 38.3673ZM44.3104 37.2491C44.4758 36.9895 44.7147 36.8162 45.0818 36.8162C45.2107 36.8162 45.3942 36.8409 45.535 36.8968L45.3389 37.5023C45.2044 37.4464 45.0699 37.428 44.9409 37.428C44.5248 37.428 44.3167 37.6996 44.3167 38.1884V39.8442H43.6799V36.8905H44.3104V37.2491ZM28.0288 37.1253C27.7227 36.9216 27.3009 36.8162 26.8357 36.8162C26.0945 36.8162 25.6174 37.1748 25.6174 37.7619C25.6174 38.2435 25.9726 38.5406 26.627 38.6333L26.9275 38.6764C27.2764 38.7259 27.441 38.8186 27.441 38.9855C27.441 39.214 27.2085 39.3441 26.7741 39.3441C26.3334 39.3441 26.0154 39.2019 25.801 39.035L25.5011 39.5351C25.85 39.7947 26.2907 39.9185 26.7678 39.9185C27.6127 39.9185 28.1024 39.5167 28.1024 38.9544C28.1024 38.4352 27.7171 38.1636 27.0802 38.071L26.7804 38.0271C26.5051 37.9903 26.2844 37.9352 26.2844 37.7371C26.2844 37.5207 26.4925 37.3912 26.8413 37.3912C27.2148 37.3912 27.5763 37.5334 27.7535 37.6444L28.0288 37.1253ZM35.4662 37.2491C35.6309 36.9895 35.8698 36.8162 36.2369 36.8162C36.3658 36.8162 36.5493 36.8409 36.6902 36.8968L36.494 37.5023C36.3595 37.4464 36.225 37.428 36.0961 37.428C35.6799 37.428 35.4718 37.6996 35.4718 38.1884V39.8442H34.8357V36.8905H35.4662V37.2491ZM30.8081 36.8905H29.7677V35.9943H29.1246V36.8905H28.5312V37.4775H29.1246V38.825C29.1246 39.5103 29.388 39.9185 30.1404 39.9185C30.4164 39.9185 30.7345 39.8322 30.9363 39.69L30.7527 39.1397C30.5629 39.2508 30.3548 39.3066 30.1894 39.3066C29.8714 39.3066 29.7677 39.1086 29.7677 38.8122V37.4775H30.8081V36.8905ZM21.2962 37.9903V39.8442H20.6531V38.2004C20.6531 37.6996 20.445 37.4216 20.0106 37.4216C19.5882 37.4216 19.2947 37.694 19.2947 38.2068V39.8442H18.6515V38.2004C18.6515 37.6996 18.4378 37.4216 18.0154 37.4216C17.5803 37.4216 17.2987 37.694 17.2987 38.2068V39.8442H16.6562V36.8905H17.2931V37.2547C17.532 36.9088 17.8374 36.8162 18.1499 36.8162C18.5969 36.8162 18.9149 37.0142 19.1167 37.3417C19.3864 36.9272 19.7717 36.8098 20.1452 36.8162C20.8556 36.8226 21.2962 37.2922 21.2962 37.9903Z" fill="#231F20"/>
<path d="M37.4598 31.8717H27.8184V14.3784H37.4598V31.8717Z" fill="#FF5F00"/>
<path d="M28.4299 23.1252C28.4299 19.5766 30.0756 16.4156 32.6383 14.3785C30.7643 12.8889 28.3991 11.9999 25.8286 11.9999C19.7434 11.9999 14.8105 16.9808 14.8105 23.1252C14.8105 29.2696 19.7434 34.2505 25.8286 34.2505C28.3991 34.2505 30.7643 33.3614 32.6383 31.8718C30.0756 29.8347 28.4299 26.6738 28.4299 23.1252" fill="#EB001B"/>
<path d="M50.4671 23.1252C50.4671 29.2696 45.5343 34.2505 39.4491 34.2505C36.8786 34.2505 34.5134 33.3614 32.6387 31.8718C35.2021 29.8347 36.8478 26.6738 36.8478 23.1252C36.8478 19.5766 35.2021 16.4156 32.6387 14.3785C34.5134 12.8889 36.8786 11.9999 39.4491 11.9999C45.5343 11.9999 50.4671 16.9808 50.4671 23.1252" fill="#F79E1B"/>
</g>
<defs>
<filter id="filter0_dd_263_97" x="0" y="0" width="65" height="52" filterUnits="userSpaceOnUse" color-interpolation-filters="sRGB">
<feFlood flood-opacity="0" result="BackgroundImageFix"/>
<feColorMatrix in="SourceAlpha" type="matrix" values="0 0 0 0 0 0 0 0 0 0 0 0 0 0 0 0 0 0 127 0" result="hardAlpha"/>
<feOffset dy="2"/>
<feGaussianBlur stdDeviation="2"/>
<feComposite in2="hardAlpha" operator="out"/>
<feColorMatrix type="matrix" values="0 0 0 0 0 0 0 0 0 0 0 0 0 0 0 0 0 0 0.25 0"/>
<feBlend mode="normal" in2="BackgroundImageFix" result="effect1_dropShadow_263_97"/>
<feColorMatrix in="SourceAlpha" type="matrix" values="0 0 0 0 0 0 0 0 0 0 0 0 0 0 0 0 0 0 127 0" result="hardAlpha"/>
<feOffset dy="-2"/>
<feGaussianBlur stdDeviation="2"/>
<feComposite in2="hardAlpha" operator="out"/>
<feColorMatrix type="matrix" values="0 0 0 0 0 0 0 0 0 0 0 0 0 0 0 0 0 0 0.25 0"/>
<feBlend mode="normal" in2="effect1_dropShadow_263_97" result="effect2_dropShadow_263_97"/>
<feBlend mode="normal" in="SourceGraphic" in2="effect2_dropShadow_263_97" result="shape"/>
</filter>
</defs>
</svg>
