<svg width="65" height="52" viewBox="0 0 65 52" fill="none" xmlns="http://www.w3.org/2000/svg">
<g filter="url(#filter0_dd_263_139)">
<rect x="4.5" y="6.5" width="56" height="39" rx="3.5" fill="white" stroke="#F3F3F3"/>
<path d="M29.3086 33.4333H25.5137L27.8873 19.4326H31.682L29.3086 33.4333Z" fill="#15195A"/>
<path d="M43.0653 19.7748C42.3168 19.4915 41.1296 19.1787 39.6616 19.1787C35.914 19.1787 33.275 21.0851 33.2588 23.8106C33.2277 25.8215 35.1483 26.9384 36.5847 27.6089C38.0529 28.2941 38.552 28.7413 38.552 29.352C38.537 30.29 37.3656 30.7223 36.273 30.7223C34.7579 30.7223 33.9461 30.4994 32.7124 29.9776L32.2127 29.7539L31.6816 32.8967C32.5717 33.2835 34.2115 33.6268 35.914 33.6419C39.8959 33.6419 42.4882 31.765 42.5189 28.8605C42.5341 27.2667 41.5199 26.0454 39.3335 25.0475C38.0062 24.4069 37.1934 23.9749 37.1934 23.3195C37.2089 22.7236 37.8809 22.1133 39.3792 22.1133C40.6129 22.0834 41.5193 22.3663 42.206 22.6494L42.5492 22.7981L43.0653 19.7748V19.7748V19.7748Z" fill="#15195A"/>
<path fill-rule="evenodd" clip-rule="evenodd" d="M49.8567 19.4326H52.792L55.8535 33.4331H52.3398C52.3398 33.4331 51.996 31.8245 51.887 31.3329H47.0147C46.8738 31.7051 46.2182 33.4331 46.2182 33.4331H42.2363L47.8732 20.5943C48.2637 19.6856 48.9515 19.4326 49.8567 19.4326ZM49.6228 24.5561C49.6228 24.5561 48.4202 27.669 48.1077 28.4734H51.262C51.1059 27.7734 50.3873 24.4221 50.3873 24.4221L50.1221 23.2157C50.0104 23.5263 49.8489 23.9534 49.7399 24.2415C49.6661 24.4368 49.6164 24.5682 49.6228 24.5561Z" fill="#15195A"/>
<path fill-rule="evenodd" clip-rule="evenodd" d="M9.07028 19.4326H15.1759C16.0035 19.4621 16.675 19.7153 16.8935 20.6095L18.2205 27.0423C18.2206 27.0427 18.2207 27.0431 18.2208 27.0435L18.627 28.9798L22.3434 19.4326H26.3562L20.3913 33.4185H16.3783L12.9959 21.2531C11.8289 20.6022 10.497 20.0788 9.00781 19.7155L9.07028 19.4326Z" fill="#15195A"/>
<path fill-rule="evenodd" clip-rule="evenodd" d="M36.7853 41.0701C36.7349 41.0794 36.6707 41.0841 36.5927 41.0841C36.3771 41.0841 36.2235 41.0188 36.1318 40.8881C36.0401 40.7574 35.9942 40.5661 35.9942 40.3141V36.0161H36.5583V40.3561C36.5583 40.4494 36.5743 40.5148 36.6064 40.5521C36.6386 40.5894 36.6752 40.6081 36.7165 40.6081H36.7681C36.7842 40.6081 36.8082 40.6034 36.8403 40.5941L36.916 41.0281C36.8793 41.0468 36.8358 41.0608 36.7853 41.0701ZM35.093 40.5031V41.0001H32.4238V36.4081H35.0242V36.8981H32.9948V38.3401H34.7078V38.8371H32.9948V40.5031H35.093ZM39.1036 41.0841C39.3329 41.0841 39.537 41.0491 39.7159 40.9791C39.8948 40.9091 40.0576 40.8274 40.2043 40.7341L40.0048 40.3561C39.881 40.4354 39.7514 40.4996 39.6161 40.5486C39.4809 40.5976 39.3329 40.6221 39.1724 40.6221C38.8514 40.6221 38.5911 40.5159 38.3916 40.3036C38.1921 40.0913 38.0809 39.8031 38.058 39.4391H40.3144C40.3236 39.3971 40.3293 39.3469 40.3316 39.2886C40.3339 39.2303 40.335 39.1708 40.335 39.1101C40.335 38.8674 40.3052 38.6481 40.2456 38.4521C40.186 38.2561 40.1 38.0881 39.9876 37.9481C39.8753 37.8081 39.7354 37.7008 39.568 37.6261C39.4006 37.5514 39.2114 37.5141 39.0004 37.5141C38.8078 37.5141 38.6221 37.5549 38.4432 37.6366C38.2644 37.7183 38.105 37.8361 37.9651 37.9901C37.8252 38.1441 37.7129 38.3319 37.628 38.5536C37.5432 38.7753 37.5008 39.0261 37.5008 39.3061C37.5008 39.5861 37.542 39.8358 37.6246 40.0551C37.7071 40.2744 37.8206 40.4599 37.9651 40.6116C38.1096 40.7633 38.2793 40.8799 38.4742 40.9616C38.6691 41.0433 38.8789 41.0841 39.1036 41.0841ZM38.0511 39.0261H39.8397C39.8397 38.6808 39.7675 38.4183 39.623 38.2386C39.4786 38.0589 39.2756 37.9691 39.0142 37.9691C38.895 37.9691 38.7815 37.9924 38.6737 38.0391C38.5659 38.0858 38.4684 38.1546 38.3813 38.2456C38.2942 38.3366 38.2219 38.4474 38.1646 38.5781C38.1073 38.7088 38.0694 38.8581 38.0511 39.0261ZM42.4814 41.0841C42.6832 41.0841 42.8758 41.0456 43.0592 40.9686C43.2427 40.8916 43.4101 40.7854 43.5614 40.6501L43.3138 40.2651C43.2083 40.3584 43.0902 40.4389 42.9595 40.5066C42.8288 40.5743 42.6855 40.6081 42.5295 40.6081C42.3782 40.6081 42.2383 40.5766 42.1099 40.5136C41.9815 40.4506 41.8726 40.3619 41.7831 40.2476C41.6937 40.1333 41.6238 39.9968 41.5733 39.8381C41.5229 39.6794 41.4976 39.5021 41.4976 39.3061C41.4976 39.1101 41.524 38.9316 41.5768 38.7706C41.6295 38.6096 41.7017 38.4708 41.7934 38.3541C41.8852 38.2374 41.9952 38.1476 42.1237 38.0846C42.2521 38.0216 42.392 37.9901 42.5433 37.9901C42.6763 37.9901 42.7967 38.0181 42.9045 38.0741C43.0122 38.1301 43.1143 38.2024 43.2106 38.2911L43.4995 37.9131C43.3803 37.8058 43.2427 37.7124 43.0868 37.6331C42.9308 37.5538 42.7428 37.5141 42.5227 37.5141C42.3071 37.5141 42.1019 37.5538 41.907 37.6331C41.712 37.7124 41.5412 37.8291 41.3944 37.9831C41.2477 38.1371 41.1307 38.3249 41.0436 38.5466C40.9565 38.7683 40.9129 39.0214 40.9129 39.3061C40.9129 39.5861 40.953 39.8369 41.0333 40.0586C41.1135 40.2803 41.2236 40.4669 41.3635 40.6186C41.5034 40.7703 41.6696 40.8858 41.8622 40.9651C42.0549 41.0444 42.2612 41.0841 42.4814 41.0841ZM45.6011 41.0456C45.4934 41.0713 45.3867 41.0841 45.2813 41.0841C45.1024 41.0841 44.9522 41.0561 44.8307 41.0001C44.7091 40.9441 44.6105 40.8671 44.5349 40.7691C44.4592 40.6711 44.4053 40.5521 44.3732 40.4121C44.3411 40.2721 44.325 40.1181 44.325 39.9501V38.0671H43.8297V37.6331L44.3526 37.5981L44.4213 36.6461H44.896V37.5981H45.7972V38.0671H44.896V39.9571C44.896 40.1671 44.9339 40.3293 45.0095 40.4436C45.0852 40.5579 45.2193 40.6151 45.412 40.6151C45.4716 40.6151 45.5358 40.6058 45.6046 40.5871C45.6734 40.5684 45.7353 40.5474 45.7903 40.5241L45.9004 40.9581C45.8087 40.9908 45.7089 41.0199 45.6011 41.0456ZM47.118 41.0001V38.8161C47.2327 38.5268 47.3668 38.3238 47.5205 38.2071C47.6741 38.0904 47.822 38.0321 47.9642 38.0321C48.033 38.0321 48.0903 38.0368 48.1362 38.0461C48.182 38.0554 48.2325 38.0694 48.2875 38.0881L48.3976 37.5841C48.2921 37.5374 48.1729 37.5141 48.0399 37.5141C47.8472 37.5141 47.6695 37.5771 47.5067 37.7031C47.3439 37.8291 47.2052 37.9994 47.0905 38.2141H47.0699L47.0217 37.5981H46.5539V41.0001H47.118ZM50.7606 40.9651C50.5749 41.0444 50.3788 41.0841 50.1725 41.0841C49.9661 41.0841 49.77 41.0444 49.5843 40.9651C49.3985 40.8858 49.2346 40.7703 49.0924 40.6186C48.9502 40.4669 48.8367 40.2803 48.7519 40.0586C48.667 39.8369 48.6246 39.5861 48.6246 39.3061C48.6246 39.0214 48.667 38.7683 48.7519 38.5466C48.8367 38.3249 48.9502 38.1371 49.0924 37.9831C49.2346 37.8291 49.3985 37.7124 49.5843 37.6331C49.77 37.5538 49.9661 37.5141 50.1725 37.5141C50.3788 37.5141 50.5749 37.5538 50.7606 37.6331C50.9464 37.7124 51.1103 37.8291 51.2525 37.9831C51.3947 38.1371 51.5082 38.3249 51.593 38.5466C51.6779 38.7683 51.7203 39.0214 51.7203 39.3061C51.7203 39.5861 51.6779 39.8369 51.593 40.0586C51.5082 40.2803 51.3947 40.4669 51.2525 40.6186C51.1103 40.7703 50.9464 40.8858 50.7606 40.9651ZM50.1724 40.6081C50.0303 40.6081 49.8996 40.5766 49.7803 40.5136C49.6611 40.4506 49.559 40.3619 49.4742 40.2476C49.3894 40.1333 49.324 39.9968 49.2781 39.8381C49.2323 39.6794 49.2093 39.5021 49.2093 39.3061C49.2093 39.1101 49.2323 38.9316 49.2781 38.7706C49.324 38.6096 49.3894 38.4708 49.4742 38.3541C49.559 38.2374 49.6611 38.1476 49.7803 38.0846C49.8996 38.0216 50.0303 37.9901 50.1724 37.9901C50.3146 37.9901 50.4453 38.0216 50.5646 38.0846C50.6838 38.1476 50.7859 38.2374 50.8707 38.3541C50.9555 38.4708 51.0209 38.6096 51.0668 38.7706C51.1126 38.9316 51.1356 39.1101 51.1356 39.3061C51.1356 39.5021 51.1126 39.6794 51.0668 39.8381C51.0209 39.9968 50.9555 40.1333 50.8707 40.2476C50.7859 40.3619 50.6838 40.4506 50.5646 40.5136C50.4453 40.5766 50.3146 40.6081 50.1724 40.6081ZM53.165 38.5361V41.0001H52.6008V37.5981H53.0686L53.1168 38.0881H53.1374C53.298 37.9248 53.4665 37.7883 53.6431 37.6786C53.8196 37.5689 54.0249 37.5141 54.2588 37.5141C54.6119 37.5141 54.8699 37.6261 55.0327 37.8501C55.1955 38.0741 55.2769 38.4054 55.2769 38.8441V41.0001H54.7128V38.9211C54.7128 38.5991 54.6623 38.3669 54.5615 38.2246C54.4606 38.0823 54.3 38.0111 54.0799 38.0111C53.9056 38.0111 53.752 38.0554 53.619 38.1441C53.486 38.2328 53.3346 38.3634 53.165 38.5361Z" fill="#15195A"/>
</g>
<defs>
<filter id="filter0_dd_263_139" x="0" y="0" width="65" height="52" filterUnits="userSpaceOnUse" color-interpolation-filters="sRGB">
<feFlood flood-opacity="0" result="BackgroundImageFix"/>
<feColorMatrix in="SourceAlpha" type="matrix" values="0 0 0 0 0 0 0 0 0 0 0 0 0 0 0 0 0 0 127 0" result="hardAlpha"/>
<feOffset dy="2"/>
<feGaussianBlur stdDeviation="2"/>
<feComposite in2="hardAlpha" operator="out"/>
<feColorMatrix type="matrix" values="0 0 0 0 0 0 0 0 0 0 0 0 0 0 0 0 0 0 0.25 0"/>
<feBlend mode="normal" in2="BackgroundImageFix" result="effect1_dropShadow_263_139"/>
<feColorMatrix in="SourceAlpha" type="matrix" values="0 0 0 0 0 0 0 0 0 0 0 0 0 0 0 0 0 0 127 0" result="hardAlpha"/>
<feOffset dy="-2"/>
<feGaussianBlur stdDeviation="2"/>
<feComposite in2="hardAlpha" operator="out"/>
<feColorMatrix type="matrix" values="0 0 0 0 0 0 0 0 0 0 0 0 0 0 0 0 0 0 0.25 0"/>
<feBlend mode="normal" in2="effect1_dropShadow_263_139" result="effect2_dropShadow_263_139"/>
<feBlend mode="normal" in="SourceGraphic" in2="effect2_dropShadow_263_139" result="shape"/>
</filter>
</defs>
</svg>
